G04 #@! TF.GenerationSoftware,KiCad,Pcbnew,(5.1.9)-1*
G04 #@! TF.CreationDate,2021-04-07T16:03:49-07:00*
G04 #@! TF.ProjectId,pressure_XGZP6897A,70726573-7375-4726-955f-58475a503638,1*
G04 #@! TF.SameCoordinates,Original*
G04 #@! TF.FileFunction,Copper,L1,Top*
G04 #@! TF.FilePolarity,Positive*
%FSLAX45Y45*%
G04 Gerber Fmt 4.5, Leading zero omitted, Abs format (unit mm)*
G04 Created by KiCad (PCBNEW (5.1.9)-1) date 2021-04-07 16:03:49*
%MOMM*%
%LPD*%
G01*
G04 APERTURE LIST*
G04 #@! TA.AperFunction,SMDPad,CuDef*
%ADD10R,2.540000X1.520000*%
G04 #@! TD*
G04 #@! TA.AperFunction,SMDPad,CuDef*
%ADD11R,1.500000X2.100000*%
G04 #@! TD*
G04 #@! TA.AperFunction,SMDPad,CuDef*
%ADD12R,2.100000X1.500000*%
G04 #@! TD*
G04 #@! TA.AperFunction,ComponentPad*
%ADD13C,5.400000*%
G04 #@! TD*
G04 #@! TA.AperFunction,ComponentPad*
%ADD14C,0.800000*%
G04 #@! TD*
G04 #@! TA.AperFunction,ViaPad*
%ADD15C,0.600000*%
G04 #@! TD*
G04 #@! TA.AperFunction,Conductor*
%ADD16C,0.500000*%
G04 #@! TD*
G04 #@! TA.AperFunction,Conductor*
%ADD17C,1.000000*%
G04 #@! TD*
G04 #@! TA.AperFunction,Conductor*
%ADD18C,0.200000*%
G04 #@! TD*
%ADD19C,0.300000*%
%ADD20C,0.350000*%
G04 APERTURE END LIST*
D10*
X2777000Y-569000D03*
X2777000Y-823000D03*
X2777000Y-1077000D03*
X2777000Y-1331000D03*
X1823000Y-1331000D03*
X1823000Y-1077000D03*
X1823000Y-823000D03*
X1823000Y-569000D03*
D11*
X219000Y-1065000D03*
X727000Y-1065000D03*
X473000Y-1435000D03*
X981000Y-1435000D03*
D12*
X3960000Y-869000D03*
X3960000Y-1377000D03*
X3590000Y-1123000D03*
X3590000Y-1631000D03*
D13*
X3775000Y-2125000D03*
D14*
X3977500Y-2125000D03*
X3918189Y-2268189D03*
X3775000Y-2327500D03*
X3631811Y-2268189D03*
X3572500Y-2125000D03*
X3631811Y-1981811D03*
X3775000Y-1922500D03*
X3918189Y-1981811D03*
D13*
X3775000Y-375000D03*
D14*
X3977500Y-375000D03*
X3918189Y-518189D03*
X3775000Y-577500D03*
X3631811Y-518189D03*
X3572500Y-375000D03*
X3631811Y-231811D03*
X3775000Y-172500D03*
X3918189Y-231811D03*
D13*
X350000Y-2025000D03*
D14*
X552500Y-2025000D03*
X493189Y-2168189D03*
X350000Y-2227500D03*
X206811Y-2168189D03*
X147500Y-2025000D03*
X206811Y-1881811D03*
X350000Y-1822500D03*
X493189Y-1881811D03*
D13*
X350000Y-475000D03*
D14*
X552500Y-475000D03*
X493189Y-618189D03*
X350000Y-677500D03*
X206811Y-618189D03*
X147500Y-475000D03*
X206811Y-331811D03*
X350000Y-272500D03*
X493189Y-331811D03*
G04 #@! TA.AperFunction,SMDPad,CuDef*
G36*
G01*
X2575625Y-1815000D02*
X2524375Y-1815000D01*
G75*
G02*
X2502500Y-1793125I0J21875D01*
G01*
X2502500Y-1749375D01*
G75*
G02*
X2524375Y-1727500I21875J0D01*
G01*
X2575625Y-1727500D01*
G75*
G02*
X2597500Y-1749375I0J-21875D01*
G01*
X2597500Y-1793125D01*
G75*
G02*
X2575625Y-1815000I-21875J0D01*
G01*
G37*
G04 #@! TD.AperFunction*
G04 #@! TA.AperFunction,SMDPad,CuDef*
G36*
G01*
X2575625Y-1972500D02*
X2524375Y-1972500D01*
G75*
G02*
X2502500Y-1950625I0J21875D01*
G01*
X2502500Y-1906875D01*
G75*
G02*
X2524375Y-1885000I21875J0D01*
G01*
X2575625Y-1885000D01*
G75*
G02*
X2597500Y-1906875I0J-21875D01*
G01*
X2597500Y-1950625D01*
G75*
G02*
X2575625Y-1972500I-21875J0D01*
G01*
G37*
G04 #@! TD.AperFunction*
G04 #@! TA.AperFunction,SMDPad,CuDef*
G36*
G01*
X2215000Y-1724375D02*
X2215000Y-1775625D01*
G75*
G02*
X2193125Y-1797500I-21875J0D01*
G01*
X2149375Y-1797500D01*
G75*
G02*
X2127500Y-1775625I0J21875D01*
G01*
X2127500Y-1724375D01*
G75*
G02*
X2149375Y-1702500I21875J0D01*
G01*
X2193125Y-1702500D01*
G75*
G02*
X2215000Y-1724375I0J-21875D01*
G01*
G37*
G04 #@! TD.AperFunction*
G04 #@! TA.AperFunction,SMDPad,CuDef*
G36*
G01*
X2372500Y-1724375D02*
X2372500Y-1775625D01*
G75*
G02*
X2350625Y-1797500I-21875J0D01*
G01*
X2306875Y-1797500D01*
G75*
G02*
X2285000Y-1775625I0J21875D01*
G01*
X2285000Y-1724375D01*
G75*
G02*
X2306875Y-1702500I21875J0D01*
G01*
X2350625Y-1702500D01*
G75*
G02*
X2372500Y-1724375I0J-21875D01*
G01*
G37*
G04 #@! TD.AperFunction*
G04 #@! TA.AperFunction,SMDPad,CuDef*
G36*
G01*
X2775625Y-1815000D02*
X2724375Y-1815000D01*
G75*
G02*
X2702500Y-1793125I0J21875D01*
G01*
X2702500Y-1749375D01*
G75*
G02*
X2724375Y-1727500I21875J0D01*
G01*
X2775625Y-1727500D01*
G75*
G02*
X2797500Y-1749375I0J-21875D01*
G01*
X2797500Y-1793125D01*
G75*
G02*
X2775625Y-1815000I-21875J0D01*
G01*
G37*
G04 #@! TD.AperFunction*
G04 #@! TA.AperFunction,SMDPad,CuDef*
G36*
G01*
X2775625Y-1972500D02*
X2724375Y-1972500D01*
G75*
G02*
X2702500Y-1950625I0J21875D01*
G01*
X2702500Y-1906875D01*
G75*
G02*
X2724375Y-1885000I21875J0D01*
G01*
X2775625Y-1885000D01*
G75*
G02*
X2797500Y-1906875I0J-21875D01*
G01*
X2797500Y-1950625D01*
G75*
G02*
X2775625Y-1972500I-21875J0D01*
G01*
G37*
G04 #@! TD.AperFunction*
G04 #@! TA.AperFunction,SMDPad,CuDef*
G36*
G01*
X1975625Y-1815000D02*
X1924375Y-1815000D01*
G75*
G02*
X1902500Y-1793125I0J21875D01*
G01*
X1902500Y-1749375D01*
G75*
G02*
X1924375Y-1727500I21875J0D01*
G01*
X1975625Y-1727500D01*
G75*
G02*
X1997500Y-1749375I0J-21875D01*
G01*
X1997500Y-1793125D01*
G75*
G02*
X1975625Y-1815000I-21875J0D01*
G01*
G37*
G04 #@! TD.AperFunction*
G04 #@! TA.AperFunction,SMDPad,CuDef*
G36*
G01*
X1975625Y-1972500D02*
X1924375Y-1972500D01*
G75*
G02*
X1902500Y-1950625I0J21875D01*
G01*
X1902500Y-1906875D01*
G75*
G02*
X1924375Y-1885000I21875J0D01*
G01*
X1975625Y-1885000D01*
G75*
G02*
X1997500Y-1906875I0J-21875D01*
G01*
X1997500Y-1950625D01*
G75*
G02*
X1975625Y-1972500I-21875J0D01*
G01*
G37*
G04 #@! TD.AperFunction*
G04 #@! TA.AperFunction,SMDPad,CuDef*
G36*
G01*
X2265000Y-174375D02*
X2265000Y-225625D01*
G75*
G02*
X2243125Y-247500I-21875J0D01*
G01*
X2199375Y-247500D01*
G75*
G02*
X2177500Y-225625I0J21875D01*
G01*
X2177500Y-174375D01*
G75*
G02*
X2199375Y-152500I21875J0D01*
G01*
X2243125Y-152500D01*
G75*
G02*
X2265000Y-174375I0J-21875D01*
G01*
G37*
G04 #@! TD.AperFunction*
G04 #@! TA.AperFunction,SMDPad,CuDef*
G36*
G01*
X2422500Y-174375D02*
X2422500Y-225625D01*
G75*
G02*
X2400625Y-247500I-21875J0D01*
G01*
X2356875Y-247500D01*
G75*
G02*
X2335000Y-225625I0J21875D01*
G01*
X2335000Y-174375D01*
G75*
G02*
X2356875Y-152500I21875J0D01*
G01*
X2400625Y-152500D01*
G75*
G02*
X2422500Y-174375I0J-21875D01*
G01*
G37*
G04 #@! TD.AperFunction*
D15*
X2550000Y-200000D03*
X473000Y-1598000D03*
X981000Y-1594000D03*
X3427000Y-1123000D03*
X1950000Y-2025000D03*
X2550000Y-2025000D03*
X2750000Y-2025000D03*
D16*
X219000Y-1065000D02*
X219000Y-1031000D01*
X219000Y-1031000D02*
X400000Y-850000D01*
X400000Y-850000D02*
X800000Y-850000D01*
X2221250Y-200000D02*
X2221250Y-678750D01*
X2221250Y-678750D02*
X2080000Y-820000D01*
X2080000Y-820000D02*
X1820000Y-820000D01*
X900000Y-750000D02*
X1450000Y-200000D01*
X800000Y-850000D02*
X900000Y-750000D01*
X900000Y-750000D02*
X1078750Y-571250D01*
X1450000Y-200000D02*
X2220000Y-200000D01*
D17*
X473000Y-1435000D02*
X473000Y-1598000D01*
X981000Y-1435000D02*
X981000Y-1594000D01*
X3590000Y-1123000D02*
X3427000Y-1123000D01*
D18*
X1950000Y-1928750D02*
X1950000Y-2025000D01*
X2550000Y-1928750D02*
X2550000Y-2025000D01*
X2750000Y-1928750D02*
X2750000Y-2025000D01*
D16*
X2378750Y-200000D02*
X2378750Y-298750D01*
X2378750Y-298750D02*
X2430000Y-350000D01*
X2430000Y-350000D02*
X2730000Y-350000D01*
X2730000Y-350000D02*
X2770000Y-390000D01*
X2770000Y-390000D02*
X2770000Y-560000D01*
X2378750Y-200000D02*
X2550000Y-200000D01*
D18*
X2150000Y-1771250D02*
X2171250Y-1750000D01*
X1950000Y-1771250D02*
X2150000Y-1771250D01*
X1950000Y-1771250D02*
X1541250Y-1771250D01*
X1541250Y-1771250D02*
X1460000Y-1690000D01*
X1460000Y-1690000D02*
X1460000Y-1150000D01*
X1460000Y-1150000D02*
X1530000Y-1080000D01*
X1530000Y-1080000D02*
X1820000Y-1080000D01*
X2528750Y-1750000D02*
X2550000Y-1771250D01*
X2328750Y-1750000D02*
X2528750Y-1750000D01*
X2550000Y-1771250D02*
X2750000Y-1771250D01*
X3829000Y-1000000D02*
X3960000Y-869000D01*
X3400000Y-1000000D02*
X3829000Y-1000000D01*
X3325000Y-1075000D02*
X3400000Y-1000000D01*
X3325000Y-1275000D02*
X3325000Y-1075000D01*
X2828750Y-1771250D02*
X3325000Y-1275000D01*
X2750000Y-1771250D02*
X2828750Y-1771250D01*
D19*
X2550000Y-200000D03*
X473000Y-1598000D03*
X981000Y-1594000D03*
X3427000Y-1123000D03*
X1950000Y-2025000D03*
X2550000Y-2025000D03*
X2750000Y-2025000D03*
D20*
X727000Y-1250000D03*
X473000Y-1250000D03*
X219000Y-1250000D03*
X981000Y-1250000D03*
X3775000Y-1377000D03*
X3775000Y-1123000D03*
X3775000Y-869000D03*
X3775000Y-1631000D03*
X3775000Y-2125000D03*
X3977500Y-2125000D03*
X3918189Y-2268189D03*
X3775000Y-2327500D03*
X3631811Y-2268189D03*
X3572500Y-2125000D03*
X3631811Y-1981811D03*
X3775000Y-1922500D03*
X3918189Y-1981811D03*
X3775000Y-375000D03*
X3977500Y-375000D03*
X3918189Y-518189D03*
X3775000Y-577500D03*
X3631811Y-518189D03*
X3572500Y-375000D03*
X3631811Y-231811D03*
X3775000Y-172500D03*
X3918189Y-231811D03*
X350000Y-2025000D03*
X552500Y-2025000D03*
X493189Y-2168189D03*
X350000Y-2227500D03*
X206811Y-2168189D03*
X147500Y-2025000D03*
X206811Y-1881811D03*
X350000Y-1822500D03*
X493189Y-1881811D03*
X350000Y-475000D03*
X552500Y-475000D03*
X493189Y-618189D03*
X350000Y-677500D03*
X206811Y-618189D03*
X147500Y-475000D03*
X206811Y-331811D03*
X350000Y-272500D03*
X493189Y-331811D03*
M02*
