G04 #@! TF.GenerationSoftware,KiCad,Pcbnew,(5.1.9)-1*
G04 #@! TF.CreationDate,2021-04-07T16:03:49-07:00*
G04 #@! TF.ProjectId,pressure_XGZP6897A,70726573-7375-4726-955f-58475a503638,1*
G04 #@! TF.SameCoordinates,Original*
G04 #@! TF.FileFunction,Paste,Top*
G04 #@! TF.FilePolarity,Positive*
%FSLAX45Y45*%
G04 Gerber Fmt 4.5, Leading zero omitted, Abs format (unit mm)*
G04 Created by KiCad (PCBNEW (5.1.9)-1) date 2021-04-07 16:03:49*
%MOMM*%
%LPD*%
G01*
G04 APERTURE LIST*
%ADD10R,2.540000X1.520000*%
%ADD11R,1.500000X2.100000*%
%ADD12R,2.100000X1.500000*%
G04 APERTURE END LIST*
D10*
X2777000Y-569000D03*
X2777000Y-823000D03*
X2777000Y-1077000D03*
X2777000Y-1331000D03*
X1823000Y-1331000D03*
X1823000Y-1077000D03*
X1823000Y-823000D03*
X1823000Y-569000D03*
D11*
X219000Y-1065000D03*
X727000Y-1065000D03*
X473000Y-1435000D03*
X981000Y-1435000D03*
D12*
X3960000Y-869000D03*
X3960000Y-1377000D03*
X3590000Y-1123000D03*
X3590000Y-1631000D03*
G36*
G01*
X2575625Y-1815000D02*
X2524375Y-1815000D01*
G75*
G02*
X2502500Y-1793125I0J21875D01*
G01*
X2502500Y-1749375D01*
G75*
G02*
X2524375Y-1727500I21875J0D01*
G01*
X2575625Y-1727500D01*
G75*
G02*
X2597500Y-1749375I0J-21875D01*
G01*
X2597500Y-1793125D01*
G75*
G02*
X2575625Y-1815000I-21875J0D01*
G01*
G37*
G36*
G01*
X2575625Y-1972500D02*
X2524375Y-1972500D01*
G75*
G02*
X2502500Y-1950625I0J21875D01*
G01*
X2502500Y-1906875D01*
G75*
G02*
X2524375Y-1885000I21875J0D01*
G01*
X2575625Y-1885000D01*
G75*
G02*
X2597500Y-1906875I0J-21875D01*
G01*
X2597500Y-1950625D01*
G75*
G02*
X2575625Y-1972500I-21875J0D01*
G01*
G37*
G36*
G01*
X2215000Y-1724375D02*
X2215000Y-1775625D01*
G75*
G02*
X2193125Y-1797500I-21875J0D01*
G01*
X2149375Y-1797500D01*
G75*
G02*
X2127500Y-1775625I0J21875D01*
G01*
X2127500Y-1724375D01*
G75*
G02*
X2149375Y-1702500I21875J0D01*
G01*
X2193125Y-1702500D01*
G75*
G02*
X2215000Y-1724375I0J-21875D01*
G01*
G37*
G36*
G01*
X2372500Y-1724375D02*
X2372500Y-1775625D01*
G75*
G02*
X2350625Y-1797500I-21875J0D01*
G01*
X2306875Y-1797500D01*
G75*
G02*
X2285000Y-1775625I0J21875D01*
G01*
X2285000Y-1724375D01*
G75*
G02*
X2306875Y-1702500I21875J0D01*
G01*
X2350625Y-1702500D01*
G75*
G02*
X2372500Y-1724375I0J-21875D01*
G01*
G37*
G36*
G01*
X2775625Y-1815000D02*
X2724375Y-1815000D01*
G75*
G02*
X2702500Y-1793125I0J21875D01*
G01*
X2702500Y-1749375D01*
G75*
G02*
X2724375Y-1727500I21875J0D01*
G01*
X2775625Y-1727500D01*
G75*
G02*
X2797500Y-1749375I0J-21875D01*
G01*
X2797500Y-1793125D01*
G75*
G02*
X2775625Y-1815000I-21875J0D01*
G01*
G37*
G36*
G01*
X2775625Y-1972500D02*
X2724375Y-1972500D01*
G75*
G02*
X2702500Y-1950625I0J21875D01*
G01*
X2702500Y-1906875D01*
G75*
G02*
X2724375Y-1885000I21875J0D01*
G01*
X2775625Y-1885000D01*
G75*
G02*
X2797500Y-1906875I0J-21875D01*
G01*
X2797500Y-1950625D01*
G75*
G02*
X2775625Y-1972500I-21875J0D01*
G01*
G37*
G36*
G01*
X1975625Y-1815000D02*
X1924375Y-1815000D01*
G75*
G02*
X1902500Y-1793125I0J21875D01*
G01*
X1902500Y-1749375D01*
G75*
G02*
X1924375Y-1727500I21875J0D01*
G01*
X1975625Y-1727500D01*
G75*
G02*
X1997500Y-1749375I0J-21875D01*
G01*
X1997500Y-1793125D01*
G75*
G02*
X1975625Y-1815000I-21875J0D01*
G01*
G37*
G36*
G01*
X1975625Y-1972500D02*
X1924375Y-1972500D01*
G75*
G02*
X1902500Y-1950625I0J21875D01*
G01*
X1902500Y-1906875D01*
G75*
G02*
X1924375Y-1885000I21875J0D01*
G01*
X1975625Y-1885000D01*
G75*
G02*
X1997500Y-1906875I0J-21875D01*
G01*
X1997500Y-1950625D01*
G75*
G02*
X1975625Y-1972500I-21875J0D01*
G01*
G37*
G36*
G01*
X2265000Y-174375D02*
X2265000Y-225625D01*
G75*
G02*
X2243125Y-247500I-21875J0D01*
G01*
X2199375Y-247500D01*
G75*
G02*
X2177500Y-225625I0J21875D01*
G01*
X2177500Y-174375D01*
G75*
G02*
X2199375Y-152500I21875J0D01*
G01*
X2243125Y-152500D01*
G75*
G02*
X2265000Y-174375I0J-21875D01*
G01*
G37*
G36*
G01*
X2422500Y-174375D02*
X2422500Y-225625D01*
G75*
G02*
X2400625Y-247500I-21875J0D01*
G01*
X2356875Y-247500D01*
G75*
G02*
X2335000Y-225625I0J21875D01*
G01*
X2335000Y-174375D01*
G75*
G02*
X2356875Y-152500I21875J0D01*
G01*
X2400625Y-152500D01*
G75*
G02*
X2422500Y-174375I0J-21875D01*
G01*
G37*
M02*
