M48
METRIC,TZ
T1C1.000
T2C1.270
T3C1.800
%
G90
G05
T1
X361820Y-108760
X361820Y-114760
T2
X23450Y-60185
X28460Y-70250
X28460Y-82250
X28460Y-84250
X28460Y-99250
X28460Y-104000
X28460Y-116000
X28460Y-118000
X28460Y-133000
X33300Y-51440
X35450Y-60185
X45300Y-51440
X59600Y-59460
X68600Y-59460
X80790Y-62500
X80790Y-71500
X133290Y-62250
X133290Y-71250
X152750Y-144290
X167750Y-144290
X176460Y-149000
X176460Y-164000
X261000Y-55240
X261290Y-82750
X261290Y-109750
X279000Y-55240
X282400Y-55290
X289540Y-82250
X289540Y-94250
X290250Y-71710
X299250Y-71710
X300400Y-55290
X302750Y-71710
X304000Y-55290
X311750Y-71710
X315250Y-71710
X322000Y-55290
X324250Y-71710
X325600Y-55290
X327750Y-71710
X336750Y-71710
X340250Y-71710
X343600Y-55290
X349250Y-71710
T3
X57280Y-163070
X101980Y-170670
X158420Y-161030
T0
M30
