G04 #@! TF.GenerationSoftware,KiCad,Pcbnew,(5.1.9)-1*
G04 #@! TF.CreationDate,2021-03-30T23:48:26-07:00*
G04 #@! TF.ProjectId,Ventilator,56656e74-696c-4617-946f-722e6b696361,A*
G04 #@! TF.SameCoordinates,Original*
G04 #@! TF.FileFunction,Soldermask,Bot*
G04 #@! TF.FilePolarity,Negative*
%FSLAX46Y46*%
G04 Gerber Fmt 4.6, Leading zero omitted, Abs format (unit mm)*
G04 Created by KiCad (PCBNEW (5.1.9)-1) date 2021-03-30 23:48:26*
%MOMM*%
%LPD*%
G01*
G04 APERTURE LIST*
%ADD10O,1.900000X1.200000*%
%ADD11C,1.450000*%
%ADD12O,2.020000X1.500000*%
%ADD13C,1.270000*%
%ADD14O,1.500000X2.020000*%
%ADD15C,1.500000*%
%ADD16C,1.000000*%
%ADD17C,1.800000*%
%ADD18C,3.700000*%
%ADD19C,0.800000*%
%ADD20C,5.400000*%
%ADD21R,1.700000X1.700000*%
%ADD22O,1.700000X1.700000*%
%ADD23C,9.000000*%
%ADD24O,1.700000X1.950000*%
G04 APERTURE END LIST*
D10*
X367437500Y-95750000D03*
X367437500Y-102750000D03*
D11*
X364737500Y-96750000D03*
X364737500Y-101750000D03*
D12*
X263250000Y-85750000D03*
X263250000Y-88750000D03*
X263250000Y-91750000D03*
X263250000Y-94750000D03*
X263250000Y-97750000D03*
X263250000Y-100750000D03*
X263250000Y-103750000D03*
G36*
G01*
X264010000Y-107500000D02*
X262490000Y-107500000D01*
G75*
G02*
X262240000Y-107250000I0J250000D01*
G01*
X262240000Y-106250000D01*
G75*
G02*
X262490000Y-106000000I250000J0D01*
G01*
X264010000Y-106000000D01*
G75*
G02*
X264260000Y-106250000I0J-250000D01*
G01*
X264260000Y-107250000D01*
G75*
G02*
X264010000Y-107500000I-250000J0D01*
G01*
G37*
D13*
X261290000Y-82750000D03*
X261290000Y-109750000D03*
X325600000Y-55290000D03*
X343600000Y-55290000D03*
G36*
G01*
X327850000Y-58010000D02*
X327850000Y-56490000D01*
G75*
G02*
X328100000Y-56240000I250000J0D01*
G01*
X329100000Y-56240000D01*
G75*
G02*
X329350000Y-56490000I0J-250000D01*
G01*
X329350000Y-58010000D01*
G75*
G02*
X329100000Y-58260000I-250000J0D01*
G01*
X328100000Y-58260000D01*
G75*
G02*
X327850000Y-58010000I0J250000D01*
G01*
G37*
D14*
X331600000Y-57250000D03*
X334600000Y-57250000D03*
X337600000Y-57250000D03*
X340600000Y-57250000D03*
D13*
X304000000Y-55290000D03*
X322000000Y-55290000D03*
G36*
G01*
X306250000Y-58010000D02*
X306250000Y-56490000D01*
G75*
G02*
X306500000Y-56240000I250000J0D01*
G01*
X307500000Y-56240000D01*
G75*
G02*
X307750000Y-56490000I0J-250000D01*
G01*
X307750000Y-58010000D01*
G75*
G02*
X307500000Y-58260000I-250000J0D01*
G01*
X306500000Y-58260000D01*
G75*
G02*
X306250000Y-58010000I0J250000D01*
G01*
G37*
D14*
X310000000Y-57250000D03*
X313000000Y-57250000D03*
X316000000Y-57250000D03*
X319000000Y-57250000D03*
D13*
X282400000Y-55290000D03*
X300400000Y-55290000D03*
G36*
G01*
X284650000Y-58010000D02*
X284650000Y-56490000D01*
G75*
G02*
X284900000Y-56240000I250000J0D01*
G01*
X285900000Y-56240000D01*
G75*
G02*
X286150000Y-56490000I0J-250000D01*
G01*
X286150000Y-58010000D01*
G75*
G02*
X285900000Y-58260000I-250000J0D01*
G01*
X284900000Y-58260000D01*
G75*
G02*
X284650000Y-58010000I0J250000D01*
G01*
G37*
D14*
X288400000Y-57250000D03*
X291400000Y-57250000D03*
X294400000Y-57250000D03*
X297400000Y-57250000D03*
D13*
X261000000Y-55240000D03*
X279000000Y-55240000D03*
G36*
G01*
X263250000Y-57960000D02*
X263250000Y-56440000D01*
G75*
G02*
X263500000Y-56190000I250000J0D01*
G01*
X264500000Y-56190000D01*
G75*
G02*
X264750000Y-56440000I0J-250000D01*
G01*
X264750000Y-57960000D01*
G75*
G02*
X264500000Y-58210000I-250000J0D01*
G01*
X263500000Y-58210000D01*
G75*
G02*
X263250000Y-57960000I0J250000D01*
G01*
G37*
D14*
X267000000Y-57200000D03*
X270000000Y-57200000D03*
X273000000Y-57200000D03*
X276000000Y-57200000D03*
D13*
X176460000Y-149000000D03*
X176460000Y-164000000D03*
G36*
G01*
X173740000Y-151250000D02*
X175260000Y-151250000D01*
G75*
G02*
X175510000Y-151500000I0J-250000D01*
G01*
X175510000Y-152500000D01*
G75*
G02*
X175260000Y-152750000I-250000J0D01*
G01*
X173740000Y-152750000D01*
G75*
G02*
X173490000Y-152500000I0J250000D01*
G01*
X173490000Y-151500000D01*
G75*
G02*
X173740000Y-151250000I250000J0D01*
G01*
G37*
D12*
X174500000Y-155000000D03*
X174500000Y-158000000D03*
X174500000Y-161000000D03*
D13*
X28460000Y-118000000D03*
X28460000Y-133000000D03*
G36*
G01*
X25740000Y-120250000D02*
X27260000Y-120250000D01*
G75*
G02*
X27510000Y-120500000I0J-250000D01*
G01*
X27510000Y-121500000D01*
G75*
G02*
X27260000Y-121750000I-250000J0D01*
G01*
X25740000Y-121750000D01*
G75*
G02*
X25490000Y-121500000I0J250000D01*
G01*
X25490000Y-120500000D01*
G75*
G02*
X25740000Y-120250000I250000J0D01*
G01*
G37*
D12*
X26500000Y-124000000D03*
X26500000Y-127000000D03*
X26500000Y-130000000D03*
D13*
X152750000Y-144290000D03*
X167750000Y-144290000D03*
G36*
G01*
X155000000Y-147010000D02*
X155000000Y-145490000D01*
G75*
G02*
X155250000Y-145240000I250000J0D01*
G01*
X156250000Y-145240000D01*
G75*
G02*
X156500000Y-145490000I0J-250000D01*
G01*
X156500000Y-147010000D01*
G75*
G02*
X156250000Y-147260000I-250000J0D01*
G01*
X155250000Y-147260000D01*
G75*
G02*
X155000000Y-147010000I0J250000D01*
G01*
G37*
D14*
X158750000Y-146250000D03*
X161750000Y-146250000D03*
X164750000Y-146250000D03*
D13*
X28460000Y-84250000D03*
X28460000Y-99250000D03*
G36*
G01*
X25740000Y-86500000D02*
X27260000Y-86500000D01*
G75*
G02*
X27510000Y-86750000I0J-250000D01*
G01*
X27510000Y-87750000D01*
G75*
G02*
X27260000Y-88000000I-250000J0D01*
G01*
X25740000Y-88000000D01*
G75*
G02*
X25490000Y-87750000I0J250000D01*
G01*
X25490000Y-86750000D01*
G75*
G02*
X25740000Y-86500000I250000J0D01*
G01*
G37*
D12*
X26500000Y-90250000D03*
X26500000Y-93250000D03*
X26500000Y-96250000D03*
D13*
X23450001Y-60185001D03*
X35450001Y-60185001D03*
G36*
G01*
X25700001Y-62905001D02*
X25700001Y-61385001D01*
G75*
G02*
X25950001Y-61135001I250000J0D01*
G01*
X26950001Y-61135001D01*
G75*
G02*
X27200001Y-61385001I0J-250000D01*
G01*
X27200001Y-62905001D01*
G75*
G02*
X26950001Y-63155001I-250000J0D01*
G01*
X25950001Y-63155001D01*
G75*
G02*
X25700001Y-62905001I0J250000D01*
G01*
G37*
D14*
X29450001Y-62145001D03*
X32450001Y-62145001D03*
D13*
X33300000Y-51440000D03*
X45300000Y-51440000D03*
G36*
G01*
X35550000Y-54160000D02*
X35550000Y-52640000D01*
G75*
G02*
X35800000Y-52390000I250000J0D01*
G01*
X36800000Y-52390000D01*
G75*
G02*
X37050000Y-52640000I0J-250000D01*
G01*
X37050000Y-54160000D01*
G75*
G02*
X36800000Y-54410000I-250000J0D01*
G01*
X35800000Y-54410000D01*
G75*
G02*
X35550000Y-54160000I0J250000D01*
G01*
G37*
D14*
X39300000Y-53400000D03*
X42300000Y-53400000D03*
D13*
X289540000Y-94250000D03*
X289540000Y-82250000D03*
G36*
G01*
X292260000Y-92000000D02*
X290740000Y-92000000D01*
G75*
G02*
X290490000Y-91750000I0J250000D01*
G01*
X290490000Y-90750000D01*
G75*
G02*
X290740000Y-90500000I250000J0D01*
G01*
X292260000Y-90500000D01*
G75*
G02*
X292510000Y-90750000I0J-250000D01*
G01*
X292510000Y-91750000D01*
G75*
G02*
X292260000Y-92000000I-250000J0D01*
G01*
G37*
D12*
X291500000Y-88250000D03*
X291500000Y-85250000D03*
D13*
X28460000Y-104000000D03*
X28460000Y-116000000D03*
G36*
G01*
X25740000Y-106250000D02*
X27260000Y-106250000D01*
G75*
G02*
X27510000Y-106500000I0J-250000D01*
G01*
X27510000Y-107500000D01*
G75*
G02*
X27260000Y-107750000I-250000J0D01*
G01*
X25740000Y-107750000D01*
G75*
G02*
X25490000Y-107500000I0J250000D01*
G01*
X25490000Y-106500000D01*
G75*
G02*
X25740000Y-106250000I250000J0D01*
G01*
G37*
D12*
X26500000Y-110000000D03*
X26500000Y-113000000D03*
D13*
X28460000Y-70250000D03*
X28460000Y-82250000D03*
G36*
G01*
X25740000Y-72500000D02*
X27260000Y-72500000D01*
G75*
G02*
X27510000Y-72750000I0J-250000D01*
G01*
X27510000Y-73750000D01*
G75*
G02*
X27260000Y-74000000I-250000J0D01*
G01*
X25740000Y-74000000D01*
G75*
G02*
X25490000Y-73750000I0J250000D01*
G01*
X25490000Y-72750000D01*
G75*
G02*
X25740000Y-72500000I250000J0D01*
G01*
G37*
D12*
X26500000Y-76250000D03*
X26500000Y-79250000D03*
D14*
X62600000Y-57500000D03*
G36*
G01*
X66350000Y-56740000D02*
X66350000Y-58260000D01*
G75*
G02*
X66100000Y-58510000I-250000J0D01*
G01*
X65100000Y-58510000D01*
G75*
G02*
X64850000Y-58260000I0J250000D01*
G01*
X64850000Y-56740000D01*
G75*
G02*
X65100000Y-56490000I250000J0D01*
G01*
X66100000Y-56490000D01*
G75*
G02*
X66350000Y-56740000I0J-250000D01*
G01*
G37*
D13*
X59600000Y-59460000D03*
X68600000Y-59460000D03*
X133290000Y-71250000D03*
X133290000Y-62250000D03*
G36*
G01*
X136010000Y-69000000D02*
X134490000Y-69000000D01*
G75*
G02*
X134240000Y-68750000I0J250000D01*
G01*
X134240000Y-67750000D01*
G75*
G02*
X134490000Y-67500000I250000J0D01*
G01*
X136010000Y-67500000D01*
G75*
G02*
X136260000Y-67750000I0J-250000D01*
G01*
X136260000Y-68750000D01*
G75*
G02*
X136010000Y-69000000I-250000J0D01*
G01*
G37*
D12*
X135250000Y-65250000D03*
D13*
X80790000Y-71500000D03*
X80790000Y-62500000D03*
G36*
G01*
X83510000Y-69250000D02*
X81990000Y-69250000D01*
G75*
G02*
X81740000Y-69000000I0J250000D01*
G01*
X81740000Y-68000000D01*
G75*
G02*
X81990000Y-67750000I250000J0D01*
G01*
X83510000Y-67750000D01*
G75*
G02*
X83760000Y-68000000I0J-250000D01*
G01*
X83760000Y-69000000D01*
G75*
G02*
X83510000Y-69250000I-250000J0D01*
G01*
G37*
D12*
X82750000Y-65500000D03*
D13*
X349250000Y-71710000D03*
X340250000Y-71710000D03*
G36*
G01*
X347000000Y-68990000D02*
X347000000Y-70510000D01*
G75*
G02*
X346750000Y-70760000I-250000J0D01*
G01*
X345750000Y-70760000D01*
G75*
G02*
X345500000Y-70510000I0J250000D01*
G01*
X345500000Y-68990000D01*
G75*
G02*
X345750000Y-68740000I250000J0D01*
G01*
X346750000Y-68740000D01*
G75*
G02*
X347000000Y-68990000I0J-250000D01*
G01*
G37*
D14*
X343250000Y-69750000D03*
D13*
X299250000Y-71710000D03*
X290250000Y-71710000D03*
G36*
G01*
X297000000Y-68990000D02*
X297000000Y-70510000D01*
G75*
G02*
X296750000Y-70760000I-250000J0D01*
G01*
X295750000Y-70760000D01*
G75*
G02*
X295500000Y-70510000I0J250000D01*
G01*
X295500000Y-68990000D01*
G75*
G02*
X295750000Y-68740000I250000J0D01*
G01*
X296750000Y-68740000D01*
G75*
G02*
X297000000Y-68990000I0J-250000D01*
G01*
G37*
D14*
X293250000Y-69750000D03*
D13*
X336750000Y-71710000D03*
X327750000Y-71710000D03*
G36*
G01*
X334500000Y-68990000D02*
X334500000Y-70510000D01*
G75*
G02*
X334250000Y-70760000I-250000J0D01*
G01*
X333250000Y-70760000D01*
G75*
G02*
X333000000Y-70510000I0J250000D01*
G01*
X333000000Y-68990000D01*
G75*
G02*
X333250000Y-68740000I250000J0D01*
G01*
X334250000Y-68740000D01*
G75*
G02*
X334500000Y-68990000I0J-250000D01*
G01*
G37*
D14*
X330750000Y-69750000D03*
D13*
X324250000Y-71710000D03*
X315250000Y-71710000D03*
G36*
G01*
X322000000Y-68990000D02*
X322000000Y-70510000D01*
G75*
G02*
X321750000Y-70760000I-250000J0D01*
G01*
X320750000Y-70760000D01*
G75*
G02*
X320500000Y-70510000I0J250000D01*
G01*
X320500000Y-68990000D01*
G75*
G02*
X320750000Y-68740000I250000J0D01*
G01*
X321750000Y-68740000D01*
G75*
G02*
X322000000Y-68990000I0J-250000D01*
G01*
G37*
D14*
X318250000Y-69750000D03*
D13*
X311750000Y-71710000D03*
X302750000Y-71710000D03*
G36*
G01*
X309500000Y-68990000D02*
X309500000Y-70510000D01*
G75*
G02*
X309250000Y-70760000I-250000J0D01*
G01*
X308250000Y-70760000D01*
G75*
G02*
X308000000Y-70510000I0J250000D01*
G01*
X308000000Y-68990000D01*
G75*
G02*
X308250000Y-68740000I250000J0D01*
G01*
X309250000Y-68740000D01*
G75*
G02*
X309500000Y-68990000I0J-250000D01*
G01*
G37*
D14*
X305750000Y-69750000D03*
D15*
X362760000Y-111760000D03*
G36*
G01*
X365260000Y-111010000D02*
X366260000Y-111010000D01*
G75*
G02*
X366510000Y-111260000I0J-250000D01*
G01*
X366510000Y-112260000D01*
G75*
G02*
X366260000Y-112510000I-250000J0D01*
G01*
X365260000Y-112510000D01*
G75*
G02*
X365010000Y-112260000I0J250000D01*
G01*
X365010000Y-111260000D01*
G75*
G02*
X365260000Y-111010000I250000J0D01*
G01*
G37*
D16*
X361820000Y-114760000D03*
X361820000Y-108760000D03*
D17*
X101980000Y-170670000D03*
D18*
X99500000Y-167900000D03*
X93800000Y-167900000D03*
X99500000Y-162200000D03*
G36*
G01*
X91950000Y-163800000D02*
X91950000Y-160600000D01*
G75*
G02*
X92200000Y-160350000I250000J0D01*
G01*
X95400000Y-160350000D01*
G75*
G02*
X95650000Y-160600000I0J-250000D01*
G01*
X95650000Y-163800000D01*
G75*
G02*
X95400000Y-164050000I-250000J0D01*
G01*
X92200000Y-164050000D01*
G75*
G02*
X91950000Y-163800000I0J250000D01*
G01*
G37*
D17*
X158420000Y-161030000D03*
D18*
X161900000Y-163800000D03*
G36*
G01*
X163750000Y-167900000D02*
X163750000Y-171100000D01*
G75*
G02*
X163500000Y-171350000I-250000J0D01*
G01*
X160300000Y-171350000D01*
G75*
G02*
X160050000Y-171100000I0J250000D01*
G01*
X160050000Y-167900000D01*
G75*
G02*
X160300000Y-167650000I250000J0D01*
G01*
X163500000Y-167650000D01*
G75*
G02*
X163750000Y-167900000I0J-250000D01*
G01*
G37*
D17*
X57280000Y-163070000D03*
D18*
X53800000Y-160300000D03*
G36*
G01*
X51950000Y-156200000D02*
X51950000Y-153000000D01*
G75*
G02*
X52200000Y-152750000I250000J0D01*
G01*
X55400000Y-152750000D01*
G75*
G02*
X55650000Y-153000000I0J-250000D01*
G01*
X55650000Y-156200000D01*
G75*
G02*
X55400000Y-156450000I-250000J0D01*
G01*
X52200000Y-156450000D01*
G75*
G02*
X51950000Y-156200000I0J250000D01*
G01*
G37*
D19*
X144725000Y-42250000D03*
D20*
X146750000Y-42250000D03*
D19*
X145318109Y-40818109D03*
X145318109Y-43681891D03*
X146750000Y-40225000D03*
X148181891Y-43681891D03*
X146750000Y-44275000D03*
X148181891Y-40818109D03*
X148775000Y-42250000D03*
X145318109Y-26181891D03*
X145318109Y-23318109D03*
X146750000Y-26775000D03*
X146750000Y-22725000D03*
X144725000Y-24750000D03*
D20*
X146750000Y-24750000D03*
D19*
X148775000Y-24750000D03*
X148181891Y-26181891D03*
X148181891Y-23318109D03*
X110475000Y-41250000D03*
X111068109Y-42681891D03*
X112500000Y-39225000D03*
X111068109Y-39818109D03*
X112500000Y-43275000D03*
X113931891Y-39818109D03*
X113931891Y-42681891D03*
D20*
X112500000Y-41250000D03*
D19*
X114525000Y-41250000D03*
X114525000Y-25750000D03*
X112500000Y-23725000D03*
D20*
X112500000Y-25750000D03*
D19*
X113931891Y-24318109D03*
X111068109Y-24318109D03*
X112500000Y-27775000D03*
X110475000Y-25750000D03*
X113931891Y-27181891D03*
X111068109Y-27181891D03*
X57725000Y-42250000D03*
D20*
X59750000Y-42250000D03*
D19*
X58318109Y-40818109D03*
X58318109Y-43681891D03*
X59750000Y-40225000D03*
X61181891Y-43681891D03*
X59750000Y-44275000D03*
X61181891Y-40818109D03*
X61775000Y-42250000D03*
X58318109Y-26181891D03*
X58318109Y-23318109D03*
X59750000Y-26775000D03*
X59750000Y-22725000D03*
X57725000Y-24750000D03*
D20*
X59750000Y-24750000D03*
D19*
X61775000Y-24750000D03*
X61181891Y-26181891D03*
X61181891Y-23318109D03*
X23475000Y-41250000D03*
X24068109Y-42681891D03*
X25500000Y-39225000D03*
X24068109Y-39818109D03*
X25500000Y-43275000D03*
X26931891Y-39818109D03*
X26931891Y-42681891D03*
D20*
X25500000Y-41250000D03*
D19*
X27525000Y-41250000D03*
X27525000Y-25750000D03*
X25500000Y-23725000D03*
D20*
X25500000Y-25750000D03*
D19*
X26931891Y-24318109D03*
X24068109Y-24318109D03*
X25500000Y-27775000D03*
X23475000Y-25750000D03*
X26931891Y-27181891D03*
X24068109Y-27181891D03*
X101225000Y-42250000D03*
D20*
X103250000Y-42250000D03*
D19*
X101818109Y-40818109D03*
X101818109Y-43681891D03*
X103250000Y-40225000D03*
X104681891Y-43681891D03*
X103250000Y-44275000D03*
X104681891Y-40818109D03*
X105275000Y-42250000D03*
X101818109Y-26181891D03*
X101818109Y-23318109D03*
X103250000Y-26775000D03*
X103250000Y-22725000D03*
X101225000Y-24750000D03*
D20*
X103250000Y-24750000D03*
D19*
X105275000Y-24750000D03*
X104681891Y-26181891D03*
X104681891Y-23318109D03*
X66975000Y-41250000D03*
X67568109Y-42681891D03*
X69000000Y-39225000D03*
X67568109Y-39818109D03*
X69000000Y-43275000D03*
X70431891Y-39818109D03*
X70431891Y-42681891D03*
D20*
X69000000Y-41250000D03*
D19*
X71025000Y-41250000D03*
X71025000Y-25750000D03*
X69000000Y-23725000D03*
D20*
X69000000Y-25750000D03*
D19*
X70431891Y-24318109D03*
X67568109Y-24318109D03*
X69000000Y-27775000D03*
X66975000Y-25750000D03*
X70431891Y-27181891D03*
X67568109Y-27181891D03*
X188225000Y-42250000D03*
D20*
X190250000Y-42250000D03*
D19*
X188818109Y-40818109D03*
X188818109Y-43681891D03*
X190250000Y-40225000D03*
X191681891Y-43681891D03*
X190250000Y-44275000D03*
X191681891Y-40818109D03*
X192275000Y-42250000D03*
X188818109Y-26181891D03*
X188818109Y-23318109D03*
X190250000Y-26775000D03*
X190250000Y-22725000D03*
X188225000Y-24750000D03*
D20*
X190250000Y-24750000D03*
D19*
X192275000Y-24750000D03*
X191681891Y-26181891D03*
X191681891Y-23318109D03*
X153975000Y-41250000D03*
X154568109Y-42681891D03*
X156000000Y-39225000D03*
X154568109Y-39818109D03*
X156000000Y-43275000D03*
X157431891Y-39818109D03*
X157431891Y-42681891D03*
D20*
X156000000Y-41250000D03*
D19*
X158025000Y-41250000D03*
X158025000Y-25750000D03*
X156000000Y-23725000D03*
D20*
X156000000Y-25750000D03*
D19*
X157431891Y-24318109D03*
X154568109Y-24318109D03*
X156000000Y-27775000D03*
X153975000Y-25750000D03*
X157431891Y-27181891D03*
X154568109Y-27181891D03*
X231725000Y-42250000D03*
D20*
X233750000Y-42250000D03*
D19*
X232318109Y-40818109D03*
X232318109Y-43681891D03*
X233750000Y-40225000D03*
X235181891Y-43681891D03*
X233750000Y-44275000D03*
X235181891Y-40818109D03*
X235775000Y-42250000D03*
X232318109Y-26181891D03*
X232318109Y-23318109D03*
X233750000Y-26775000D03*
X233750000Y-22725000D03*
X231725000Y-24750000D03*
D20*
X233750000Y-24750000D03*
D19*
X235775000Y-24750000D03*
X235181891Y-26181891D03*
X235181891Y-23318109D03*
X197475000Y-41250000D03*
X198068109Y-42681891D03*
X199500000Y-39225000D03*
X198068109Y-39818109D03*
X199500000Y-43275000D03*
X200931891Y-39818109D03*
X200931891Y-42681891D03*
D20*
X199500000Y-41250000D03*
D19*
X201525000Y-41250000D03*
X201525000Y-25750000D03*
X199500000Y-23725000D03*
D20*
X199500000Y-25750000D03*
D19*
X200931891Y-24318109D03*
X198068109Y-24318109D03*
X199500000Y-27775000D03*
X197475000Y-25750000D03*
X200931891Y-27181891D03*
X198068109Y-27181891D03*
X275225000Y-42250000D03*
D20*
X277250000Y-42250000D03*
D19*
X275818109Y-40818109D03*
X275818109Y-43681891D03*
X277250000Y-40225000D03*
X278681891Y-43681891D03*
X277250000Y-44275000D03*
X278681891Y-40818109D03*
X279275000Y-42250000D03*
X275818109Y-26181891D03*
X275818109Y-23318109D03*
X277250000Y-26775000D03*
X277250000Y-22725000D03*
X275225000Y-24750000D03*
D20*
X277250000Y-24750000D03*
D19*
X279275000Y-24750000D03*
X278681891Y-26181891D03*
X278681891Y-23318109D03*
X240975000Y-41250000D03*
X241568109Y-42681891D03*
X243000000Y-39225000D03*
X241568109Y-39818109D03*
X243000000Y-43275000D03*
X244431891Y-39818109D03*
X244431891Y-42681891D03*
D20*
X243000000Y-41250000D03*
D19*
X245025000Y-41250000D03*
X245025000Y-25750000D03*
X243000000Y-23725000D03*
D20*
X243000000Y-25750000D03*
D19*
X244431891Y-24318109D03*
X241568109Y-24318109D03*
X243000000Y-27775000D03*
X240975000Y-25750000D03*
X244431891Y-27181891D03*
X241568109Y-27181891D03*
X318725000Y-42250000D03*
D20*
X320750000Y-42250000D03*
D19*
X319318109Y-40818109D03*
X319318109Y-43681891D03*
X320750000Y-40225000D03*
X322181891Y-43681891D03*
X320750000Y-44275000D03*
X322181891Y-40818109D03*
X322775000Y-42250000D03*
X319318109Y-26181891D03*
X319318109Y-23318109D03*
X320750000Y-26775000D03*
X320750000Y-22725000D03*
X318725000Y-24750000D03*
D20*
X320750000Y-24750000D03*
D19*
X322775000Y-24750000D03*
X322181891Y-26181891D03*
X322181891Y-23318109D03*
X284475000Y-41250000D03*
X285068109Y-42681891D03*
X286500000Y-39225000D03*
X285068109Y-39818109D03*
X286500000Y-43275000D03*
X287931891Y-39818109D03*
X287931891Y-42681891D03*
D20*
X286500000Y-41250000D03*
D19*
X288525000Y-41250000D03*
X288525000Y-25750000D03*
X286500000Y-23725000D03*
D20*
X286500000Y-25750000D03*
D19*
X287931891Y-24318109D03*
X285068109Y-24318109D03*
X286500000Y-27775000D03*
X284475000Y-25750000D03*
X287931891Y-27181891D03*
X285068109Y-27181891D03*
X362225000Y-42250000D03*
D20*
X364250000Y-42250000D03*
D19*
X362818109Y-40818109D03*
X362818109Y-43681891D03*
X364250000Y-40225000D03*
X365681891Y-43681891D03*
X364250000Y-44275000D03*
X365681891Y-40818109D03*
X366275000Y-42250000D03*
X362818109Y-26181891D03*
X362818109Y-23318109D03*
X364250000Y-26775000D03*
X364250000Y-22725000D03*
X362225000Y-24750000D03*
D20*
X364250000Y-24750000D03*
D19*
X366275000Y-24750000D03*
X365681891Y-26181891D03*
X365681891Y-23318109D03*
X327975000Y-41250000D03*
X328568109Y-42681891D03*
X330000000Y-39225000D03*
X328568109Y-39818109D03*
X330000000Y-43275000D03*
X331431891Y-39818109D03*
X331431891Y-42681891D03*
D20*
X330000000Y-41250000D03*
D19*
X332025000Y-41250000D03*
X332025000Y-25750000D03*
X330000000Y-23725000D03*
D20*
X330000000Y-25750000D03*
D19*
X331431891Y-24318109D03*
X328568109Y-24318109D03*
X330000000Y-27775000D03*
X327975000Y-25750000D03*
X331431891Y-27181891D03*
X328568109Y-27181891D03*
D21*
X289370000Y-169230000D03*
D22*
X289370000Y-171770000D03*
X291910000Y-169230000D03*
X291910000Y-171770000D03*
X294450000Y-169230000D03*
X294450000Y-171770000D03*
X296990000Y-169230000D03*
X296990000Y-171770000D03*
X299530000Y-169230000D03*
X299530000Y-171770000D03*
X302070000Y-169230000D03*
X302070000Y-171770000D03*
X304610000Y-169230000D03*
X304610000Y-171770000D03*
X307150000Y-169230000D03*
X307150000Y-171770000D03*
X309690000Y-169230000D03*
X309690000Y-171770000D03*
X312230000Y-169230000D03*
X312230000Y-171770000D03*
X314770000Y-169230000D03*
X314770000Y-171770000D03*
X317310000Y-169230000D03*
X317310000Y-171770000D03*
X319850000Y-169230000D03*
X319850000Y-171770000D03*
X322390000Y-169230000D03*
X322390000Y-171770000D03*
X324930000Y-169230000D03*
X324930000Y-171770000D03*
X327470000Y-169230000D03*
X327470000Y-171770000D03*
X330010000Y-169230000D03*
X330010000Y-171770000D03*
X332550000Y-169230000D03*
X332550000Y-171770000D03*
X335090000Y-169230000D03*
X335090000Y-171770000D03*
X337630000Y-169230000D03*
X337630000Y-171770000D03*
D23*
X364000000Y-52000000D03*
X26000000Y-52000000D03*
X275000000Y-169000000D03*
X26000000Y-169000000D03*
X170561000Y-99695000D03*
D19*
X283068109Y-171931891D03*
X285931891Y-169068109D03*
X282475000Y-170500000D03*
X284500000Y-168475000D03*
D20*
X284500000Y-170500000D03*
D19*
X284500000Y-172525000D03*
X285931891Y-171931891D03*
X286525000Y-170500000D03*
X283068109Y-169068109D03*
X284500000Y-123525000D03*
X283068109Y-120068109D03*
X282475000Y-121500000D03*
X285931891Y-122931891D03*
X285931891Y-120068109D03*
X283068109Y-122931891D03*
D20*
X284500000Y-121500000D03*
D19*
X286525000Y-121500000D03*
X284500000Y-119475000D03*
D20*
X342500000Y-121500000D03*
D19*
X341068109Y-120068109D03*
X342500000Y-123525000D03*
X341068109Y-122931891D03*
X344525000Y-121500000D03*
X343931891Y-120068109D03*
X343931891Y-122931891D03*
X342500000Y-119475000D03*
X340475000Y-121500000D03*
D20*
X342500000Y-170500000D03*
D19*
X341068109Y-169068109D03*
X342500000Y-172525000D03*
X341068109Y-171931891D03*
X344525000Y-170500000D03*
X343931891Y-169068109D03*
X343931891Y-171931891D03*
X342500000Y-168475000D03*
X340475000Y-170500000D03*
D22*
X226740000Y-53000000D03*
X224200000Y-53000000D03*
X221660000Y-53000000D03*
X219120000Y-53000000D03*
X216580000Y-53000000D03*
X214040000Y-53000000D03*
X211500000Y-53000000D03*
D21*
X208960000Y-53000000D03*
X244500000Y-53000000D03*
D22*
X241960000Y-53000000D03*
X239420000Y-53000000D03*
X236880000Y-53000000D03*
X234340000Y-53000000D03*
X231800000Y-53000000D03*
D21*
X222671000Y-101259000D03*
D22*
X220131000Y-101259000D03*
X217591000Y-101259000D03*
X215051000Y-101259000D03*
X212511000Y-101259000D03*
X209971000Y-101259000D03*
X207431000Y-101259000D03*
X204891000Y-101259000D03*
X202351000Y-101259000D03*
X199811000Y-101259000D03*
D21*
X244515000Y-101259000D03*
D22*
X241975000Y-101259000D03*
X239435000Y-101259000D03*
X236895000Y-101259000D03*
X234355000Y-101259000D03*
X231815000Y-101259000D03*
X229275000Y-101259000D03*
X226735000Y-101259000D03*
X244094000Y-130378000D03*
X244094000Y-127838000D03*
X241554000Y-130378000D03*
X241554000Y-127838000D03*
X239014000Y-130378000D03*
X239014000Y-127838000D03*
X236474000Y-130378000D03*
X236474000Y-127838000D03*
X233934000Y-130378000D03*
X233934000Y-127838000D03*
X231394000Y-130378000D03*
X231394000Y-127838000D03*
X228854000Y-130378000D03*
X228854000Y-127838000D03*
X226314000Y-130378000D03*
X226314000Y-127838000D03*
X223774000Y-130378000D03*
X223774000Y-127838000D03*
X221234000Y-130378000D03*
X221234000Y-127838000D03*
X218694000Y-130378000D03*
X218694000Y-127838000D03*
X216154000Y-130378000D03*
X216154000Y-127838000D03*
X213614000Y-130378000D03*
X213614000Y-127838000D03*
X211074000Y-130378000D03*
X211074000Y-127838000D03*
X208534000Y-130378000D03*
X208534000Y-127838000D03*
X205994000Y-130378000D03*
X205994000Y-127838000D03*
X203454000Y-130378000D03*
X203454000Y-127838000D03*
X200914000Y-130378000D03*
X200914000Y-127838000D03*
X198374000Y-130378000D03*
X198374000Y-127838000D03*
X195834000Y-130378000D03*
D21*
X195834000Y-127838000D03*
X195834000Y-167835000D03*
D22*
X195834000Y-170375000D03*
X198374000Y-167835000D03*
X198374000Y-170375000D03*
X200914000Y-167835000D03*
X200914000Y-170375000D03*
X203454000Y-167835000D03*
X203454000Y-170375000D03*
X205994000Y-167835000D03*
X205994000Y-170375000D03*
X208534000Y-167835000D03*
X208534000Y-170375000D03*
X211074000Y-167835000D03*
X211074000Y-170375000D03*
X213614000Y-167835000D03*
X213614000Y-170375000D03*
X216154000Y-167835000D03*
X216154000Y-170375000D03*
X218694000Y-167835000D03*
X218694000Y-170375000D03*
X221234000Y-167835000D03*
X221234000Y-170375000D03*
X223774000Y-167835000D03*
X223774000Y-170375000D03*
X226314000Y-167835000D03*
X226314000Y-170375000D03*
X228854000Y-167835000D03*
X228854000Y-170375000D03*
X231394000Y-167835000D03*
X231394000Y-170375000D03*
X233934000Y-167835000D03*
X233934000Y-170375000D03*
X236474000Y-167835000D03*
X236474000Y-170375000D03*
X239014000Y-167835000D03*
X239014000Y-170375000D03*
X241554000Y-167835000D03*
X241554000Y-170375000D03*
X244094000Y-167835000D03*
X244094000Y-170375000D03*
D24*
X45300000Y-167900000D03*
X42800000Y-167900000D03*
X40300000Y-167900000D03*
X37800000Y-167900000D03*
G36*
G01*
X34450000Y-168625000D02*
X34450000Y-167175000D01*
G75*
G02*
X34700000Y-166925000I250000J0D01*
G01*
X35900000Y-166925000D01*
G75*
G02*
X36150000Y-167175000I0J-250000D01*
G01*
X36150000Y-168625000D01*
G75*
G02*
X35900000Y-168875000I-250000J0D01*
G01*
X34700000Y-168875000D01*
G75*
G02*
X34450000Y-168625000I0J250000D01*
G01*
G37*
D22*
X333050000Y-87250000D03*
X335590000Y-87250000D03*
X338130000Y-87250000D03*
X340670000Y-87250000D03*
X343210000Y-87250000D03*
D21*
X345750000Y-87250000D03*
X345750000Y-83500000D03*
D22*
X343210000Y-83500000D03*
X340670000Y-83500000D03*
X338130000Y-83500000D03*
X335590000Y-83500000D03*
X333050000Y-83500000D03*
M02*
