M48
METRIC,TZ
T1C0.200
T2C0.300
T3C0.500
T4C0.600
T5C0.850
T6C0.950
T7C1.000
T8C1.020
T9C1.800
T10C2.700
T11C4.500
%
G90
G05
T1
X128750Y-123050
X128750Y-124100
X128750Y-125150
X129800Y-123050
X129800Y-124100
X129800Y-125150
X130850Y-123050
X130850Y-124100
X130850Y-125150
X136125Y-144025
X136125Y-145000
X136125Y-145975
X137100Y-144025
X137100Y-145000
X137100Y-145975
X138075Y-144025
X138075Y-145000
X138075Y-145975
T2
X29400Y-57800
X29600Y-142500
X29600Y-150000
X30455Y-141945
X30455Y-149490
X31500Y-72500
X31500Y-106250
X33850Y-56150
X33850Y-69550
X35900Y-146100
X36000Y-75250
X36000Y-109000
X36250Y-80750
X36250Y-114500
X36350Y-147350
X37250Y-83500
X37250Y-117250
X37400Y-145100
X38463Y-72462
X38463Y-88962
X38463Y-92962
X38463Y-106213
X38463Y-122713
X38463Y-126713
X38500Y-73500
X38500Y-97000
X38500Y-107250
X38500Y-130750
X38800Y-138400
X39250Y-57150
X40250Y-85000
X40250Y-93250
X40250Y-118750
X40250Y-127000
X41200Y-71000
X42300Y-151100
X42300Y-152700
X42300Y-156300
X43400Y-149200
X43600Y-66200
X43750Y-85750
X43750Y-119500
X46200Y-144600
X48050Y-66450
X49750Y-74000
X49750Y-107750
X50000Y-52200
X51200Y-141600
X51204Y-87693
X51204Y-121443
X51600Y-166800
X51750Y-87000
X51750Y-88500
X51750Y-120750
X51750Y-122250
X52000Y-86250
X52000Y-120000
X52000Y-141600
X52500Y-144200
X52500Y-145500
X52800Y-141600
X53600Y-141600
X54000Y-87250
X54000Y-90250
X54000Y-121000
X54000Y-124000
X54750Y-63000
X54750Y-85750
X54750Y-88750
X54750Y-91750
X54750Y-119500
X54750Y-122500
X54750Y-125500
X54991Y-46609
X55500Y-87250
X55500Y-90250
X55500Y-121000
X55500Y-124000
X55950Y-64550
X56250Y-85750
X56250Y-88750
X56250Y-91750
X56250Y-119500
X56250Y-122500
X56250Y-125500
X57000Y-87250
X57000Y-90250
X57000Y-121000
X57000Y-124000
X57500Y-53800
X57750Y-85750
X57750Y-88750
X57750Y-91750
X57750Y-119500
X57750Y-122500
X57750Y-125500
X58500Y-87250
X58500Y-90250
X58500Y-121000
X58500Y-124000
X58560Y-29690
X59250Y-66500
X59400Y-143200
X59600Y-145800
X59600Y-157600
X59600Y-165000
X60400Y-161000
X60500Y-90030
X60500Y-91000
X60500Y-123780
X60500Y-124750
X61200Y-89100
X61300Y-46800
X61400Y-149200
X61700Y-47900
X62600Y-67000
X64200Y-172600
X64750Y-72000
X64800Y-122200
X64962Y-89330
X64962Y-123080
X65000Y-138600
X66000Y-72500
X66000Y-106250
X66502Y-89330
X66502Y-123080
X67400Y-54700
X68000Y-79000
X68000Y-95250
X68000Y-98500
X68000Y-112750
X68000Y-129000
X68000Y-132250
X68000Y-143500
X68000Y-145500
X68250Y-83750
X68250Y-88750
X68250Y-122500
X68400Y-117500
X69000Y-142500
X69000Y-144500
X69000Y-146500
X69000Y-154000
X69000Y-169000
X69400Y-137513
X69900Y-151100
X70000Y-153000
X70000Y-155000
X70000Y-168000
X70000Y-170000
X70250Y-76750
X70480Y-53320
X70500Y-147000
X71000Y-156000
X71000Y-167000
X71250Y-70250
X71250Y-104000
X71400Y-59600
X71600Y-136200
X71800Y-115980
X72000Y-147000
X72000Y-155000
X72000Y-168000
X72150Y-82250
X72200Y-55400
X72300Y-85500
X72400Y-79400
X72400Y-111400
X72600Y-119300
X72880Y-83880
X72950Y-52550
X73000Y-156000
X73000Y-167000
X73250Y-77000
X73250Y-110750
X73500Y-147000
X74000Y-155000
X74000Y-168000
X74200Y-53730
X74400Y-102400
X74600Y-90000
X74800Y-136400
X74900Y-55300
X75000Y-113000
X75000Y-147000
X75000Y-154000
X75000Y-156000
X75000Y-167000
X75000Y-169000
X75600Y-88000
X75600Y-91000
X75600Y-95000
X75970Y-128070
X76000Y-47400
X76000Y-142000
X76000Y-143500
X76000Y-145000
X76000Y-146500
X76000Y-153000
X76000Y-168000
X76000Y-170000
X76200Y-125800
X76600Y-147900
X76900Y-126600
X77200Y-148700
X77800Y-132800
X78000Y-139500
X78200Y-136400
X78500Y-131500
X79400Y-132800
X80000Y-139500
X80500Y-131500
X81100Y-132800
X81700Y-139500
X82500Y-131400
X82500Y-141800
X83600Y-151800
X83600Y-171800
X84500Y-94500
X84500Y-99500
X85000Y-116400
X86000Y-92000
X86000Y-97000
X86400Y-107000
X88500Y-93500
X90000Y-116400
X91000Y-92500
X92600Y-59200
X93500Y-93500
X94200Y-139800
X94400Y-116400
X94400Y-124400
X96000Y-92500
X96000Y-110200
X98500Y-93500
X100000Y-114000
X100000Y-116000
X100000Y-117800
X100000Y-129500
X100330Y-51430
X100500Y-140000
X100688Y-132487
X100800Y-113000
X100800Y-115000
X100800Y-117000
X101000Y-92500
X101000Y-126000
X101000Y-129000
X101000Y-130500
X101000Y-137000
X101000Y-139000
X101400Y-35600
X101400Y-110600
X101400Y-110600
X101400Y-120800
X101500Y-141000
X101600Y-69000
X102000Y-117800
X102000Y-125000
X102060Y-29690
X102500Y-142000
X103000Y-117200
X103000Y-124000
X103500Y-141000
X104000Y-117800
X104000Y-125000
X104500Y-142000
X104750Y-65750
X105000Y-117200
X105000Y-124000
X105400Y-155000
X105500Y-141000
X105750Y-70500
X105750Y-71250
X105750Y-72250
X105750Y-73000
X106000Y-117800
X106000Y-125000
X106400Y-109400
X106500Y-142000
X106750Y-70500
X106750Y-71250
X106750Y-72250
X106750Y-73000
X107000Y-117200
X107000Y-124000
X107500Y-137000
X107500Y-139000
X107500Y-141000
X107600Y-113600
X107600Y-115400
X107750Y-70500
X107750Y-71250
X107750Y-72250
X107750Y-73000
X108000Y-117800
X108000Y-125000
X108000Y-129000
X108000Y-130500
X108200Y-112600
X108200Y-114400
X108200Y-116400
X108500Y-137500
X108500Y-140000
X109000Y-113600
X109000Y-115400
X109000Y-117200
X109000Y-126000
X109000Y-129500
X109200Y-93600
X109800Y-133600
X110000Y-132000
X111500Y-70750
X111750Y-64500
X112000Y-161500
X112000Y-163500
X112250Y-65500
X112500Y-159000
X113000Y-160500
X113000Y-162500
X113000Y-164500
X114000Y-159500
X114000Y-161500
X114000Y-163500
X114000Y-165500
X115000Y-158500
X115000Y-164500
X115800Y-49800
X116000Y-159500
X116000Y-165500
X116500Y-164500
X116800Y-143800
X117000Y-158500
X117600Y-57400
X117900Y-99500
X118040Y-159740
X119400Y-132000
X119600Y-149800
X120000Y-124000
X120000Y-125700
X120000Y-133600
X120100Y-122100
X120200Y-120800
X120300Y-112000
X121000Y-134000
X121100Y-110200
X121100Y-113000
X121100Y-127500
X121200Y-172800
X122600Y-132400
X123040Y-170240
X123300Y-149800
X123500Y-147500
X125000Y-140900
X125300Y-110200
X125300Y-112000
X125500Y-125100
X125600Y-145000
X125600Y-152900
X125800Y-58800
X125800Y-118500
X126800Y-132600
X127100Y-152900
X127300Y-46200
X128200Y-43200
X128600Y-132600
X128825Y-145725
X128900Y-147300
X128900Y-153500
X129600Y-113000
X129647Y-120653
X129790Y-127710
X130300Y-139100
X130300Y-157400
X130400Y-128800
X130400Y-132600
X130517Y-119738
X130600Y-127700
X131900Y-120700
X132000Y-115700
X132300Y-121700
X132300Y-144200
X132500Y-155100
X132600Y-132000
X132700Y-112300
X132800Y-92750
X132900Y-88700
X132900Y-88700
X132900Y-119700
X133100Y-145000
X133700Y-124800
X133800Y-145400
X135388Y-105813
X135400Y-113400
X136550Y-92750
X136550Y-93500
X136550Y-94250
X136700Y-114900
X136700Y-116700
X137000Y-149270
X137100Y-153500
X137300Y-92750
X137300Y-93500
X137300Y-94250
X137300Y-131300
X137300Y-132900
X137350Y-140950
X137400Y-89700
X137400Y-89700
X137688Y-135013
X137800Y-157400
X138050Y-92750
X138050Y-93500
X138050Y-94250
X138100Y-118930
X138800Y-92750
X138800Y-93500
X138800Y-94250
X138900Y-124300
X139000Y-155100
X139188Y-126113
X139300Y-104500
X139500Y-119500
X139800Y-96250
X140000Y-112300
X140050Y-83000
X140050Y-85000
X140050Y-86250
X140050Y-88250
X140100Y-110500
X140100Y-136900
X140200Y-142200
X140300Y-90750
X140480Y-140380
X140550Y-104500
X140600Y-120700
X140630Y-122500
X140700Y-153100
X141200Y-121700
X141200Y-135800
X141200Y-145000
X141200Y-147700
X141500Y-95500
X141800Y-104500
X141800Y-148700
X142200Y-123400
X142300Y-138000
X142700Y-148900
X142700Y-155100
X143400Y-163800
X143600Y-144200
X143600Y-148200
X143686Y-50976
X144300Y-137600
X144500Y-135200
X145000Y-35800
X145560Y-29690
X146800Y-164200
X147700Y-144900
X147700Y-146700
X148300Y-90750
X149400Y-156400
X149600Y-172800
X149750Y-125000
X149750Y-127000
X149750Y-128250
X149750Y-130250
X151000Y-122000
X151000Y-123500
X151500Y-140000
X151500Y-141500
X151800Y-90000
X151800Y-91500
X153000Y-48800
X153025Y-135725
X153050Y-83250
X153050Y-85250
X153050Y-86500
X153050Y-88500
X154200Y-68800
X154500Y-122750
X155200Y-58000
X155500Y-137250
X156038Y-133463
X156600Y-130800
X157250Y-65500
X157750Y-136000
X158000Y-140500
X158250Y-70250
X158250Y-71000
X158250Y-72000
X158250Y-72750
X158400Y-153200
X159250Y-70250
X159250Y-71000
X159250Y-72000
X159250Y-72750
X159600Y-133430
X160250Y-70250
X160250Y-71000
X160250Y-72000
X160250Y-72750
X160250Y-119000
X161000Y-109000
X161500Y-140000
X162000Y-97000
X162250Y-109000
X162500Y-122750
X162750Y-125250
X162750Y-127250
X162750Y-128500
X162750Y-130500
X163000Y-117250
X163500Y-109000
X164000Y-70500
X164000Y-119250
X164000Y-120000
X164000Y-120750
X164250Y-64250
X164750Y-65250
X164750Y-119250
X164750Y-120000
X164750Y-120750
X165400Y-123800
X165500Y-119250
X165500Y-120000
X165500Y-120750
X166243Y-85090
X166243Y-90043
X166250Y-119250
X166250Y-120000
X166250Y-120750
X167600Y-153600
X169033Y-148713
X169033Y-172847
X169900Y-124800
X170000Y-120750
X170200Y-137200
X170500Y-129250
X171323Y-172212
X171577Y-131572
X172085Y-112268
X172500Y-123700
X176200Y-133800
X177800Y-76200
X178000Y-128600
X179750Y-168250
X180350Y-117050
X180350Y-133250
X182600Y-60200
X182750Y-144250
X183000Y-76000
X184500Y-137500
X184500Y-144250
X185750Y-169750
X186200Y-102200
X187250Y-136750
X187500Y-160250
X187776Y-48571
X188000Y-35800
X188750Y-145500
X188800Y-97600
X189000Y-141750
X189060Y-29690
X190250Y-136750
X190300Y-117100
X190300Y-134600
X190750Y-150500
X191500Y-155250
X191750Y-145500
X192400Y-57000
X193600Y-117100
X193600Y-136000
X194000Y-143000
X194750Y-151750
X194800Y-108800
X195707Y-94742
X196000Y-51200
X196500Y-160000
X196600Y-120600
X198048Y-113000
X199064Y-137000
X199064Y-147574
X199263Y-172847
X199600Y-108200
X200000Y-86200
X201041Y-73279
X201041Y-77089
X202646Y-163622
X203200Y-57600
X204089Y-74549
X204724Y-164211
X205304Y-157963
X205359Y-68707
X206000Y-137000
X206200Y-51200
X206375Y-62992
X206502Y-85979
X207100Y-77700
X207100Y-80500
X207124Y-163817
X208026Y-86106
X208866Y-58265
X208870Y-64008
X209169Y-68834
X209533Y-57861
X210000Y-154750
X210185Y-89027
X210300Y-66100
X210400Y-69000
X210459Y-137000
X210600Y-57600
X211074Y-137795
X211200Y-58200
X211250Y-154000
X211599Y-63399
X211623Y-61823
X211800Y-56786
X212000Y-159750
X212600Y-58400
X212750Y-154500
X212852Y-90043
X213000Y-119400
X213400Y-97400
X213600Y-107400
X213741Y-77000
X213741Y-77978
X213820Y-67409
X213855Y-69255
X214000Y-73000
X214122Y-60960
X214400Y-68200
X214400Y-72000
X214400Y-139800
X214503Y-83947
X214800Y-75600
X215000Y-60400
X215265Y-82550
X215265Y-90551
X215400Y-76200
X215519Y-51054
X215900Y-60400
X216200Y-72800
X216800Y-95800
X217000Y-60400
X217600Y-57800
X217600Y-96600
X217750Y-113000
X218059Y-51435
X218821Y-94742
X219456Y-81534
X219456Y-84709
X220044Y-77800
X220345Y-95377
X220386Y-80897
X220400Y-81800
X220472Y-54483
X220648Y-62448
X220726Y-49911
X220800Y-65400
X220963Y-149963
X221200Y-69200
X221361Y-90678
X221400Y-123700
X221600Y-62400
X222000Y-140000
X222250Y-156750
X222370Y-59400
X222885Y-49652
X223520Y-74676
X223600Y-77400
X224200Y-74000
X224400Y-57071
X224400Y-151200
X224464Y-62664
X224600Y-158200
X225271Y-58437
X225330Y-49181
X225400Y-72800
X225401Y-77954
X225425Y-89535
X225800Y-55571
X225806Y-65532
X225900Y-62600
X226000Y-72000
X226187Y-70030
X226300Y-66700
X226496Y-57600
X226496Y-63363
X226695Y-86487
X227000Y-96000
X227330Y-84709
X227600Y-58400
X227600Y-116800
X227600Y-134900
X227965Y-50038
X227965Y-84201
X228346Y-54229
X228400Y-98400
X228981Y-68072
X229000Y-84400
X229000Y-88200
X229020Y-93980
X229100Y-63400
X229108Y-70030
X229616Y-50501
X230124Y-153800
X230124Y-161798
X230323Y-56134
X230378Y-71374
X230378Y-70358
X230392Y-86392
X230475Y-76113
X230505Y-111434
X230900Y-47700
X231049Y-87033
X231075Y-57800
X231600Y-35600
X231648Y-71501
X231994Y-56560
X232299Y-55842
X232410Y-64262
X232410Y-111054
X232560Y-29690
X232600Y-72800
X232664Y-145449
X233100Y-48700
X233425Y-79375
X233600Y-76900
X233759Y-110665
X233759Y-110665
X234600Y-84000
X234600Y-107600
X234950Y-82296
X235000Y-87600
X235331Y-174371
X235600Y-48100
X235712Y-148209
X236250Y-113102
X236400Y-97800
X236500Y-75400
X236500Y-81500
X236664Y-82868
X236800Y-57800
X236900Y-72000
X237200Y-96000
X238129Y-108835
X238400Y-76600
X238633Y-65913
X239200Y-57000
X239400Y-94000
X239903Y-80010
X240665Y-108585
X240792Y-69469
X240792Y-80645
X240800Y-96600
X242316Y-108453
X242400Y-90800
X242800Y-97800
X245000Y-95400
X245618Y-56388
X245619Y-88899
X246600Y-148800
X246800Y-117100
X246800Y-136000
X246888Y-159639
X248056Y-80574
X248070Y-61730
X250200Y-118400
X251000Y-129000
X251400Y-85200
X252000Y-78000
X252200Y-58400
X252200Y-70600
X252200Y-90600
X253111Y-113229
X253111Y-124460
X253800Y-49600
X254000Y-114173
X254000Y-126111
X254127Y-87244
X254600Y-107000
X254800Y-103800
X255524Y-94615
X255524Y-99568
X255800Y-137400
X256800Y-119400
X258200Y-59800
X259000Y-61000
X259715Y-55113
X259800Y-60200
X260000Y-100800
X260200Y-148200
X260235Y-73465
X260350Y-114372
X260350Y-133604
X260550Y-69900
X260600Y-104200
X260800Y-157000
X262800Y-155000
X263400Y-78000
X264050Y-69900
X266000Y-134400
X266192Y-65024
X266192Y-84963
X266400Y-127800
X266800Y-123200
X266954Y-64389
X266954Y-84328
X267000Y-167600
X267208Y-63627
X267716Y-84018
X268200Y-136200
X268213Y-62288
X268605Y-84836
X268605Y-93599
X270800Y-67800
X270800Y-69200
X271000Y-70537
X271200Y-122600
X272400Y-139400
X272600Y-78200
X272638Y-73163
X272800Y-87400
X273200Y-100800
X274000Y-107000
X274750Y-68750
X275000Y-35600
X275000Y-122400
X275200Y-90400
X275800Y-73200
X276060Y-29690
X276380Y-81788
X279000Y-82000
X279019Y-114372
X280000Y-73200
X281686Y-91948
X282000Y-77800
X282448Y-81788
X283600Y-88600
X283718Y-101630
X284000Y-82400
X284400Y-64000
X284400Y-65700
X284400Y-67400
X284400Y-69100
X284400Y-70800
X284400Y-72600
X284480Y-166888
X284495Y-163205
X284988Y-101219
X285200Y-74000
X285745Y-166888
X285773Y-163192
X286000Y-74600
X286400Y-61400
X286750Y-101000
X286893Y-75180
X286893Y-81342
X287000Y-45600
X287390Y-140010
X287400Y-85600
X287600Y-93600
X288398Y-123998
X289306Y-131191
X289306Y-134874
X289524Y-125476
X289800Y-154200
X289900Y-46300
X290322Y-132588
X290659Y-130600
X291155Y-126492
X291211Y-134493
X291500Y-74194
X291500Y-75306
X292800Y-102200
X293600Y-105200
X294063Y-121263
X294535Y-133938
X294600Y-127000
X294829Y-120591
X295000Y-72750
X295000Y-118800
X295000Y-160600
X295250Y-84250
X295275Y-112821
X295275Y-117602
X295400Y-126400
X295423Y-119867
X295537Y-92538
X295600Y-132800
X295910Y-116967
X296000Y-112600
X296037Y-163449
X296051Y-119140
X296500Y-76500
X296672Y-118237
X297200Y-132800
X297600Y-76650
X297750Y-83000
X299000Y-98200
X299720Y-132334
X299720Y-133350
X299720Y-134239
X299750Y-92500
X300000Y-105800
X300228Y-124714
X300750Y-72750
X300800Y-120200
X302133Y-163576
X302850Y-34650
X302895Y-125984
X303022Y-129794
X303022Y-130683
X303748Y-27778
X303750Y-31500
X304000Y-74194
X304000Y-75306
X304200Y-27000
X304200Y-92200
X305000Y-89500
X305181Y-51943
X305250Y-84750
X305435Y-51054
X306600Y-119200
X307500Y-27500
X307500Y-72750
X308500Y-87250
X309000Y-76500
X309245Y-131318
X309250Y-85000
X309600Y-165800
X310100Y-76650
X310200Y-154200
X310261Y-133858
X310896Y-130556
X311023Y-132461
X311023Y-133477
X311150Y-126619
X311200Y-76700
X311531Y-112005
X311531Y-116327
X311785Y-164973
X312000Y-35400
X312000Y-77300
X312420Y-112522
X312600Y-78000
X313000Y-107500
X313055Y-111625
X313055Y-115819
X313250Y-72750
X313750Y-104000
X313750Y-105500
X314071Y-111245
X314071Y-116073
X314400Y-134400
X314750Y-104000
X314750Y-105500
X315142Y-110236
X315200Y-114803
X315214Y-126365
X315250Y-95250
X315722Y-113411
X315849Y-109850
X315976Y-108961
X315976Y-126619
X316000Y-132600
X316500Y-74194
X316500Y-75306
X316600Y-35800
X316738Y-83693
X316865Y-114427
X317800Y-114600
X317881Y-126746
X317963Y-101962
X318500Y-97750
X319079Y-165100
X319151Y-116327
X319463Y-90038
X319560Y-29690
X319600Y-133200
X320000Y-72750
X320250Y-93250
X320250Y-94750
X320675Y-116332
X320675Y-124714
X321250Y-93250
X321250Y-94750
X321500Y-76500
X321750Y-110000
X321800Y-140200
X322400Y-153600
X323000Y-112800
X323088Y-130302
X323088Y-131826
X323469Y-125730
X324866Y-87249
X324930Y-165870
X325750Y-72750
X326150Y-107600
X327470Y-86868
X328200Y-163000
X328676Y-82042
X328676Y-108966
X329000Y-74194
X329000Y-75306
X329438Y-81534
X329438Y-108585
X332486Y-166751
X332500Y-72750
X333000Y-93000
X334000Y-76500
X335500Y-93000
X336250Y-99750
X336250Y-103500
X338000Y-93000
X338000Y-100500
X338250Y-72750
X338500Y-104750
X338500Y-106250
X338500Y-108750
X339090Y-165608
X339300Y-53100
X339713Y-93538
X339800Y-139400
X341000Y-155800
X341500Y-74194
X341500Y-75306
X341750Y-92750
X343250Y-108000
X343500Y-94750
X345000Y-72750
X345100Y-101500
X345185Y-102275
X345500Y-108500
X345750Y-100250
X346037Y-93538
X346500Y-76500
X347500Y-90250
X347750Y-103599
X348750Y-106750
X349300Y-44400
X349300Y-55300
X349750Y-98500
X350200Y-60800
X350250Y-99250
X350491Y-103019
X350500Y-101000
X350500Y-102000
X350750Y-98000
X350750Y-72750
X351250Y-90500
X351900Y-87800
X352000Y-96000
X352250Y-107500
X352315Y-82985
X352405Y-75205
X352500Y-104500
X352780Y-96000
X353145Y-70555
X353700Y-50400
X353750Y-96000
X354535Y-99420
X354600Y-50000
X354880Y-69420
X355300Y-49200
X356100Y-48900
X357000Y-46900
X357250Y-93000
X357700Y-47500
X357750Y-95750
X357800Y-150200
X358400Y-129000
X358463Y-106788
X358463Y-108713
X359200Y-62600
X359750Y-101750
X360800Y-166600
X361300Y-66000
X361800Y-35600
X362200Y-81400
X363000Y-97800
X363060Y-29690
X364000Y-64900
X364750Y-81750
X365100Y-75200
X365500Y-79600
X365650Y-77350
X365650Y-80650
X365930Y-69430
X366000Y-89800
X367680Y-85120
X368450Y-81750
X369050Y-77350
T3
X23475Y-25750
X23475Y-41250
X24068Y-24318
X24068Y-27182
X24068Y-39818
X24068Y-42682
X24190Y-33980
X25500Y-23725
X25500Y-27775
X25500Y-39225
X25500Y-43275
X26730Y-33020
X26932Y-24318
X26932Y-27182
X26932Y-39818
X26932Y-42682
X27525Y-25750
X27525Y-41250
X29270Y-33980
X31810Y-33020
X42250Y-80250
X42250Y-114000
X43500Y-80250
X43500Y-114000
X44750Y-87000
X44750Y-88500
X44750Y-120750
X44750Y-122250
X45000Y-93750
X45000Y-127500
X45250Y-83750
X45250Y-117500
X49250Y-70500
X49250Y-77000
X49250Y-104250
X49250Y-110750
X50725Y-83225
X50725Y-116975
X50750Y-90750
X50750Y-124500
X50750Y-131750
X51000Y-85500
X51000Y-92500
X51000Y-119250
X51000Y-126250
X52000Y-131750
X52250Y-98000
X53500Y-98000
X54250Y-70500
X54250Y-77000
X54250Y-104250
X54250Y-110750
X57725Y-24750
X57725Y-42250
X58318Y-23318
X58318Y-26182
X58318Y-40818
X58318Y-43682
X59750Y-22725
X59750Y-26775
X59750Y-40225
X59750Y-44275
X60230Y-32230
X61182Y-23318
X61182Y-26182
X61182Y-40818
X61182Y-43682
X61575Y-88000
X61575Y-122175
X61775Y-24750
X61775Y-42250
X63000Y-70250
X63000Y-71500
X63250Y-95250
X63250Y-129000
X65050Y-83300
X65050Y-117050
X65250Y-93750
X65250Y-127500
X66950Y-83300
X66950Y-93700
X66950Y-117050
X66950Y-127450
X66975Y-25750
X66975Y-41250
X67568Y-24318
X67568Y-27182
X67568Y-39818
X67568Y-42682
X67690Y-33980
X68900Y-64000
X69000Y-23725
X69000Y-27775
X69000Y-39225
X69000Y-43275
X70230Y-33020
X70432Y-24318
X70432Y-27182
X70432Y-39818
X70432Y-42682
X71025Y-25750
X71025Y-41250
X71470Y-63988
X72770Y-33980
X75000Y-100800
X75310Y-33020
X76000Y-100800
X82800Y-82000
X82800Y-85000
X86000Y-86400
X87600Y-85600
X88000Y-78500
X90200Y-85600
X93250Y-69750
X93400Y-85600
X96600Y-85600
X99800Y-85600
X101225Y-24750
X101225Y-42250
X101818Y-23318
X101818Y-26182
X101818Y-40818
X101818Y-43682
X103000Y-85600
X103250Y-22725
X103250Y-26775
X103250Y-40225
X103250Y-44275
X103730Y-32230
X104682Y-23318
X104682Y-26182
X104682Y-40818
X104682Y-43682
X105275Y-24750
X105275Y-42250
X106200Y-85600
X108150Y-78400
X109400Y-85600
X110475Y-25750
X110475Y-41250
X111068Y-24318
X111068Y-27182
X111068Y-39818
X111068Y-42682
X111190Y-33980
X112500Y-23725
X112500Y-27775
X112500Y-39225
X112500Y-43275
X112600Y-85600
X113730Y-33020
X113932Y-24318
X113932Y-27182
X113932Y-39818
X113932Y-42682
X114525Y-25750
X114525Y-41250
X115200Y-173600
X116270Y-33980
X116400Y-173600
X117000Y-68000
X118200Y-78200
X118810Y-33020
X119000Y-77400
X131600Y-80600
X138550Y-82000
X140500Y-78250
X141200Y-158000
X144200Y-156600
X144725Y-24750
X144725Y-42250
X145318Y-23318
X145318Y-26182
X145318Y-40818
X145318Y-43682
X145750Y-69500
X146000Y-156600
X146750Y-22725
X146750Y-26775
X146750Y-40225
X146750Y-44275
X147230Y-32230
X148182Y-23318
X148182Y-26182
X148182Y-40818
X148182Y-43682
X148200Y-156600
X148775Y-24750
X148775Y-42250
X150400Y-131600
X151200Y-151800
X151200Y-154200
X151400Y-131600
X153975Y-25750
X153975Y-41250
X154550Y-81000
X154550Y-82000
X154568Y-24318
X154568Y-27182
X154568Y-39818
X154568Y-42682
X154690Y-33980
X156000Y-23725
X156000Y-27775
X156000Y-39225
X156000Y-43275
X157230Y-33020
X157432Y-24318
X157432Y-27182
X157432Y-39818
X157432Y-42682
X158025Y-25750
X158025Y-41250
X159770Y-33980
X160650Y-78150
X162310Y-33020
X164250Y-131500
X169500Y-67750
X171400Y-77600
X172200Y-78400
X188225Y-24750
X188225Y-42250
X188818Y-23318
X188818Y-26182
X188818Y-40818
X188818Y-43682
X190250Y-22725
X190250Y-26775
X190250Y-40225
X190250Y-44275
X190730Y-32230
X191682Y-23318
X191682Y-26182
X191682Y-40818
X191682Y-43682
X192275Y-24750
X192275Y-42250
X197475Y-25750
X197475Y-41250
X198068Y-24318
X198068Y-27182
X198068Y-39818
X198068Y-42682
X198190Y-33980
X199500Y-23725
X199500Y-27775
X199500Y-39225
X199500Y-43275
X200730Y-33020
X200932Y-24318
X200932Y-27182
X200932Y-39818
X200932Y-42682
X201525Y-25750
X201525Y-41250
X203270Y-33980
X205810Y-33020
X212725Y-164751
X214600Y-146600
X231725Y-24750
X231725Y-42250
X232318Y-23318
X232318Y-26182
X232318Y-40818
X232318Y-43682
X233750Y-22725
X233750Y-26775
X233750Y-40225
X233750Y-44275
X234230Y-32230
X235182Y-23318
X235182Y-26182
X235182Y-40818
X235182Y-43682
X235775Y-24750
X235775Y-42250
X240975Y-25750
X240975Y-41250
X241568Y-24318
X241568Y-27182
X241568Y-39818
X241568Y-42682
X241690Y-33980
X243000Y-23725
X243000Y-27775
X243000Y-39225
X243000Y-43275
X244230Y-33020
X244432Y-24318
X244432Y-27182
X244432Y-39818
X244432Y-42682
X245025Y-25750
X245025Y-41250
X246770Y-33980
X249310Y-33020
X275225Y-24750
X275225Y-42250
X275818Y-23318
X275818Y-26182
X275818Y-40818
X275818Y-43682
X276750Y-66000
X277250Y-22725
X277250Y-26775
X277250Y-40225
X277250Y-44275
X277730Y-32230
X278682Y-23318
X278682Y-26182
X278682Y-40818
X278682Y-43682
X279275Y-24750
X279275Y-42250
X280050Y-53200
X282475Y-121500
X282475Y-170500
X283068Y-120068
X283068Y-122932
X283068Y-169068
X283068Y-171932
X284475Y-25750
X284475Y-41250
X284500Y-119475
X284500Y-123525
X284500Y-168475
X284500Y-172525
X285068Y-24318
X285068Y-27182
X285068Y-39818
X285068Y-42682
X285190Y-33980
X285932Y-120068
X285932Y-122932
X285932Y-169068
X285932Y-171932
X286500Y-23725
X286500Y-27775
X286500Y-39225
X286500Y-43275
X286525Y-121500
X286525Y-170500
X287730Y-33020
X287932Y-24318
X287932Y-27182
X287932Y-39818
X287932Y-42682
X288525Y-25750
X288525Y-41250
X290270Y-33980
X292810Y-33020
X301100Y-53050
X318725Y-24750
X318725Y-42250
X319318Y-23318
X319318Y-26182
X319318Y-40818
X319318Y-43682
X320750Y-22725
X320750Y-26775
X320750Y-40225
X320750Y-44275
X321230Y-32230
X322182Y-23318
X322182Y-26182
X322182Y-40818
X322182Y-43682
X322775Y-24750
X322775Y-42250
X322800Y-53200
X327975Y-25750
X327975Y-41250
X328568Y-24318
X328568Y-27182
X328568Y-39818
X328568Y-42682
X328690Y-33980
X330000Y-23725
X330000Y-27775
X330000Y-39225
X330000Y-43275
X331230Y-33020
X331432Y-24318
X331432Y-27182
X331432Y-39818
X331432Y-42682
X332025Y-25750
X332025Y-41250
X333770Y-33980
X336310Y-33020
X340475Y-121500
X340475Y-170500
X341068Y-120068
X341068Y-122932
X341068Y-169068
X341068Y-171932
X342500Y-119475
X342500Y-123525
X342500Y-168475
X342500Y-172525
X343932Y-120068
X343932Y-122932
X343932Y-169068
X343932Y-171932
X344525Y-121500
X344525Y-170500
X356750Y-64250
X362225Y-24750
X362225Y-42250
X362818Y-23318
X362818Y-26182
X362818Y-40818
X362818Y-43682
X364250Y-22725
X364250Y-26775
X364250Y-40225
X364250Y-44275
X364730Y-32230
X365682Y-23318
X365682Y-26182
X365682Y-40818
X365682Y-43682
X366275Y-24750
X366275Y-42250
T5
X364738Y-96750
X364738Y-101750
T6
X35300Y-167900
X37800Y-167900
X40300Y-167900
X42800Y-167900
X45300Y-167900
T7
X195834Y-127838
X195834Y-130378
X195834Y-167835
X195834Y-170375
X198374Y-127838
X198374Y-130378
X198374Y-167835
X198374Y-170375
X199811Y-101259
X200914Y-127838
X200914Y-130378
X200914Y-167835
X200914Y-170375
X202351Y-101259
X203454Y-127838
X203454Y-130378
X203454Y-167835
X203454Y-170375
X204891Y-101259
X205994Y-127838
X205994Y-130378
X205994Y-167835
X205994Y-170375
X207431Y-101259
X208534Y-127838
X208534Y-130378
X208534Y-167835
X208534Y-170375
X208960Y-53000
X209971Y-101259
X211074Y-127838
X211074Y-130378
X211074Y-167835
X211074Y-170375
X211500Y-53000
X212511Y-101259
X213614Y-127838
X213614Y-130378
X213614Y-167835
X213614Y-170375
X214040Y-53000
X215051Y-101259
X216154Y-127838
X216154Y-130378
X216154Y-167835
X216154Y-170375
X216580Y-53000
X217591Y-101259
X218694Y-127838
X218694Y-130378
X218694Y-167835
X218694Y-170375
X219120Y-53000
X220131Y-101259
X221234Y-127838
X221234Y-130378
X221234Y-167835
X221234Y-170375
X221660Y-53000
X222671Y-101259
X223774Y-127838
X223774Y-130378
X223774Y-167835
X223774Y-170375
X224200Y-53000
X226314Y-127838
X226314Y-130378
X226314Y-167835
X226314Y-170375
X226735Y-101259
X226740Y-53000
X228854Y-127838
X228854Y-130378
X228854Y-167835
X228854Y-170375
X229275Y-101259
X231394Y-127838
X231394Y-130378
X231394Y-167835
X231394Y-170375
X231800Y-53000
X231815Y-101259
X233934Y-127838
X233934Y-130378
X233934Y-167835
X233934Y-170375
X234340Y-53000
X234355Y-101259
X236474Y-127838
X236474Y-130378
X236474Y-167835
X236474Y-170375
X236880Y-53000
X236895Y-101259
X239014Y-127838
X239014Y-130378
X239014Y-167835
X239014Y-170375
X239420Y-53000
X239435Y-101259
X241554Y-127838
X241554Y-130378
X241554Y-167835
X241554Y-170375
X241960Y-53000
X241975Y-101259
X244094Y-127838
X244094Y-130378
X244094Y-167835
X244094Y-170375
X244500Y-53000
X244515Y-101259
X289370Y-169230
X289370Y-171770
X291910Y-169230
X291910Y-171770
X294450Y-169230
X294450Y-171770
X296990Y-169230
X296990Y-171770
X299530Y-169230
X299530Y-171770
X302070Y-169230
X302070Y-171770
X304610Y-169230
X304610Y-171770
X307150Y-169230
X307150Y-171770
X309690Y-169230
X309690Y-171770
X312230Y-169230
X312230Y-171770
X314770Y-169230
X314770Y-171770
X317310Y-169230
X317310Y-171770
X319850Y-169230
X319850Y-171770
X322390Y-169230
X322390Y-171770
X324930Y-169230
X324930Y-171770
X327470Y-169230
X327470Y-171770
X330010Y-169230
X330010Y-171770
X332550Y-169230
X332550Y-171770
X333050Y-83500
X333050Y-87250
X335090Y-169230
X335090Y-171770
X335590Y-83500
X335590Y-87250
X337630Y-169230
X337630Y-171770
X338130Y-83500
X338130Y-87250
X340670Y-83500
X340670Y-87250
X343210Y-83500
X343210Y-87250
X345750Y-83500
X345750Y-87250
X362760Y-111760
X365760Y-111760
T8
X26450Y-62145
X26500Y-73250
X26500Y-76250
X26500Y-79250
X26500Y-87250
X26500Y-90250
X26500Y-93250
X26500Y-96250
X26500Y-107000
X26500Y-110000
X26500Y-113000
X26500Y-121000
X26500Y-124000
X26500Y-127000
X26500Y-130000
X29450Y-62145
X32450Y-62145
X36300Y-53400
X39300Y-53400
X42300Y-53400
X62600Y-57500
X65600Y-57500
X82750Y-65500
X82750Y-68500
X135250Y-65250
X135250Y-68250
X155750Y-146250
X158750Y-146250
X161750Y-146250
X164750Y-146250
X174500Y-152000
X174500Y-155000
X174500Y-158000
X174500Y-161000
X263250Y-85750
X263250Y-88750
X263250Y-91750
X263250Y-94750
X263250Y-97750
X263250Y-100750
X263250Y-103750
X263250Y-106750
X264000Y-57200
X267000Y-57200
X270000Y-57200
X273000Y-57200
X276000Y-57200
X285400Y-57250
X288400Y-57250
X291400Y-57250
X291500Y-85250
X291500Y-88250
X291500Y-91250
X293250Y-69750
X294400Y-57250
X296250Y-69750
X297400Y-57250
X305750Y-69750
X307000Y-57250
X308750Y-69750
X310000Y-57250
X313000Y-57250
X316000Y-57250
X318250Y-69750
X319000Y-57250
X321250Y-69750
X328600Y-57250
X330750Y-69750
X331600Y-57250
X333750Y-69750
X334600Y-57250
X337600Y-57250
X340600Y-57250
X343250Y-69750
X346250Y-69750
T9
X53800Y-154600
X53800Y-160300
X93800Y-162200
X93800Y-167900
X99500Y-162200
X99500Y-167900
X161900Y-163800
X161900Y-169500
T10
X25500Y-25750
X25500Y-41250
X59750Y-24750
X59750Y-42250
X69000Y-25750
X69000Y-41250
X103250Y-24750
X103250Y-42250
X112500Y-25750
X112500Y-41250
X146750Y-24750
X146750Y-42250
X156000Y-25750
X156000Y-41250
X190250Y-24750
X190250Y-42250
X199500Y-25750
X199500Y-41250
X233750Y-24750
X233750Y-42250
X243000Y-25750
X243000Y-41250
X277250Y-24750
X277250Y-42250
X284500Y-121500
X284500Y-170500
X286500Y-25750
X286500Y-41250
X320750Y-24750
X320750Y-42250
X330000Y-25750
X330000Y-41250
X342500Y-121500
X342500Y-170500
X364250Y-24750
X364250Y-42250
T11
X26000Y-52000
X26000Y-169000
X170561Y-99695
X275000Y-169000
X364000Y-52000
T4
G00X367088Y-95750
M15
G01X367787Y-95750
M16
G05
G00X367787Y-102750
M15
G01X367088Y-102750
M16
G05
T0
M30
