%TF.GenerationSoftware,KiCad,Pcbnew,(5.1.9-16-g1737927814)-1*%
%TF.CreationDate,2021-03-30T22:33:33-04:00*%
%TF.ProjectId,Ventilator,56656e74-696c-4617-946f-722e6b696361,A*%
%TF.SameCoordinates,PX1312d00PY1312d00*%
%TF.FileFunction,Soldermask,Bot*%
%TF.FilePolarity,Negative*%
%FSLAX46Y46*%
G04 Gerber Fmt 4.6, Leading zero omitted, Abs format (unit mm)*
G04 Created by KiCad (PCBNEW (5.1.9-16-g1737927814)-1) date 2021-03-30 22:33:33*
%MOMM*%
%LPD*%
G01*
G04 APERTURE LIST*
%ADD10O,1.900000X1.200000*%
%ADD11C,1.450000*%
%ADD12O,2.020000X1.500000*%
%ADD13C,1.270000*%
%ADD14O,1.500000X2.020000*%
%ADD15C,1.500000*%
%ADD16C,1.000000*%
%ADD17C,1.800000*%
%ADD18C,3.700000*%
%ADD19C,0.800000*%
%ADD20C,5.400000*%
%ADD21R,1.700000X1.700000*%
%ADD22O,1.700000X1.700000*%
%ADD23C,9.000000*%
%ADD24O,1.700000X1.950000*%
G04 APERTURE END LIST*
D10*
%TO.C,J50*%
X347437500Y-75750000D03*
X347437500Y-82750000D03*
D11*
X344737500Y-76750000D03*
X344737500Y-81750000D03*
%TD*%
D12*
%TO.C,J11*%
X243250000Y-65750000D03*
X243250000Y-68750000D03*
X243250000Y-71750000D03*
X243250000Y-74750000D03*
X243250000Y-77750000D03*
X243250000Y-80750000D03*
X243250000Y-83750000D03*
G36*
G01*
X244010000Y-87500000D02*
X242490000Y-87500000D01*
G75*
G02*
X242240000Y-87250000I0J250000D01*
G01*
X242240000Y-86250000D01*
G75*
G02*
X242490000Y-86000000I250000J0D01*
G01*
X244010000Y-86000000D01*
G75*
G02*
X244260000Y-86250000I0J-250000D01*
G01*
X244260000Y-87250000D01*
G75*
G02*
X244010000Y-87500000I-250000J0D01*
G01*
G37*
D13*
X241290000Y-62750000D03*
X241290000Y-89750000D03*
%TD*%
%TO.C,J40*%
X305600000Y-35290000D03*
X323600000Y-35290000D03*
G36*
G01*
X307850000Y-38010000D02*
X307850000Y-36490000D01*
G75*
G02*
X308100000Y-36240000I250000J0D01*
G01*
X309100000Y-36240000D01*
G75*
G02*
X309350000Y-36490000I0J-250000D01*
G01*
X309350000Y-38010000D01*
G75*
G02*
X309100000Y-38260000I-250000J0D01*
G01*
X308100000Y-38260000D01*
G75*
G02*
X307850000Y-38010000I0J250000D01*
G01*
G37*
D14*
X311600000Y-37250000D03*
X314600000Y-37250000D03*
X317600000Y-37250000D03*
X320600000Y-37250000D03*
%TD*%
D13*
%TO.C,J41*%
X284000000Y-35290000D03*
X302000000Y-35290000D03*
G36*
G01*
X286250000Y-38010000D02*
X286250000Y-36490000D01*
G75*
G02*
X286500000Y-36240000I250000J0D01*
G01*
X287500000Y-36240000D01*
G75*
G02*
X287750000Y-36490000I0J-250000D01*
G01*
X287750000Y-38010000D01*
G75*
G02*
X287500000Y-38260000I-250000J0D01*
G01*
X286500000Y-38260000D01*
G75*
G02*
X286250000Y-38010000I0J250000D01*
G01*
G37*
D14*
X290000000Y-37250000D03*
X293000000Y-37250000D03*
X296000000Y-37250000D03*
X299000000Y-37250000D03*
%TD*%
D13*
%TO.C,J42*%
X262400000Y-35290000D03*
X280400000Y-35290000D03*
G36*
G01*
X264650000Y-38010000D02*
X264650000Y-36490000D01*
G75*
G02*
X264900000Y-36240000I250000J0D01*
G01*
X265900000Y-36240000D01*
G75*
G02*
X266150000Y-36490000I0J-250000D01*
G01*
X266150000Y-38010000D01*
G75*
G02*
X265900000Y-38260000I-250000J0D01*
G01*
X264900000Y-38260000D01*
G75*
G02*
X264650000Y-38010000I0J250000D01*
G01*
G37*
D14*
X268400000Y-37250000D03*
X271400000Y-37250000D03*
X274400000Y-37250000D03*
X277400000Y-37250000D03*
%TD*%
D13*
%TO.C,J43*%
X241000000Y-35240000D03*
X259000000Y-35240000D03*
G36*
G01*
X243250000Y-37960000D02*
X243250000Y-36440000D01*
G75*
G02*
X243500000Y-36190000I250000J0D01*
G01*
X244500000Y-36190000D01*
G75*
G02*
X244750000Y-36440000I0J-250000D01*
G01*
X244750000Y-37960000D01*
G75*
G02*
X244500000Y-38210000I-250000J0D01*
G01*
X243500000Y-38210000D01*
G75*
G02*
X243250000Y-37960000I0J250000D01*
G01*
G37*
D14*
X247000000Y-37200000D03*
X250000000Y-37200000D03*
X253000000Y-37200000D03*
X256000000Y-37200000D03*
%TD*%
D13*
%TO.C,J10*%
X156460000Y-129000000D03*
X156460000Y-144000000D03*
G36*
G01*
X153740000Y-131250000D02*
X155260000Y-131250000D01*
G75*
G02*
X155510000Y-131500000I0J-250000D01*
G01*
X155510000Y-132500000D01*
G75*
G02*
X155260000Y-132750000I-250000J0D01*
G01*
X153740000Y-132750000D01*
G75*
G02*
X153490000Y-132500000I0J250000D01*
G01*
X153490000Y-131500000D01*
G75*
G02*
X153740000Y-131250000I250000J0D01*
G01*
G37*
D12*
X154500000Y-135000000D03*
X154500000Y-138000000D03*
X154500000Y-141000000D03*
%TD*%
D13*
%TO.C,J38*%
X8460000Y-98000000D03*
X8460000Y-113000000D03*
G36*
G01*
X5740000Y-100250000D02*
X7260000Y-100250000D01*
G75*
G02*
X7510000Y-100500000I0J-250000D01*
G01*
X7510000Y-101500000D01*
G75*
G02*
X7260000Y-101750000I-250000J0D01*
G01*
X5740000Y-101750000D01*
G75*
G02*
X5490000Y-101500000I0J250000D01*
G01*
X5490000Y-100500000D01*
G75*
G02*
X5740000Y-100250000I250000J0D01*
G01*
G37*
D12*
X6500000Y-104000000D03*
X6500000Y-107000000D03*
X6500000Y-110000000D03*
%TD*%
D13*
%TO.C,J39*%
X132750000Y-124290000D03*
X147750000Y-124290000D03*
G36*
G01*
X135000000Y-127010000D02*
X135000000Y-125490000D01*
G75*
G02*
X135250000Y-125240000I250000J0D01*
G01*
X136250000Y-125240000D01*
G75*
G02*
X136500000Y-125490000I0J-250000D01*
G01*
X136500000Y-127010000D01*
G75*
G02*
X136250000Y-127260000I-250000J0D01*
G01*
X135250000Y-127260000D01*
G75*
G02*
X135000000Y-127010000I0J250000D01*
G01*
G37*
D14*
X138750000Y-126250000D03*
X141750000Y-126250000D03*
X144750000Y-126250000D03*
%TD*%
D13*
%TO.C,J49*%
X8460000Y-64250000D03*
X8460000Y-79250000D03*
G36*
G01*
X5740000Y-66500000D02*
X7260000Y-66500000D01*
G75*
G02*
X7510000Y-66750000I0J-250000D01*
G01*
X7510000Y-67750000D01*
G75*
G02*
X7260000Y-68000000I-250000J0D01*
G01*
X5740000Y-68000000D01*
G75*
G02*
X5490000Y-67750000I0J250000D01*
G01*
X5490000Y-66750000D01*
G75*
G02*
X5740000Y-66500000I250000J0D01*
G01*
G37*
D12*
X6500000Y-70250000D03*
X6500000Y-73250000D03*
X6500000Y-76250000D03*
%TD*%
D13*
%TO.C,J1*%
X3450001Y-40185001D03*
X15450001Y-40185001D03*
G36*
G01*
X5700001Y-42905001D02*
X5700001Y-41385001D01*
G75*
G02*
X5950001Y-41135001I250000J0D01*
G01*
X6950001Y-41135001D01*
G75*
G02*
X7200001Y-41385001I0J-250000D01*
G01*
X7200001Y-42905001D01*
G75*
G02*
X6950001Y-43155001I-250000J0D01*
G01*
X5950001Y-43155001D01*
G75*
G02*
X5700001Y-42905001I0J250000D01*
G01*
G37*
D14*
X9450001Y-42145001D03*
X12450001Y-42145001D03*
%TD*%
D13*
%TO.C,J2*%
X13300000Y-31440000D03*
X25300000Y-31440000D03*
G36*
G01*
X15550000Y-34160000D02*
X15550000Y-32640000D01*
G75*
G02*
X15800000Y-32390000I250000J0D01*
G01*
X16800000Y-32390000D01*
G75*
G02*
X17050000Y-32640000I0J-250000D01*
G01*
X17050000Y-34160000D01*
G75*
G02*
X16800000Y-34410000I-250000J0D01*
G01*
X15800000Y-34410000D01*
G75*
G02*
X15550000Y-34160000I0J250000D01*
G01*
G37*
D14*
X19300000Y-33400000D03*
X22300000Y-33400000D03*
%TD*%
D13*
%TO.C,J30*%
X269540000Y-74250000D03*
X269540000Y-62250000D03*
G36*
G01*
X272260000Y-72000000D02*
X270740000Y-72000000D01*
G75*
G02*
X270490000Y-71750000I0J250000D01*
G01*
X270490000Y-70750000D01*
G75*
G02*
X270740000Y-70500000I250000J0D01*
G01*
X272260000Y-70500000D01*
G75*
G02*
X272510000Y-70750000I0J-250000D01*
G01*
X272510000Y-71750000D01*
G75*
G02*
X272260000Y-72000000I-250000J0D01*
G01*
G37*
D12*
X271500000Y-68250000D03*
X271500000Y-65250000D03*
%TD*%
D13*
%TO.C,J37*%
X8460000Y-84000000D03*
X8460000Y-96000000D03*
G36*
G01*
X5740000Y-86250000D02*
X7260000Y-86250000D01*
G75*
G02*
X7510000Y-86500000I0J-250000D01*
G01*
X7510000Y-87500000D01*
G75*
G02*
X7260000Y-87750000I-250000J0D01*
G01*
X5740000Y-87750000D01*
G75*
G02*
X5490000Y-87500000I0J250000D01*
G01*
X5490000Y-86500000D01*
G75*
G02*
X5740000Y-86250000I250000J0D01*
G01*
G37*
D12*
X6500000Y-90000000D03*
X6500000Y-93000000D03*
%TD*%
D13*
%TO.C,J48*%
X8460000Y-50250000D03*
X8460000Y-62250000D03*
G36*
G01*
X5740000Y-52500000D02*
X7260000Y-52500000D01*
G75*
G02*
X7510000Y-52750000I0J-250000D01*
G01*
X7510000Y-53750000D01*
G75*
G02*
X7260000Y-54000000I-250000J0D01*
G01*
X5740000Y-54000000D01*
G75*
G02*
X5490000Y-53750000I0J250000D01*
G01*
X5490000Y-52750000D01*
G75*
G02*
X5740000Y-52500000I250000J0D01*
G01*
G37*
D12*
X6500000Y-56250000D03*
X6500000Y-59250000D03*
%TD*%
D14*
%TO.C,J53*%
X42600000Y-37500000D03*
G36*
G01*
X46350000Y-36740000D02*
X46350000Y-38260000D01*
G75*
G02*
X46100000Y-38510000I-250000J0D01*
G01*
X45100000Y-38510000D01*
G75*
G02*
X44850000Y-38260000I0J250000D01*
G01*
X44850000Y-36740000D01*
G75*
G02*
X45100000Y-36490000I250000J0D01*
G01*
X46100000Y-36490000D01*
G75*
G02*
X46350000Y-36740000I0J-250000D01*
G01*
G37*
D13*
X39600000Y-39460000D03*
X48600000Y-39460000D03*
%TD*%
%TO.C,J47*%
X113290000Y-51250000D03*
X113290000Y-42250000D03*
G36*
G01*
X116010000Y-49000000D02*
X114490000Y-49000000D01*
G75*
G02*
X114240000Y-48750000I0J250000D01*
G01*
X114240000Y-47750000D01*
G75*
G02*
X114490000Y-47500000I250000J0D01*
G01*
X116010000Y-47500000D01*
G75*
G02*
X116260000Y-47750000I0J-250000D01*
G01*
X116260000Y-48750000D01*
G75*
G02*
X116010000Y-49000000I-250000J0D01*
G01*
G37*
D12*
X115250000Y-45250000D03*
%TD*%
D13*
%TO.C,J36*%
X60790000Y-51500000D03*
X60790000Y-42500000D03*
G36*
G01*
X63510000Y-49250000D02*
X61990000Y-49250000D01*
G75*
G02*
X61740000Y-49000000I0J250000D01*
G01*
X61740000Y-48000000D01*
G75*
G02*
X61990000Y-47750000I250000J0D01*
G01*
X63510000Y-47750000D01*
G75*
G02*
X63760000Y-48000000I0J-250000D01*
G01*
X63760000Y-49000000D01*
G75*
G02*
X63510000Y-49250000I-250000J0D01*
G01*
G37*
D12*
X62750000Y-45500000D03*
%TD*%
D13*
%TO.C,J31*%
X329250000Y-51710000D03*
X320250000Y-51710000D03*
G36*
G01*
X327000000Y-48990000D02*
X327000000Y-50510000D01*
G75*
G02*
X326750000Y-50760000I-250000J0D01*
G01*
X325750000Y-50760000D01*
G75*
G02*
X325500000Y-50510000I0J250000D01*
G01*
X325500000Y-48990000D01*
G75*
G02*
X325750000Y-48740000I250000J0D01*
G01*
X326750000Y-48740000D01*
G75*
G02*
X327000000Y-48990000I0J-250000D01*
G01*
G37*
D14*
X323250000Y-49750000D03*
%TD*%
D13*
%TO.C,J32*%
X279250000Y-51710000D03*
X270250000Y-51710000D03*
G36*
G01*
X277000000Y-48990000D02*
X277000000Y-50510000D01*
G75*
G02*
X276750000Y-50760000I-250000J0D01*
G01*
X275750000Y-50760000D01*
G75*
G02*
X275500000Y-50510000I0J250000D01*
G01*
X275500000Y-48990000D01*
G75*
G02*
X275750000Y-48740000I250000J0D01*
G01*
X276750000Y-48740000D01*
G75*
G02*
X277000000Y-48990000I0J-250000D01*
G01*
G37*
D14*
X273250000Y-49750000D03*
%TD*%
D13*
%TO.C,J33*%
X316750000Y-51710000D03*
X307750000Y-51710000D03*
G36*
G01*
X314500000Y-48990000D02*
X314500000Y-50510000D01*
G75*
G02*
X314250000Y-50760000I-250000J0D01*
G01*
X313250000Y-50760000D01*
G75*
G02*
X313000000Y-50510000I0J250000D01*
G01*
X313000000Y-48990000D01*
G75*
G02*
X313250000Y-48740000I250000J0D01*
G01*
X314250000Y-48740000D01*
G75*
G02*
X314500000Y-48990000I0J-250000D01*
G01*
G37*
D14*
X310750000Y-49750000D03*
%TD*%
D13*
%TO.C,J34*%
X304250000Y-51710000D03*
X295250000Y-51710000D03*
G36*
G01*
X302000000Y-48990000D02*
X302000000Y-50510000D01*
G75*
G02*
X301750000Y-50760000I-250000J0D01*
G01*
X300750000Y-50760000D01*
G75*
G02*
X300500000Y-50510000I0J250000D01*
G01*
X300500000Y-48990000D01*
G75*
G02*
X300750000Y-48740000I250000J0D01*
G01*
X301750000Y-48740000D01*
G75*
G02*
X302000000Y-48990000I0J-250000D01*
G01*
G37*
D14*
X298250000Y-49750000D03*
%TD*%
D13*
%TO.C,J35*%
X291750000Y-51710000D03*
X282750000Y-51710000D03*
G36*
G01*
X289500000Y-48990000D02*
X289500000Y-50510000D01*
G75*
G02*
X289250000Y-50760000I-250000J0D01*
G01*
X288250000Y-50760000D01*
G75*
G02*
X288000000Y-50510000I0J250000D01*
G01*
X288000000Y-48990000D01*
G75*
G02*
X288250000Y-48740000I250000J0D01*
G01*
X289250000Y-48740000D01*
G75*
G02*
X289500000Y-48990000I0J-250000D01*
G01*
G37*
D14*
X285750000Y-49750000D03*
%TD*%
D15*
%TO.C,J9*%
X342760000Y-91760000D03*
G36*
G01*
X345260000Y-91010000D02*
X346260000Y-91010000D01*
G75*
G02*
X346510000Y-91260000I0J-250000D01*
G01*
X346510000Y-92260000D01*
G75*
G02*
X346260000Y-92510000I-250000J0D01*
G01*
X345260000Y-92510000D01*
G75*
G02*
X345010000Y-92260000I0J250000D01*
G01*
X345010000Y-91260000D01*
G75*
G02*
X345260000Y-91010000I250000J0D01*
G01*
G37*
D16*
X341820000Y-94760000D03*
X341820000Y-88760000D03*
%TD*%
D17*
%TO.C,J44*%
X81980000Y-150670000D03*
D18*
X79500000Y-147900000D03*
X73800000Y-147900000D03*
X79500000Y-142200000D03*
G36*
G01*
X71950000Y-143800000D02*
X71950000Y-140600000D01*
G75*
G02*
X72200000Y-140350000I250000J0D01*
G01*
X75400000Y-140350000D01*
G75*
G02*
X75650000Y-140600000I0J-250000D01*
G01*
X75650000Y-143800000D01*
G75*
G02*
X75400000Y-144050000I-250000J0D01*
G01*
X72200000Y-144050000D01*
G75*
G02*
X71950000Y-143800000I0J250000D01*
G01*
G37*
%TD*%
D17*
%TO.C,J54*%
X138420000Y-141030000D03*
D18*
X141900000Y-143800000D03*
G36*
G01*
X143750000Y-147900000D02*
X143750000Y-151100000D01*
G75*
G02*
X143500000Y-151350000I-250000J0D01*
G01*
X140300000Y-151350000D01*
G75*
G02*
X140050000Y-151100000I0J250000D01*
G01*
X140050000Y-147900000D01*
G75*
G02*
X140300000Y-147650000I250000J0D01*
G01*
X143500000Y-147650000D01*
G75*
G02*
X143750000Y-147900000I0J-250000D01*
G01*
G37*
%TD*%
D17*
%TO.C,J45*%
X37280000Y-143070000D03*
D18*
X33800000Y-140300000D03*
G36*
G01*
X31950000Y-136200000D02*
X31950000Y-133000000D01*
G75*
G02*
X32200000Y-132750000I250000J0D01*
G01*
X35400000Y-132750000D01*
G75*
G02*
X35650000Y-133000000I0J-250000D01*
G01*
X35650000Y-136200000D01*
G75*
G02*
X35400000Y-136450000I-250000J0D01*
G01*
X32200000Y-136450000D01*
G75*
G02*
X31950000Y-136200000I0J250000D01*
G01*
G37*
%TD*%
D19*
%TO.C,H4*%
X124725000Y-22250000D03*
D20*
X126750000Y-22250000D03*
D19*
X125318109Y-20818109D03*
X125318109Y-23681891D03*
X126750000Y-20225000D03*
X128181891Y-23681891D03*
X126750000Y-24275000D03*
X128181891Y-20818109D03*
X128775000Y-22250000D03*
X125318109Y-6181891D03*
X125318109Y-3318109D03*
X126750000Y-6775000D03*
X126750000Y-2725000D03*
X124725000Y-4750000D03*
D20*
X126750000Y-4750000D03*
D19*
X128775000Y-4750000D03*
X128181891Y-6181891D03*
X128181891Y-3318109D03*
X90475000Y-21250000D03*
X91068109Y-22681891D03*
X92500000Y-19225000D03*
X91068109Y-19818109D03*
X92500000Y-23275000D03*
X93931891Y-19818109D03*
X93931891Y-22681891D03*
D20*
X92500000Y-21250000D03*
D19*
X94525000Y-21250000D03*
X94525000Y-5750000D03*
X92500000Y-3725000D03*
D20*
X92500000Y-5750000D03*
D19*
X93931891Y-4318109D03*
X91068109Y-4318109D03*
X92500000Y-7775000D03*
X90475000Y-5750000D03*
X93931891Y-7181891D03*
X91068109Y-7181891D03*
%TD*%
%TO.C,H2*%
X37725000Y-22250000D03*
D20*
X39750000Y-22250000D03*
D19*
X38318109Y-20818109D03*
X38318109Y-23681891D03*
X39750000Y-20225000D03*
X41181891Y-23681891D03*
X39750000Y-24275000D03*
X41181891Y-20818109D03*
X41775000Y-22250000D03*
X38318109Y-6181891D03*
X38318109Y-3318109D03*
X39750000Y-6775000D03*
X39750000Y-2725000D03*
X37725000Y-4750000D03*
D20*
X39750000Y-4750000D03*
D19*
X41775000Y-4750000D03*
X41181891Y-6181891D03*
X41181891Y-3318109D03*
X3475000Y-21250000D03*
X4068109Y-22681891D03*
X5500000Y-19225000D03*
X4068109Y-19818109D03*
X5500000Y-23275000D03*
X6931891Y-19818109D03*
X6931891Y-22681891D03*
D20*
X5500000Y-21250000D03*
D19*
X7525000Y-21250000D03*
X7525000Y-5750000D03*
X5500000Y-3725000D03*
D20*
X5500000Y-5750000D03*
D19*
X6931891Y-4318109D03*
X4068109Y-4318109D03*
X5500000Y-7775000D03*
X3475000Y-5750000D03*
X6931891Y-7181891D03*
X4068109Y-7181891D03*
%TD*%
%TO.C,H3*%
X81225000Y-22250000D03*
D20*
X83250000Y-22250000D03*
D19*
X81818109Y-20818109D03*
X81818109Y-23681891D03*
X83250000Y-20225000D03*
X84681891Y-23681891D03*
X83250000Y-24275000D03*
X84681891Y-20818109D03*
X85275000Y-22250000D03*
X81818109Y-6181891D03*
X81818109Y-3318109D03*
X83250000Y-6775000D03*
X83250000Y-2725000D03*
X81225000Y-4750000D03*
D20*
X83250000Y-4750000D03*
D19*
X85275000Y-4750000D03*
X84681891Y-6181891D03*
X84681891Y-3318109D03*
X46975000Y-21250000D03*
X47568109Y-22681891D03*
X49000000Y-19225000D03*
X47568109Y-19818109D03*
X49000000Y-23275000D03*
X50431891Y-19818109D03*
X50431891Y-22681891D03*
D20*
X49000000Y-21250000D03*
D19*
X51025000Y-21250000D03*
X51025000Y-5750000D03*
X49000000Y-3725000D03*
D20*
X49000000Y-5750000D03*
D19*
X50431891Y-4318109D03*
X47568109Y-4318109D03*
X49000000Y-7775000D03*
X46975000Y-5750000D03*
X50431891Y-7181891D03*
X47568109Y-7181891D03*
%TD*%
%TO.C,H5*%
X168225000Y-22250000D03*
D20*
X170250000Y-22250000D03*
D19*
X168818109Y-20818109D03*
X168818109Y-23681891D03*
X170250000Y-20225000D03*
X171681891Y-23681891D03*
X170250000Y-24275000D03*
X171681891Y-20818109D03*
X172275000Y-22250000D03*
X168818109Y-6181891D03*
X168818109Y-3318109D03*
X170250000Y-6775000D03*
X170250000Y-2725000D03*
X168225000Y-4750000D03*
D20*
X170250000Y-4750000D03*
D19*
X172275000Y-4750000D03*
X171681891Y-6181891D03*
X171681891Y-3318109D03*
X133975000Y-21250000D03*
X134568109Y-22681891D03*
X136000000Y-19225000D03*
X134568109Y-19818109D03*
X136000000Y-23275000D03*
X137431891Y-19818109D03*
X137431891Y-22681891D03*
D20*
X136000000Y-21250000D03*
D19*
X138025000Y-21250000D03*
X138025000Y-5750000D03*
X136000000Y-3725000D03*
D20*
X136000000Y-5750000D03*
D19*
X137431891Y-4318109D03*
X134568109Y-4318109D03*
X136000000Y-7775000D03*
X133975000Y-5750000D03*
X137431891Y-7181891D03*
X134568109Y-7181891D03*
%TD*%
%TO.C,H6*%
X211725000Y-22250000D03*
D20*
X213750000Y-22250000D03*
D19*
X212318109Y-20818109D03*
X212318109Y-23681891D03*
X213750000Y-20225000D03*
X215181891Y-23681891D03*
X213750000Y-24275000D03*
X215181891Y-20818109D03*
X215775000Y-22250000D03*
X212318109Y-6181891D03*
X212318109Y-3318109D03*
X213750000Y-6775000D03*
X213750000Y-2725000D03*
X211725000Y-4750000D03*
D20*
X213750000Y-4750000D03*
D19*
X215775000Y-4750000D03*
X215181891Y-6181891D03*
X215181891Y-3318109D03*
X177475000Y-21250000D03*
X178068109Y-22681891D03*
X179500000Y-19225000D03*
X178068109Y-19818109D03*
X179500000Y-23275000D03*
X180931891Y-19818109D03*
X180931891Y-22681891D03*
D20*
X179500000Y-21250000D03*
D19*
X181525000Y-21250000D03*
X181525000Y-5750000D03*
X179500000Y-3725000D03*
D20*
X179500000Y-5750000D03*
D19*
X180931891Y-4318109D03*
X178068109Y-4318109D03*
X179500000Y-7775000D03*
X177475000Y-5750000D03*
X180931891Y-7181891D03*
X178068109Y-7181891D03*
%TD*%
%TO.C,H7*%
X255225000Y-22250000D03*
D20*
X257250000Y-22250000D03*
D19*
X255818109Y-20818109D03*
X255818109Y-23681891D03*
X257250000Y-20225000D03*
X258681891Y-23681891D03*
X257250000Y-24275000D03*
X258681891Y-20818109D03*
X259275000Y-22250000D03*
X255818109Y-6181891D03*
X255818109Y-3318109D03*
X257250000Y-6775000D03*
X257250000Y-2725000D03*
X255225000Y-4750000D03*
D20*
X257250000Y-4750000D03*
D19*
X259275000Y-4750000D03*
X258681891Y-6181891D03*
X258681891Y-3318109D03*
X220975000Y-21250000D03*
X221568109Y-22681891D03*
X223000000Y-19225000D03*
X221568109Y-19818109D03*
X223000000Y-23275000D03*
X224431891Y-19818109D03*
X224431891Y-22681891D03*
D20*
X223000000Y-21250000D03*
D19*
X225025000Y-21250000D03*
X225025000Y-5750000D03*
X223000000Y-3725000D03*
D20*
X223000000Y-5750000D03*
D19*
X224431891Y-4318109D03*
X221568109Y-4318109D03*
X223000000Y-7775000D03*
X220975000Y-5750000D03*
X224431891Y-7181891D03*
X221568109Y-7181891D03*
%TD*%
%TO.C,H8*%
X298725000Y-22250000D03*
D20*
X300750000Y-22250000D03*
D19*
X299318109Y-20818109D03*
X299318109Y-23681891D03*
X300750000Y-20225000D03*
X302181891Y-23681891D03*
X300750000Y-24275000D03*
X302181891Y-20818109D03*
X302775000Y-22250000D03*
X299318109Y-6181891D03*
X299318109Y-3318109D03*
X300750000Y-6775000D03*
X300750000Y-2725000D03*
X298725000Y-4750000D03*
D20*
X300750000Y-4750000D03*
D19*
X302775000Y-4750000D03*
X302181891Y-6181891D03*
X302181891Y-3318109D03*
X264475000Y-21250000D03*
X265068109Y-22681891D03*
X266500000Y-19225000D03*
X265068109Y-19818109D03*
X266500000Y-23275000D03*
X267931891Y-19818109D03*
X267931891Y-22681891D03*
D20*
X266500000Y-21250000D03*
D19*
X268525000Y-21250000D03*
X268525000Y-5750000D03*
X266500000Y-3725000D03*
D20*
X266500000Y-5750000D03*
D19*
X267931891Y-4318109D03*
X265068109Y-4318109D03*
X266500000Y-7775000D03*
X264475000Y-5750000D03*
X267931891Y-7181891D03*
X265068109Y-7181891D03*
%TD*%
%TO.C,H9*%
X342225000Y-22250000D03*
D20*
X344250000Y-22250000D03*
D19*
X342818109Y-20818109D03*
X342818109Y-23681891D03*
X344250000Y-20225000D03*
X345681891Y-23681891D03*
X344250000Y-24275000D03*
X345681891Y-20818109D03*
X346275000Y-22250000D03*
X342818109Y-6181891D03*
X342818109Y-3318109D03*
X344250000Y-6775000D03*
X344250000Y-2725000D03*
X342225000Y-4750000D03*
D20*
X344250000Y-4750000D03*
D19*
X346275000Y-4750000D03*
X345681891Y-6181891D03*
X345681891Y-3318109D03*
X307975000Y-21250000D03*
X308568109Y-22681891D03*
X310000000Y-19225000D03*
X308568109Y-19818109D03*
X310000000Y-23275000D03*
X311431891Y-19818109D03*
X311431891Y-22681891D03*
D20*
X310000000Y-21250000D03*
D19*
X312025000Y-21250000D03*
X312025000Y-5750000D03*
X310000000Y-3725000D03*
D20*
X310000000Y-5750000D03*
D19*
X311431891Y-4318109D03*
X308568109Y-4318109D03*
X310000000Y-7775000D03*
X307975000Y-5750000D03*
X311431891Y-7181891D03*
X308568109Y-7181891D03*
%TD*%
D21*
%TO.C,J8*%
X269370000Y-149230000D03*
D22*
X269370000Y-151770000D03*
X271910000Y-149230000D03*
X271910000Y-151770000D03*
X274450000Y-149230000D03*
X274450000Y-151770000D03*
X276990000Y-149230000D03*
X276990000Y-151770000D03*
X279530000Y-149230000D03*
X279530000Y-151770000D03*
X282070000Y-149230000D03*
X282070000Y-151770000D03*
X284610000Y-149230000D03*
X284610000Y-151770000D03*
X287150000Y-149230000D03*
X287150000Y-151770000D03*
X289690000Y-149230000D03*
X289690000Y-151770000D03*
X292230000Y-149230000D03*
X292230000Y-151770000D03*
X294770000Y-149230000D03*
X294770000Y-151770000D03*
X297310000Y-149230000D03*
X297310000Y-151770000D03*
X299850000Y-149230000D03*
X299850000Y-151770000D03*
X302390000Y-149230000D03*
X302390000Y-151770000D03*
X304930000Y-149230000D03*
X304930000Y-151770000D03*
X307470000Y-149230000D03*
X307470000Y-151770000D03*
X310010000Y-149230000D03*
X310010000Y-151770000D03*
X312550000Y-149230000D03*
X312550000Y-151770000D03*
X315090000Y-149230000D03*
X315090000Y-151770000D03*
X317630000Y-149230000D03*
X317630000Y-151770000D03*
%TD*%
D23*
%TO.C,H14*%
X344000000Y-32000000D03*
%TD*%
%TO.C,H13*%
X6000000Y-32000000D03*
%TD*%
%TO.C,H12*%
X255000000Y-149000000D03*
%TD*%
%TO.C,H11*%
X6000000Y-149000000D03*
%TD*%
%TO.C,H10*%
X150561000Y-79695000D03*
%TD*%
D19*
%TO.C,H1*%
X263068109Y-151931891D03*
X265931891Y-149068109D03*
X262475000Y-150500000D03*
X264500000Y-148475000D03*
D20*
X264500000Y-150500000D03*
D19*
X264500000Y-152525000D03*
X265931891Y-151931891D03*
X266525000Y-150500000D03*
X263068109Y-149068109D03*
X264500000Y-103525000D03*
X263068109Y-100068109D03*
X262475000Y-101500000D03*
X265931891Y-102931891D03*
X265931891Y-100068109D03*
X263068109Y-102931891D03*
D20*
X264500000Y-101500000D03*
D19*
X266525000Y-101500000D03*
X264500000Y-99475000D03*
D20*
X322500000Y-101500000D03*
D19*
X321068109Y-100068109D03*
X322500000Y-103525000D03*
X321068109Y-102931891D03*
X324525000Y-101500000D03*
X323931891Y-100068109D03*
X323931891Y-102931891D03*
X322500000Y-99475000D03*
X320475000Y-101500000D03*
D20*
X322500000Y-150500000D03*
D19*
X321068109Y-149068109D03*
X322500000Y-152525000D03*
X321068109Y-151931891D03*
X324525000Y-150500000D03*
X323931891Y-149068109D03*
X323931891Y-151931891D03*
X322500000Y-148475000D03*
X320475000Y-150500000D03*
%TD*%
D22*
%TO.C,J4*%
X206740000Y-33000000D03*
X204200000Y-33000000D03*
X201660000Y-33000000D03*
X199120000Y-33000000D03*
X196580000Y-33000000D03*
X194040000Y-33000000D03*
X191500000Y-33000000D03*
D21*
X188960000Y-33000000D03*
%TD*%
%TO.C,J5*%
X224500000Y-33000000D03*
D22*
X221960000Y-33000000D03*
X219420000Y-33000000D03*
X216880000Y-33000000D03*
X214340000Y-33000000D03*
X211800000Y-33000000D03*
%TD*%
D21*
%TO.C,J6*%
X202671000Y-81259000D03*
D22*
X200131000Y-81259000D03*
X197591000Y-81259000D03*
X195051000Y-81259000D03*
X192511000Y-81259000D03*
X189971000Y-81259000D03*
X187431000Y-81259000D03*
X184891000Y-81259000D03*
X182351000Y-81259000D03*
X179811000Y-81259000D03*
%TD*%
D21*
%TO.C,J7*%
X224515000Y-81259000D03*
D22*
X221975000Y-81259000D03*
X219435000Y-81259000D03*
X216895000Y-81259000D03*
X214355000Y-81259000D03*
X211815000Y-81259000D03*
X209275000Y-81259000D03*
X206735000Y-81259000D03*
%TD*%
%TO.C,J12*%
X224094000Y-110378000D03*
X224094000Y-107838000D03*
X221554000Y-110378000D03*
X221554000Y-107838000D03*
X219014000Y-110378000D03*
X219014000Y-107838000D03*
X216474000Y-110378000D03*
X216474000Y-107838000D03*
X213934000Y-110378000D03*
X213934000Y-107838000D03*
X211394000Y-110378000D03*
X211394000Y-107838000D03*
X208854000Y-110378000D03*
X208854000Y-107838000D03*
X206314000Y-110378000D03*
X206314000Y-107838000D03*
X203774000Y-110378000D03*
X203774000Y-107838000D03*
X201234000Y-110378000D03*
X201234000Y-107838000D03*
X198694000Y-110378000D03*
X198694000Y-107838000D03*
X196154000Y-110378000D03*
X196154000Y-107838000D03*
X193614000Y-110378000D03*
X193614000Y-107838000D03*
X191074000Y-110378000D03*
X191074000Y-107838000D03*
X188534000Y-110378000D03*
X188534000Y-107838000D03*
X185994000Y-110378000D03*
X185994000Y-107838000D03*
X183454000Y-110378000D03*
X183454000Y-107838000D03*
X180914000Y-110378000D03*
X180914000Y-107838000D03*
X178374000Y-110378000D03*
X178374000Y-107838000D03*
X175834000Y-110378000D03*
D21*
X175834000Y-107838000D03*
%TD*%
%TO.C,J13*%
X175834000Y-147835000D03*
D22*
X175834000Y-150375000D03*
X178374000Y-147835000D03*
X178374000Y-150375000D03*
X180914000Y-147835000D03*
X180914000Y-150375000D03*
X183454000Y-147835000D03*
X183454000Y-150375000D03*
X185994000Y-147835000D03*
X185994000Y-150375000D03*
X188534000Y-147835000D03*
X188534000Y-150375000D03*
X191074000Y-147835000D03*
X191074000Y-150375000D03*
X193614000Y-147835000D03*
X193614000Y-150375000D03*
X196154000Y-147835000D03*
X196154000Y-150375000D03*
X198694000Y-147835000D03*
X198694000Y-150375000D03*
X201234000Y-147835000D03*
X201234000Y-150375000D03*
X203774000Y-147835000D03*
X203774000Y-150375000D03*
X206314000Y-147835000D03*
X206314000Y-150375000D03*
X208854000Y-147835000D03*
X208854000Y-150375000D03*
X211394000Y-147835000D03*
X211394000Y-150375000D03*
X213934000Y-147835000D03*
X213934000Y-150375000D03*
X216474000Y-147835000D03*
X216474000Y-150375000D03*
X219014000Y-147835000D03*
X219014000Y-150375000D03*
X221554000Y-147835000D03*
X221554000Y-150375000D03*
X224094000Y-147835000D03*
X224094000Y-150375000D03*
%TD*%
D24*
%TO.C,J46*%
X25300000Y-147900000D03*
X22800000Y-147900000D03*
X20300000Y-147900000D03*
X17800000Y-147900000D03*
G36*
G01*
X14450000Y-148625000D02*
X14450000Y-147175000D01*
G75*
G02*
X14700000Y-146925000I250000J0D01*
G01*
X15900000Y-146925000D01*
G75*
G02*
X16150000Y-147175000I0J-250000D01*
G01*
X16150000Y-148625000D01*
G75*
G02*
X15900000Y-148875000I-250000J0D01*
G01*
X14700000Y-148875000D01*
G75*
G02*
X14450000Y-148625000I0J250000D01*
G01*
G37*
%TD*%
D22*
%TO.C,J51*%
X313050000Y-67250000D03*
X315590000Y-67250000D03*
X318130000Y-67250000D03*
X320670000Y-67250000D03*
X323210000Y-67250000D03*
D21*
X325750000Y-67250000D03*
%TD*%
%TO.C,J52*%
X325750000Y-63500000D03*
D22*
X323210000Y-63500000D03*
X320670000Y-63500000D03*
X318130000Y-63500000D03*
X315590000Y-63500000D03*
X313050000Y-63500000D03*
%TD*%
M02*
