%TF.GenerationSoftware,KiCad,Pcbnew,(5.1.9-16-g1737927814)-1*%
%TF.CreationDate,2021-03-30T16:26:50-04:00*%
%TF.ProjectId,Ventilator,56656e74-696c-4617-946f-722e6b696361,A*%
%TF.SameCoordinates,Original*%
%TF.FileFunction,Legend,Bot*%
%TF.FilePolarity,Positive*%
%FSLAX46Y46*%
G04 Gerber Fmt 4.6, Leading zero omitted, Abs format (unit mm)*
G04 Created by KiCad (PCBNEW (5.1.9-16-g1737927814)-1) date 2021-03-30 16:26:50*
%MOMM*%
%LPD*%
G01*
G04 APERTURE LIST*
%ADD10C,0.050000*%
%ADD11C,0.120000*%
%ADD12C,0.150000*%
G04 APERTURE END LIST*
D10*
%TO.C,H15*%
X269415000Y-173101000D02*
X269415000Y-125101000D01*
X269415000Y-173101000D02*
X185415000Y-173101000D01*
X269415000Y-125101000D02*
X185415000Y-125101000D01*
X185415000Y-125101000D02*
X185415000Y-135501000D01*
X185415000Y-173101000D02*
X185415000Y-162701000D01*
X185415000Y-162701000D02*
X177915000Y-162701000D01*
X185415000Y-135523000D02*
X177915000Y-135523000D01*
X177903000Y-162701000D02*
X177915000Y-135523000D01*
%TO.C,J40*%
D11*
X340333333Y-55116666D02*
X340666666Y-55116666D01*
X340700000Y-55450000D01*
X340666666Y-55416666D01*
X340600000Y-55383333D01*
X340433333Y-55383333D01*
X340366666Y-55416666D01*
X340333333Y-55450000D01*
X340300000Y-55516666D01*
X340300000Y-55683333D01*
X340333333Y-55750000D01*
X340366666Y-55783333D01*
X340433333Y-55816666D01*
X340600000Y-55816666D01*
X340666666Y-55783333D01*
X340700000Y-55750000D01*
X328400000Y-55816666D02*
X328800000Y-55816666D01*
X328600000Y-55816666D02*
X328600000Y-55116666D01*
X328666666Y-55216666D01*
X328733333Y-55283333D01*
X328800000Y-55316666D01*
%TO.C,J41*%
X318733333Y-55116666D02*
X319066666Y-55116666D01*
X319100000Y-55450000D01*
X319066666Y-55416666D01*
X319000000Y-55383333D01*
X318833333Y-55383333D01*
X318766666Y-55416666D01*
X318733333Y-55450000D01*
X318700000Y-55516666D01*
X318700000Y-55683333D01*
X318733333Y-55750000D01*
X318766666Y-55783333D01*
X318833333Y-55816666D01*
X319000000Y-55816666D01*
X319066666Y-55783333D01*
X319100000Y-55750000D01*
X306800000Y-55816666D02*
X307200000Y-55816666D01*
X307000000Y-55816666D02*
X307000000Y-55116666D01*
X307066666Y-55216666D01*
X307133333Y-55283333D01*
X307200000Y-55316666D01*
%TO.C,J42*%
X297133333Y-55116666D02*
X297466666Y-55116666D01*
X297500000Y-55450000D01*
X297466666Y-55416666D01*
X297400000Y-55383333D01*
X297233333Y-55383333D01*
X297166666Y-55416666D01*
X297133333Y-55450000D01*
X297100000Y-55516666D01*
X297100000Y-55683333D01*
X297133333Y-55750000D01*
X297166666Y-55783333D01*
X297233333Y-55816666D01*
X297400000Y-55816666D01*
X297466666Y-55783333D01*
X297500000Y-55750000D01*
X285200000Y-55816666D02*
X285600000Y-55816666D01*
X285400000Y-55816666D02*
X285400000Y-55116666D01*
X285466666Y-55216666D01*
X285533333Y-55283333D01*
X285600000Y-55316666D01*
%TO.C,J43*%
X275733333Y-55066666D02*
X276066666Y-55066666D01*
X276100000Y-55400000D01*
X276066666Y-55366666D01*
X276000000Y-55333333D01*
X275833333Y-55333333D01*
X275766666Y-55366666D01*
X275733333Y-55400000D01*
X275700000Y-55466666D01*
X275700000Y-55633333D01*
X275733333Y-55700000D01*
X275766666Y-55733333D01*
X275833333Y-55766666D01*
X276000000Y-55766666D01*
X276066666Y-55733333D01*
X276100000Y-55700000D01*
X263800000Y-55766666D02*
X264200000Y-55766666D01*
X264000000Y-55766666D02*
X264000000Y-55066666D01*
X264066666Y-55166666D01*
X264133333Y-55233333D01*
X264200000Y-55266666D01*
%TO.C,J10*%
X176100000Y-161233333D02*
X176566666Y-161233333D01*
X175833333Y-161066666D02*
X176333333Y-160900000D01*
X176333333Y-161333333D01*
X176566666Y-152200000D02*
X176566666Y-151800000D01*
X176566666Y-152000000D02*
X175866666Y-152000000D01*
X175966666Y-151933333D01*
X176033333Y-151866666D01*
X176066666Y-151800000D01*
%TO.C,J38*%
D12*
X25085714Y-125309523D02*
X25752380Y-125309523D01*
X24704761Y-125547619D02*
X25419047Y-125785714D01*
X25419047Y-125166666D01*
D11*
X29566666Y-120800000D02*
X29566666Y-121200000D01*
X29566666Y-121000000D02*
X28866666Y-121000000D01*
X28966666Y-121066666D01*
X29033333Y-121133333D01*
X29066666Y-121200000D01*
%TO.C,J39*%
X164716666Y-144350000D02*
X164716666Y-144816666D01*
X164883333Y-144083333D02*
X165050000Y-144583333D01*
X164616666Y-144583333D01*
X155550000Y-144816666D02*
X155950000Y-144816666D01*
X155750000Y-144816666D02*
X155750000Y-144116666D01*
X155816666Y-144216666D01*
X155883333Y-144283333D01*
X155950000Y-144316666D01*
%TO.C,J49*%
X28100000Y-96483333D02*
X28566666Y-96483333D01*
X27833333Y-96316666D02*
X28333333Y-96150000D01*
X28333333Y-96583333D01*
X28566666Y-87450000D02*
X28566666Y-87050000D01*
X28566666Y-87250000D02*
X27866666Y-87250000D01*
X27966666Y-87183333D01*
X28033333Y-87116666D01*
X28066666Y-87050000D01*
%TO.C,J1*%
X32683334Y-60011667D02*
X32250001Y-60011667D01*
X32483334Y-60278334D01*
X32383334Y-60278334D01*
X32316667Y-60311667D01*
X32283334Y-60345001D01*
X32250001Y-60411667D01*
X32250001Y-60578334D01*
X32283334Y-60645001D01*
X32316667Y-60678334D01*
X32383334Y-60711667D01*
X32583334Y-60711667D01*
X32650001Y-60678334D01*
X32683334Y-60645001D01*
X29650001Y-60078334D02*
X29616667Y-60045001D01*
X29550001Y-60011667D01*
X29383334Y-60011667D01*
X29316667Y-60045001D01*
X29283334Y-60078334D01*
X29250001Y-60145001D01*
X29250001Y-60211667D01*
X29283334Y-60311667D01*
X29683334Y-60711667D01*
X29250001Y-60711667D01*
X26250001Y-60711667D02*
X26650001Y-60711667D01*
X26450001Y-60711667D02*
X26450001Y-60011667D01*
X26516667Y-60111667D01*
X26583334Y-60178334D01*
X26650001Y-60211667D01*
%TO.C,J2*%
X42533333Y-51266666D02*
X42100000Y-51266666D01*
X42333333Y-51533333D01*
X42233333Y-51533333D01*
X42166666Y-51566666D01*
X42133333Y-51600000D01*
X42100000Y-51666666D01*
X42100000Y-51833333D01*
X42133333Y-51900000D01*
X42166666Y-51933333D01*
X42233333Y-51966666D01*
X42433333Y-51966666D01*
X42500000Y-51933333D01*
X42533333Y-51900000D01*
X39500000Y-51333333D02*
X39466666Y-51300000D01*
X39400000Y-51266666D01*
X39233333Y-51266666D01*
X39166666Y-51300000D01*
X39133333Y-51333333D01*
X39100000Y-51400000D01*
X39100000Y-51466666D01*
X39133333Y-51566666D01*
X39533333Y-51966666D01*
X39100000Y-51966666D01*
X36100000Y-51966666D02*
X36500000Y-51966666D01*
X36300000Y-51966666D02*
X36300000Y-51266666D01*
X36366666Y-51366666D01*
X36433333Y-51433333D01*
X36500000Y-51466666D01*
%TO.C,J30*%
X289366666Y-85016666D02*
X289366666Y-85450000D01*
X289633333Y-85216666D01*
X289633333Y-85316666D01*
X289666666Y-85383333D01*
X289700000Y-85416666D01*
X289766666Y-85450000D01*
X289933333Y-85450000D01*
X290000000Y-85416666D01*
X290033333Y-85383333D01*
X290066666Y-85316666D01*
X290066666Y-85116666D01*
X290033333Y-85050000D01*
X290000000Y-85016666D01*
X289433333Y-88050000D02*
X289400000Y-88083333D01*
X289366666Y-88150000D01*
X289366666Y-88316666D01*
X289400000Y-88383333D01*
X289433333Y-88416666D01*
X289500000Y-88450000D01*
X289566666Y-88450000D01*
X289666666Y-88416666D01*
X290066666Y-88016666D01*
X290066666Y-88450000D01*
X290066666Y-91450000D02*
X290066666Y-91050000D01*
X290066666Y-91250000D02*
X289366666Y-91250000D01*
X289466666Y-91183333D01*
X289533333Y-91116666D01*
X289566666Y-91050000D01*
%TO.C,J37*%
X27866666Y-112766666D02*
X27866666Y-113200000D01*
X28133333Y-112966666D01*
X28133333Y-113066666D01*
X28166666Y-113133333D01*
X28200000Y-113166666D01*
X28266666Y-113200000D01*
X28433333Y-113200000D01*
X28500000Y-113166666D01*
X28533333Y-113133333D01*
X28566666Y-113066666D01*
X28566666Y-112866666D01*
X28533333Y-112800000D01*
X28500000Y-112766666D01*
X27933333Y-109800000D02*
X27900000Y-109833333D01*
X27866666Y-109900000D01*
X27866666Y-110066666D01*
X27900000Y-110133333D01*
X27933333Y-110166666D01*
X28000000Y-110200000D01*
X28066666Y-110200000D01*
X28166666Y-110166666D01*
X28566666Y-109766666D01*
X28566666Y-110200000D01*
X28566666Y-107200000D02*
X28566666Y-106800000D01*
X28566666Y-107000000D02*
X27866666Y-107000000D01*
X27966666Y-106933333D01*
X28033333Y-106866666D01*
X28066666Y-106800000D01*
%TO.C,J48*%
X27866666Y-79016666D02*
X27866666Y-79450000D01*
X28133333Y-79216666D01*
X28133333Y-79316666D01*
X28166666Y-79383333D01*
X28200000Y-79416666D01*
X28266666Y-79450000D01*
X28433333Y-79450000D01*
X28500000Y-79416666D01*
X28533333Y-79383333D01*
X28566666Y-79316666D01*
X28566666Y-79116666D01*
X28533333Y-79050000D01*
X28500000Y-79016666D01*
X27933333Y-76050000D02*
X27900000Y-76083333D01*
X27866666Y-76150000D01*
X27866666Y-76316666D01*
X27900000Y-76383333D01*
X27933333Y-76416666D01*
X28000000Y-76450000D01*
X28066666Y-76450000D01*
X28166666Y-76416666D01*
X28566666Y-76016666D01*
X28566666Y-76450000D01*
X28566666Y-73450000D02*
X28566666Y-73050000D01*
X28566666Y-73250000D02*
X27866666Y-73250000D01*
X27966666Y-73183333D01*
X28033333Y-73116666D01*
X28066666Y-73050000D01*
%TO.C,J53*%
X65400000Y-59566666D02*
X65800000Y-59566666D01*
X65600000Y-59566666D02*
X65600000Y-58866666D01*
X65666666Y-58966666D01*
X65733333Y-59033333D01*
X65800000Y-59066666D01*
X62800000Y-58933333D02*
X62766666Y-58900000D01*
X62700000Y-58866666D01*
X62533333Y-58866666D01*
X62466666Y-58900000D01*
X62433333Y-58933333D01*
X62400000Y-59000000D01*
X62400000Y-59066666D01*
X62433333Y-59166666D01*
X62833333Y-59566666D01*
X62400000Y-59566666D01*
%TO.C,J47*%
X133183333Y-65050000D02*
X133150000Y-65083333D01*
X133116666Y-65150000D01*
X133116666Y-65316666D01*
X133150000Y-65383333D01*
X133183333Y-65416666D01*
X133250000Y-65450000D01*
X133316666Y-65450000D01*
X133416666Y-65416666D01*
X133816666Y-65016666D01*
X133816666Y-65450000D01*
X133816666Y-68450000D02*
X133816666Y-68050000D01*
X133816666Y-68250000D02*
X133116666Y-68250000D01*
X133216666Y-68183333D01*
X133283333Y-68116666D01*
X133316666Y-68050000D01*
%TO.C,J36*%
X80683333Y-65300000D02*
X80650000Y-65333333D01*
X80616666Y-65400000D01*
X80616666Y-65566666D01*
X80650000Y-65633333D01*
X80683333Y-65666666D01*
X80750000Y-65700000D01*
X80816666Y-65700000D01*
X80916666Y-65666666D01*
X81316666Y-65266666D01*
X81316666Y-65700000D01*
X81316666Y-68700000D02*
X81316666Y-68300000D01*
X81316666Y-68500000D02*
X80616666Y-68500000D01*
X80716666Y-68433333D01*
X80783333Y-68366666D01*
X80816666Y-68300000D01*
%TO.C,J31*%
X343450000Y-71183333D02*
X343416666Y-71150000D01*
X343350000Y-71116666D01*
X343183333Y-71116666D01*
X343116666Y-71150000D01*
X343083333Y-71183333D01*
X343050000Y-71250000D01*
X343050000Y-71316666D01*
X343083333Y-71416666D01*
X343483333Y-71816666D01*
X343050000Y-71816666D01*
X346450000Y-71816666D02*
X346050000Y-71816666D01*
X346250000Y-71816666D02*
X346250000Y-71116666D01*
X346183333Y-71216666D01*
X346116666Y-71283333D01*
X346050000Y-71316666D01*
%TO.C,J32*%
X293450000Y-71183333D02*
X293416666Y-71150000D01*
X293350000Y-71116666D01*
X293183333Y-71116666D01*
X293116666Y-71150000D01*
X293083333Y-71183333D01*
X293050000Y-71250000D01*
X293050000Y-71316666D01*
X293083333Y-71416666D01*
X293483333Y-71816666D01*
X293050000Y-71816666D01*
X296050000Y-71816666D02*
X296450000Y-71816666D01*
X296250000Y-71816666D02*
X296250000Y-71116666D01*
X296316666Y-71216666D01*
X296383333Y-71283333D01*
X296450000Y-71316666D01*
%TO.C,J33*%
X330950000Y-71183333D02*
X330916666Y-71150000D01*
X330850000Y-71116666D01*
X330683333Y-71116666D01*
X330616666Y-71150000D01*
X330583333Y-71183333D01*
X330550000Y-71250000D01*
X330550000Y-71316666D01*
X330583333Y-71416666D01*
X330983333Y-71816666D01*
X330550000Y-71816666D01*
X333950000Y-71816666D02*
X333550000Y-71816666D01*
X333750000Y-71816666D02*
X333750000Y-71116666D01*
X333683333Y-71216666D01*
X333616666Y-71283333D01*
X333550000Y-71316666D01*
%TO.C,J34*%
X318450000Y-71183333D02*
X318416666Y-71150000D01*
X318350000Y-71116666D01*
X318183333Y-71116666D01*
X318116666Y-71150000D01*
X318083333Y-71183333D01*
X318050000Y-71250000D01*
X318050000Y-71316666D01*
X318083333Y-71416666D01*
X318483333Y-71816666D01*
X318050000Y-71816666D01*
X321050000Y-71816666D02*
X321450000Y-71816666D01*
X321250000Y-71816666D02*
X321250000Y-71116666D01*
X321316666Y-71216666D01*
X321383333Y-71283333D01*
X321450000Y-71316666D01*
%TO.C,J35*%
X305950000Y-71183333D02*
X305916666Y-71150000D01*
X305850000Y-71116666D01*
X305683333Y-71116666D01*
X305616666Y-71150000D01*
X305583333Y-71183333D01*
X305550000Y-71250000D01*
X305550000Y-71316666D01*
X305583333Y-71416666D01*
X305983333Y-71816666D01*
X305550000Y-71816666D01*
X308550000Y-71816666D02*
X308950000Y-71816666D01*
X308750000Y-71816666D02*
X308750000Y-71116666D01*
X308816666Y-71216666D01*
X308883333Y-71283333D01*
X308950000Y-71316666D01*
%TO.C,J44*%
X99416666Y-170550000D02*
X99416666Y-171016666D01*
X99583333Y-170283333D02*
X99750000Y-170783333D01*
X99316666Y-170783333D01*
X94033333Y-170316666D02*
X93600000Y-170316666D01*
X93833333Y-170583333D01*
X93733333Y-170583333D01*
X93666666Y-170616666D01*
X93633333Y-170650000D01*
X93600000Y-170716666D01*
X93600000Y-170883333D01*
X93633333Y-170950000D01*
X93666666Y-170983333D01*
X93733333Y-171016666D01*
X93933333Y-171016666D01*
X94000000Y-170983333D01*
X94033333Y-170950000D01*
X99750000Y-159383333D02*
X99716666Y-159350000D01*
X99650000Y-159316666D01*
X99483333Y-159316666D01*
X99416666Y-159350000D01*
X99383333Y-159383333D01*
X99350000Y-159450000D01*
X99350000Y-159516666D01*
X99383333Y-159616666D01*
X99783333Y-160016666D01*
X99350000Y-160016666D01*
X93600000Y-160016666D02*
X94000000Y-160016666D01*
X93800000Y-160016666D02*
X93800000Y-159316666D01*
X93866666Y-159416666D01*
X93933333Y-159483333D01*
X94000000Y-159516666D01*
%TO.C,J54*%
X162100000Y-160933333D02*
X162066666Y-160900000D01*
X162000000Y-160866666D01*
X161833333Y-160866666D01*
X161766666Y-160900000D01*
X161733333Y-160933333D01*
X161700000Y-161000000D01*
X161700000Y-161066666D01*
X161733333Y-161166666D01*
X162133333Y-161566666D01*
X161700000Y-161566666D01*
X161700000Y-172316666D02*
X162100000Y-172316666D01*
X161900000Y-172316666D02*
X161900000Y-171616666D01*
X161966666Y-171716666D01*
X162033333Y-171783333D01*
X162100000Y-171816666D01*
%TO.C,J45*%
X54000000Y-162533333D02*
X53966666Y-162500000D01*
X53900000Y-162466666D01*
X53733333Y-162466666D01*
X53666666Y-162500000D01*
X53633333Y-162533333D01*
X53600000Y-162600000D01*
X53600000Y-162666666D01*
X53633333Y-162766666D01*
X54033333Y-163166666D01*
X53600000Y-163166666D01*
X53600000Y-152416666D02*
X54000000Y-152416666D01*
X53800000Y-152416666D02*
X53800000Y-151716666D01*
X53866666Y-151816666D01*
X53933333Y-151883333D01*
X54000000Y-151916666D01*
%TO.C,J8*%
X337770000Y-173680000D02*
X337303333Y-173680000D01*
X338036666Y-173846666D02*
X337536666Y-174013333D01*
X337536666Y-173580000D01*
X338003333Y-173180000D02*
X338003333Y-173113333D01*
X337970000Y-173046666D01*
X337936666Y-173013333D01*
X337870000Y-172980000D01*
X337736666Y-172946666D01*
X337570000Y-172946666D01*
X337436666Y-172980000D01*
X337370000Y-173013333D01*
X337336666Y-173046666D01*
X337303333Y-173113333D01*
X337303333Y-173180000D01*
X337336666Y-173246666D01*
X337370000Y-173280000D01*
X337436666Y-173313333D01*
X337570000Y-173346666D01*
X337736666Y-173346666D01*
X337870000Y-173313333D01*
X337936666Y-173280000D01*
X337970000Y-173246666D01*
X338003333Y-173180000D01*
X338003333Y-168046666D02*
X338003333Y-167613333D01*
X337736666Y-167846666D01*
X337736666Y-167746666D01*
X337703333Y-167680000D01*
X337670000Y-167646666D01*
X337603333Y-167613333D01*
X337436666Y-167613333D01*
X337370000Y-167646666D01*
X337336666Y-167680000D01*
X337303333Y-167746666D01*
X337303333Y-167946666D01*
X337336666Y-168013333D01*
X337370000Y-168046666D01*
X337303333Y-167280000D02*
X337303333Y-167146666D01*
X337336666Y-167080000D01*
X337370000Y-167046666D01*
X337470000Y-166980000D01*
X337603333Y-166946666D01*
X337870000Y-166946666D01*
X337936666Y-166980000D01*
X337970000Y-167013333D01*
X338003333Y-167080000D01*
X338003333Y-167213333D01*
X337970000Y-167280000D01*
X337936666Y-167313333D01*
X337870000Y-167346666D01*
X337703333Y-167346666D01*
X337636666Y-167313333D01*
X337603333Y-167280000D01*
X337570000Y-167213333D01*
X337570000Y-167080000D01*
X337603333Y-167013333D01*
X337636666Y-166980000D01*
X337703333Y-166946666D01*
X289686666Y-173430000D02*
X289720000Y-173396666D01*
X289753333Y-173330000D01*
X289753333Y-173163333D01*
X289720000Y-173096666D01*
X289686666Y-173063333D01*
X289620000Y-173030000D01*
X289553333Y-173030000D01*
X289453333Y-173063333D01*
X289053333Y-173463333D01*
X289053333Y-173030000D01*
X289053333Y-167530000D02*
X289053333Y-167930000D01*
X289053333Y-167730000D02*
X289753333Y-167730000D01*
X289653333Y-167796666D01*
X289586666Y-167863333D01*
X289553333Y-167930000D01*
%TO.C,J4*%
X226626666Y-54433333D02*
X226593333Y-54366666D01*
X226560000Y-54333333D01*
X226493333Y-54300000D01*
X226460000Y-54300000D01*
X226393333Y-54333333D01*
X226360000Y-54366666D01*
X226326666Y-54433333D01*
X226326666Y-54566666D01*
X226360000Y-54633333D01*
X226393333Y-54666666D01*
X226460000Y-54700000D01*
X226493333Y-54700000D01*
X226560000Y-54666666D01*
X226593333Y-54633333D01*
X226626666Y-54566666D01*
X226626666Y-54433333D01*
X226660000Y-54366666D01*
X226693333Y-54333333D01*
X226760000Y-54300000D01*
X226893333Y-54300000D01*
X226960000Y-54333333D01*
X226993333Y-54366666D01*
X227026666Y-54433333D01*
X227026666Y-54566666D01*
X226993333Y-54633333D01*
X226960000Y-54666666D01*
X226893333Y-54700000D01*
X226760000Y-54700000D01*
X226693333Y-54666666D01*
X226660000Y-54633333D01*
X226626666Y-54566666D01*
X209276666Y-54700000D02*
X209276666Y-54300000D01*
X209276666Y-54500000D02*
X208576666Y-54500000D01*
X208676666Y-54433333D01*
X208743333Y-54366666D01*
X208776666Y-54300000D01*
%TO.C,J5*%
X244816666Y-51700000D02*
X244816666Y-51300000D01*
X244816666Y-51500000D02*
X244116666Y-51500000D01*
X244216666Y-51433333D01*
X244283333Y-51366666D01*
X244316666Y-51300000D01*
X231366666Y-51633333D02*
X231366666Y-51500000D01*
X231400000Y-51433333D01*
X231433333Y-51400000D01*
X231533333Y-51333333D01*
X231666666Y-51300000D01*
X231933333Y-51300000D01*
X232000000Y-51333333D01*
X232033333Y-51366666D01*
X232066666Y-51433333D01*
X232066666Y-51566666D01*
X232033333Y-51633333D01*
X232000000Y-51666666D01*
X231933333Y-51700000D01*
X231766666Y-51700000D01*
X231700000Y-51666666D01*
X231666666Y-51633333D01*
X231633333Y-51566666D01*
X231633333Y-51433333D01*
X231666666Y-51366666D01*
X231700000Y-51333333D01*
X231766666Y-51300000D01*
%TO.C,J6*%
X222987666Y-99959000D02*
X222987666Y-99559000D01*
X222987666Y-99759000D02*
X222287666Y-99759000D01*
X222387666Y-99692333D01*
X222454333Y-99625666D01*
X222487666Y-99559000D01*
X199987666Y-99375666D02*
X199987666Y-98975666D01*
X199987666Y-99175666D02*
X199287666Y-99175666D01*
X199387666Y-99109000D01*
X199454333Y-99042333D01*
X199487666Y-98975666D01*
X199287666Y-99809000D02*
X199287666Y-99875666D01*
X199321000Y-99942333D01*
X199354333Y-99975666D01*
X199421000Y-100009000D01*
X199554333Y-100042333D01*
X199721000Y-100042333D01*
X199854333Y-100009000D01*
X199921000Y-99975666D01*
X199954333Y-99942333D01*
X199987666Y-99875666D01*
X199987666Y-99809000D01*
X199954333Y-99742333D01*
X199921000Y-99709000D01*
X199854333Y-99675666D01*
X199721000Y-99642333D01*
X199554333Y-99642333D01*
X199421000Y-99675666D01*
X199354333Y-99709000D01*
X199321000Y-99742333D01*
X199287666Y-99809000D01*
%TO.C,J7*%
X244831666Y-99959000D02*
X244831666Y-99559000D01*
X244831666Y-99759000D02*
X244131666Y-99759000D01*
X244231666Y-99692333D01*
X244298333Y-99625666D01*
X244331666Y-99559000D01*
X226681666Y-99692333D02*
X226648333Y-99625666D01*
X226615000Y-99592333D01*
X226548333Y-99559000D01*
X226515000Y-99559000D01*
X226448333Y-99592333D01*
X226415000Y-99625666D01*
X226381666Y-99692333D01*
X226381666Y-99825666D01*
X226415000Y-99892333D01*
X226448333Y-99925666D01*
X226515000Y-99959000D01*
X226548333Y-99959000D01*
X226615000Y-99925666D01*
X226648333Y-99892333D01*
X226681666Y-99825666D01*
X226681666Y-99692333D01*
X226715000Y-99625666D01*
X226748333Y-99592333D01*
X226815000Y-99559000D01*
X226948333Y-99559000D01*
X227015000Y-99592333D01*
X227048333Y-99625666D01*
X227081666Y-99692333D01*
X227081666Y-99825666D01*
X227048333Y-99892333D01*
X227015000Y-99925666D01*
X226948333Y-99959000D01*
X226815000Y-99959000D01*
X226748333Y-99925666D01*
X226715000Y-99892333D01*
X226681666Y-99825666D01*
%TO.C,J12*%
X196150666Y-126538000D02*
X196150666Y-126138000D01*
X196150666Y-126338000D02*
X195450666Y-126338000D01*
X195550666Y-126271333D01*
X195617333Y-126204666D01*
X195650666Y-126138000D01*
X195517333Y-131638000D02*
X195484000Y-131671333D01*
X195450666Y-131738000D01*
X195450666Y-131904666D01*
X195484000Y-131971333D01*
X195517333Y-132004666D01*
X195584000Y-132038000D01*
X195650666Y-132038000D01*
X195750666Y-132004666D01*
X196150666Y-131604666D01*
X196150666Y-132038000D01*
X243700666Y-125521333D02*
X243700666Y-125954666D01*
X243967333Y-125721333D01*
X243967333Y-125821333D01*
X244000666Y-125888000D01*
X244034000Y-125921333D01*
X244100666Y-125954666D01*
X244267333Y-125954666D01*
X244334000Y-125921333D01*
X244367333Y-125888000D01*
X244400666Y-125821333D01*
X244400666Y-125621333D01*
X244367333Y-125554666D01*
X244334000Y-125521333D01*
X244400666Y-126288000D02*
X244400666Y-126421333D01*
X244367333Y-126488000D01*
X244334000Y-126521333D01*
X244234000Y-126588000D01*
X244100666Y-126621333D01*
X243834000Y-126621333D01*
X243767333Y-126588000D01*
X243734000Y-126554666D01*
X243700666Y-126488000D01*
X243700666Y-126354666D01*
X243734000Y-126288000D01*
X243767333Y-126254666D01*
X243834000Y-126221333D01*
X244000666Y-126221333D01*
X244067333Y-126254666D01*
X244100666Y-126288000D01*
X244134000Y-126354666D01*
X244134000Y-126488000D01*
X244100666Y-126554666D01*
X244067333Y-126588000D01*
X244000666Y-126621333D01*
X243934000Y-131888000D02*
X244400666Y-131888000D01*
X243667333Y-131721333D02*
X244167333Y-131554666D01*
X244167333Y-131988000D01*
X243700666Y-132388000D02*
X243700666Y-132454666D01*
X243734000Y-132521333D01*
X243767333Y-132554666D01*
X243834000Y-132588000D01*
X243967333Y-132621333D01*
X244134000Y-132621333D01*
X244267333Y-132588000D01*
X244334000Y-132554666D01*
X244367333Y-132521333D01*
X244400666Y-132454666D01*
X244400666Y-132388000D01*
X244367333Y-132321333D01*
X244334000Y-132288000D01*
X244267333Y-132254666D01*
X244134000Y-132221333D01*
X243967333Y-132221333D01*
X243834000Y-132254666D01*
X243767333Y-132288000D01*
X243734000Y-132321333D01*
X243700666Y-132388000D01*
%TO.C,J13*%
X243934000Y-171885000D02*
X244400666Y-171885000D01*
X243667333Y-171718333D02*
X244167333Y-171551666D01*
X244167333Y-171985000D01*
X243700666Y-172385000D02*
X243700666Y-172451666D01*
X243734000Y-172518333D01*
X243767333Y-172551666D01*
X243834000Y-172585000D01*
X243967333Y-172618333D01*
X244134000Y-172618333D01*
X244267333Y-172585000D01*
X244334000Y-172551666D01*
X244367333Y-172518333D01*
X244400666Y-172451666D01*
X244400666Y-172385000D01*
X244367333Y-172318333D01*
X244334000Y-172285000D01*
X244267333Y-172251666D01*
X244134000Y-172218333D01*
X243967333Y-172218333D01*
X243834000Y-172251666D01*
X243767333Y-172285000D01*
X243734000Y-172318333D01*
X243700666Y-172385000D01*
X243700666Y-165518333D02*
X243700666Y-165951666D01*
X243967333Y-165718333D01*
X243967333Y-165818333D01*
X244000666Y-165885000D01*
X244034000Y-165918333D01*
X244100666Y-165951666D01*
X244267333Y-165951666D01*
X244334000Y-165918333D01*
X244367333Y-165885000D01*
X244400666Y-165818333D01*
X244400666Y-165618333D01*
X244367333Y-165551666D01*
X244334000Y-165518333D01*
X244400666Y-166285000D02*
X244400666Y-166418333D01*
X244367333Y-166485000D01*
X244334000Y-166518333D01*
X244234000Y-166585000D01*
X244100666Y-166618333D01*
X243834000Y-166618333D01*
X243767333Y-166585000D01*
X243734000Y-166551666D01*
X243700666Y-166485000D01*
X243700666Y-166351666D01*
X243734000Y-166285000D01*
X243767333Y-166251666D01*
X243834000Y-166218333D01*
X244000666Y-166218333D01*
X244067333Y-166251666D01*
X244100666Y-166285000D01*
X244134000Y-166351666D01*
X244134000Y-166485000D01*
X244100666Y-166551666D01*
X244067333Y-166585000D01*
X244000666Y-166618333D01*
X195517333Y-171635000D02*
X195484000Y-171668333D01*
X195450666Y-171735000D01*
X195450666Y-171901666D01*
X195484000Y-171968333D01*
X195517333Y-172001666D01*
X195584000Y-172035000D01*
X195650666Y-172035000D01*
X195750666Y-172001666D01*
X196150666Y-171601666D01*
X196150666Y-172035000D01*
X196150666Y-166535000D02*
X196150666Y-166135000D01*
X196150666Y-166335000D02*
X195450666Y-166335000D01*
X195550666Y-166268333D01*
X195617333Y-166201666D01*
X195650666Y-166135000D01*
%TO.C,J46*%
X35100000Y-166466666D02*
X35500000Y-166466666D01*
X35300000Y-166466666D02*
X35300000Y-165766666D01*
X35366666Y-165866666D01*
X35433333Y-165933333D01*
X35500000Y-165966666D01*
X45133333Y-165766666D02*
X45466666Y-165766666D01*
X45500000Y-166100000D01*
X45466666Y-166066666D01*
X45400000Y-166033333D01*
X45233333Y-166033333D01*
X45166666Y-166066666D01*
X45133333Y-166100000D01*
X45100000Y-166166666D01*
X45100000Y-166333333D01*
X45133333Y-166400000D01*
X45166666Y-166433333D01*
X45233333Y-166466666D01*
X45400000Y-166466666D01*
X45466666Y-166433333D01*
X45500000Y-166400000D01*
%TO.C,J51*%
D12*
X332666666Y-85583333D02*
X332666666Y-85450000D01*
X332700000Y-85383333D01*
X332733333Y-85350000D01*
X332833333Y-85283333D01*
X332966666Y-85250000D01*
X333233333Y-85250000D01*
X333300000Y-85283333D01*
X333333333Y-85316666D01*
X333366666Y-85383333D01*
X333366666Y-85516666D01*
X333333333Y-85583333D01*
X333300000Y-85616666D01*
X333233333Y-85650000D01*
X333066666Y-85650000D01*
X333000000Y-85616666D01*
X332966666Y-85583333D01*
X332933333Y-85516666D01*
X332933333Y-85383333D01*
X332966666Y-85316666D01*
X333000000Y-85283333D01*
X333066666Y-85250000D01*
X346066666Y-85650000D02*
X346066666Y-85250000D01*
X346066666Y-85450000D02*
X345366666Y-85450000D01*
X345466666Y-85383333D01*
X345533333Y-85316666D01*
X345566666Y-85250000D01*
%TO.C,J52*%
X346066666Y-81900000D02*
X346066666Y-81500000D01*
X346066666Y-81700000D02*
X345366666Y-81700000D01*
X345466666Y-81633333D01*
X345533333Y-81566666D01*
X345566666Y-81500000D01*
X332666666Y-81833333D02*
X332666666Y-81700000D01*
X332700000Y-81633333D01*
X332733333Y-81600000D01*
X332833333Y-81533333D01*
X332966666Y-81500000D01*
X333233333Y-81500000D01*
X333300000Y-81533333D01*
X333333333Y-81566666D01*
X333366666Y-81633333D01*
X333366666Y-81766666D01*
X333333333Y-81833333D01*
X333300000Y-81866666D01*
X333233333Y-81900000D01*
X333066666Y-81900000D01*
X333000000Y-81866666D01*
X332966666Y-81833333D01*
X332933333Y-81766666D01*
X332933333Y-81633333D01*
X332966666Y-81566666D01*
X333000000Y-81533333D01*
X333066666Y-81500000D01*
%TD*%
M02*
