%TF.GenerationSoftware,KiCad,Pcbnew,(5.1.9-16-g1737927814)-1*%
%TF.CreationDate,2021-03-30T22:33:32-04:00*%
%TF.ProjectId,Ventilator,56656e74-696c-4617-946f-722e6b696361,A*%
%TF.SameCoordinates,PX1312d00PY1312d00*%
%TF.FileFunction,Legend,Bot*%
%TF.FilePolarity,Positive*%
%FSLAX46Y46*%
G04 Gerber Fmt 4.6, Leading zero omitted, Abs format (unit mm)*
G04 Created by KiCad (PCBNEW (5.1.9-16-g1737927814)-1) date 2021-03-30 22:33:32*
%MOMM*%
%LPD*%
G01*
G04 APERTURE LIST*
%ADD10C,0.050000*%
%ADD11C,0.120000*%
%ADD12C,0.150000*%
G04 APERTURE END LIST*
D10*
%TO.C,H15*%
X249415000Y-153101000D02*
X249415000Y-105101000D01*
X249415000Y-153101000D02*
X165415000Y-153101000D01*
X249415000Y-105101000D02*
X165415000Y-105101000D01*
X165415000Y-105101000D02*
X165415000Y-115501000D01*
X165415000Y-153101000D02*
X165415000Y-142701000D01*
X165415000Y-142701000D02*
X157915000Y-142701000D01*
X165415000Y-115523000D02*
X157915000Y-115523000D01*
X157903000Y-142701000D02*
X157915000Y-115523000D01*
%TO.C,J40*%
D11*
X320333333Y-35116666D02*
X320666666Y-35116666D01*
X320700000Y-35450000D01*
X320666666Y-35416666D01*
X320600000Y-35383333D01*
X320433333Y-35383333D01*
X320366666Y-35416666D01*
X320333333Y-35450000D01*
X320300000Y-35516666D01*
X320300000Y-35683333D01*
X320333333Y-35750000D01*
X320366666Y-35783333D01*
X320433333Y-35816666D01*
X320600000Y-35816666D01*
X320666666Y-35783333D01*
X320700000Y-35750000D01*
X308400000Y-35816666D02*
X308800000Y-35816666D01*
X308600000Y-35816666D02*
X308600000Y-35116666D01*
X308666666Y-35216666D01*
X308733333Y-35283333D01*
X308800000Y-35316666D01*
%TO.C,J41*%
X298733333Y-35116666D02*
X299066666Y-35116666D01*
X299100000Y-35450000D01*
X299066666Y-35416666D01*
X299000000Y-35383333D01*
X298833333Y-35383333D01*
X298766666Y-35416666D01*
X298733333Y-35450000D01*
X298700000Y-35516666D01*
X298700000Y-35683333D01*
X298733333Y-35750000D01*
X298766666Y-35783333D01*
X298833333Y-35816666D01*
X299000000Y-35816666D01*
X299066666Y-35783333D01*
X299100000Y-35750000D01*
X286800000Y-35816666D02*
X287200000Y-35816666D01*
X287000000Y-35816666D02*
X287000000Y-35116666D01*
X287066666Y-35216666D01*
X287133333Y-35283333D01*
X287200000Y-35316666D01*
%TO.C,J42*%
X277133333Y-35116666D02*
X277466666Y-35116666D01*
X277500000Y-35450000D01*
X277466666Y-35416666D01*
X277400000Y-35383333D01*
X277233333Y-35383333D01*
X277166666Y-35416666D01*
X277133333Y-35450000D01*
X277100000Y-35516666D01*
X277100000Y-35683333D01*
X277133333Y-35750000D01*
X277166666Y-35783333D01*
X277233333Y-35816666D01*
X277400000Y-35816666D01*
X277466666Y-35783333D01*
X277500000Y-35750000D01*
X265200000Y-35816666D02*
X265600000Y-35816666D01*
X265400000Y-35816666D02*
X265400000Y-35116666D01*
X265466666Y-35216666D01*
X265533333Y-35283333D01*
X265600000Y-35316666D01*
%TO.C,J43*%
X255733333Y-35066666D02*
X256066666Y-35066666D01*
X256100000Y-35400000D01*
X256066666Y-35366666D01*
X256000000Y-35333333D01*
X255833333Y-35333333D01*
X255766666Y-35366666D01*
X255733333Y-35400000D01*
X255700000Y-35466666D01*
X255700000Y-35633333D01*
X255733333Y-35700000D01*
X255766666Y-35733333D01*
X255833333Y-35766666D01*
X256000000Y-35766666D01*
X256066666Y-35733333D01*
X256100000Y-35700000D01*
X243800000Y-35766666D02*
X244200000Y-35766666D01*
X244000000Y-35766666D02*
X244000000Y-35066666D01*
X244066666Y-35166666D01*
X244133333Y-35233333D01*
X244200000Y-35266666D01*
%TO.C,J10*%
X156100000Y-141233333D02*
X156566666Y-141233333D01*
X155833333Y-141066666D02*
X156333333Y-140900000D01*
X156333333Y-141333333D01*
X156566666Y-132200000D02*
X156566666Y-131800000D01*
X156566666Y-132000000D02*
X155866666Y-132000000D01*
X155966666Y-131933333D01*
X156033333Y-131866666D01*
X156066666Y-131800000D01*
%TO.C,J38*%
D12*
X5085714Y-105309523D02*
X5752380Y-105309523D01*
X4704761Y-105547619D02*
X5419047Y-105785714D01*
X5419047Y-105166666D01*
D11*
X9566666Y-100800000D02*
X9566666Y-101200000D01*
X9566666Y-101000000D02*
X8866666Y-101000000D01*
X8966666Y-101066666D01*
X9033333Y-101133333D01*
X9066666Y-101200000D01*
%TO.C,J39*%
X144716666Y-124350000D02*
X144716666Y-124816666D01*
X144883333Y-124083333D02*
X145050000Y-124583333D01*
X144616666Y-124583333D01*
X135550000Y-124816666D02*
X135950000Y-124816666D01*
X135750000Y-124816666D02*
X135750000Y-124116666D01*
X135816666Y-124216666D01*
X135883333Y-124283333D01*
X135950000Y-124316666D01*
%TO.C,J49*%
X8100000Y-76483333D02*
X8566666Y-76483333D01*
X7833333Y-76316666D02*
X8333333Y-76150000D01*
X8333333Y-76583333D01*
X8566666Y-67450000D02*
X8566666Y-67050000D01*
X8566666Y-67250000D02*
X7866666Y-67250000D01*
X7966666Y-67183333D01*
X8033333Y-67116666D01*
X8066666Y-67050000D01*
%TO.C,J1*%
X12683334Y-40011667D02*
X12250001Y-40011667D01*
X12483334Y-40278334D01*
X12383334Y-40278334D01*
X12316667Y-40311667D01*
X12283334Y-40345001D01*
X12250001Y-40411667D01*
X12250001Y-40578334D01*
X12283334Y-40645001D01*
X12316667Y-40678334D01*
X12383334Y-40711667D01*
X12583334Y-40711667D01*
X12650001Y-40678334D01*
X12683334Y-40645001D01*
X9650001Y-40078334D02*
X9616667Y-40045001D01*
X9550001Y-40011667D01*
X9383334Y-40011667D01*
X9316667Y-40045001D01*
X9283334Y-40078334D01*
X9250001Y-40145001D01*
X9250001Y-40211667D01*
X9283334Y-40311667D01*
X9683334Y-40711667D01*
X9250001Y-40711667D01*
X6250001Y-40711667D02*
X6650001Y-40711667D01*
X6450001Y-40711667D02*
X6450001Y-40011667D01*
X6516667Y-40111667D01*
X6583334Y-40178334D01*
X6650001Y-40211667D01*
%TO.C,J2*%
X22533333Y-31266666D02*
X22100000Y-31266666D01*
X22333333Y-31533333D01*
X22233333Y-31533333D01*
X22166666Y-31566666D01*
X22133333Y-31600000D01*
X22100000Y-31666666D01*
X22100000Y-31833333D01*
X22133333Y-31900000D01*
X22166666Y-31933333D01*
X22233333Y-31966666D01*
X22433333Y-31966666D01*
X22500000Y-31933333D01*
X22533333Y-31900000D01*
X19500000Y-31333333D02*
X19466666Y-31300000D01*
X19400000Y-31266666D01*
X19233333Y-31266666D01*
X19166666Y-31300000D01*
X19133333Y-31333333D01*
X19100000Y-31400000D01*
X19100000Y-31466666D01*
X19133333Y-31566666D01*
X19533333Y-31966666D01*
X19100000Y-31966666D01*
X16100000Y-31966666D02*
X16500000Y-31966666D01*
X16300000Y-31966666D02*
X16300000Y-31266666D01*
X16366666Y-31366666D01*
X16433333Y-31433333D01*
X16500000Y-31466666D01*
%TO.C,J30*%
X269366666Y-65016666D02*
X269366666Y-65450000D01*
X269633333Y-65216666D01*
X269633333Y-65316666D01*
X269666666Y-65383333D01*
X269700000Y-65416666D01*
X269766666Y-65450000D01*
X269933333Y-65450000D01*
X270000000Y-65416666D01*
X270033333Y-65383333D01*
X270066666Y-65316666D01*
X270066666Y-65116666D01*
X270033333Y-65050000D01*
X270000000Y-65016666D01*
X269433333Y-68050000D02*
X269400000Y-68083333D01*
X269366666Y-68150000D01*
X269366666Y-68316666D01*
X269400000Y-68383333D01*
X269433333Y-68416666D01*
X269500000Y-68450000D01*
X269566666Y-68450000D01*
X269666666Y-68416666D01*
X270066666Y-68016666D01*
X270066666Y-68450000D01*
X270066666Y-71450000D02*
X270066666Y-71050000D01*
X270066666Y-71250000D02*
X269366666Y-71250000D01*
X269466666Y-71183333D01*
X269533333Y-71116666D01*
X269566666Y-71050000D01*
%TO.C,J37*%
X7866666Y-92766666D02*
X7866666Y-93200000D01*
X8133333Y-92966666D01*
X8133333Y-93066666D01*
X8166666Y-93133333D01*
X8200000Y-93166666D01*
X8266666Y-93200000D01*
X8433333Y-93200000D01*
X8500000Y-93166666D01*
X8533333Y-93133333D01*
X8566666Y-93066666D01*
X8566666Y-92866666D01*
X8533333Y-92800000D01*
X8500000Y-92766666D01*
X7933333Y-89800000D02*
X7900000Y-89833333D01*
X7866666Y-89900000D01*
X7866666Y-90066666D01*
X7900000Y-90133333D01*
X7933333Y-90166666D01*
X8000000Y-90200000D01*
X8066666Y-90200000D01*
X8166666Y-90166666D01*
X8566666Y-89766666D01*
X8566666Y-90200000D01*
X8566666Y-87200000D02*
X8566666Y-86800000D01*
X8566666Y-87000000D02*
X7866666Y-87000000D01*
X7966666Y-86933333D01*
X8033333Y-86866666D01*
X8066666Y-86800000D01*
%TO.C,J48*%
X7866666Y-59016666D02*
X7866666Y-59450000D01*
X8133333Y-59216666D01*
X8133333Y-59316666D01*
X8166666Y-59383333D01*
X8200000Y-59416666D01*
X8266666Y-59450000D01*
X8433333Y-59450000D01*
X8500000Y-59416666D01*
X8533333Y-59383333D01*
X8566666Y-59316666D01*
X8566666Y-59116666D01*
X8533333Y-59050000D01*
X8500000Y-59016666D01*
X7933333Y-56050000D02*
X7900000Y-56083333D01*
X7866666Y-56150000D01*
X7866666Y-56316666D01*
X7900000Y-56383333D01*
X7933333Y-56416666D01*
X8000000Y-56450000D01*
X8066666Y-56450000D01*
X8166666Y-56416666D01*
X8566666Y-56016666D01*
X8566666Y-56450000D01*
X8566666Y-53450000D02*
X8566666Y-53050000D01*
X8566666Y-53250000D02*
X7866666Y-53250000D01*
X7966666Y-53183333D01*
X8033333Y-53116666D01*
X8066666Y-53050000D01*
%TO.C,J53*%
X45400000Y-39566666D02*
X45800000Y-39566666D01*
X45600000Y-39566666D02*
X45600000Y-38866666D01*
X45666666Y-38966666D01*
X45733333Y-39033333D01*
X45800000Y-39066666D01*
X42800000Y-38933333D02*
X42766666Y-38900000D01*
X42700000Y-38866666D01*
X42533333Y-38866666D01*
X42466666Y-38900000D01*
X42433333Y-38933333D01*
X42400000Y-39000000D01*
X42400000Y-39066666D01*
X42433333Y-39166666D01*
X42833333Y-39566666D01*
X42400000Y-39566666D01*
%TO.C,J47*%
X113183333Y-45050000D02*
X113150000Y-45083333D01*
X113116666Y-45150000D01*
X113116666Y-45316666D01*
X113150000Y-45383333D01*
X113183333Y-45416666D01*
X113250000Y-45450000D01*
X113316666Y-45450000D01*
X113416666Y-45416666D01*
X113816666Y-45016666D01*
X113816666Y-45450000D01*
X113816666Y-48450000D02*
X113816666Y-48050000D01*
X113816666Y-48250000D02*
X113116666Y-48250000D01*
X113216666Y-48183333D01*
X113283333Y-48116666D01*
X113316666Y-48050000D01*
%TO.C,J36*%
X60683333Y-45300000D02*
X60650000Y-45333333D01*
X60616666Y-45400000D01*
X60616666Y-45566666D01*
X60650000Y-45633333D01*
X60683333Y-45666666D01*
X60750000Y-45700000D01*
X60816666Y-45700000D01*
X60916666Y-45666666D01*
X61316666Y-45266666D01*
X61316666Y-45700000D01*
X61316666Y-48700000D02*
X61316666Y-48300000D01*
X61316666Y-48500000D02*
X60616666Y-48500000D01*
X60716666Y-48433333D01*
X60783333Y-48366666D01*
X60816666Y-48300000D01*
%TO.C,J31*%
X323450000Y-51183333D02*
X323416666Y-51150000D01*
X323350000Y-51116666D01*
X323183333Y-51116666D01*
X323116666Y-51150000D01*
X323083333Y-51183333D01*
X323050000Y-51250000D01*
X323050000Y-51316666D01*
X323083333Y-51416666D01*
X323483333Y-51816666D01*
X323050000Y-51816666D01*
X326450000Y-51816666D02*
X326050000Y-51816666D01*
X326250000Y-51816666D02*
X326250000Y-51116666D01*
X326183333Y-51216666D01*
X326116666Y-51283333D01*
X326050000Y-51316666D01*
%TO.C,J32*%
X273450000Y-51183333D02*
X273416666Y-51150000D01*
X273350000Y-51116666D01*
X273183333Y-51116666D01*
X273116666Y-51150000D01*
X273083333Y-51183333D01*
X273050000Y-51250000D01*
X273050000Y-51316666D01*
X273083333Y-51416666D01*
X273483333Y-51816666D01*
X273050000Y-51816666D01*
X276050000Y-51816666D02*
X276450000Y-51816666D01*
X276250000Y-51816666D02*
X276250000Y-51116666D01*
X276316666Y-51216666D01*
X276383333Y-51283333D01*
X276450000Y-51316666D01*
%TO.C,J33*%
X310950000Y-51183333D02*
X310916666Y-51150000D01*
X310850000Y-51116666D01*
X310683333Y-51116666D01*
X310616666Y-51150000D01*
X310583333Y-51183333D01*
X310550000Y-51250000D01*
X310550000Y-51316666D01*
X310583333Y-51416666D01*
X310983333Y-51816666D01*
X310550000Y-51816666D01*
X313950000Y-51816666D02*
X313550000Y-51816666D01*
X313750000Y-51816666D02*
X313750000Y-51116666D01*
X313683333Y-51216666D01*
X313616666Y-51283333D01*
X313550000Y-51316666D01*
%TO.C,J34*%
X298450000Y-51183333D02*
X298416666Y-51150000D01*
X298350000Y-51116666D01*
X298183333Y-51116666D01*
X298116666Y-51150000D01*
X298083333Y-51183333D01*
X298050000Y-51250000D01*
X298050000Y-51316666D01*
X298083333Y-51416666D01*
X298483333Y-51816666D01*
X298050000Y-51816666D01*
X301050000Y-51816666D02*
X301450000Y-51816666D01*
X301250000Y-51816666D02*
X301250000Y-51116666D01*
X301316666Y-51216666D01*
X301383333Y-51283333D01*
X301450000Y-51316666D01*
%TO.C,J35*%
X285950000Y-51183333D02*
X285916666Y-51150000D01*
X285850000Y-51116666D01*
X285683333Y-51116666D01*
X285616666Y-51150000D01*
X285583333Y-51183333D01*
X285550000Y-51250000D01*
X285550000Y-51316666D01*
X285583333Y-51416666D01*
X285983333Y-51816666D01*
X285550000Y-51816666D01*
X288550000Y-51816666D02*
X288950000Y-51816666D01*
X288750000Y-51816666D02*
X288750000Y-51116666D01*
X288816666Y-51216666D01*
X288883333Y-51283333D01*
X288950000Y-51316666D01*
%TO.C,J44*%
X79416666Y-150550000D02*
X79416666Y-151016666D01*
X79583333Y-150283333D02*
X79750000Y-150783333D01*
X79316666Y-150783333D01*
X74033333Y-150316666D02*
X73600000Y-150316666D01*
X73833333Y-150583333D01*
X73733333Y-150583333D01*
X73666666Y-150616666D01*
X73633333Y-150650000D01*
X73600000Y-150716666D01*
X73600000Y-150883333D01*
X73633333Y-150950000D01*
X73666666Y-150983333D01*
X73733333Y-151016666D01*
X73933333Y-151016666D01*
X74000000Y-150983333D01*
X74033333Y-150950000D01*
X79750000Y-139383333D02*
X79716666Y-139350000D01*
X79650000Y-139316666D01*
X79483333Y-139316666D01*
X79416666Y-139350000D01*
X79383333Y-139383333D01*
X79350000Y-139450000D01*
X79350000Y-139516666D01*
X79383333Y-139616666D01*
X79783333Y-140016666D01*
X79350000Y-140016666D01*
X73600000Y-140016666D02*
X74000000Y-140016666D01*
X73800000Y-140016666D02*
X73800000Y-139316666D01*
X73866666Y-139416666D01*
X73933333Y-139483333D01*
X74000000Y-139516666D01*
%TO.C,J54*%
X142100000Y-140933333D02*
X142066666Y-140900000D01*
X142000000Y-140866666D01*
X141833333Y-140866666D01*
X141766666Y-140900000D01*
X141733333Y-140933333D01*
X141700000Y-141000000D01*
X141700000Y-141066666D01*
X141733333Y-141166666D01*
X142133333Y-141566666D01*
X141700000Y-141566666D01*
X141700000Y-152316666D02*
X142100000Y-152316666D01*
X141900000Y-152316666D02*
X141900000Y-151616666D01*
X141966666Y-151716666D01*
X142033333Y-151783333D01*
X142100000Y-151816666D01*
%TO.C,J45*%
X34000000Y-142533333D02*
X33966666Y-142500000D01*
X33900000Y-142466666D01*
X33733333Y-142466666D01*
X33666666Y-142500000D01*
X33633333Y-142533333D01*
X33600000Y-142600000D01*
X33600000Y-142666666D01*
X33633333Y-142766666D01*
X34033333Y-143166666D01*
X33600000Y-143166666D01*
X33600000Y-132416666D02*
X34000000Y-132416666D01*
X33800000Y-132416666D02*
X33800000Y-131716666D01*
X33866666Y-131816666D01*
X33933333Y-131883333D01*
X34000000Y-131916666D01*
%TO.C,J8*%
X317770000Y-153680000D02*
X317303333Y-153680000D01*
X318036666Y-153846666D02*
X317536666Y-154013333D01*
X317536666Y-153580000D01*
X318003333Y-153180000D02*
X318003333Y-153113333D01*
X317970000Y-153046666D01*
X317936666Y-153013333D01*
X317870000Y-152980000D01*
X317736666Y-152946666D01*
X317570000Y-152946666D01*
X317436666Y-152980000D01*
X317370000Y-153013333D01*
X317336666Y-153046666D01*
X317303333Y-153113333D01*
X317303333Y-153180000D01*
X317336666Y-153246666D01*
X317370000Y-153280000D01*
X317436666Y-153313333D01*
X317570000Y-153346666D01*
X317736666Y-153346666D01*
X317870000Y-153313333D01*
X317936666Y-153280000D01*
X317970000Y-153246666D01*
X318003333Y-153180000D01*
X318003333Y-148046666D02*
X318003333Y-147613333D01*
X317736666Y-147846666D01*
X317736666Y-147746666D01*
X317703333Y-147680000D01*
X317670000Y-147646666D01*
X317603333Y-147613333D01*
X317436666Y-147613333D01*
X317370000Y-147646666D01*
X317336666Y-147680000D01*
X317303333Y-147746666D01*
X317303333Y-147946666D01*
X317336666Y-148013333D01*
X317370000Y-148046666D01*
X317303333Y-147280000D02*
X317303333Y-147146666D01*
X317336666Y-147080000D01*
X317370000Y-147046666D01*
X317470000Y-146980000D01*
X317603333Y-146946666D01*
X317870000Y-146946666D01*
X317936666Y-146980000D01*
X317970000Y-147013333D01*
X318003333Y-147080000D01*
X318003333Y-147213333D01*
X317970000Y-147280000D01*
X317936666Y-147313333D01*
X317870000Y-147346666D01*
X317703333Y-147346666D01*
X317636666Y-147313333D01*
X317603333Y-147280000D01*
X317570000Y-147213333D01*
X317570000Y-147080000D01*
X317603333Y-147013333D01*
X317636666Y-146980000D01*
X317703333Y-146946666D01*
X269686666Y-153430000D02*
X269720000Y-153396666D01*
X269753333Y-153330000D01*
X269753333Y-153163333D01*
X269720000Y-153096666D01*
X269686666Y-153063333D01*
X269620000Y-153030000D01*
X269553333Y-153030000D01*
X269453333Y-153063333D01*
X269053333Y-153463333D01*
X269053333Y-153030000D01*
X269053333Y-147530000D02*
X269053333Y-147930000D01*
X269053333Y-147730000D02*
X269753333Y-147730000D01*
X269653333Y-147796666D01*
X269586666Y-147863333D01*
X269553333Y-147930000D01*
%TO.C,J4*%
X206626666Y-34433333D02*
X206593333Y-34366666D01*
X206560000Y-34333333D01*
X206493333Y-34300000D01*
X206460000Y-34300000D01*
X206393333Y-34333333D01*
X206360000Y-34366666D01*
X206326666Y-34433333D01*
X206326666Y-34566666D01*
X206360000Y-34633333D01*
X206393333Y-34666666D01*
X206460000Y-34700000D01*
X206493333Y-34700000D01*
X206560000Y-34666666D01*
X206593333Y-34633333D01*
X206626666Y-34566666D01*
X206626666Y-34433333D01*
X206660000Y-34366666D01*
X206693333Y-34333333D01*
X206760000Y-34300000D01*
X206893333Y-34300000D01*
X206960000Y-34333333D01*
X206993333Y-34366666D01*
X207026666Y-34433333D01*
X207026666Y-34566666D01*
X206993333Y-34633333D01*
X206960000Y-34666666D01*
X206893333Y-34700000D01*
X206760000Y-34700000D01*
X206693333Y-34666666D01*
X206660000Y-34633333D01*
X206626666Y-34566666D01*
X189276666Y-34700000D02*
X189276666Y-34300000D01*
X189276666Y-34500000D02*
X188576666Y-34500000D01*
X188676666Y-34433333D01*
X188743333Y-34366666D01*
X188776666Y-34300000D01*
%TO.C,J5*%
X224816666Y-31700000D02*
X224816666Y-31300000D01*
X224816666Y-31500000D02*
X224116666Y-31500000D01*
X224216666Y-31433333D01*
X224283333Y-31366666D01*
X224316666Y-31300000D01*
X211366666Y-31633333D02*
X211366666Y-31500000D01*
X211400000Y-31433333D01*
X211433333Y-31400000D01*
X211533333Y-31333333D01*
X211666666Y-31300000D01*
X211933333Y-31300000D01*
X212000000Y-31333333D01*
X212033333Y-31366666D01*
X212066666Y-31433333D01*
X212066666Y-31566666D01*
X212033333Y-31633333D01*
X212000000Y-31666666D01*
X211933333Y-31700000D01*
X211766666Y-31700000D01*
X211700000Y-31666666D01*
X211666666Y-31633333D01*
X211633333Y-31566666D01*
X211633333Y-31433333D01*
X211666666Y-31366666D01*
X211700000Y-31333333D01*
X211766666Y-31300000D01*
%TO.C,J6*%
X202987666Y-79959000D02*
X202987666Y-79559000D01*
X202987666Y-79759000D02*
X202287666Y-79759000D01*
X202387666Y-79692333D01*
X202454333Y-79625666D01*
X202487666Y-79559000D01*
X179987666Y-79375666D02*
X179987666Y-78975666D01*
X179987666Y-79175666D02*
X179287666Y-79175666D01*
X179387666Y-79109000D01*
X179454333Y-79042333D01*
X179487666Y-78975666D01*
X179287666Y-79809000D02*
X179287666Y-79875666D01*
X179321000Y-79942333D01*
X179354333Y-79975666D01*
X179421000Y-80009000D01*
X179554333Y-80042333D01*
X179721000Y-80042333D01*
X179854333Y-80009000D01*
X179921000Y-79975666D01*
X179954333Y-79942333D01*
X179987666Y-79875666D01*
X179987666Y-79809000D01*
X179954333Y-79742333D01*
X179921000Y-79709000D01*
X179854333Y-79675666D01*
X179721000Y-79642333D01*
X179554333Y-79642333D01*
X179421000Y-79675666D01*
X179354333Y-79709000D01*
X179321000Y-79742333D01*
X179287666Y-79809000D01*
%TO.C,J7*%
X224831666Y-79959000D02*
X224831666Y-79559000D01*
X224831666Y-79759000D02*
X224131666Y-79759000D01*
X224231666Y-79692333D01*
X224298333Y-79625666D01*
X224331666Y-79559000D01*
X206681666Y-79692333D02*
X206648333Y-79625666D01*
X206615000Y-79592333D01*
X206548333Y-79559000D01*
X206515000Y-79559000D01*
X206448333Y-79592333D01*
X206415000Y-79625666D01*
X206381666Y-79692333D01*
X206381666Y-79825666D01*
X206415000Y-79892333D01*
X206448333Y-79925666D01*
X206515000Y-79959000D01*
X206548333Y-79959000D01*
X206615000Y-79925666D01*
X206648333Y-79892333D01*
X206681666Y-79825666D01*
X206681666Y-79692333D01*
X206715000Y-79625666D01*
X206748333Y-79592333D01*
X206815000Y-79559000D01*
X206948333Y-79559000D01*
X207015000Y-79592333D01*
X207048333Y-79625666D01*
X207081666Y-79692333D01*
X207081666Y-79825666D01*
X207048333Y-79892333D01*
X207015000Y-79925666D01*
X206948333Y-79959000D01*
X206815000Y-79959000D01*
X206748333Y-79925666D01*
X206715000Y-79892333D01*
X206681666Y-79825666D01*
%TO.C,J12*%
X176150666Y-106538000D02*
X176150666Y-106138000D01*
X176150666Y-106338000D02*
X175450666Y-106338000D01*
X175550666Y-106271333D01*
X175617333Y-106204666D01*
X175650666Y-106138000D01*
X175517333Y-111638000D02*
X175484000Y-111671333D01*
X175450666Y-111738000D01*
X175450666Y-111904666D01*
X175484000Y-111971333D01*
X175517333Y-112004666D01*
X175584000Y-112038000D01*
X175650666Y-112038000D01*
X175750666Y-112004666D01*
X176150666Y-111604666D01*
X176150666Y-112038000D01*
X223700666Y-105521333D02*
X223700666Y-105954666D01*
X223967333Y-105721333D01*
X223967333Y-105821333D01*
X224000666Y-105888000D01*
X224034000Y-105921333D01*
X224100666Y-105954666D01*
X224267333Y-105954666D01*
X224334000Y-105921333D01*
X224367333Y-105888000D01*
X224400666Y-105821333D01*
X224400666Y-105621333D01*
X224367333Y-105554666D01*
X224334000Y-105521333D01*
X224400666Y-106288000D02*
X224400666Y-106421333D01*
X224367333Y-106488000D01*
X224334000Y-106521333D01*
X224234000Y-106588000D01*
X224100666Y-106621333D01*
X223834000Y-106621333D01*
X223767333Y-106588000D01*
X223734000Y-106554666D01*
X223700666Y-106488000D01*
X223700666Y-106354666D01*
X223734000Y-106288000D01*
X223767333Y-106254666D01*
X223834000Y-106221333D01*
X224000666Y-106221333D01*
X224067333Y-106254666D01*
X224100666Y-106288000D01*
X224134000Y-106354666D01*
X224134000Y-106488000D01*
X224100666Y-106554666D01*
X224067333Y-106588000D01*
X224000666Y-106621333D01*
X223934000Y-111888000D02*
X224400666Y-111888000D01*
X223667333Y-111721333D02*
X224167333Y-111554666D01*
X224167333Y-111988000D01*
X223700666Y-112388000D02*
X223700666Y-112454666D01*
X223734000Y-112521333D01*
X223767333Y-112554666D01*
X223834000Y-112588000D01*
X223967333Y-112621333D01*
X224134000Y-112621333D01*
X224267333Y-112588000D01*
X224334000Y-112554666D01*
X224367333Y-112521333D01*
X224400666Y-112454666D01*
X224400666Y-112388000D01*
X224367333Y-112321333D01*
X224334000Y-112288000D01*
X224267333Y-112254666D01*
X224134000Y-112221333D01*
X223967333Y-112221333D01*
X223834000Y-112254666D01*
X223767333Y-112288000D01*
X223734000Y-112321333D01*
X223700666Y-112388000D01*
%TO.C,J13*%
X223934000Y-151885000D02*
X224400666Y-151885000D01*
X223667333Y-151718333D02*
X224167333Y-151551666D01*
X224167333Y-151985000D01*
X223700666Y-152385000D02*
X223700666Y-152451666D01*
X223734000Y-152518333D01*
X223767333Y-152551666D01*
X223834000Y-152585000D01*
X223967333Y-152618333D01*
X224134000Y-152618333D01*
X224267333Y-152585000D01*
X224334000Y-152551666D01*
X224367333Y-152518333D01*
X224400666Y-152451666D01*
X224400666Y-152385000D01*
X224367333Y-152318333D01*
X224334000Y-152285000D01*
X224267333Y-152251666D01*
X224134000Y-152218333D01*
X223967333Y-152218333D01*
X223834000Y-152251666D01*
X223767333Y-152285000D01*
X223734000Y-152318333D01*
X223700666Y-152385000D01*
X223700666Y-145518333D02*
X223700666Y-145951666D01*
X223967333Y-145718333D01*
X223967333Y-145818333D01*
X224000666Y-145885000D01*
X224034000Y-145918333D01*
X224100666Y-145951666D01*
X224267333Y-145951666D01*
X224334000Y-145918333D01*
X224367333Y-145885000D01*
X224400666Y-145818333D01*
X224400666Y-145618333D01*
X224367333Y-145551666D01*
X224334000Y-145518333D01*
X224400666Y-146285000D02*
X224400666Y-146418333D01*
X224367333Y-146485000D01*
X224334000Y-146518333D01*
X224234000Y-146585000D01*
X224100666Y-146618333D01*
X223834000Y-146618333D01*
X223767333Y-146585000D01*
X223734000Y-146551666D01*
X223700666Y-146485000D01*
X223700666Y-146351666D01*
X223734000Y-146285000D01*
X223767333Y-146251666D01*
X223834000Y-146218333D01*
X224000666Y-146218333D01*
X224067333Y-146251666D01*
X224100666Y-146285000D01*
X224134000Y-146351666D01*
X224134000Y-146485000D01*
X224100666Y-146551666D01*
X224067333Y-146585000D01*
X224000666Y-146618333D01*
X175517333Y-151635000D02*
X175484000Y-151668333D01*
X175450666Y-151735000D01*
X175450666Y-151901666D01*
X175484000Y-151968333D01*
X175517333Y-152001666D01*
X175584000Y-152035000D01*
X175650666Y-152035000D01*
X175750666Y-152001666D01*
X176150666Y-151601666D01*
X176150666Y-152035000D01*
X176150666Y-146535000D02*
X176150666Y-146135000D01*
X176150666Y-146335000D02*
X175450666Y-146335000D01*
X175550666Y-146268333D01*
X175617333Y-146201666D01*
X175650666Y-146135000D01*
%TO.C,J46*%
X15100000Y-146466666D02*
X15500000Y-146466666D01*
X15300000Y-146466666D02*
X15300000Y-145766666D01*
X15366666Y-145866666D01*
X15433333Y-145933333D01*
X15500000Y-145966666D01*
X25133333Y-145766666D02*
X25466666Y-145766666D01*
X25500000Y-146100000D01*
X25466666Y-146066666D01*
X25400000Y-146033333D01*
X25233333Y-146033333D01*
X25166666Y-146066666D01*
X25133333Y-146100000D01*
X25100000Y-146166666D01*
X25100000Y-146333333D01*
X25133333Y-146400000D01*
X25166666Y-146433333D01*
X25233333Y-146466666D01*
X25400000Y-146466666D01*
X25466666Y-146433333D01*
X25500000Y-146400000D01*
%TO.C,J51*%
D12*
X312666666Y-65583333D02*
X312666666Y-65450000D01*
X312700000Y-65383333D01*
X312733333Y-65350000D01*
X312833333Y-65283333D01*
X312966666Y-65250000D01*
X313233333Y-65250000D01*
X313300000Y-65283333D01*
X313333333Y-65316666D01*
X313366666Y-65383333D01*
X313366666Y-65516666D01*
X313333333Y-65583333D01*
X313300000Y-65616666D01*
X313233333Y-65650000D01*
X313066666Y-65650000D01*
X313000000Y-65616666D01*
X312966666Y-65583333D01*
X312933333Y-65516666D01*
X312933333Y-65383333D01*
X312966666Y-65316666D01*
X313000000Y-65283333D01*
X313066666Y-65250000D01*
X326066666Y-65650000D02*
X326066666Y-65250000D01*
X326066666Y-65450000D02*
X325366666Y-65450000D01*
X325466666Y-65383333D01*
X325533333Y-65316666D01*
X325566666Y-65250000D01*
%TO.C,J52*%
X326066666Y-61900000D02*
X326066666Y-61500000D01*
X326066666Y-61700000D02*
X325366666Y-61700000D01*
X325466666Y-61633333D01*
X325533333Y-61566666D01*
X325566666Y-61500000D01*
X312666666Y-61833333D02*
X312666666Y-61700000D01*
X312700000Y-61633333D01*
X312733333Y-61600000D01*
X312833333Y-61533333D01*
X312966666Y-61500000D01*
X313233333Y-61500000D01*
X313300000Y-61533333D01*
X313333333Y-61566666D01*
X313366666Y-61633333D01*
X313366666Y-61766666D01*
X313333333Y-61833333D01*
X313300000Y-61866666D01*
X313233333Y-61900000D01*
X313066666Y-61900000D01*
X313000000Y-61866666D01*
X312966666Y-61833333D01*
X312933333Y-61766666D01*
X312933333Y-61633333D01*
X312966666Y-61566666D01*
X313000000Y-61533333D01*
X313066666Y-61500000D01*
%TD*%
M02*
