M48
; DRILL file {KiCad (5.1.9-16-g1737927814)-1} date 03/30/21 22:34:11
; FORMAT={3:3/ absolute / metric / suppress trailing zeros}
; #@! TF.CreationDate,2021-03-30T22:34:11-04:00
; #@! TF.GenerationSoftware,Kicad,Pcbnew,(5.1.9-16-g1737927814)-1
; #@! TF.FileFunction,NonPlated,1,4,NPTH
FMAT,2
METRIC,LZ
T1C1.000
T2C1.270
T3C1.800
%
G90
G05
T1
X34182Y-08876
X34182Y-09476
T2
X00345Y-040185
X00846Y-05025
X00846Y-06225
X00846Y-06425
X00846Y-07925
X00846Y-084
X00846Y-096
X00846Y-098
X00846Y-113
X0133Y-03144
X01545Y-040185
X0253Y-03144
X0396Y-03946
X0486Y-03946
X06079Y-0425
X06079Y-0515
X11329Y-04225
X11329Y-05125
X13275Y-12429
X14775Y-12429
X15646Y-129
X15646Y-144
X241Y-03524
X24129Y-06275
X24129Y-08975
X259Y-03524
X2624Y-03529
X26954Y-06225
X26954Y-07425
X27025Y-05171
X27925Y-05171
X2804Y-03529
X28275Y-05171
X284Y-03529
X29175Y-05171
X29525Y-05171
X302Y-03529
X30425Y-05171
X3056Y-03529
X30775Y-05171
X31675Y-05171
X32025Y-05171
X3236Y-03529
X32925Y-05171
T3
X03728Y-14307
X08198Y-15067
X13842Y-14103
T0
M30
