M48
; DRILL file {KiCad (5.1.9-16-g1737927814)-1} date 03/30/21 22:34:11
; FORMAT={3:3/ absolute / metric / suppress trailing zeros}
; #@! TF.CreationDate,2021-03-30T22:34:11-04:00
; #@! TF.GenerationSoftware,Kicad,Pcbnew,(5.1.9-16-g1737927814)-1
; #@! TF.FileFunction,Plated,1,4,PTH
FMAT,2
METRIC,LZ
T1C0.200
T2C0.300
T3C0.500
T4C0.600
T5C0.850
T6C0.950
T7C1.000
T8C1.020
T9C1.800
T10C2.700
T11C4.500
%
G90
G05
T1
X10875Y-10305
X10875Y-1041
X10875Y-10515
X1098Y-10305
X1098Y-1041
X1098Y-10515
X11085Y-10305
X11085Y-1041
X11085Y-10515
X116125Y-124025
X116125Y-125
X116125Y-125975
X1171Y-124025
X1171Y-125
X1171Y-125975
X118075Y-124025
X118075Y-125
X118075Y-125975
T2
X0094Y-0378
X0096Y-1225
X0096Y-13
X010455Y-121945
X010455Y-12949
X0115Y-0525
X0115Y-08625
X01385Y-03615
X01385Y-04955
X0159Y-1261
X016Y-05525
X016Y-089
X01625Y-06075
X01625Y-0945
X01635Y-12735
X01725Y-0635
X01725Y-09725
X0174Y-1251
X018463Y-052463
X018463Y-068962
X018463Y-072962
X018463Y-086212
X018463Y-102713
X018463Y-106713
X0185Y-0535
X0185Y-077
X0185Y-08725
X0185Y-11075
X0188Y-1184
X01925Y-03715
X02025Y-065
X02025Y-07325
X02025Y-09875
X02025Y-107
X0212Y-051
X0223Y-1311
X0223Y-1327
X0223Y-1363
X0234Y-1292
X0236Y-0462
X02375Y-06575
X02375Y-0995
X0262Y-1246
X02805Y-04645
X02975Y-054
X02975Y-08775
X03Y-0322
X0312Y-1216
X031204Y-067693
X031204Y-101443
X0316Y-1468
X03175Y-067
X03175Y-0685
X03175Y-10075
X03175Y-10225
X032Y-06625
X032Y-1
X032Y-1216
X0325Y-1242
X0325Y-1255
X0328Y-1216
X0336Y-1216
X034Y-06725
X034Y-07025
X034Y-101
X034Y-104
X03475Y-043
X03475Y-06575
X03475Y-06875
X03475Y-07175
X03475Y-0995
X03475Y-1025
X03475Y-1055
X034991Y-026609
X0355Y-06725
X0355Y-07025
X0355Y-101
X0355Y-104
X03595Y-04455
X03625Y-06575
X03625Y-06875
X03625Y-07175
X03625Y-0995
X03625Y-1025
X03625Y-1055
X037Y-06725
X037Y-07025
X037Y-101
X037Y-104
X0375Y-0338
X03775Y-06575
X03775Y-06875
X03775Y-07175
X03775Y-0995
X03775Y-1025
X03775Y-1055
X0385Y-06725
X0385Y-07025
X0385Y-101
X0385Y-104
X03856Y-00969
X03925Y-0465
X0394Y-1232
X0396Y-1258
X0396Y-1376
X0396Y-145
X0404Y-141
X0405Y-07003
X0405Y-071
X0405Y-10378
X0405Y-10475
X0412Y-0691
X0413Y-0268
X0414Y-1292
X0417Y-0279
X0426Y-047
X0442Y-1526
X04475Y-052
X0448Y-1022
X044963Y-06933
X044963Y-10308
X045Y-1186
X046Y-0525
X046Y-08625
X046502Y-06933
X046502Y-10308
X0474Y-0347
X048Y-059
X048Y-07525
X048Y-0785
X048Y-09275
X048Y-109
X048Y-11225
X048Y-1235
X048Y-1255
X04825Y-06375
X04825Y-06875
X04825Y-1025
X0484Y-0975
X049Y-1225
X049Y-1245
X049Y-1265
X049Y-134
X049Y-149
X0494Y-117513
X0499Y-1311
X05Y-133
X05Y-135
X05Y-148
X05Y-15
X05025Y-05675
X05048Y-03332
X0505Y-127
X051Y-136
X051Y-147
X05125Y-05025
X05125Y-084
X0514Y-0396
X0516Y-1162
X0518Y-09598
X052Y-127
X052Y-135
X052Y-148
X05215Y-06225
X0522Y-0354
X0523Y-0655
X0524Y-0594
X0524Y-0914
X0526Y-0993
X05288Y-06388
X05295Y-03255
X053Y-136
X053Y-147
X05325Y-057
X05325Y-09075
X0535Y-127
X054Y-135
X054Y-148
X0542Y-03373
X0544Y-0824
X0546Y-07
X0548Y-1164
X0549Y-0353
X055Y-093
X055Y-127
X055Y-134
X055Y-136
X055Y-147
X055Y-149
X0556Y-068
X0556Y-071
X0556Y-075
X05597Y-10807
X056Y-0274
X056Y-122
X056Y-1235
X056Y-125
X056Y-1265
X056Y-133
X056Y-148
X056Y-15
X0562Y-1058
X0566Y-1279
X0569Y-1066
X0572Y-1287
X0578Y-1128
X058Y-1195
X0582Y-1164
X0585Y-1115
X0594Y-1128
X06Y-1195
X0605Y-1115
X0611Y-1128
X0617Y-1195
X0625Y-1114
X0625Y-1218
X0636Y-1318
X0636Y-1518
X0645Y-0745
X0645Y-0795
X065Y-0964
X066Y-072
X066Y-077
X0664Y-087
X0685Y-0735
X07Y-0964
X071Y-0725
X0726Y-0392
X0735Y-0735
X0742Y-1198
X0744Y-0964
X0744Y-1044
X076Y-0725
X076Y-0902
X0785Y-0735
X08Y-094
X08Y-096
X08Y-0978
X08Y-1095
X08033Y-03143
X0805Y-12
X080688Y-112488
X0808Y-093
X0808Y-095
X0808Y-097
X081Y-0725
X081Y-106
X081Y-109
X081Y-1105
X081Y-117
X081Y-119
X0814Y-0156
X0814Y-0906
X0814Y-0906
X0814Y-1008
X0815Y-121
X0816Y-049
X082Y-0978
X082Y-105
X08206Y-00969
X0825Y-122
X083Y-0972
X083Y-104
X0835Y-121
X084Y-0978
X084Y-105
X0845Y-122
X08475Y-04575
X085Y-0972
X085Y-104
X0854Y-135
X0855Y-121
X08575Y-0505
X08575Y-05125
X08575Y-05225
X08575Y-053
X086Y-0978
X086Y-105
X0864Y-0894
X0865Y-122
X08675Y-0505
X08675Y-05125
X08675Y-05225
X08675Y-053
X087Y-0972
X087Y-104
X0875Y-117
X0875Y-119
X0875Y-121
X0876Y-0936
X0876Y-0954
X08775Y-0505
X08775Y-05125
X08775Y-05225
X08775Y-053
X088Y-0978
X088Y-105
X088Y-109
X088Y-1105
X0882Y-0926
X0882Y-0944
X0882Y-0964
X0885Y-1175
X0885Y-12
X089Y-0936
X089Y-0954
X089Y-0972
X089Y-106
X089Y-1095
X0892Y-0736
X0898Y-1136
X09Y-112
X0915Y-05075
X09175Y-0445
X092Y-1415
X092Y-1435
X09225Y-0455
X0925Y-139
X093Y-1405
X093Y-1425
X093Y-1445
X094Y-1395
X094Y-1415
X094Y-1435
X094Y-1455
X095Y-1385
X095Y-1445
X0958Y-0298
X096Y-1395
X096Y-1455
X0965Y-1445
X0968Y-1238
X097Y-1385
X0976Y-0374
X0979Y-0795
X09804Y-13974
X0994Y-112
X0996Y-1298
X1Y-104
X1Y-1057
X1Y-1136
X1001Y-1021
X1002Y-1008
X1003Y-092
X101Y-114
X1011Y-0902
X1011Y-093
X1011Y-1075
X1012Y-1528
X1026Y-1124
X10304Y-15024
X1033Y-1298
X1035Y-1275
X105Y-1209
X1053Y-0902
X1053Y-092
X1055Y-1051
X1056Y-125
X1056Y-1329
X1058Y-0388
X1058Y-0985
X1068Y-1126
X1071Y-1329
X1073Y-0262
X1082Y-0232
X1086Y-1126
X108825Y-125725
X1089Y-1273
X1089Y-1335
X1096Y-093
X109647Y-100653
X10979Y-10771
X1103Y-1191
X1103Y-1374
X1104Y-1088
X1104Y-1126
X110517Y-099738
X1106Y-1077
X1119Y-1007
X112Y-0957
X1123Y-1017
X1123Y-1242
X1125Y-1351
X1126Y-112
X1127Y-0923
X1128Y-07275
X1129Y-0687
X1129Y-0687
X1129Y-0997
X1131Y-125
X1137Y-1048
X1138Y-1254
X115388Y-085813
X1154Y-0934
X11655Y-07275
X11655Y-0735
X11655Y-07425
X1167Y-0949
X1167Y-0967
X117Y-12927
X1171Y-1335
X1173Y-07275
X1173Y-0735
X1173Y-07425
X1173Y-1113
X1173Y-1129
X11735Y-12095
X1174Y-0697
X1174Y-0697
X117688Y-115013
X1178Y-1374
X11805Y-07275
X11805Y-0735
X11805Y-07425
X1181Y-09893
X1188Y-07275
X1188Y-0735
X1188Y-07425
X1189Y-1043
X119Y-1351
X119188Y-106113
X1193Y-0845
X1195Y-0995
X1198Y-07625
X12Y-0923
X12005Y-063
X12005Y-065
X12005Y-06625
X12005Y-06825
X1201Y-0905
X1201Y-1169
X1202Y-1222
X1203Y-07075
X12048Y-12038
X12055Y-0845
X1206Y-1007
X12063Y-1025
X1207Y-1331
X1212Y-1017
X1212Y-1158
X1212Y-125
X1212Y-1277
X1215Y-0755
X1218Y-0845
X1218Y-1287
X1222Y-1034
X1223Y-118
X1227Y-1289
X1227Y-1351
X1234Y-1438
X1236Y-1242
X1236Y-1282
X123686Y-030976
X1243Y-1176
X1245Y-1152
X125Y-0158
X12556Y-00969
X1268Y-1442
X1277Y-1249
X1277Y-1267
X1283Y-07075
X1294Y-1364
X1296Y-1528
X12975Y-105
X12975Y-107
X12975Y-10825
X12975Y-11025
X131Y-102
X131Y-1035
X1315Y-12
X1315Y-1215
X1318Y-07
X1318Y-0715
X133Y-0288
X133025Y-115725
X13305Y-06325
X13305Y-06525
X13305Y-0665
X13305Y-0685
X1342Y-0488
X1345Y-10275
X1352Y-038
X1355Y-11725
X136038Y-113463
X1366Y-1108
X13725Y-0455
X13775Y-116
X138Y-1205
X13825Y-05025
X13825Y-051
X13825Y-052
X13825Y-05275
X1384Y-1332
X13925Y-05025
X13925Y-051
X13925Y-052
X13925Y-05275
X1396Y-11343
X14025Y-05025
X14025Y-051
X14025Y-052
X14025Y-05275
X14025Y-099
X141Y-089
X1415Y-12
X142Y-077
X14225Y-089
X1425Y-10275
X14275Y-10525
X14275Y-10725
X14275Y-1085
X14275Y-1105
X143Y-09725
X1435Y-089
X144Y-0505
X144Y-09925
X144Y-1
X144Y-10075
X14425Y-04425
X14475Y-04525
X14475Y-09925
X14475Y-1
X14475Y-10075
X1454Y-1038
X1455Y-09925
X1455Y-1
X1455Y-10075
X146243Y-06509
X146243Y-070043
X14625Y-09925
X14625Y-1
X14625Y-10075
X1476Y-1336
X149033Y-128713
X149033Y-152847
X1499Y-1048
X15Y-10075
X1502Y-1172
X1505Y-10925
X151323Y-152212
X151577Y-111572
X152085Y-092268
X1525Y-1037
X1562Y-1138
X1578Y-0562
X158Y-1086
X15975Y-14825
X16035Y-09705
X16035Y-11325
X1626Y-0402
X16275Y-12425
X163Y-056
X1645Y-1175
X1645Y-12425
X16575Y-14975
X1662Y-0822
X16725Y-11675
X1675Y-14025
X167776Y-028571
X168Y-0158
X16875Y-1255
X1688Y-0776
X169Y-12175
X16906Y-00969
X17025Y-11675
X1703Y-0971
X1703Y-1146
X17075Y-1305
X1715Y-13525
X17175Y-1255
X1724Y-037
X1736Y-0971
X1736Y-116
X174Y-123
X17475Y-13175
X1748Y-0888
X175707Y-074742
X176Y-0312
X1765Y-14
X1766Y-1006
X178048Y-093
X179064Y-117
X179064Y-127574
X179263Y-152847
X1796Y-0882
X18Y-0662
X181041Y-053279
X181041Y-057089
X182646Y-143622
X1832Y-0376
X184089Y-054549
X184724Y-144211
X185304Y-137963
X185359Y-048707
X186Y-117
X1862Y-0312
X186375Y-042992
X186502Y-065979
X1871Y-0577
X1871Y-0605
X187124Y-143817
X188026Y-066106
X188866Y-038265
X18887Y-044008
X189169Y-048834
X189533Y-037861
X19Y-13475
X190185Y-069027
X1903Y-0461
X1904Y-049
X190459Y-117
X1906Y-0376
X191074Y-117795
X1912Y-0382
X19125Y-134
X191599Y-043399
X191623Y-041823
X1918Y-036786
X192Y-13975
X1926Y-0384
X19275Y-1345
X192852Y-070043
X193Y-0994
X1934Y-0774
X1936Y-0874
X193741Y-057
X193741Y-057978
X19382Y-047409
X193855Y-049255
X194Y-053
X194122Y-04096
X1944Y-0482
X1944Y-052
X1944Y-1198
X194503Y-063947
X1948Y-0556
X195Y-0404
X195265Y-06255
X195265Y-070551
X1954Y-0562
X195519Y-031054
X1959Y-0404
X1962Y-0528
X1968Y-0758
X197Y-0404
X1976Y-0378
X1976Y-0766
X19775Y-093
X198059Y-031435
X198821Y-074742
X199456Y-061534
X199456Y-064709
X200044Y-0578
X200345Y-075377
X200386Y-060897
X2004Y-0618
X200472Y-034483
X200648Y-042448
X200726Y-029911
X2008Y-0454
X200962Y-129963
X2012Y-0492
X201361Y-070678
X2014Y-1037
X2016Y-0424
X202Y-12
X20225Y-13675
X20237Y-0394
X202885Y-029652
X20352Y-054676
X2036Y-0574
X2042Y-054
X2044Y-037071
X2044Y-1312
X204464Y-042664
X2046Y-1382
X205271Y-038437
X20533Y-029181
X2054Y-0528
X205401Y-057954
X205425Y-069535
X2058Y-035571
X205806Y-045532
X2059Y-0426
X206Y-052
X206187Y-05003
X2063Y-0467
X206496Y-0376
X206496Y-043363
X206695Y-066487
X207Y-076
X20733Y-064709
X2076Y-0384
X2076Y-0968
X2076Y-1149
X207965Y-030038
X207965Y-064201
X208346Y-034229
X2084Y-0784
X208981Y-048072
X209Y-0644
X209Y-0682
X20902Y-07398
X2091Y-0434
X209108Y-05003
X209616Y-030501
X210124Y-1338
X210124Y-141798
X210323Y-036134
X210378Y-051374
X210378Y-050358
X210392Y-066392
X210475Y-056113
X210505Y-091434
X2109Y-0277
X211049Y-067033
X211075Y-0378
X2116Y-0156
X211648Y-051501
X211994Y-03656
X212299Y-035842
X21241Y-044262
X21241Y-091054
X21256Y-00969
X2126Y-0528
X212664Y-125449
X2131Y-0287
X213425Y-059375
X2136Y-0569
X213759Y-090665
X213759Y-090665
X2146Y-064
X2146Y-0876
X21495Y-062296
X215Y-0676
X215331Y-154371
X2156Y-0281
X215712Y-128209
X21625Y-093102
X2164Y-0778
X2165Y-0554
X2165Y-0615
X216665Y-062868
X2168Y-0378
X2169Y-052
X2172Y-076
X218129Y-088835
X2184Y-0566
X218633Y-045913
X2192Y-037
X2194Y-074
X219903Y-06001
X220665Y-088585
X220792Y-049469
X220792Y-060645
X2208Y-0766
X222316Y-088453
X2224Y-0708
X2228Y-0778
X225Y-0754
X225618Y-036388
X225619Y-068899
X2266Y-1288
X2268Y-0971
X2268Y-116
X226888Y-139639
X228056Y-060574
X22807Y-04173
X2302Y-0984
X231Y-109
X2314Y-0652
X232Y-058
X2322Y-0384
X2322Y-0506
X2322Y-0706
X233111Y-093229
X233111Y-10446
X2338Y-0296
X234Y-094173
X234Y-106111
X234127Y-067244
X2346Y-087
X2348Y-0838
X235524Y-074615
X235524Y-079568
X2358Y-1174
X2368Y-0994
X2382Y-0398
X239Y-041
X239715Y-035113
X2398Y-0402
X24Y-0808
X2402Y-1282
X240235Y-053465
X24035Y-094372
X24035Y-113604
X24055Y-0499
X2406Y-0842
X2408Y-137
X2428Y-135
X2434Y-058
X24405Y-0499
X246Y-1144
X246192Y-045024
X246192Y-064963
X2464Y-1078
X2468Y-1032
X246954Y-044389
X246954Y-064328
X247Y-1476
X247208Y-043627
X247716Y-064018
X2482Y-1162
X248213Y-042288
X248605Y-064836
X248605Y-073599
X2508Y-0478
X2508Y-0492
X251Y-050537
X2512Y-1026
X2524Y-1194
X2526Y-0582
X252638Y-053163
X2528Y-0674
X2532Y-0808
X254Y-087
X25475Y-04875
X255Y-0156
X255Y-1024
X2552Y-0704
X2558Y-0532
X25606Y-00969
X25638Y-061788
X259Y-062
X259019Y-094372
X26Y-0532
X261686Y-071948
X262Y-0578
X262448Y-061788
X2636Y-0686
X263718Y-08163
X264Y-0624
X2644Y-044
X2644Y-0457
X2644Y-0474
X2644Y-0491
X2644Y-0508
X2644Y-0526
X26448Y-146888
X264495Y-143205
X264988Y-081219
X2652Y-054
X265745Y-146888
X265773Y-143192
X266Y-0546
X2664Y-0414
X26675Y-081
X266893Y-05518
X266893Y-061342
X267Y-0256
X26739Y-12001
X2674Y-0656
X2676Y-0736
X268398Y-103998
X269306Y-111191
X269306Y-114874
X269524Y-105476
X2698Y-1342
X2699Y-0263
X270322Y-112588
X270659Y-1106
X271155Y-106492
X271211Y-114493
X2715Y-054194
X2715Y-055306
X2728Y-0822
X2736Y-0852
X274063Y-101263
X274535Y-113938
X2746Y-107
X274829Y-100591
X275Y-05275
X275Y-0988
X275Y-1406
X27525Y-06425
X275275Y-092821
X275275Y-097602
X2754Y-1064
X275423Y-099867
X275537Y-072538
X2756Y-1128
X27591Y-096967
X276Y-0926
X276037Y-143449
X276051Y-09914
X2765Y-0565
X276672Y-098237
X2772Y-1128
X2776Y-05665
X27775Y-063
X279Y-0782
X27972Y-112334
X27972Y-11335
X27972Y-114239
X27975Y-0725
X28Y-0858
X280228Y-104714
X28075Y-05275
X2808Y-1002
X282133Y-143576
X28285Y-01465
X282895Y-105984
X283022Y-109794
X283022Y-110683
X283748Y-007778
X28375Y-0115
X284Y-054194
X284Y-055306
X2842Y-007
X2842Y-0722
X285Y-0695
X285181Y-031943
X28525Y-06475
X285435Y-031054
X2866Y-0992
X2875Y-0075
X2875Y-05275
X2885Y-06725
X289Y-0565
X289245Y-111318
X28925Y-065
X2896Y-1458
X2901Y-05665
X2902Y-1342
X290261Y-113858
X290896Y-110556
X291023Y-112461
X291023Y-113477
X29115Y-106619
X2912Y-0567
X291531Y-092005
X291531Y-096327
X291785Y-144973
X292Y-0154
X292Y-0573
X29242Y-092522
X2926Y-058
X293Y-0875
X293055Y-091625
X293055Y-095819
X29325Y-05275
X29375Y-084
X29375Y-0855
X294071Y-091245
X294071Y-096073
X2944Y-1144
X29475Y-084
X29475Y-0855
X295142Y-090236
X2952Y-094803
X295214Y-106365
X29525Y-07525
X295722Y-093411
X295849Y-08985
X295976Y-088961
X295976Y-106619
X296Y-1126
X2965Y-054194
X2965Y-055306
X2966Y-0158
X296738Y-063693
X296865Y-094427
X2978Y-0946
X297881Y-106746
X297963Y-081962
X2985Y-07775
X299079Y-1451
X299151Y-096327
X299463Y-070038
X29956Y-00969
X2996Y-1132
X3Y-05275
X30025Y-07325
X30025Y-07475
X300675Y-096332
X300675Y-104714
X30125Y-07325
X30125Y-07475
X3015Y-0565
X30175Y-09
X3018Y-1202
X3024Y-1336
X303Y-0928
X303088Y-110302
X303088Y-111826
X303469Y-10573
X304866Y-067249
X30493Y-14587
X30575Y-05275
X30615Y-0876
X30747Y-066868
X3082Y-143
X308676Y-062042
X308676Y-088966
X309Y-054194
X309Y-055306
X309438Y-061534
X309438Y-088585
X312486Y-146751
X3125Y-05275
X313Y-073
X314Y-0565
X3155Y-073
X31625Y-07975
X31625Y-0835
X318Y-073
X318Y-0805
X31825Y-05275
X3185Y-08475
X3185Y-08625
X3185Y-08875
X31909Y-145608
X3193Y-0331
X319713Y-073538
X3198Y-1194
X321Y-1358
X3215Y-054194
X3215Y-055306
X32175Y-07275
X32325Y-088
X3235Y-07475
X325Y-05275
X3251Y-0815
X325185Y-082275
X3255Y-0885
X32575Y-08025
X326037Y-073538
X3265Y-0565
X3275Y-07025
X32775Y-083599
X32875Y-08675
X3293Y-0244
X3293Y-0353
X32975Y-0785
X3302Y-0408
X33025Y-07925
X330491Y-083019
X3305Y-081
X3305Y-082
X33075Y-078
X33075Y-05275
X33125Y-0705
X3319Y-0678
X332Y-076
X33225Y-0875
X332315Y-062985
X332405Y-055205
X3325Y-0845
X33278Y-076
X333145Y-050555
X3337Y-0304
X33375Y-076
X334535Y-07942
X3346Y-03
X33488Y-04942
X3353Y-0292
X3361Y-0289
X337Y-0269
X33725Y-073
X3377Y-0275
X33775Y-07575
X3378Y-1302
X3384Y-109
X338463Y-086788
X338463Y-088712
X3392Y-0426
X33975Y-08175
X3408Y-1466
X3413Y-046
X3418Y-0156
X3422Y-0614
X343Y-0778
X34306Y-00969
X344Y-0449
X34475Y-06175
X3451Y-0552
X3455Y-0596
X34565Y-05735
X34565Y-06065
X34593Y-04943
X346Y-0698
X34768Y-06512
X34845Y-06175
X34905Y-05735
T3
X003475Y-00575
X003475Y-02125
X004068Y-004318
X004068Y-007182
X004068Y-019818
X004068Y-022682
X00419Y-01398
X0055Y-003725
X0055Y-007775
X0055Y-019225
X0055Y-023275
X00673Y-01302
X006932Y-004318
X006932Y-007182
X006932Y-019818
X006932Y-022682
X007525Y-00575
X007525Y-02125
X00927Y-01398
X01181Y-01302
X02225Y-06025
X02225Y-094
X0235Y-06025
X0235Y-094
X02475Y-067
X02475Y-0685
X02475Y-10075
X02475Y-10225
X025Y-07375
X025Y-1075
X02525Y-06375
X02525Y-0975
X02925Y-0505
X02925Y-057
X02925Y-08425
X02925Y-09075
X030725Y-063225
X030725Y-096975
X03075Y-07075
X03075Y-1045
X03075Y-11175
X031Y-0655
X031Y-0725
X031Y-09925
X031Y-10625
X032Y-11175
X03225Y-078
X0335Y-078
X03425Y-0505
X03425Y-057
X03425Y-08425
X03425Y-09075
X037725Y-00475
X037725Y-02225
X038318Y-003318
X038318Y-006182
X038318Y-020818
X038318Y-023682
X03975Y-002725
X03975Y-006775
X03975Y-020225
X03975Y-024275
X04023Y-01223
X041182Y-003318
X041182Y-006182
X041182Y-020818
X041182Y-023682
X041575Y-068
X041575Y-102175
X041775Y-00475
X041775Y-02225
X043Y-05025
X043Y-0515
X04325Y-07525
X04325Y-109
X04505Y-0633
X04505Y-09705
X04525Y-07375
X04525Y-1075
X04695Y-0633
X04695Y-0737
X04695Y-09705
X04695Y-10745
X046975Y-00575
X046975Y-02125
X047568Y-004318
X047568Y-007182
X047568Y-019818
X047568Y-022682
X04769Y-01398
X0489Y-044
X049Y-003725
X049Y-007775
X049Y-019225
X049Y-023275
X05023Y-01302
X050432Y-004318
X050432Y-007182
X050432Y-019818
X050432Y-022682
X051025Y-00575
X051025Y-02125
X05147Y-043988
X05277Y-01398
X055Y-0808
X05531Y-01302
X056Y-0808
X0628Y-062
X0628Y-065
X066Y-0664
X0676Y-0656
X068Y-0585
X0702Y-0656
X07325Y-04975
X0734Y-0656
X0766Y-0656
X0798Y-0656
X081225Y-00475
X081225Y-02225
X081818Y-003318
X081818Y-006182
X081818Y-020818
X081818Y-023682
X083Y-0656
X08325Y-002725
X08325Y-006775
X08325Y-020225
X08325Y-024275
X08373Y-01223
X084682Y-003318
X084682Y-006182
X084682Y-020818
X084682Y-023682
X085275Y-00475
X085275Y-02225
X0862Y-0656
X08815Y-0584
X0894Y-0656
X090475Y-00575
X090475Y-02125
X091068Y-004318
X091068Y-007182
X091068Y-019818
X091068Y-022682
X09119Y-01398
X0925Y-003725
X0925Y-007775
X0925Y-019225
X0925Y-023275
X0926Y-0656
X09373Y-01302
X093932Y-004318
X093932Y-007182
X093932Y-019818
X093932Y-022682
X094525Y-00575
X094525Y-02125
X0952Y-1536
X09627Y-01398
X0964Y-1536
X097Y-048
X0982Y-0582
X09881Y-01302
X099Y-0574
X1116Y-0606
X11855Y-062
X1205Y-05825
X1212Y-138
X1242Y-1366
X124725Y-00475
X124725Y-02225
X125318Y-003318
X125318Y-006182
X125318Y-020818
X125318Y-023682
X12575Y-0495
X126Y-1366
X12675Y-002725
X12675Y-006775
X12675Y-020225
X12675Y-024275
X12723Y-01223
X128182Y-003318
X128182Y-006182
X128182Y-020818
X128182Y-023682
X1282Y-1366
X128775Y-00475
X128775Y-02225
X1304Y-1116
X1312Y-1318
X1312Y-1342
X1314Y-1116
X133975Y-00575
X133975Y-02125
X13455Y-061
X13455Y-062
X134568Y-004318
X134568Y-007182
X134568Y-019818
X134568Y-022682
X13469Y-01398
X136Y-003725
X136Y-007775
X136Y-019225
X136Y-023275
X13723Y-01302
X137432Y-004318
X137432Y-007182
X137432Y-019818
X137432Y-022682
X138025Y-00575
X138025Y-02125
X13977Y-01398
X14065Y-05815
X14231Y-01302
X14425Y-1115
X1495Y-04775
X1514Y-0576
X1522Y-0584
X168225Y-00475
X168225Y-02225
X168818Y-003318
X168818Y-006182
X168818Y-020818
X168818Y-023682
X17025Y-002725
X17025Y-006775
X17025Y-020225
X17025Y-024275
X17073Y-01223
X171682Y-003318
X171682Y-006182
X171682Y-020818
X171682Y-023682
X172275Y-00475
X172275Y-02225
X177475Y-00575
X177475Y-02125
X178068Y-004318
X178068Y-007182
X178068Y-019818
X178068Y-022682
X17819Y-01398
X1795Y-003725
X1795Y-007775
X1795Y-019225
X1795Y-023275
X18073Y-01302
X180932Y-004318
X180932Y-007182
X180932Y-019818
X180932Y-022682
X181525Y-00575
X181525Y-02125
X18327Y-01398
X18581Y-01302
X192725Y-144751
X1946Y-1266
X211725Y-00475
X211725Y-02225
X212318Y-003318
X212318Y-006182
X212318Y-020818
X212318Y-023682
X21375Y-002725
X21375Y-006775
X21375Y-020225
X21375Y-024275
X21423Y-01223
X215182Y-003318
X215182Y-006182
X215182Y-020818
X215182Y-023682
X215775Y-00475
X215775Y-02225
X220975Y-00575
X220975Y-02125
X221568Y-004318
X221568Y-007182
X221568Y-019818
X221568Y-022682
X22169Y-01398
X223Y-003725
X223Y-007775
X223Y-019225
X223Y-023275
X22423Y-01302
X224432Y-004318
X224432Y-007182
X224432Y-019818
X224432Y-022682
X225025Y-00575
X225025Y-02125
X22677Y-01398
X22931Y-01302
X255225Y-00475
X255225Y-02225
X255818Y-003318
X255818Y-006182
X255818Y-020818
X255818Y-023682
X25675Y-046
X25725Y-002725
X25725Y-006775
X25725Y-020225
X25725Y-024275
X25773Y-01223
X258682Y-003318
X258682Y-006182
X258682Y-020818
X258682Y-023682
X259275Y-00475
X259275Y-02225
X26005Y-0332
X262475Y-1015
X262475Y-1505
X263068Y-100068
X263068Y-102932
X263068Y-149068
X263068Y-151932
X264475Y-00575
X264475Y-02125
X2645Y-099475
X2645Y-103525
X2645Y-148475
X2645Y-152525
X265068Y-004318
X265068Y-007182
X265068Y-019818
X265068Y-022682
X26519Y-01398
X265932Y-100068
X265932Y-102932
X265932Y-149068
X265932Y-151932
X2665Y-003725
X2665Y-007775
X2665Y-019225
X2665Y-023275
X266525Y-1015
X266525Y-1505
X26773Y-01302
X267932Y-004318
X267932Y-007182
X267932Y-019818
X267932Y-022682
X268525Y-00575
X268525Y-02125
X27027Y-01398
X27281Y-01302
X2811Y-03305
X298725Y-00475
X298725Y-02225
X299318Y-003318
X299318Y-006182
X299318Y-020818
X299318Y-023682
X30075Y-002725
X30075Y-006775
X30075Y-020225
X30075Y-024275
X30123Y-01223
X302182Y-003318
X302182Y-006182
X302182Y-020818
X302182Y-023682
X302775Y-00475
X302775Y-02225
X3028Y-0332
X307975Y-00575
X307975Y-02125
X308568Y-004318
X308568Y-007182
X308568Y-019818
X308568Y-022682
X30869Y-01398
X31Y-003725
X31Y-007775
X31Y-019225
X31Y-023275
X31123Y-01302
X311432Y-004318
X311432Y-007182
X311432Y-019818
X311432Y-022682
X312025Y-00575
X312025Y-02125
X31377Y-01398
X31631Y-01302
X320475Y-1015
X320475Y-1505
X321068Y-100068
X321068Y-102932
X321068Y-149068
X321068Y-151932
X3225Y-099475
X3225Y-103525
X3225Y-148475
X3225Y-152525
X323932Y-100068
X323932Y-102932
X323932Y-149068
X323932Y-151932
X324525Y-1015
X324525Y-1505
X33675Y-04425
X342225Y-00475
X342225Y-02225
X342818Y-003318
X342818Y-006182
X342818Y-020818
X342818Y-023682
X34425Y-002725
X34425Y-006775
X34425Y-020225
X34425Y-024275
X34473Y-01223
X345682Y-003318
X345682Y-006182
X345682Y-020818
X345682Y-023682
X346275Y-00475
X346275Y-02225
T5
X344738Y-07675
X344738Y-08175
T6
X0153Y-1479
X0178Y-1479
X0203Y-1479
X0228Y-1479
X0253Y-1479
T7
X175834Y-107838
X175834Y-110378
X175834Y-147835
X175834Y-150375
X178374Y-107838
X178374Y-110378
X178374Y-147835
X178374Y-150375
X179811Y-081259
X180914Y-107838
X180914Y-110378
X180914Y-147835
X180914Y-150375
X182351Y-081259
X183454Y-107838
X183454Y-110378
X183454Y-147835
X183454Y-150375
X184891Y-081259
X185994Y-107838
X185994Y-110378
X185994Y-147835
X185994Y-150375
X187431Y-081259
X188534Y-107838
X188534Y-110378
X188534Y-147835
X188534Y-150375
X18896Y-033
X189971Y-081259
X191074Y-107838
X191074Y-110378
X191074Y-147835
X191074Y-150375
X1915Y-033
X192511Y-081259
X193614Y-107838
X193614Y-110378
X193614Y-147835
X193614Y-150375
X19404Y-033
X195051Y-081259
X196154Y-107838
X196154Y-110378
X196154Y-147835
X196154Y-150375
X19658Y-033
X197591Y-081259
X198694Y-107838
X198694Y-110378
X198694Y-147835
X198694Y-150375
X19912Y-033
X200131Y-081259
X201234Y-107838
X201234Y-110378
X201234Y-147835
X201234Y-150375
X20166Y-033
X202671Y-081259
X203774Y-107838
X203774Y-110378
X203774Y-147835
X203774Y-150375
X2042Y-033
X206314Y-107838
X206314Y-110378
X206314Y-147835
X206314Y-150375
X206735Y-081259
X20674Y-033
X208854Y-107838
X208854Y-110378
X208854Y-147835
X208854Y-150375
X209275Y-081259
X211394Y-107838
X211394Y-110378
X211394Y-147835
X211394Y-150375
X2118Y-033
X211815Y-081259
X213934Y-107838
X213934Y-110378
X213934Y-147835
X213934Y-150375
X21434Y-033
X214355Y-081259
X216474Y-107838
X216474Y-110378
X216474Y-147835
X216474Y-150375
X21688Y-033
X216895Y-081259
X219014Y-107838
X219014Y-110378
X219014Y-147835
X219014Y-150375
X21942Y-033
X219435Y-081259
X221554Y-107838
X221554Y-110378
X221554Y-147835
X221554Y-150375
X22196Y-033
X221975Y-081259
X224094Y-107838
X224094Y-110378
X224094Y-147835
X224094Y-150375
X2245Y-033
X224515Y-081259
X26937Y-14923
X26937Y-15177
X27191Y-14923
X27191Y-15177
X27445Y-14923
X27445Y-15177
X27699Y-14923
X27699Y-15177
X27953Y-14923
X27953Y-15177
X28207Y-14923
X28207Y-15177
X28461Y-14923
X28461Y-15177
X28715Y-14923
X28715Y-15177
X28969Y-14923
X28969Y-15177
X29223Y-14923
X29223Y-15177
X29477Y-14923
X29477Y-15177
X29731Y-14923
X29731Y-15177
X29985Y-14923
X29985Y-15177
X30239Y-14923
X30239Y-15177
X30493Y-14923
X30493Y-15177
X30747Y-14923
X30747Y-15177
X31001Y-14923
X31001Y-15177
X31255Y-14923
X31255Y-15177
X31305Y-0635
X31305Y-06725
X31509Y-14923
X31509Y-15177
X31559Y-0635
X31559Y-06725
X31763Y-14923
X31763Y-15177
X31813Y-0635
X31813Y-06725
X32067Y-0635
X32067Y-06725
X32321Y-0635
X32321Y-06725
X32575Y-0635
X32575Y-06725
X34276Y-09176
X34576Y-09176
T8
X00645Y-042145
X0065Y-05325
X0065Y-05625
X0065Y-05925
X0065Y-06725
X0065Y-07025
X0065Y-07325
X0065Y-07625
X0065Y-087
X0065Y-09
X0065Y-093
X0065Y-101
X0065Y-104
X0065Y-107
X0065Y-11
X00945Y-042145
X01245Y-042145
X0163Y-0334
X0193Y-0334
X0223Y-0334
X0426Y-0375
X0456Y-0375
X06275Y-0455
X06275Y-0485
X11525Y-04525
X11525Y-04825
X13575Y-12625
X13875Y-12625
X14175Y-12625
X14475Y-12625
X1545Y-132
X1545Y-135
X1545Y-138
X1545Y-141
X24325Y-06575
X24325Y-06875
X24325Y-07175
X24325Y-07475
X24325Y-07775
X24325Y-08075
X24325Y-08375
X24325Y-08675
X244Y-0372
X247Y-0372
X25Y-0372
X253Y-0372
X256Y-0372
X2654Y-03725
X2684Y-03725
X2714Y-03725
X2715Y-06525
X2715Y-06825
X2715Y-07125
X27325Y-04975
X2744Y-03725
X27625Y-04975
X2774Y-03725
X28575Y-04975
X287Y-03725
X28875Y-04975
X29Y-03725
X293Y-03725
X296Y-03725
X29825Y-04975
X299Y-03725
X30125Y-04975
X3086Y-03725
X31075Y-04975
X3116Y-03725
X31375Y-04975
X3146Y-03725
X3176Y-03725
X3206Y-03725
X32325Y-04975
X32625Y-04975
T9
X0338Y-1346
X0338Y-1403
X0738Y-1422
X0738Y-1479
X0795Y-1422
X0795Y-1479
X1419Y-1438
X1419Y-1495
T10
X0055Y-00575
X0055Y-02125
X03975Y-00475
X03975Y-02225
X049Y-00575
X049Y-02125
X08325Y-00475
X08325Y-02225
X0925Y-00575
X0925Y-02125
X12675Y-00475
X12675Y-02225
X136Y-00575
X136Y-02125
X17025Y-00475
X17025Y-02225
X1795Y-00575
X1795Y-02125
X21375Y-00475
X21375Y-02225
X223Y-00575
X223Y-02125
X25725Y-00475
X25725Y-02225
X2645Y-1015
X2645Y-1505
X2665Y-00575
X2665Y-02125
X30075Y-00475
X30075Y-02225
X31Y-00575
X31Y-02125
X3225Y-1015
X3225Y-1505
X34425Y-00475
X34425Y-02225
T11
X006Y-032
X006Y-149
X150561Y-079695
X255Y-149
X344Y-032
T4
G00X347088Y-07575
M15
G01X347787Y-07575
M16
G05
G00X347787Y-08275
M15
G01X347088Y-08275
M16
G05
T0
M30
