M48
; DRILL file {KiCad (5.1.9-16-g1737927814)-1} date 03/30/21 16:26:51
; FORMAT={3:3/ absolute / metric / suppress trailing zeros}
; #@! TF.CreationDate,2021-03-30T16:26:51-04:00
; #@! TF.GenerationSoftware,Kicad,Pcbnew,(5.1.9-16-g1737927814)-1
; #@! TF.FileFunction,NonPlated,1,4,NPTH
FMAT,2
METRIC,LZ
T1C1.000
T2C1.270
T3C1.800
%
G90
G05
T1
X36182Y-10876
X36182Y-11476
T2
X02345Y-060185
X02846Y-07025
X02846Y-08225
X02846Y-08425
X02846Y-09925
X02846Y-104
X02846Y-116
X02846Y-118
X02846Y-133
X0333Y-05144
X03545Y-060185
X0453Y-05144
X0596Y-05946
X0686Y-05946
X08079Y-0625
X08079Y-0715
X13329Y-06225
X13329Y-07125
X15275Y-14429
X16775Y-14429
X17646Y-149
X17646Y-164
X261Y-05524
X26129Y-08275
X26129Y-10975
X279Y-05524
X2824Y-05529
X28954Y-08225
X28954Y-09425
X29025Y-07171
X29925Y-07171
X3004Y-05529
X30275Y-07171
X304Y-05529
X31175Y-07171
X31525Y-07171
X322Y-05529
X32425Y-07171
X3256Y-05529
X32775Y-07171
X33675Y-07171
X34025Y-07171
X3436Y-05529
X34925Y-07171
T3
X05728Y-16307
X10198Y-17067
X15842Y-16103
T0
M30
