M48
; DRILL file {KiCad (5.1.9-16-g1737927814)-1} date 03/30/21 16:26:51
; FORMAT={3:3/ absolute / metric / suppress trailing zeros}
; #@! TF.CreationDate,2021-03-30T16:26:51-04:00
; #@! TF.GenerationSoftware,Kicad,Pcbnew,(5.1.9-16-g1737927814)-1
; #@! TF.FileFunction,Plated,1,4,PTH
FMAT,2
METRIC,LZ
T1C0.200
T2C0.300
T3C0.500
T4C0.600
T5C0.850
T6C0.950
T7C1.000
T8C1.020
T9C1.800
T10C2.700
T11C4.500
%
G90
G05
T1
X12875Y-12305
X12875Y-1241
X12875Y-12515
X1298Y-12305
X1298Y-1241
X1298Y-12515
X13085Y-12305
X13085Y-1241
X13085Y-12515
X136125Y-144025
X136125Y-145
X136125Y-145975
X1371Y-144025
X1371Y-145
X1371Y-145975
X138075Y-144025
X138075Y-145
X138075Y-145975
T2
X0294Y-0578
X0296Y-1425
X0296Y-15
X030455Y-141945
X030455Y-14949
X0315Y-0725
X0315Y-10625
X03385Y-05615
X03385Y-06955
X0359Y-1461
X036Y-07525
X036Y-109
X03625Y-08075
X03625Y-1145
X03635Y-14735
X03725Y-0835
X03725Y-11725
X0374Y-1451
X038463Y-072462
X038463Y-088962
X038463Y-092962
X038463Y-106213
X038463Y-122713
X038463Y-126713
X0385Y-0735
X0385Y-097
X0385Y-10725
X0385Y-13075
X0388Y-1384
X03925Y-05715
X04025Y-085
X04025Y-09325
X04025Y-11875
X04025Y-127
X0412Y-071
X0423Y-1511
X0423Y-1527
X0423Y-1563
X0434Y-1492
X0436Y-0662
X04375Y-08575
X04375Y-1195
X0462Y-1446
X04805Y-06645
X04975Y-074
X04975Y-10775
X05Y-0522
X0512Y-1416
X051204Y-087693
X051204Y-121443
X0516Y-1668
X05175Y-087
X05175Y-0885
X05175Y-12075
X05175Y-12225
X052Y-08625
X052Y-12
X052Y-1416
X0525Y-1442
X0525Y-1455
X0528Y-1416
X0536Y-1416
X054Y-08725
X054Y-09025
X054Y-121
X054Y-124
X05475Y-063
X05475Y-08575
X05475Y-08875
X05475Y-09175
X05475Y-1195
X05475Y-1225
X05475Y-1255
X054991Y-046609
X0555Y-08725
X0555Y-09025
X0555Y-121
X0555Y-124
X05595Y-06455
X05625Y-08575
X05625Y-08875
X05625Y-09175
X05625Y-1195
X05625Y-1225
X05625Y-1255
X057Y-08725
X057Y-09025
X057Y-121
X057Y-124
X0575Y-0538
X05775Y-08575
X05775Y-08875
X05775Y-09175
X05775Y-1195
X05775Y-1225
X05775Y-1255
X0585Y-08725
X0585Y-09025
X0585Y-121
X0585Y-124
X05856Y-02969
X05925Y-0665
X0594Y-1432
X0596Y-1458
X0596Y-1576
X0596Y-165
X0604Y-161
X0605Y-09003
X0605Y-091
X0605Y-12378
X0605Y-12475
X0612Y-0891
X0613Y-0468
X0614Y-1492
X0617Y-0479
X0626Y-067
X0642Y-1726
X06475Y-072
X0648Y-1222
X064962Y-08933
X064962Y-12308
X065Y-1386
X066Y-0725
X066Y-10625
X066502Y-08933
X066502Y-12308
X0674Y-0547
X068Y-079
X068Y-09525
X068Y-0985
X068Y-11275
X068Y-129
X068Y-13225
X068Y-1435
X068Y-1455
X06825Y-08375
X06825Y-08875
X06825Y-1225
X0684Y-1175
X069Y-1425
X069Y-1445
X069Y-1465
X069Y-154
X069Y-169
X0694Y-137513
X0699Y-1511
X07Y-153
X07Y-155
X07Y-168
X07Y-17
X07025Y-07675
X07048Y-05332
X0705Y-147
X071Y-156
X071Y-167
X07125Y-07025
X07125Y-104
X0714Y-0596
X0716Y-1362
X0718Y-11598
X072Y-147
X072Y-155
X072Y-168
X07215Y-08225
X0722Y-0554
X0723Y-0855
X0724Y-0794
X0724Y-1114
X0726Y-1193
X07288Y-08388
X07295Y-05255
X073Y-156
X073Y-167
X07325Y-077
X07325Y-11075
X0735Y-147
X074Y-155
X074Y-168
X0742Y-05373
X0744Y-1024
X0746Y-09
X0748Y-1364
X0749Y-0553
X075Y-113
X075Y-147
X075Y-154
X075Y-156
X075Y-167
X075Y-169
X0756Y-088
X0756Y-091
X0756Y-095
X07597Y-12807
X076Y-0474
X076Y-142
X076Y-1435
X076Y-145
X076Y-1465
X076Y-153
X076Y-168
X076Y-17
X0762Y-1258
X0766Y-1479
X0769Y-1266
X0772Y-1487
X0778Y-1328
X078Y-1395
X0782Y-1364
X0785Y-1315
X0794Y-1328
X08Y-1395
X0805Y-1315
X0811Y-1328
X0817Y-1395
X0825Y-1314
X0825Y-1418
X0836Y-1518
X0836Y-1718
X0845Y-0945
X0845Y-0995
X085Y-1164
X086Y-092
X086Y-097
X0864Y-107
X0885Y-0935
X09Y-1164
X091Y-0925
X0926Y-0592
X0935Y-0935
X0942Y-1398
X0944Y-1164
X0944Y-1244
X096Y-0925
X096Y-1102
X0985Y-0935
X1Y-114
X1Y-116
X1Y-1178
X1Y-1295
X10033Y-05143
X1005Y-14
X100688Y-132487
X1008Y-113
X1008Y-115
X1008Y-117
X101Y-0925
X101Y-126
X101Y-129
X101Y-1305
X101Y-137
X101Y-139
X1014Y-0356
X1014Y-1106
X1014Y-1106
X1014Y-1208
X1015Y-141
X1016Y-069
X102Y-1178
X102Y-125
X10206Y-02969
X1025Y-142
X103Y-1172
X103Y-124
X1035Y-141
X104Y-1178
X104Y-125
X1045Y-142
X10475Y-06575
X105Y-1172
X105Y-124
X1054Y-155
X1055Y-141
X10575Y-0705
X10575Y-07125
X10575Y-07225
X10575Y-073
X106Y-1178
X106Y-125
X1064Y-1094
X1065Y-142
X10675Y-0705
X10675Y-07125
X10675Y-07225
X10675Y-073
X107Y-1172
X107Y-124
X1075Y-137
X1075Y-139
X1075Y-141
X1076Y-1136
X1076Y-1154
X10775Y-0705
X10775Y-07125
X10775Y-07225
X10775Y-073
X108Y-1178
X108Y-125
X108Y-129
X108Y-1305
X1082Y-1126
X1082Y-1144
X1082Y-1164
X1085Y-1375
X1085Y-14
X109Y-1136
X109Y-1154
X109Y-1172
X109Y-126
X109Y-1295
X1092Y-0936
X1098Y-1336
X11Y-132
X1115Y-07075
X11175Y-0645
X112Y-1615
X112Y-1635
X11225Y-0655
X1125Y-159
X113Y-1605
X113Y-1625
X113Y-1645
X114Y-1595
X114Y-1615
X114Y-1635
X114Y-1655
X115Y-1585
X115Y-1645
X1158Y-0498
X116Y-1595
X116Y-1655
X1165Y-1645
X1168Y-1438
X117Y-1585
X1176Y-0574
X1179Y-0995
X11804Y-15974
X1194Y-132
X1196Y-1498
X12Y-124
X12Y-1257
X12Y-1336
X1201Y-1221
X1202Y-1208
X1203Y-112
X121Y-134
X1211Y-1102
X1211Y-113
X1211Y-1275
X1212Y-1728
X1226Y-1324
X12304Y-17024
X1233Y-1498
X1235Y-1475
X125Y-1409
X1253Y-1102
X1253Y-112
X1255Y-1251
X1256Y-145
X1256Y-1529
X1258Y-0588
X1258Y-1185
X1268Y-1326
X1271Y-1529
X1273Y-0462
X1282Y-0432
X1286Y-1326
X128825Y-145725
X1289Y-1473
X1289Y-1535
X1296Y-113
X129647Y-120653
X12979Y-12771
X1303Y-1391
X1303Y-1574
X1304Y-1288
X1304Y-1326
X130517Y-119738
X1306Y-1277
X1319Y-1207
X132Y-1157
X1323Y-1217
X1323Y-1442
X1325Y-1551
X1326Y-132
X1327Y-1123
X1328Y-09275
X1329Y-0887
X1329Y-0887
X1329Y-1197
X1331Y-145
X1337Y-1248
X1338Y-1454
X135388Y-105813
X1354Y-1134
X13655Y-09275
X13655Y-0935
X13655Y-09425
X1367Y-1149
X1367Y-1167
X137Y-14927
X1371Y-1535
X1373Y-09275
X1373Y-0935
X1373Y-09425
X1373Y-1313
X1373Y-1329
X13735Y-14095
X1374Y-0897
X1374Y-0897
X137688Y-135013
X1378Y-1574
X13805Y-09275
X13805Y-0935
X13805Y-09425
X1381Y-11893
X1388Y-09275
X1388Y-0935
X1388Y-09425
X1389Y-1243
X139Y-1551
X139188Y-126113
X1393Y-1045
X1395Y-1195
X1398Y-09625
X14Y-1123
X14005Y-083
X14005Y-085
X14005Y-08625
X14005Y-08825
X1401Y-1105
X1401Y-1369
X1402Y-1422
X1403Y-09075
X14048Y-14038
X14055Y-1045
X1406Y-1207
X14063Y-1225
X1407Y-1531
X1412Y-1217
X1412Y-1358
X1412Y-145
X1412Y-1477
X1415Y-0955
X1418Y-1045
X1418Y-1487
X1422Y-1234
X1423Y-138
X1427Y-1489
X1427Y-1551
X1434Y-1638
X1436Y-1442
X1436Y-1482
X143686Y-050976
X1443Y-1376
X1445Y-1352
X145Y-0358
X14556Y-02969
X1468Y-1642
X1477Y-1449
X1477Y-1467
X1483Y-09075
X1494Y-1564
X1496Y-1728
X14975Y-125
X14975Y-127
X14975Y-12825
X14975Y-13025
X151Y-122
X151Y-1235
X1515Y-14
X1515Y-1415
X1518Y-09
X1518Y-0915
X153Y-0488
X153025Y-135725
X15305Y-08325
X15305Y-08525
X15305Y-0865
X15305Y-0885
X1542Y-0688
X1545Y-12275
X1552Y-058
X1555Y-13725
X156Y-0074
X156038Y-133463
X1566Y-1308
X15725Y-0655
X15775Y-136
X158Y-1405
X15825Y-07025
X15825Y-071
X15825Y-072
X15825Y-07275
X1584Y-1532
X15925Y-07025
X15925Y-071
X15925Y-072
X15925Y-07275
X1596Y-13343
X16025Y-07025
X16025Y-071
X16025Y-072
X16025Y-07275
X16025Y-119
X161Y-109
X1615Y-14
X162Y-097
X16225Y-109
X1625Y-12275
X16275Y-12525
X16275Y-12725
X16275Y-1285
X16275Y-1305
X163Y-11725
X1635Y-109
X164Y-0705
X164Y-11925
X164Y-12
X164Y-12075
X16425Y-06425
X16475Y-06525
X16475Y-11925
X16475Y-12
X16475Y-12075
X1654Y-1238
X1655Y-11925
X1655Y-12
X1655Y-12075
X166243Y-08509
X166243Y-090043
X16625Y-11925
X16625Y-12
X16625Y-12075
X1676Y-1536
X169033Y-148713
X169033Y-172847
X1699Y-1248
X17Y-12075
X1702Y-1372
X1705Y-12925
X171323Y-172212
X171577Y-131572
X172085Y-112268
X1725Y-1237
X1762Y-1338
X1778Y-0762
X178Y-1286
X17975Y-16825
X18035Y-11705
X18035Y-13325
X1826Y-0602
X18275Y-14425
X183Y-076
X1845Y-1375
X1845Y-14425
X18575Y-16975
X1862Y-1022
X18725Y-13675
X1875Y-16025
X187776Y-048571
X188Y-0358
X18875Y-1455
X1888Y-0976
X189Y-14175
X18906Y-02969
X19025Y-13675
X1903Y-1171
X1903Y-1346
X19075Y-1505
X1915Y-15525
X19175Y-1455
X1924Y-057
X1936Y-1171
X1936Y-136
X194Y-143
X19475Y-15175
X1948Y-1088
X195707Y-094742
X196Y-0512
X1965Y-16
X1966Y-1206
X198048Y-113
X199064Y-137
X199064Y-147574
X199263Y-172847
X1996Y-1082
X2Y-0862
X201041Y-073279
X201041Y-077089
X202646Y-163622
X2032Y-0576
X204089Y-074549
X204724Y-164211
X205304Y-157963
X205359Y-068707
X206Y-137
X2062Y-0512
X206375Y-062992
X206502Y-085979
X2071Y-0777
X2071Y-0805
X207124Y-163817
X208026Y-086106
X208866Y-058265
X20887Y-064008
X209169Y-068834
X209533Y-057861
X21Y-15475
X210185Y-089027
X2103Y-0661
X2104Y-069
X210459Y-137
X2106Y-0576
X211074Y-137795
X2112Y-0582
X21125Y-154
X211599Y-063399
X211623Y-061823
X2118Y-056786
X212Y-15975
X2126Y-0584
X21275Y-1545
X212852Y-090043
X213Y-1194
X2134Y-0974
X2136Y-1074
X213741Y-077
X213741Y-077978
X21382Y-067409
X213855Y-069255
X214Y-073
X214122Y-06096
X2144Y-0682
X2144Y-072
X2144Y-1398
X214503Y-083947
X2148Y-0756
X215Y-0604
X215265Y-08255
X215265Y-090551
X2154Y-0762
X215519Y-051054
X2159Y-0604
X2162Y-0728
X2168Y-0958
X217Y-0604
X2176Y-0578
X2176Y-0966
X21775Y-113
X218059Y-051435
X218821Y-094742
X219456Y-081534
X219456Y-084709
X220044Y-0778
X220345Y-095377
X220386Y-080897
X2204Y-0818
X220472Y-054483
X220648Y-062448
X220726Y-049911
X2208Y-0654
X220963Y-149963
X2212Y-0692
X221361Y-090678
X2214Y-1237
X2216Y-0624
X222Y-14
X22225Y-15675
X22237Y-0594
X222885Y-049652
X22352Y-074676
X2236Y-0774
X2242Y-074
X2244Y-057071
X2244Y-1512
X224464Y-062664
X2246Y-1582
X225271Y-058437
X22533Y-049181
X2254Y-0728
X225401Y-077954
X225425Y-089535
X2258Y-055571
X225806Y-065532
X2259Y-0626
X226Y-072
X226187Y-07003
X2263Y-0667
X226496Y-0576
X226496Y-063363
X226695Y-086487
X227Y-096
X22733Y-084709
X2276Y-0584
X2276Y-1168
X2276Y-1349
X227965Y-050038
X227965Y-084201
X228346Y-054229
X2284Y-0984
X228981Y-068072
X229Y-0844
X229Y-0882
X22902Y-09398
X2291Y-0634
X229108Y-07003
X229616Y-050501
X230124Y-1538
X230124Y-161798
X230323Y-056134
X230378Y-071374
X230378Y-070358
X230392Y-086392
X230475Y-076113
X230505Y-111434
X2309Y-0477
X231049Y-087033
X231075Y-0578
X2316Y-0356
X231648Y-071501
X231994Y-05656
X232299Y-055842
X23241Y-064262
X23241Y-111054
X23256Y-02969
X2326Y-0728
X232664Y-145449
X2331Y-0487
X233425Y-079375
X2336Y-0769
X233759Y-110665
X233759Y-110665
X2346Y-084
X2346Y-1076
X23495Y-082296
X235Y-0876
X235331Y-174371
X2356Y-0481
X235712Y-148209
X23625Y-113102
X2364Y-0978
X2365Y-0754
X2365Y-0815
X236664Y-082868
X2368Y-0578
X2369Y-072
X2372Y-096
X238129Y-108835
X2384Y-0766
X238633Y-065913
X2392Y-057
X2394Y-094
X239903Y-08001
X240665Y-108585
X240792Y-069469
X240792Y-080645
X2408Y-0966
X242316Y-108453
X2424Y-0908
X2428Y-0978
X245Y-0954
X245618Y-056388
X245619Y-088899
X2466Y-1488
X2468Y-1171
X2468Y-136
X246888Y-159639
X248056Y-080574
X24807Y-06173
X2502Y-1184
X251Y-129
X2514Y-0852
X252Y-078
X2522Y-0584
X2522Y-0706
X2522Y-0906
X253111Y-113229
X253111Y-12446
X2538Y-0496
X254Y-114173
X254Y-126111
X254127Y-087244
X2546Y-107
X2548Y-1038
X255524Y-094615
X255524Y-099568
X2558Y-1374
X2568Y-1194
X2582Y-0598
X259Y-061
X259715Y-055113
X2598Y-0602
X26Y-1008
X2602Y-1482
X260235Y-073465
X26035Y-114372
X26035Y-133604
X26055Y-0699
X2606Y-1042
X2608Y-157
X2628Y-155
X2634Y-078
X26405Y-0699
X266Y-1344
X266192Y-065024
X266192Y-084963
X2664Y-1278
X2668Y-1232
X266954Y-064389
X266954Y-084328
X267Y-1676
X267208Y-063627
X267716Y-084018
X2682Y-1362
X268213Y-062288
X268605Y-084836
X268605Y-093599
X2708Y-0678
X2708Y-0692
X271Y-070537
X2712Y-1226
X2724Y-1394
X2726Y-0782
X272638Y-073163
X2728Y-0874
X2732Y-1008
X274Y-107
X27475Y-06875
X275Y-0356
X275Y-1224
X2752Y-0904
X2758Y-0732
X27606Y-02969
X27638Y-081788
X279Y-082
X279019Y-114372
X28Y-0732
X281686Y-091948
X282Y-0778
X282448Y-081788
X2836Y-0886
X283718Y-10163
X284Y-0824
X2844Y-064
X2844Y-0657
X2844Y-0674
X2844Y-0691
X2844Y-0708
X2844Y-0726
X28448Y-166888
X284495Y-163205
X284988Y-101219
X2852Y-074
X285745Y-166888
X285773Y-163192
X286Y-0746
X2864Y-0614
X28675Y-101
X286893Y-07518
X286893Y-081342
X287Y-0456
X28739Y-14001
X2874Y-0856
X2876Y-0936
X288398Y-123998
X289306Y-131191
X289306Y-134874
X289524Y-125476
X2898Y-1542
X2899Y-0463
X290322Y-132588
X290659Y-1306
X291155Y-126492
X291211Y-134493
X2915Y-074194
X2915Y-075306
X2928Y-1022
X2936Y-1052
X294063Y-121263
X294535Y-133938
X2946Y-127
X294829Y-120591
X295Y-07275
X295Y-1188
X295Y-1606
X29525Y-08425
X295275Y-112821
X295275Y-117602
X2954Y-1264
X295423Y-119867
X295537Y-092538
X2956Y-1328
X29591Y-116967
X296Y-1126
X296037Y-163449
X296051Y-11914
X2965Y-0765
X296672Y-118237
X2972Y-1328
X2976Y-07665
X29775Y-083
X299Y-0982
X29972Y-132334
X29972Y-13335
X29972Y-134239
X29975Y-0925
X3Y-1058
X300228Y-124714
X30075Y-07275
X3008Y-1202
X302133Y-163576
X30285Y-03465
X302895Y-125984
X303022Y-129794
X303022Y-130683
X303748Y-027778
X30375Y-0315
X304Y-074194
X304Y-075306
X3042Y-027
X3042Y-0922
X305Y-0895
X305181Y-051943
X30525Y-08475
X305435Y-051054
X3066Y-1192
X3075Y-0275
X3075Y-07275
X3085Y-08725
X309Y-0765
X309245Y-131318
X30925Y-085
X3096Y-1658
X3101Y-07665
X3102Y-1542
X310261Y-133858
X310896Y-130556
X311023Y-132461
X311023Y-133477
X31115Y-126619
X3112Y-0767
X311531Y-112005
X311531Y-116327
X311785Y-164973
X312Y-0354
X312Y-0773
X31242Y-112522
X3126Y-078
X313Y-1075
X313055Y-111625
X313055Y-115819
X31325Y-07275
X31375Y-104
X31375Y-1055
X314071Y-111245
X314071Y-116073
X3144Y-1344
X31475Y-104
X31475Y-1055
X315142Y-110236
X3152Y-114803
X315214Y-126365
X31525Y-09525
X315722Y-113411
X315849Y-10985
X315976Y-108961
X315976Y-126619
X316Y-1326
X3165Y-074194
X3165Y-075306
X3166Y-0358
X316738Y-083693
X316865Y-114427
X3178Y-1146
X317881Y-126746
X317963Y-101962
X3185Y-09775
X319079Y-1651
X319151Y-116327
X319463Y-090038
X31956Y-02969
X3196Y-1332
X32Y-07275
X32025Y-09325
X32025Y-09475
X320675Y-116332
X320675Y-124714
X32125Y-09325
X32125Y-09475
X3215Y-0765
X32175Y-11
X3218Y-1402
X3224Y-1536
X323Y-1128
X323088Y-130302
X323088Y-131826
X323469Y-12573
X324866Y-087249
X32493Y-16587
X32575Y-07275
X32615Y-1076
X32747Y-086868
X3282Y-163
X328676Y-082042
X328676Y-108966
X329Y-074194
X329Y-075306
X329438Y-081534
X329438Y-108585
X332486Y-166751
X3325Y-07275
X333Y-093
X334Y-0765
X3355Y-093
X33625Y-09975
X33625Y-1035
X338Y-093
X338Y-1005
X33825Y-07275
X3385Y-10475
X3385Y-10625
X3385Y-10875
X33909Y-165608
X3393Y-0531
X339713Y-093538
X3398Y-1394
X341Y-1558
X3415Y-074194
X3415Y-075306
X34175Y-09275
X34325Y-108
X3435Y-09475
X345Y-07275
X3451Y-1015
X345185Y-102275
X3455Y-1085
X34575Y-10025
X346037Y-093538
X3465Y-0765
X3475Y-09025
X34775Y-103599
X34875Y-10675
X3493Y-0444
X3493Y-0553
X34975Y-0985
X3502Y-0608
X35025Y-09925
X350491Y-103019
X3505Y-101
X3505Y-102
X35075Y-098
X35075Y-07275
X35125Y-0905
X3519Y-0878
X352Y-096
X35225Y-1075
X352315Y-082985
X352405Y-075205
X3525Y-1045
X35278Y-096
X353145Y-070555
X3537Y-0504
X35375Y-096
X354535Y-09942
X3546Y-05
X35488Y-06942
X3553Y-0492
X3561Y-0489
X357Y-0469
X35725Y-093
X3577Y-0475
X35775Y-09575
X3578Y-1502
X3584Y-129
X358463Y-106788
X358463Y-108713
X3592Y-0626
X35975Y-10175
X3608Y-1666
X3613Y-066
X3618Y-0356
X3622Y-0814
X363Y-0978
X36306Y-02969
X364Y-0649
X36475Y-08175
X3651Y-0752
X3655Y-0796
X36565Y-07735
X36565Y-08065
X36593Y-06943
X366Y-0898
X36768Y-08512
X36845Y-08175
X36905Y-07735
T3
X023475Y-02575
X023475Y-04125
X024068Y-024318
X024068Y-027182
X024068Y-039818
X024068Y-042682
X02419Y-03398
X0255Y-023725
X0255Y-027775
X0255Y-039225
X0255Y-043275
X02673Y-03302
X026932Y-024318
X026932Y-027182
X026932Y-039818
X026932Y-042682
X027525Y-02575
X027525Y-04125
X02927Y-03398
X03181Y-03302
X04225Y-08025
X04225Y-114
X0435Y-08025
X0435Y-114
X04475Y-087
X04475Y-0885
X04475Y-12075
X04475Y-12225
X045Y-09375
X045Y-1275
X04525Y-08375
X04525Y-1175
X04925Y-0705
X04925Y-077
X04925Y-10425
X04925Y-11075
X050725Y-083225
X050725Y-116975
X05075Y-09075
X05075Y-1245
X05075Y-13175
X051Y-0855
X051Y-0925
X051Y-11925
X051Y-12625
X052Y-13175
X05225Y-098
X0535Y-098
X05425Y-0705
X05425Y-077
X05425Y-10425
X05425Y-11075
X057725Y-02475
X057725Y-04225
X058318Y-023318
X058318Y-026182
X058318Y-040818
X058318Y-043682
X05975Y-022725
X05975Y-026775
X05975Y-040225
X05975Y-044275
X06023Y-03223
X061182Y-023318
X061182Y-026182
X061182Y-040818
X061182Y-043682
X061575Y-088
X061575Y-122175
X061775Y-02475
X061775Y-04225
X063Y-07025
X063Y-0715
X06325Y-09525
X06325Y-129
X06505Y-0833
X06505Y-11705
X06525Y-09375
X06525Y-1275
X06695Y-0833
X06695Y-0937
X06695Y-11705
X06695Y-12745
X066975Y-02575
X066975Y-04125
X067568Y-024318
X067568Y-027182
X067568Y-039818
X067568Y-042682
X06769Y-03398
X0689Y-064
X069Y-023725
X069Y-027775
X069Y-039225
X069Y-043275
X07023Y-03302
X070432Y-024318
X070432Y-027182
X070432Y-039818
X070432Y-042682
X071025Y-02575
X071025Y-04125
X07147Y-063988
X07277Y-03398
X075Y-1008
X07531Y-03302
X076Y-1008
X0828Y-082
X0828Y-085
X086Y-0864
X0876Y-0856
X088Y-0785
X0902Y-0856
X09325Y-06975
X0934Y-0856
X0966Y-0856
X0998Y-0856
X101225Y-02475
X101225Y-04225
X101818Y-023318
X101818Y-026182
X101818Y-040818
X101818Y-043682
X103Y-0856
X10325Y-022725
X10325Y-026775
X10325Y-040225
X10325Y-044275
X10373Y-03223
X104682Y-023318
X104682Y-026182
X104682Y-040818
X104682Y-043682
X105275Y-02475
X105275Y-04225
X1062Y-0856
X10815Y-0784
X1094Y-0856
X110475Y-02575
X110475Y-04125
X111068Y-024318
X111068Y-027182
X111068Y-039818
X111068Y-042682
X11119Y-03398
X1125Y-023725
X1125Y-027775
X1125Y-039225
X1125Y-043275
X1126Y-0856
X11373Y-03302
X113932Y-024318
X113932Y-027182
X113932Y-039818
X113932Y-042682
X114525Y-02575
X114525Y-04125
X1152Y-1736
X11627Y-03398
X1164Y-1736
X117Y-068
X1182Y-0782
X11881Y-03302
X119Y-0774
X1316Y-0806
X13855Y-082
X1405Y-07825
X1412Y-158
X1442Y-1566
X144725Y-02475
X144725Y-04225
X145318Y-023318
X145318Y-026182
X145318Y-040818
X145318Y-043682
X14575Y-0695
X146Y-1566
X14675Y-022725
X14675Y-026775
X14675Y-040225
X14675Y-044275
X14723Y-03223
X148182Y-023318
X148182Y-026182
X148182Y-040818
X148182Y-043682
X1482Y-1566
X148775Y-02475
X148775Y-04225
X1504Y-1316
X1512Y-1518
X1512Y-1542
X1514Y-1316
X153975Y-02575
X153975Y-04125
X15455Y-081
X15455Y-082
X154568Y-024318
X154568Y-027182
X154568Y-039818
X154568Y-042682
X15469Y-03398
X156Y-023725
X156Y-027775
X156Y-039225
X156Y-043275
X15723Y-03302
X157432Y-024318
X157432Y-027182
X157432Y-039818
X157432Y-042682
X158025Y-02575
X158025Y-04125
X15977Y-03398
X16065Y-07815
X16231Y-03302
X16425Y-1315
X1695Y-06775
X1714Y-0776
X1722Y-0784
X188225Y-02475
X188225Y-04225
X188818Y-023318
X188818Y-026182
X188818Y-040818
X188818Y-043682
X19025Y-022725
X19025Y-026775
X19025Y-040225
X19025Y-044275
X19073Y-03223
X191682Y-023318
X191682Y-026182
X191682Y-040818
X191682Y-043682
X192275Y-02475
X192275Y-04225
X197475Y-02575
X197475Y-04125
X198068Y-024318
X198068Y-027182
X198068Y-039818
X198068Y-042682
X19819Y-03398
X1995Y-023725
X1995Y-027775
X1995Y-039225
X1995Y-043275
X20073Y-03302
X200932Y-024318
X200932Y-027182
X200932Y-039818
X200932Y-042682
X201525Y-02575
X201525Y-04125
X20327Y-03398
X20581Y-03302
X212725Y-164751
X2146Y-1466
X231725Y-02475
X231725Y-04225
X232318Y-023318
X232318Y-026182
X232318Y-040818
X232318Y-043682
X23375Y-022725
X23375Y-026775
X23375Y-040225
X23375Y-044275
X23423Y-03223
X235182Y-023318
X235182Y-026182
X235182Y-040818
X235182Y-043682
X235775Y-02475
X235775Y-04225
X240975Y-02575
X240975Y-04125
X241568Y-024318
X241568Y-027182
X241568Y-039818
X241568Y-042682
X24169Y-03398
X243Y-023725
X243Y-027775
X243Y-039225
X243Y-043275
X24423Y-03302
X244432Y-024318
X244432Y-027182
X244432Y-039818
X244432Y-042682
X245025Y-02575
X245025Y-04125
X24677Y-03398
X24931Y-03302
X275225Y-02475
X275225Y-04225
X275818Y-023318
X275818Y-026182
X275818Y-040818
X275818Y-043682
X27675Y-066
X27725Y-022725
X27725Y-026775
X27725Y-040225
X27725Y-044275
X27773Y-03223
X278682Y-023318
X278682Y-026182
X278682Y-040818
X278682Y-043682
X279275Y-02475
X279275Y-04225
X28005Y-0532
X282475Y-1215
X282475Y-1705
X283068Y-120068
X283068Y-122932
X283068Y-169068
X283068Y-171932
X284475Y-02575
X284475Y-04125
X2845Y-119475
X2845Y-123525
X2845Y-168475
X2845Y-172525
X285068Y-024318
X285068Y-027182
X285068Y-039818
X285068Y-042682
X28519Y-03398
X285932Y-120068
X285932Y-122932
X285932Y-169068
X285932Y-171932
X2865Y-023725
X2865Y-027775
X2865Y-039225
X2865Y-043275
X286525Y-1215
X286525Y-1705
X28773Y-03302
X287932Y-024318
X287932Y-027182
X287932Y-039818
X287932Y-042682
X288525Y-02575
X288525Y-04125
X29027Y-03398
X29281Y-03302
X3011Y-05305
X318725Y-02475
X318725Y-04225
X319318Y-023318
X319318Y-026182
X319318Y-040818
X319318Y-043682
X32075Y-022725
X32075Y-026775
X32075Y-040225
X32075Y-044275
X32123Y-03223
X322182Y-023318
X322182Y-026182
X322182Y-040818
X322182Y-043682
X322775Y-02475
X322775Y-04225
X3228Y-0532
X327975Y-02575
X327975Y-04125
X328568Y-024318
X328568Y-027182
X328568Y-039818
X328568Y-042682
X32869Y-03398
X33Y-023725
X33Y-027775
X33Y-039225
X33Y-043275
X33123Y-03302
X331432Y-024318
X331432Y-027182
X331432Y-039818
X331432Y-042682
X332025Y-02575
X332025Y-04125
X33377Y-03398
X33631Y-03302
X340475Y-1215
X340475Y-1705
X341068Y-120068
X341068Y-122932
X341068Y-169068
X341068Y-171932
X3425Y-119475
X3425Y-123525
X3425Y-168475
X3425Y-172525
X343932Y-120068
X343932Y-122932
X343932Y-169068
X343932Y-171932
X344525Y-1215
X344525Y-1705
X35675Y-06425
X362225Y-02475
X362225Y-04225
X362818Y-023318
X362818Y-026182
X362818Y-040818
X362818Y-043682
X36425Y-022725
X36425Y-026775
X36425Y-040225
X36425Y-044275
X36473Y-03223
X365682Y-023318
X365682Y-026182
X365682Y-040818
X365682Y-043682
X366275Y-02475
X366275Y-04225
T5
X364738Y-09675
X364738Y-10175
T6
X0353Y-1679
X0378Y-1679
X0403Y-1679
X0428Y-1679
X0453Y-1679
T7
X195834Y-127838
X195834Y-130378
X195834Y-167835
X195834Y-170375
X198374Y-127838
X198374Y-130378
X198374Y-167835
X198374Y-170375
X199811Y-101259
X200914Y-127838
X200914Y-130378
X200914Y-167835
X200914Y-170375
X202351Y-101259
X203454Y-127838
X203454Y-130378
X203454Y-167835
X203454Y-170375
X204891Y-101259
X205994Y-127838
X205994Y-130378
X205994Y-167835
X205994Y-170375
X207431Y-101259
X208534Y-127838
X208534Y-130378
X208534Y-167835
X208534Y-170375
X20896Y-053
X209971Y-101259
X211074Y-127838
X211074Y-130378
X211074Y-167835
X211074Y-170375
X2115Y-053
X212511Y-101259
X213614Y-127838
X213614Y-130378
X213614Y-167835
X213614Y-170375
X21404Y-053
X215051Y-101259
X216154Y-127838
X216154Y-130378
X216154Y-167835
X216154Y-170375
X21658Y-053
X217591Y-101259
X218694Y-127838
X218694Y-130378
X218694Y-167835
X218694Y-170375
X21912Y-053
X220131Y-101259
X221234Y-127838
X221234Y-130378
X221234Y-167835
X221234Y-170375
X22166Y-053
X222671Y-101259
X223774Y-127838
X223774Y-130378
X223774Y-167835
X223774Y-170375
X2242Y-053
X226314Y-127838
X226314Y-130378
X226314Y-167835
X226314Y-170375
X226735Y-101259
X22674Y-053
X228854Y-127838
X228854Y-130378
X228854Y-167835
X228854Y-170375
X229275Y-101259
X231394Y-127838
X231394Y-130378
X231394Y-167835
X231394Y-170375
X2318Y-053
X231815Y-101259
X233934Y-127838
X233934Y-130378
X233934Y-167835
X233934Y-170375
X23434Y-053
X234355Y-101259
X236474Y-127838
X236474Y-130378
X236474Y-167835
X236474Y-170375
X23688Y-053
X236895Y-101259
X239014Y-127838
X239014Y-130378
X239014Y-167835
X239014Y-170375
X23942Y-053
X239435Y-101259
X241554Y-127838
X241554Y-130378
X241554Y-167835
X241554Y-170375
X24196Y-053
X241975Y-101259
X244094Y-127838
X244094Y-130378
X244094Y-167835
X244094Y-170375
X2445Y-053
X244515Y-101259
X28937Y-16923
X28937Y-17177
X29191Y-16923
X29191Y-17177
X29445Y-16923
X29445Y-17177
X29699Y-16923
X29699Y-17177
X29953Y-16923
X29953Y-17177
X30207Y-16923
X30207Y-17177
X30461Y-16923
X30461Y-17177
X30715Y-16923
X30715Y-17177
X30969Y-16923
X30969Y-17177
X31223Y-16923
X31223Y-17177
X31477Y-16923
X31477Y-17177
X31731Y-16923
X31731Y-17177
X31985Y-16923
X31985Y-17177
X32239Y-16923
X32239Y-17177
X32493Y-16923
X32493Y-17177
X32747Y-16923
X32747Y-17177
X33001Y-16923
X33001Y-17177
X33255Y-16923
X33255Y-17177
X33305Y-0835
X33305Y-08725
X33509Y-16923
X33509Y-17177
X33559Y-0835
X33559Y-08725
X33763Y-16923
X33763Y-17177
X33813Y-0835
X33813Y-08725
X34067Y-0835
X34067Y-08725
X34321Y-0835
X34321Y-08725
X34575Y-0835
X34575Y-08725
X36276Y-11176
X36576Y-11176
T8
X02645Y-062145
X0265Y-07325
X0265Y-07625
X0265Y-07925
X0265Y-08725
X0265Y-09025
X0265Y-09325
X0265Y-09625
X0265Y-107
X0265Y-11
X0265Y-113
X0265Y-121
X0265Y-124
X0265Y-127
X0265Y-13
X02945Y-062145
X03245Y-062145
X0363Y-0534
X0393Y-0534
X0423Y-0534
X0626Y-0575
X0656Y-0575
X08275Y-0655
X08275Y-0685
X13525Y-06525
X13525Y-06825
X15575Y-14625
X15875Y-14625
X16175Y-14625
X16475Y-14625
X1745Y-152
X1745Y-155
X1745Y-158
X1745Y-161
X26325Y-08575
X26325Y-08875
X26325Y-09175
X26325Y-09475
X26325Y-09775
X26325Y-10075
X26325Y-10375
X26325Y-10675
X264Y-0572
X267Y-0572
X27Y-0572
X273Y-0572
X276Y-0572
X2854Y-05725
X2884Y-05725
X2914Y-05725
X2915Y-08525
X2915Y-08825
X2915Y-09125
X29325Y-06975
X2944Y-05725
X29625Y-06975
X2974Y-05725
X30575Y-06975
X307Y-05725
X30875Y-06975
X31Y-05725
X313Y-05725
X316Y-05725
X31825Y-06975
X319Y-05725
X32125Y-06975
X3286Y-05725
X33075Y-06975
X3316Y-05725
X33375Y-06975
X3346Y-05725
X3376Y-05725
X3406Y-05725
X34325Y-06975
X34625Y-06975
T9
X0538Y-1546
X0538Y-1603
X0938Y-1622
X0938Y-1679
X0995Y-1622
X0995Y-1679
X1619Y-1638
X1619Y-1695
T10
X0255Y-02575
X0255Y-04125
X05975Y-02475
X05975Y-04225
X069Y-02575
X069Y-04125
X10325Y-02475
X10325Y-04225
X1125Y-02575
X1125Y-04125
X14675Y-02475
X14675Y-04225
X156Y-02575
X156Y-04125
X19025Y-02475
X19025Y-04225
X1995Y-02575
X1995Y-04125
X23375Y-02475
X23375Y-04225
X243Y-02575
X243Y-04125
X27725Y-02475
X27725Y-04225
X2845Y-1215
X2845Y-1705
X2865Y-02575
X2865Y-04125
X32075Y-02475
X32075Y-04225
X33Y-02575
X33Y-04125
X3425Y-1215
X3425Y-1705
X36425Y-02475
X36425Y-04225
T11
X026Y-052
X026Y-169
X170561Y-099695
X275Y-169
X364Y-052
T4
G00X367088Y-09575
M15
G01X367787Y-09575
M16
G05
G00X367787Y-10275
M15
G01X367088Y-10275
M16
G05
T0
M30
