G04*
G04 #@! TF.GenerationSoftware,Altium Limited,Altium Designer,18.1.11 (251)*
G04*
G04 Layer_Color=8388736*
%FSLAX25Y25*%
%MOIN*%
G70*
G01*
G75*
%ADD12C,0.01000*%
%ADD46R,0.04737X0.04540*%
%ADD47R,0.03950X0.05682*%
%ADD48R,0.04540X0.10642*%
%ADD49R,0.05328X0.09461*%
%ADD50R,0.05367X0.05721*%
%ADD51R,0.05367X0.05524*%
%ADD52R,0.06706X0.05328*%
G04:AMPARAMS|DCode=53|XSize=143.04mil|YSize=78.08mil|CornerRadius=7.5mil|HoleSize=0mil|Usage=FLASHONLY|Rotation=0.000|XOffset=0mil|YOffset=0mil|HoleType=Round|Shape=RoundedRectangle|*
%AMROUNDEDRECTD53*
21,1,0.14304,0.06307,0,0,0.0*
21,1,0.12803,0.07808,0,0,0.0*
1,1,0.01501,0.06402,-0.03154*
1,1,0.01501,-0.06402,-0.03154*
1,1,0.01501,-0.06402,0.03154*
1,1,0.01501,0.06402,0.03154*
%
%ADD53ROUNDEDRECTD53*%
%ADD54R,0.03950X0.03950*%
%ADD55R,0.11430X0.05328*%
%ADD56R,0.04540X0.04737*%
%ADD57R,0.10642X0.07493*%
%ADD58R,0.05524X0.05524*%
%ADD59R,0.17493X0.15800*%
%ADD60R,0.09461X0.02769*%
%ADD61R,0.10249X0.13005*%
%ADD62R,0.03162X0.05524*%
G04:AMPARAMS|DCode=63|XSize=165.48mil|YSize=126.11mil|CornerRadius=33.53mil|HoleSize=0mil|Usage=FLASHONLY|Rotation=180.000|XOffset=0mil|YOffset=0mil|HoleType=Round|Shape=RoundedRectangle|*
%AMROUNDEDRECTD63*
21,1,0.16548,0.05906,0,0,180.0*
21,1,0.09843,0.12611,0,0,180.0*
1,1,0.06706,-0.04921,0.02953*
1,1,0.06706,0.04921,0.02953*
1,1,0.06706,0.04921,-0.02953*
1,1,0.06706,-0.04921,-0.02953*
%
%ADD63ROUNDEDRECTD63*%
%ADD64R,0.06312X0.04737*%
%ADD65R,0.07099X0.01981*%
G04:AMPARAMS|DCode=66|XSize=143.04mil|YSize=78.08mil|CornerRadius=7.5mil|HoleSize=0mil|Usage=FLASHONLY|Rotation=90.000|XOffset=0mil|YOffset=0mil|HoleType=Round|Shape=RoundedRectangle|*
%AMROUNDEDRECTD66*
21,1,0.14304,0.06307,0,0,90.0*
21,1,0.12803,0.07808,0,0,90.0*
1,1,0.01501,0.03154,0.06402*
1,1,0.01501,0.03154,-0.06402*
1,1,0.01501,-0.03154,-0.06402*
1,1,0.01501,-0.03154,0.06402*
%
%ADD66ROUNDEDRECTD66*%
%ADD67R,0.05328X0.11430*%
%ADD68R,0.22847X0.09855*%
%ADD69R,0.06863X0.10800*%
%ADD70R,0.03000X0.08600*%
%ADD71R,0.08674X0.11824*%
%ADD72C,0.09855*%
%ADD73R,0.09855X0.09855*%
%ADD74C,0.20485*%
%ADD75C,0.06706*%
%ADD76R,0.06706X0.06706*%
%ADD77R,0.06706X0.06706*%
%ADD78C,0.15564*%
%ADD79R,0.00800X0.00800*%
%ADD80C,0.25800*%
%ADD81C,0.03000*%
D12*
X0Y0D02*
X748032D01*
X0D02*
Y433071D01*
X748032D01*
X748032Y0D01*
D46*
X570866Y341339D02*
D03*
X570865Y347638D02*
D03*
X645276Y379921D02*
D03*
X645276Y373622D02*
D03*
X637795Y379921D02*
D03*
X637796Y373622D02*
D03*
X568504Y379921D02*
D03*
X568505Y373622D02*
D03*
X561024Y379921D02*
D03*
X561024Y373622D02*
D03*
X443307Y379921D02*
D03*
X443308Y373622D02*
D03*
X435827Y379921D02*
D03*
X435827Y373622D02*
D03*
X105512Y339764D02*
D03*
X105512Y333464D02*
D03*
X9843Y335827D02*
D03*
X9843Y329527D02*
D03*
X28346Y320866D02*
D03*
X28347Y314567D02*
D03*
X20866Y320866D02*
D03*
X20867Y314567D02*
D03*
X42913Y355610D02*
D03*
X42914Y349311D02*
D03*
X35433Y355610D02*
D03*
X35434Y349311D02*
D03*
X27460Y335531D02*
D03*
X27460Y329232D02*
D03*
X19685Y329232D02*
D03*
X19684Y335532D02*
D03*
X105512Y325197D02*
D03*
X105512Y318897D02*
D03*
X417716Y380118D02*
D03*
X417717Y373819D02*
D03*
X425197Y380118D02*
D03*
X425197Y373819D02*
D03*
X391339Y59055D02*
D03*
X391339Y52756D02*
D03*
X216142Y224016D02*
D03*
X216142Y217716D02*
D03*
X208661Y217717D02*
D03*
X208661Y224016D02*
D03*
X127953Y225197D02*
D03*
X127953Y218897D02*
D03*
X120472Y218898D02*
D03*
X120472Y225197D02*
D03*
X596457Y389008D02*
D03*
X596457Y382708D02*
D03*
X523622Y388976D02*
D03*
X523623Y382677D02*
D03*
X450787Y388976D02*
D03*
X450788Y382677D02*
D03*
X377953Y388976D02*
D03*
X377953Y382677D02*
D03*
X683071Y67323D02*
D03*
X683070Y73622D02*
D03*
X683071Y165748D02*
D03*
X683070Y172048D02*
D03*
X683071Y187795D02*
D03*
X683072Y181496D02*
D03*
X683071Y90158D02*
D03*
X683072Y83858D02*
D03*
X683071Y264961D02*
D03*
X683070Y271260D02*
D03*
X683071Y286221D02*
D03*
X683072Y279921D02*
D03*
X604724Y356299D02*
D03*
X604724Y362599D02*
D03*
X595669Y338189D02*
D03*
X595669Y344489D02*
D03*
X612598Y355906D02*
D03*
X612598Y362205D02*
D03*
X628740Y343307D02*
D03*
X628740Y337008D02*
D03*
X621260Y337008D02*
D03*
X621259Y343307D02*
D03*
X472835Y9055D02*
D03*
X472834Y15355D02*
D03*
X465354Y9055D02*
D03*
X465354Y15355D02*
D03*
X603938Y210236D02*
D03*
X603937Y216535D02*
D03*
X596457Y210236D02*
D03*
X596456Y216536D02*
D03*
X350000Y314567D02*
D03*
X350001Y308267D02*
D03*
X350000Y327953D02*
D03*
X350001Y321653D02*
D03*
X533465Y388976D02*
D03*
X533465Y382677D02*
D03*
X543307Y388976D02*
D03*
X543308Y382677D02*
D03*
X553150Y388976D02*
D03*
X553150Y382677D02*
D03*
X470472Y388976D02*
D03*
X470473Y382677D02*
D03*
X460630Y388976D02*
D03*
X460631Y382677D02*
D03*
X480315Y388976D02*
D03*
X480316Y382677D02*
D03*
X625984Y389008D02*
D03*
X625985Y382708D02*
D03*
X616142Y389008D02*
D03*
X616142Y382708D02*
D03*
X606299Y388976D02*
D03*
X606300Y382677D02*
D03*
X397638Y388976D02*
D03*
X397638Y382677D02*
D03*
X407480Y388976D02*
D03*
X407481Y382677D02*
D03*
X387795Y388976D02*
D03*
X387796Y382677D02*
D03*
X178740Y220598D02*
D03*
X178741Y214299D02*
D03*
X178740Y200913D02*
D03*
X178740Y207213D02*
D03*
X647638Y113779D02*
D03*
X647638Y107480D02*
D03*
X647638Y94095D02*
D03*
X647637Y100394D02*
D03*
X144095Y220472D02*
D03*
X144095Y214173D02*
D03*
X283858Y224803D02*
D03*
X283858Y218504D02*
D03*
X293661Y224803D02*
D03*
X293661Y218504D02*
D03*
X267323Y209449D02*
D03*
X267323Y203149D02*
D03*
X267323Y189764D02*
D03*
X267322Y196063D02*
D03*
X648425Y197244D02*
D03*
X648426Y190945D02*
D03*
X648425Y177559D02*
D03*
X648425Y183859D02*
D03*
X144095Y200787D02*
D03*
X144094Y207087D02*
D03*
X669165Y306299D02*
D03*
X669165Y312599D02*
D03*
X669165Y325984D02*
D03*
X669166Y319685D02*
D03*
X662205Y210630D02*
D03*
X662204Y216929D02*
D03*
X662205Y238189D02*
D03*
X662204Y244489D02*
D03*
X662205Y266535D02*
D03*
X662204Y272835D02*
D03*
X724016Y345276D02*
D03*
X724016Y338976D02*
D03*
X731496Y345276D02*
D03*
X731497Y338976D02*
D03*
X654724Y210630D02*
D03*
X654724Y216929D02*
D03*
X654724Y238189D02*
D03*
X654724Y244489D02*
D03*
X654724Y266535D02*
D03*
X654724Y272835D02*
D03*
X601968Y266929D02*
D03*
X601969Y260629D02*
D03*
X594882Y260630D02*
D03*
X594881Y266929D02*
D03*
X587440Y266929D02*
D03*
X587441Y260629D02*
D03*
X669685Y266535D02*
D03*
X669684Y272835D02*
D03*
X705512Y325984D02*
D03*
X705512Y319685D02*
D03*
X705118Y227165D02*
D03*
X705119Y220866D02*
D03*
X669685Y238272D02*
D03*
X669684Y244571D02*
D03*
X669685Y210630D02*
D03*
X669684Y216929D02*
D03*
X705118Y129134D02*
D03*
X705119Y122834D02*
D03*
D47*
X439980Y13150D02*
D03*
X435650D02*
D03*
X431319D02*
D03*
X426988D02*
D03*
X422657D02*
D03*
X418327D02*
D03*
X413996D02*
D03*
X409665D02*
D03*
D48*
X457087Y15630D02*
D03*
D49*
X400433Y15039D02*
D03*
X456693Y60236D02*
D03*
D50*
X402028Y23504D02*
D03*
D51*
Y58937D02*
D03*
D52*
X439744Y63366D02*
D03*
X409114D02*
D03*
D53*
X19685Y384646D02*
D03*
X132677Y361515D02*
D03*
X640945Y337402D02*
D03*
X583071Y337402D02*
D03*
X379803Y342520D02*
D03*
X419291D02*
D03*
X399606D02*
D03*
X624803Y367717D02*
D03*
D54*
X11812Y362205D02*
D03*
X11811Y368111D02*
D03*
D55*
X10236Y309449D02*
D03*
Y321260D02*
D03*
X116535Y313169D02*
D03*
Y324980D02*
D03*
D56*
X42520Y363090D02*
D03*
X36220Y363090D02*
D03*
X89370Y311811D02*
D03*
X83070Y311810D02*
D03*
X128347Y341122D02*
D03*
X122047Y341122D02*
D03*
X128347Y333504D02*
D03*
X122047Y333503D02*
D03*
X403150Y185039D02*
D03*
X396850Y185039D02*
D03*
X396850Y192520D02*
D03*
X403150Y192520D02*
D03*
X403150Y235433D02*
D03*
X396850Y235432D02*
D03*
X396850Y242992D02*
D03*
X403150Y242993D02*
D03*
X520866Y370866D02*
D03*
X514567Y370866D02*
D03*
X396850Y140157D02*
D03*
X403150Y140158D02*
D03*
X396850Y225590D02*
D03*
X403150Y225591D02*
D03*
X396850Y150394D02*
D03*
X403150Y150394D02*
D03*
X202756Y331496D02*
D03*
X209055Y331497D02*
D03*
X202795Y338977D02*
D03*
X209095Y338978D02*
D03*
X202756Y324016D02*
D03*
X209055Y324016D02*
D03*
X274409Y324016D02*
D03*
X280709Y324016D02*
D03*
X274409Y331496D02*
D03*
X280709Y331497D02*
D03*
X274409Y338976D02*
D03*
X280709Y338977D02*
D03*
X298425Y268504D02*
D03*
X304725Y268505D02*
D03*
X298425Y261024D02*
D03*
X304725Y261024D02*
D03*
X725197Y130315D02*
D03*
X718897Y130314D02*
D03*
X725197Y122835D02*
D03*
X718897Y122834D02*
D03*
X724016Y326772D02*
D03*
X717716Y326771D02*
D03*
X724016Y319291D02*
D03*
X717716Y319291D02*
D03*
X725197Y220866D02*
D03*
X718897Y220866D02*
D03*
X725197Y228346D02*
D03*
X718897Y228346D02*
D03*
D57*
X72047Y305118D02*
D03*
X56299D02*
D03*
X234646Y383465D02*
D03*
X250394D02*
D03*
X179134Y384252D02*
D03*
X194882D02*
D03*
D58*
X110236Y365551D02*
D03*
Y354134D02*
D03*
D59*
X93258Y354429D02*
D03*
X68160D02*
D03*
D60*
X93901Y335846D02*
D03*
Y330847D02*
D03*
Y325847D02*
D03*
Y320847D02*
D03*
X71263Y330847D02*
D03*
Y335846D02*
D03*
Y325847D02*
D03*
Y320847D02*
D03*
D61*
X82582Y328346D02*
D03*
D62*
X612402Y348031D02*
D03*
X608661Y338583D02*
D03*
X604921D02*
D03*
X612402D02*
D03*
X604921Y348031D02*
D03*
D63*
X351181Y362598D02*
D03*
X308661D02*
D03*
D64*
X332678Y322835D02*
D03*
X341340Y319094D02*
D03*
Y326575D02*
D03*
X665748Y181890D02*
D03*
X657087Y185630D02*
D03*
Y178150D02*
D03*
X161417Y205118D02*
D03*
X152756Y208858D02*
D03*
Y201378D02*
D03*
X686287Y310108D02*
D03*
X677625Y313848D02*
D03*
Y306368D02*
D03*
X664961Y98425D02*
D03*
X656299Y94685D02*
D03*
Y102165D02*
D03*
X196063Y205244D02*
D03*
X187402Y201504D02*
D03*
Y208984D02*
D03*
X284646Y194095D02*
D03*
X275984Y190354D02*
D03*
Y197835D02*
D03*
D65*
X520866Y361319D02*
D03*
Y358760D02*
D03*
Y363878D02*
D03*
Y353642D02*
D03*
Y356201D02*
D03*
Y351083D02*
D03*
Y345965D02*
D03*
Y348524D02*
D03*
Y343406D02*
D03*
Y340846D02*
D03*
X498819Y363878D02*
D03*
Y361319D02*
D03*
Y351083D02*
D03*
Y358760D02*
D03*
Y356201D02*
D03*
Y348524D02*
D03*
Y353642D02*
D03*
Y343406D02*
D03*
Y340846D02*
D03*
Y345965D02*
D03*
D66*
X284252Y390945D02*
D03*
X644488Y212598D02*
D03*
X644882Y309449D02*
D03*
Y241339D02*
D03*
Y270079D02*
D03*
D67*
X266142Y335827D02*
D03*
X254331D02*
D03*
X194350Y335689D02*
D03*
X182539D02*
D03*
D68*
X236181Y368898D02*
D03*
Y339764D02*
D03*
X163386Y368898D02*
D03*
Y339764D02*
D03*
D69*
X735472Y111732D02*
D03*
X725472D02*
D03*
X715472D02*
D03*
X705472D02*
D03*
Y45748D02*
D03*
X715472D02*
D03*
X725472D02*
D03*
X735472D02*
D03*
Y210157D02*
D03*
X725472D02*
D03*
X715472D02*
D03*
X705472D02*
D03*
Y144173D02*
D03*
X715472D02*
D03*
X725472D02*
D03*
X735472D02*
D03*
X735471Y308583D02*
D03*
X725471D02*
D03*
X715471D02*
D03*
X705471D02*
D03*
Y242598D02*
D03*
X715471D02*
D03*
X725471D02*
D03*
X735471D02*
D03*
D70*
X256142Y349705D02*
D03*
X261142D02*
D03*
X266142D02*
D03*
X271142D02*
D03*
Y369105D02*
D03*
X266142D02*
D03*
X261142D02*
D03*
X256142D02*
D03*
X183445Y349532D02*
D03*
X188445D02*
D03*
X193445D02*
D03*
X198445D02*
D03*
Y368932D02*
D03*
X193445D02*
D03*
X188445D02*
D03*
X183445D02*
D03*
D71*
X56300Y325197D02*
D03*
X39764Y325197D02*
D03*
D72*
X53307Y409449D02*
D03*
X68898D02*
D03*
X137874D02*
D03*
D73*
X84488D02*
D03*
X153465D02*
D03*
D74*
X405000Y120472D02*
D03*
X576500Y115472D02*
D03*
X465000Y320472D02*
D03*
D75*
X293661Y247209D02*
D03*
X303661D02*
D03*
X253661D02*
D03*
X273661D02*
D03*
X283661D02*
D03*
X263661D02*
D03*
X243661D02*
D03*
X233661D02*
D03*
X223661D02*
D03*
X213661D02*
D03*
X273661Y237209D02*
D03*
X293661D02*
D03*
X283661D02*
D03*
X263661D02*
D03*
X213661D02*
D03*
X223661D02*
D03*
X203661D02*
D03*
X243661D02*
D03*
X253661D02*
D03*
X233661D02*
D03*
X193661Y247209D02*
D03*
X203661D02*
D03*
X183661D02*
D03*
X163661D02*
D03*
X173661D02*
D03*
X153661D02*
D03*
X123661D02*
D03*
X133661D02*
D03*
X113661D02*
D03*
X143661D02*
D03*
X163661Y237209D02*
D03*
X193661D02*
D03*
X183661D02*
D03*
X173661D02*
D03*
X143661D02*
D03*
X153661D02*
D03*
X123661D02*
D03*
X133661D02*
D03*
X113661D02*
D03*
X375000Y310472D02*
D03*
X385000D02*
D03*
X375000Y300472D02*
D03*
X385000D02*
D03*
X375000Y290472D02*
D03*
X385000D02*
D03*
X375000Y280472D02*
D03*
X385000D02*
D03*
X375000Y270472D02*
D03*
X385000D02*
D03*
X375000Y260472D02*
D03*
X385000D02*
D03*
X375000Y250472D02*
D03*
X385000D02*
D03*
X375000Y240472D02*
D03*
X385000D02*
D03*
X375000Y230472D02*
D03*
X385000D02*
D03*
X375000Y220472D02*
D03*
X385000D02*
D03*
X375000Y210472D02*
D03*
X385000D02*
D03*
X375000Y200472D02*
D03*
X385000D02*
D03*
X375000Y190472D02*
D03*
X385000D02*
D03*
X375000Y180472D02*
D03*
X385000D02*
D03*
X375000Y170472D02*
D03*
X385000D02*
D03*
X375000Y160472D02*
D03*
X385000D02*
D03*
X375000Y150472D02*
D03*
X385000D02*
D03*
X375000Y140472D02*
D03*
X385000D02*
D03*
X375000Y130472D02*
D03*
X615000Y310472D02*
D03*
X625000D02*
D03*
X615000Y300472D02*
D03*
X625000D02*
D03*
X615000Y290472D02*
D03*
X625000D02*
D03*
X615000Y280472D02*
D03*
X625000D02*
D03*
X615000Y270472D02*
D03*
X625000D02*
D03*
X615000Y260472D02*
D03*
X625000D02*
D03*
X615000Y250472D02*
D03*
X625000D02*
D03*
X615000Y240472D02*
D03*
X625000D02*
D03*
X615000Y230472D02*
D03*
X625000D02*
D03*
X615000Y220472D02*
D03*
X625000D02*
D03*
X615000Y210472D02*
D03*
X625000D02*
D03*
X615000Y200472D02*
D03*
X625000D02*
D03*
X615000Y190472D02*
D03*
X625000D02*
D03*
X615000Y180472D02*
D03*
X625000D02*
D03*
X615000Y170472D02*
D03*
X625000D02*
D03*
X615000Y160472D02*
D03*
X625000D02*
D03*
X615000Y150472D02*
D03*
X625000D02*
D03*
X615000Y140472D02*
D03*
X625000D02*
D03*
X615000Y130472D02*
D03*
X198819Y413386D02*
D03*
X188976D02*
D03*
X450787D02*
D03*
X460630D02*
D03*
X470472D02*
D03*
X480315D02*
D03*
X523622Y413386D02*
D03*
X533465D02*
D03*
X543307D02*
D03*
X553150D02*
D03*
X596457Y413386D02*
D03*
X606299D02*
D03*
X616142D02*
D03*
X625984D02*
D03*
X377953D02*
D03*
X387795D02*
D03*
X397638D02*
D03*
X407480D02*
D03*
X293307D02*
D03*
X303150D02*
D03*
X332677D02*
D03*
X322835D02*
D03*
X312992D02*
D03*
X246181D02*
D03*
D76*
X303661Y237209D02*
D03*
D77*
X385000Y130472D02*
D03*
X625000D02*
D03*
X208661Y413386D02*
D03*
X490158D02*
D03*
X562992Y413386D02*
D03*
X635827Y413386D02*
D03*
X417323D02*
D03*
X342520D02*
D03*
X256024D02*
D03*
D78*
X322835Y242209D02*
D03*
Y49295D02*
D03*
X94488Y242209D02*
D03*
Y49295D02*
D03*
D79*
X214961Y405512D02*
D03*
X496457D02*
D03*
X569291Y405512D02*
D03*
X642126Y405512D02*
D03*
X423622D02*
D03*
X348819D02*
D03*
X262323D02*
D03*
D80*
X727953Y19685D02*
D03*
X728346Y413386D02*
D03*
X19685Y19685D02*
D03*
Y413386D02*
D03*
D81*
X85338Y332283D02*
D03*
Y328346D02*
D03*
X80220D02*
D03*
Y332283D02*
D03*
X85338Y324409D02*
D03*
X80220D02*
D03*
M02*
