<svg xmlns="http://www.w3.org/2000/svg" viewBox="0 0 24 24"><g id="Layer_2" data-name="Layer 2"><g id="RW_adjust_24"><g id="RW_adjust_24-2" data-name="RW_adjust_24"><rect width="24" height="24" fill="none"/><path fill="white" d="M22,12A10,10,0,1,1,12,2a9.83,9.83,0,0,1,3.65.69L14.07,4.27A9.63,9.63,0,0,0,13,4.06V6H11V4.06A8,8,0,0,0,7.1,5.69L8.46,7.05,7.05,8.46,5.69,7.1A8,8,0,0,0,4.06,11H6v2H4.06a8,8,0,0,0,1.63,3.9l1.36-1.36L8.46,17,7.1,18.31A8,8,0,0,0,11,19.94V18h2v1.94a8,8,0,0,0,3.9-1.63L15.54,17,17,15.54l1.36,1.36A8,8,0,0,0,19.94,13H18V11h1.94a9.63,9.63,0,0,0-.21-1.07l1.58-1.58A9.83,9.83,0,0,1,22,12ZM18.29,4.29l-7,7A1,1,0,0,0,11,12a1,1,0,0,0,1,1,1,1,0,0,0,.71-.29l7-7Z"/></g></g></g></svg>
