<svg xmlns="http://www.w3.org/2000/svg" viewBox="0 0 24 24"><g id="Layer_2" data-name="Layer 2"><g id="RW_alarm-off_24"><g id="RW_alarm-off_24-2" data-name="RW_alarm-off_24"><rect width="24" height="24" fill="none"/><path fill="white" d="M9.1,22H3a1,1,0,0,1,0-2H7Zm3.66-2H11.24L9,22h6l-1.58-1.34ZM21,20H17l-2.1,2H21a1,1,0,0,0,0-2ZM12,2a2,2,0,1,0,2,2A2,2,0,0,0,12,2Zm5.66,5.34a8,8,0,0,0-2.11-1.51,4,4,0,0,1-7.1,0A8,8,0,0,0,4,13v5H5l3-3L4.93,12,9,7.93,12,11l3-3.07L19.07,12,16,15l3,3h1V13A8,8,0,0,0,17.66,7.34Zm-1.42,4.83-1.41-1.41L12,13.59,9.17,10.76,7.76,12.17,10.59,15,7.76,17.83l1.41,1.41L12,16.41l2.83,2.83,1.41-1.41L13.41,15Z"/></g></g></g></svg>
