<svg height='100px' width='100px'  fill="#FFFFFF" xmlns:x="http://ns.adobe.com/Extensibility/1.0/" xmlns:i="http://ns.adobe.com/AdobeIllustrator/10.0/" xmlns:graph="http://ns.adobe.com/Graphs/1.0/" xmlns="http://www.w3.org/2000/svg" xmlns:xlink="http://www.w3.org/1999/xlink" xmlns:a="http://ns.adobe.com/AdobeSVGViewerExtensions/3.0/" version="1.1" x="0px" y="0px" viewBox="0 0 100 100" enable-background="new 0 0 100 100" xml:space="preserve"><path d="M20.796,34l-6.036-5.987c-1.122-1.124-2.938-1.092-4.062,0.028c-1.123,1.12-1.126,2.956-0.007,4.079l6.879,6.468  C18.108,39.128,18.841,39,19.604,39h5.596c-3.985,5-6.601,11-7.569,17H7.872C6.285,56,5,57.413,5,59c0,1.586,1.285,3,2.872,3h9.335  c0.05,5,1.315,10,3.522,14h-2.083c-0.763,0-1.495,0.436-2.034,0.977l-6.878,6.965c-1.12,1.123-1.118,2.975,0.005,4.095  c0.562,0.559,1.294,0.855,2.028,0.855c0.736,0,1.473-0.278,2.033-0.841L19.839,82h4.638C30.127,89,39,93.544,48,94.055V34H20.796z"></path><path d="M92.128,56h-9.961c-1.24-6-4.434-12-8.176-17h6.405c0.763,0,1.495,0.137,2.034-0.404l6.879-6.679  c1.119-1.124,1.116-2.832-0.007-3.952c-1.125-1.121-2.941-1.131-4.062-0.007L79.204,34H52v60.033C61,93.447,69.713,88,75.363,82  h4.798l6.038,6.059c0.561,0.563,1.297,0.847,2.033,0.847c0.734,0,1.467-0.279,2.028-0.837c1.123-1.12,1.125-2.938,0.005-4.061  l-6.878-7.031C82.849,76.436,82.116,76,81.354,76h-2.2c2.234-4,3.517-9,3.567-14h9.407C93.715,62,95,60.586,95,59  C95,57.413,93.715,56,92.128,56z"></path><path d="M31.421,30h37.158c0-7-3.473-12.264-8.687-15.555l3.75-3.673c1.122-1.121,1.122-2.902,0-4.024  c-1.122-1.121-2.939-1.102-4.062,0.02l-5.424,5.434c-1.338-0.306-2.726-0.478-4.157-0.478s-2.819,0.179-4.157,0.485l-5.425-5.423  c-1.122-1.121-2.939-1.121-4.062,0s-1.122,2.941,0,4.063l3.75,3.597C34.894,17.737,31.421,23,31.421,30z"></path></svg>
