G04 #@! TF.GenerationSoftware,KiCad,Pcbnew,(5.1.9-16-g1737927814)-1*
G04 #@! TF.CreationDate,2021-04-01T12:19:28-04:00*
G04 #@! TF.ProjectId,pressure_mpx5700ap_gp,70726573-7375-4726-955f-6d7078353730,1*
G04 #@! TF.SameCoordinates,Original*
G04 #@! TF.FileFunction,Soldermask,Top*
G04 #@! TF.FilePolarity,Negative*
%FSLAX45Y45*%
G04 Gerber Fmt 4.5, Leading zero omitted, Abs format (unit mm)*
G04 Created by KiCad (PCBNEW (5.1.9-16-g1737927814)-1) date 2021-04-01 12:19:28*
%MOMM*%
%LPD*%
G01*
G04 APERTURE LIST*
%ADD10C,1.200000*%
%ADD11R,1.500000X2.100000*%
%ADD12R,2.100000X1.500000*%
%ADD13C,2.100000*%
%ADD14C,5.400000*%
%ADD15C,0.800000*%
G04 APERTURE END LIST*
D10*
X727000Y-1250000D03*
X473000Y-1250000D03*
X219000Y-1250000D03*
D11*
X219000Y-1065000D03*
X727000Y-1065000D03*
X473000Y-1435000D03*
X981000Y-1435000D03*
D10*
X981000Y-1250000D03*
X3775000Y-1377000D03*
X3775000Y-1123000D03*
X3775000Y-869000D03*
D12*
X3960000Y-869000D03*
X3960000Y-1377000D03*
X3590000Y-1123000D03*
X3590000Y-1631000D03*
D10*
X3775000Y-1631000D03*
D13*
X2760000Y-1375000D03*
X2506000Y-1375000D03*
X2252000Y-1375000D03*
X1998000Y-1375000D03*
X1744000Y-1375000D03*
X1490000Y-1375000D03*
D14*
X3775000Y-2125000D03*
D15*
X3977500Y-2125000D03*
X3918189Y-2268189D03*
X3775000Y-2327500D03*
X3631811Y-2268189D03*
X3572500Y-2125000D03*
X3631811Y-1981811D03*
X3775000Y-1922500D03*
X3918189Y-1981811D03*
D14*
X3775000Y-375000D03*
D15*
X3977500Y-375000D03*
X3918189Y-518189D03*
X3775000Y-577500D03*
X3631811Y-518189D03*
X3572500Y-375000D03*
X3631811Y-231811D03*
X3775000Y-172500D03*
X3918189Y-231811D03*
D14*
X350000Y-2025000D03*
D15*
X552500Y-2025000D03*
X493189Y-2168189D03*
X350000Y-2227500D03*
X206811Y-2168189D03*
X147500Y-2025000D03*
X206811Y-1881811D03*
X350000Y-1822500D03*
X493189Y-1881811D03*
D14*
X350000Y-475000D03*
D15*
X552500Y-475000D03*
X493189Y-618189D03*
X350000Y-677500D03*
X206811Y-618189D03*
X147500Y-475000D03*
X206811Y-331811D03*
X350000Y-272500D03*
X493189Y-331811D03*
G36*
G01*
X2575625Y-1815000D02*
X2524375Y-1815000D01*
G75*
G02*
X2502500Y-1793125I0J21875D01*
G01*
X2502500Y-1749375D01*
G75*
G02*
X2524375Y-1727500I21875J0D01*
G01*
X2575625Y-1727500D01*
G75*
G02*
X2597500Y-1749375I0J-21875D01*
G01*
X2597500Y-1793125D01*
G75*
G02*
X2575625Y-1815000I-21875J0D01*
G01*
G37*
G36*
G01*
X2575625Y-1972500D02*
X2524375Y-1972500D01*
G75*
G02*
X2502500Y-1950625I0J21875D01*
G01*
X2502500Y-1906875D01*
G75*
G02*
X2524375Y-1885000I21875J0D01*
G01*
X2575625Y-1885000D01*
G75*
G02*
X2597500Y-1906875I0J-21875D01*
G01*
X2597500Y-1950625D01*
G75*
G02*
X2575625Y-1972500I-21875J0D01*
G01*
G37*
G36*
G01*
X2215000Y-1724375D02*
X2215000Y-1775625D01*
G75*
G02*
X2193125Y-1797500I-21875J0D01*
G01*
X2149375Y-1797500D01*
G75*
G02*
X2127500Y-1775625I0J21875D01*
G01*
X2127500Y-1724375D01*
G75*
G02*
X2149375Y-1702500I21875J0D01*
G01*
X2193125Y-1702500D01*
G75*
G02*
X2215000Y-1724375I0J-21875D01*
G01*
G37*
G36*
G01*
X2372500Y-1724375D02*
X2372500Y-1775625D01*
G75*
G02*
X2350625Y-1797500I-21875J0D01*
G01*
X2306875Y-1797500D01*
G75*
G02*
X2285000Y-1775625I0J21875D01*
G01*
X2285000Y-1724375D01*
G75*
G02*
X2306875Y-1702500I21875J0D01*
G01*
X2350625Y-1702500D01*
G75*
G02*
X2372500Y-1724375I0J-21875D01*
G01*
G37*
G36*
G01*
X2775625Y-1815000D02*
X2724375Y-1815000D01*
G75*
G02*
X2702500Y-1793125I0J21875D01*
G01*
X2702500Y-1749375D01*
G75*
G02*
X2724375Y-1727500I21875J0D01*
G01*
X2775625Y-1727500D01*
G75*
G02*
X2797500Y-1749375I0J-21875D01*
G01*
X2797500Y-1793125D01*
G75*
G02*
X2775625Y-1815000I-21875J0D01*
G01*
G37*
G36*
G01*
X2775625Y-1972500D02*
X2724375Y-1972500D01*
G75*
G02*
X2702500Y-1950625I0J21875D01*
G01*
X2702500Y-1906875D01*
G75*
G02*
X2724375Y-1885000I21875J0D01*
G01*
X2775625Y-1885000D01*
G75*
G02*
X2797500Y-1906875I0J-21875D01*
G01*
X2797500Y-1950625D01*
G75*
G02*
X2775625Y-1972500I-21875J0D01*
G01*
G37*
G36*
G01*
X1975625Y-1815000D02*
X1924375Y-1815000D01*
G75*
G02*
X1902500Y-1793125I0J21875D01*
G01*
X1902500Y-1749375D01*
G75*
G02*
X1924375Y-1727500I21875J0D01*
G01*
X1975625Y-1727500D01*
G75*
G02*
X1997500Y-1749375I0J-21875D01*
G01*
X1997500Y-1793125D01*
G75*
G02*
X1975625Y-1815000I-21875J0D01*
G01*
G37*
G36*
G01*
X1975625Y-1972500D02*
X1924375Y-1972500D01*
G75*
G02*
X1902500Y-1950625I0J21875D01*
G01*
X1902500Y-1906875D01*
G75*
G02*
X1924375Y-1885000I21875J0D01*
G01*
X1975625Y-1885000D01*
G75*
G02*
X1997500Y-1906875I0J-21875D01*
G01*
X1997500Y-1950625D01*
G75*
G02*
X1975625Y-1972500I-21875J0D01*
G01*
G37*
G36*
G01*
X1910000Y-1600625D02*
X1910000Y-1549375D01*
G75*
G02*
X1931875Y-1527500I21875J0D01*
G01*
X1975625Y-1527500D01*
G75*
G02*
X1997500Y-1549375I0J-21875D01*
G01*
X1997500Y-1600625D01*
G75*
G02*
X1975625Y-1622500I-21875J0D01*
G01*
X1931875Y-1622500D01*
G75*
G02*
X1910000Y-1600625I0J21875D01*
G01*
G37*
G36*
G01*
X1752500Y-1600625D02*
X1752500Y-1549375D01*
G75*
G02*
X1774375Y-1527500I21875J0D01*
G01*
X1818125Y-1527500D01*
G75*
G02*
X1840000Y-1549375I0J-21875D01*
G01*
X1840000Y-1600625D01*
G75*
G02*
X1818125Y-1622500I-21875J0D01*
G01*
X1774375Y-1622500D01*
G75*
G02*
X1752500Y-1600625I0J21875D01*
G01*
G37*
M02*
