<svg xmlns="http://www.w3.org/2000/svg" viewBox="0 0 24 24"><g id="Layer_2" data-name="Layer 2"><g id="RW_inspsenssettings_24"><g id="RW_inspsenssettings_24-2" data-name="RW_inspsenssettings_24"><rect width="24" height="24" fill="none"/><path fill="white" d="M10,15.6v5.33A1.11,1.11,0,0,1,8.77,22C5.57,21.75,2,20.49,2,16.74,2,12.49,5.43,4,8.86,4H9v6H6.26l2.08,3.11ZM15.14,4H15v6h2.74l-2.08,3.11L14,15.6v5.33A1.11,1.11,0,0,0,15.23,22c3.19-.25,6.77-1.51,6.77-5.26C22,12.49,18.57,4,15.14,4ZM13,12V2H11V12H10l2,3,2-3Z"/></g></g></g></svg>
