G04 #@! TF.GenerationSoftware,KiCad,Pcbnew,(5.1.9-16-g1737927814)-1*
G04 #@! TF.CreationDate,2021-04-01T12:21:51-04:00*
G04 #@! TF.ProjectId,pressure_ms4525do,70726573-7375-4726-955f-6d7334353235,1*
G04 #@! TF.SameCoordinates,Original*
G04 #@! TF.FileFunction,Copper,L2,Bot*
G04 #@! TF.FilePolarity,Positive*
%FSLAX45Y45*%
G04 Gerber Fmt 4.5, Leading zero omitted, Abs format (unit mm)*
G04 Created by KiCad (PCBNEW (5.1.9-16-g1737927814)-1) date 2021-04-01 12:21:51*
%MOMM*%
%LPD*%
G01*
G04 APERTURE LIST*
G04 #@! TA.AperFunction,ComponentPad*
%ADD10C,1.800000*%
G04 #@! TD*
G04 #@! TA.AperFunction,ComponentPad*
%ADD11C,5.400000*%
G04 #@! TD*
G04 #@! TA.AperFunction,ComponentPad*
%ADD12C,0.800000*%
G04 #@! TD*
G04 #@! TA.AperFunction,ViaPad*
%ADD13C,0.600000*%
G04 #@! TD*
G04 #@! TA.AperFunction,Conductor*
%ADD14C,0.254000*%
G04 #@! TD*
G04 #@! TA.AperFunction,Conductor*
%ADD15C,0.100000*%
G04 #@! TD*
%ADD16C,0.300000*%
%ADD17C,0.350000*%
G04 APERTURE END LIST*
D10*
X2760000Y-169000D03*
X2760000Y-423000D03*
X2760000Y-677000D03*
X2760000Y-931000D03*
X1490000Y-931000D03*
X1490000Y-677000D03*
X1490000Y-423000D03*
X1490000Y-169000D03*
D11*
X3775000Y-2125000D03*
D12*
X3977500Y-2125000D03*
X3918189Y-2268189D03*
X3775000Y-2327500D03*
X3631811Y-2268189D03*
X3572500Y-2125000D03*
X3631811Y-1981811D03*
X3775000Y-1922500D03*
X3918189Y-1981811D03*
D11*
X3775000Y-375000D03*
D12*
X3977500Y-375000D03*
X3918189Y-518189D03*
X3775000Y-577500D03*
X3631811Y-518189D03*
X3572500Y-375000D03*
X3631811Y-231811D03*
X3775000Y-172500D03*
X3918189Y-231811D03*
D11*
X350000Y-2025000D03*
D12*
X552500Y-2025000D03*
X493189Y-2168189D03*
X350000Y-2227500D03*
X206811Y-2168189D03*
X147500Y-2025000D03*
X206811Y-1881811D03*
X350000Y-1822500D03*
X493189Y-1881811D03*
D11*
X350000Y-475000D03*
D12*
X552500Y-475000D03*
X493189Y-618189D03*
X350000Y-677500D03*
X206811Y-618189D03*
X147500Y-475000D03*
X206811Y-331811D03*
X350000Y-272500D03*
X493189Y-331811D03*
D13*
X473000Y-1598000D03*
X981000Y-1594000D03*
X3427000Y-1123000D03*
D14*
X1371997Y-68958D02*
X1383592Y-80553D01*
X1358174Y-88921D01*
X1345084Y-116177D01*
X1337564Y-145464D01*
X1335901Y-175655D01*
X1340160Y-205591D01*
X1350178Y-234120D01*
X1358174Y-249079D01*
X1383592Y-257447D01*
X1472039Y-169000D01*
X1470625Y-167586D01*
X1488586Y-149625D01*
X1490000Y-151040D01*
X1491414Y-149625D01*
X1509375Y-167586D01*
X1507960Y-169000D01*
X1596408Y-257447D01*
X1621826Y-249079D01*
X1634916Y-221822D01*
X1642436Y-192536D01*
X1644099Y-162345D01*
X1639840Y-132409D01*
X1629822Y-103880D01*
X1621826Y-88921D01*
X1596408Y-80553D01*
X1608003Y-68958D01*
X1605045Y-66000D01*
X2645918Y-66000D01*
X2640769Y-71150D01*
X2623970Y-96290D01*
X2612399Y-124226D01*
X2606500Y-153882D01*
X2606500Y-184118D01*
X2612399Y-213774D01*
X2623970Y-241709D01*
X2640769Y-266851D01*
X2662150Y-288231D01*
X2673776Y-296000D01*
X2662150Y-303769D01*
X2640769Y-325150D01*
X2623970Y-350290D01*
X2612399Y-378226D01*
X2606500Y-407882D01*
X2606500Y-438118D01*
X2612399Y-467774D01*
X2623970Y-495709D01*
X2640769Y-520850D01*
X2662150Y-542231D01*
X2673776Y-550000D01*
X2662150Y-557769D01*
X2640769Y-579150D01*
X2623970Y-604291D01*
X2612399Y-632226D01*
X2606500Y-661882D01*
X2606500Y-692118D01*
X2612399Y-721774D01*
X2623970Y-749709D01*
X2640769Y-774850D01*
X2662150Y-796231D01*
X2673776Y-804000D01*
X2662150Y-811769D01*
X2640769Y-833149D01*
X2623970Y-858290D01*
X2612399Y-886226D01*
X2606500Y-915882D01*
X2606500Y-946118D01*
X2612399Y-975774D01*
X2623970Y-1003709D01*
X2640769Y-1028850D01*
X2662150Y-1050231D01*
X2687291Y-1067030D01*
X2715226Y-1078601D01*
X2744882Y-1084500D01*
X2775118Y-1084500D01*
X2804774Y-1078601D01*
X2832709Y-1067030D01*
X2857850Y-1050231D01*
X2879231Y-1028850D01*
X2896030Y-1003709D01*
X2907601Y-975774D01*
X2913500Y-946118D01*
X2913500Y-915882D01*
X2907601Y-886226D01*
X2896030Y-858290D01*
X2895058Y-856836D01*
X3651500Y-856836D01*
X3651500Y-881164D01*
X3656246Y-905024D01*
X3665556Y-927499D01*
X3679071Y-947727D01*
X3696273Y-964929D01*
X3716501Y-978444D01*
X3738976Y-987754D01*
X3762836Y-992500D01*
X3787164Y-992500D01*
X3811024Y-987754D01*
X3833499Y-978444D01*
X3853727Y-964929D01*
X3870929Y-947727D01*
X3884444Y-927499D01*
X3893754Y-905024D01*
X3898500Y-881164D01*
X3898500Y-856836D01*
X3893754Y-832976D01*
X3884444Y-810501D01*
X3870929Y-790273D01*
X3853727Y-773071D01*
X3833499Y-759556D01*
X3811024Y-750246D01*
X3787164Y-745500D01*
X3762836Y-745500D01*
X3738976Y-750246D01*
X3716501Y-759556D01*
X3696273Y-773071D01*
X3679071Y-790273D01*
X3665556Y-810501D01*
X3656246Y-832976D01*
X3651500Y-856836D01*
X2895058Y-856836D01*
X2879231Y-833149D01*
X2857850Y-811769D01*
X2846224Y-804000D01*
X2857850Y-796231D01*
X2879231Y-774850D01*
X2896030Y-749709D01*
X2907601Y-721774D01*
X2913500Y-692118D01*
X2913500Y-661882D01*
X2907601Y-632226D01*
X2896030Y-604291D01*
X2879231Y-579150D01*
X2857850Y-557769D01*
X2846224Y-550000D01*
X2857850Y-542231D01*
X2879231Y-520850D01*
X2896030Y-495709D01*
X2907601Y-467774D01*
X2913500Y-438118D01*
X2913500Y-407882D01*
X2907601Y-378226D01*
X2896030Y-350290D01*
X2879231Y-325150D01*
X2857850Y-303769D01*
X2846224Y-296000D01*
X2857850Y-288231D01*
X2879231Y-266851D01*
X2896030Y-241709D01*
X2907601Y-213774D01*
X2913500Y-184118D01*
X2913500Y-153882D01*
X2907601Y-124226D01*
X2896030Y-96290D01*
X2879231Y-71150D01*
X2874082Y-66000D01*
X3649514Y-66000D01*
X3617028Y-79456D01*
X3562406Y-115954D01*
X3515954Y-162406D01*
X3479456Y-217028D01*
X3454316Y-277722D01*
X3441500Y-342153D01*
X3441500Y-407847D01*
X3454316Y-472278D01*
X3479456Y-532972D01*
X3515954Y-587594D01*
X3562406Y-634046D01*
X3617028Y-670544D01*
X3677722Y-695684D01*
X3742153Y-708500D01*
X3807847Y-708500D01*
X3872278Y-695684D01*
X3932971Y-670544D01*
X3987594Y-634046D01*
X4034046Y-587594D01*
X4070544Y-532972D01*
X4095684Y-472278D01*
X4108500Y-407847D01*
X4108500Y-342153D01*
X4095684Y-277722D01*
X4070544Y-217028D01*
X4034046Y-162406D01*
X3987594Y-115954D01*
X3932971Y-79456D01*
X3900486Y-66000D01*
X4134000Y-66000D01*
X4134000Y-2434000D01*
X3900486Y-2434000D01*
X3932971Y-2420544D01*
X3987594Y-2384046D01*
X4034046Y-2337594D01*
X4070544Y-2282972D01*
X4095684Y-2222278D01*
X4108500Y-2157847D01*
X4108500Y-2092153D01*
X4095684Y-2027722D01*
X4070544Y-1967028D01*
X4034046Y-1912406D01*
X3987594Y-1865954D01*
X3932971Y-1829456D01*
X3872278Y-1804316D01*
X3807847Y-1791500D01*
X3742153Y-1791500D01*
X3677722Y-1804316D01*
X3617028Y-1829456D01*
X3562406Y-1865954D01*
X3515954Y-1912406D01*
X3479456Y-1967028D01*
X3454316Y-2027722D01*
X3441500Y-2092153D01*
X3441500Y-2157847D01*
X3454316Y-2222278D01*
X3479456Y-2282972D01*
X3515954Y-2337594D01*
X3562406Y-2384046D01*
X3617028Y-2420544D01*
X3649514Y-2434000D01*
X66000Y-2434000D01*
X66000Y-2200248D01*
X90954Y-2237594D01*
X137406Y-2284046D01*
X192028Y-2320544D01*
X252722Y-2345684D01*
X317153Y-2358500D01*
X382847Y-2358500D01*
X447278Y-2345684D01*
X507971Y-2320544D01*
X562594Y-2284046D01*
X609046Y-2237594D01*
X645544Y-2182972D01*
X670684Y-2122278D01*
X683500Y-2057847D01*
X683500Y-1992153D01*
X670684Y-1927722D01*
X645544Y-1867028D01*
X609046Y-1812406D01*
X562594Y-1765954D01*
X507971Y-1729456D01*
X447278Y-1704316D01*
X382847Y-1691500D01*
X317153Y-1691500D01*
X252722Y-1704316D01*
X192028Y-1729456D01*
X137406Y-1765954D01*
X90954Y-1812406D01*
X66000Y-1849752D01*
X66000Y-1618836D01*
X3651500Y-1618836D01*
X3651500Y-1643164D01*
X3656246Y-1667024D01*
X3665556Y-1689499D01*
X3679071Y-1709727D01*
X3696273Y-1726929D01*
X3716501Y-1740444D01*
X3738976Y-1749754D01*
X3762836Y-1754500D01*
X3787164Y-1754500D01*
X3811024Y-1749754D01*
X3833499Y-1740444D01*
X3853727Y-1726929D01*
X3870929Y-1709727D01*
X3884444Y-1689499D01*
X3893754Y-1667024D01*
X3898500Y-1643164D01*
X3898500Y-1618836D01*
X3893754Y-1594976D01*
X3884444Y-1572501D01*
X3870929Y-1552273D01*
X3853727Y-1535071D01*
X3833499Y-1521556D01*
X3811024Y-1512246D01*
X3787164Y-1507500D01*
X3762836Y-1507500D01*
X3738976Y-1512246D01*
X3716501Y-1521556D01*
X3696273Y-1535071D01*
X3679071Y-1552273D01*
X3665556Y-1572501D01*
X3656246Y-1594976D01*
X3651500Y-1618836D01*
X66000Y-1618836D01*
X66000Y-1237836D01*
X95500Y-1237836D01*
X95500Y-1262164D01*
X100246Y-1286024D01*
X109556Y-1308499D01*
X123071Y-1328727D01*
X140273Y-1345929D01*
X160501Y-1359444D01*
X182976Y-1368754D01*
X206836Y-1373500D01*
X231164Y-1373500D01*
X255024Y-1368754D01*
X277499Y-1359444D01*
X297727Y-1345929D01*
X314929Y-1328727D01*
X328444Y-1308499D01*
X337754Y-1286024D01*
X342500Y-1262164D01*
X342500Y-1237836D01*
X349500Y-1237836D01*
X349500Y-1262164D01*
X354246Y-1286024D01*
X363556Y-1308499D01*
X377071Y-1328727D01*
X394273Y-1345929D01*
X414501Y-1359444D01*
X436976Y-1368754D01*
X460836Y-1373500D01*
X485164Y-1373500D01*
X509024Y-1368754D01*
X531499Y-1359444D01*
X551727Y-1345929D01*
X568929Y-1328727D01*
X582444Y-1308499D01*
X591754Y-1286024D01*
X596500Y-1262164D01*
X596500Y-1237836D01*
X603500Y-1237836D01*
X603500Y-1262164D01*
X608246Y-1286024D01*
X617556Y-1308499D01*
X631071Y-1328727D01*
X648273Y-1345929D01*
X668501Y-1359444D01*
X690976Y-1368754D01*
X714836Y-1373500D01*
X739164Y-1373500D01*
X763024Y-1368754D01*
X785499Y-1359444D01*
X805727Y-1345929D01*
X822929Y-1328727D01*
X836444Y-1308499D01*
X845754Y-1286024D01*
X850500Y-1262164D01*
X850500Y-1237836D01*
X857500Y-1237836D01*
X857500Y-1262164D01*
X862246Y-1286024D01*
X871556Y-1308499D01*
X885071Y-1328727D01*
X902273Y-1345929D01*
X922501Y-1359444D01*
X944976Y-1368754D01*
X968836Y-1373500D01*
X993164Y-1373500D01*
X1017024Y-1368754D01*
X1026482Y-1364836D01*
X3651500Y-1364836D01*
X3651500Y-1389164D01*
X3656246Y-1413024D01*
X3665556Y-1435499D01*
X3679071Y-1455727D01*
X3696273Y-1472929D01*
X3716501Y-1486444D01*
X3738976Y-1495754D01*
X3762836Y-1500500D01*
X3787164Y-1500500D01*
X3811024Y-1495754D01*
X3833499Y-1486444D01*
X3853727Y-1472929D01*
X3870929Y-1455727D01*
X3884444Y-1435499D01*
X3893754Y-1413024D01*
X3898500Y-1389164D01*
X3898500Y-1364836D01*
X3893754Y-1340976D01*
X3884444Y-1318501D01*
X3870929Y-1298273D01*
X3853727Y-1281071D01*
X3833499Y-1267556D01*
X3811024Y-1258246D01*
X3787164Y-1253500D01*
X3762836Y-1253500D01*
X3738976Y-1258246D01*
X3716501Y-1267556D01*
X3696273Y-1281071D01*
X3679071Y-1298273D01*
X3665556Y-1318501D01*
X3656246Y-1340976D01*
X3651500Y-1364836D01*
X1026482Y-1364836D01*
X1039499Y-1359444D01*
X1059727Y-1345929D01*
X1076929Y-1328727D01*
X1090444Y-1308499D01*
X1099754Y-1286024D01*
X1104500Y-1262164D01*
X1104500Y-1237836D01*
X1099754Y-1213976D01*
X1090444Y-1191501D01*
X1076929Y-1171273D01*
X1059727Y-1154071D01*
X1039499Y-1140556D01*
X1017024Y-1131246D01*
X993164Y-1126500D01*
X968836Y-1126500D01*
X944976Y-1131246D01*
X922501Y-1140556D01*
X902273Y-1154071D01*
X885071Y-1171273D01*
X871556Y-1191501D01*
X862246Y-1213976D01*
X857500Y-1237836D01*
X850500Y-1237836D01*
X845754Y-1213976D01*
X836444Y-1191501D01*
X822929Y-1171273D01*
X805727Y-1154071D01*
X785499Y-1140556D01*
X763024Y-1131246D01*
X739164Y-1126500D01*
X714836Y-1126500D01*
X690976Y-1131246D01*
X668501Y-1140556D01*
X648273Y-1154071D01*
X631071Y-1171273D01*
X617556Y-1191501D01*
X608246Y-1213976D01*
X603500Y-1237836D01*
X596500Y-1237836D01*
X591754Y-1213976D01*
X582444Y-1191501D01*
X568929Y-1171273D01*
X551727Y-1154071D01*
X531499Y-1140556D01*
X509024Y-1131246D01*
X485164Y-1126500D01*
X460836Y-1126500D01*
X436976Y-1131246D01*
X414501Y-1140556D01*
X394273Y-1154071D01*
X377071Y-1171273D01*
X363556Y-1191501D01*
X354246Y-1213976D01*
X349500Y-1237836D01*
X342500Y-1237836D01*
X337754Y-1213976D01*
X328444Y-1191501D01*
X314929Y-1171273D01*
X297727Y-1154071D01*
X277499Y-1140556D01*
X255024Y-1131246D01*
X231164Y-1126500D01*
X206836Y-1126500D01*
X182976Y-1131246D01*
X160501Y-1140556D01*
X140273Y-1154071D01*
X123071Y-1171273D01*
X109556Y-1191501D01*
X100246Y-1213976D01*
X95500Y-1237836D01*
X66000Y-1237836D01*
X66000Y-1110836D01*
X3651500Y-1110836D01*
X3651500Y-1135164D01*
X3656246Y-1159024D01*
X3665556Y-1181499D01*
X3679071Y-1201727D01*
X3696273Y-1218929D01*
X3716501Y-1232444D01*
X3738976Y-1241754D01*
X3762836Y-1246500D01*
X3787164Y-1246500D01*
X3811024Y-1241754D01*
X3833499Y-1232444D01*
X3853727Y-1218929D01*
X3870929Y-1201727D01*
X3884444Y-1181499D01*
X3893754Y-1159024D01*
X3898500Y-1135164D01*
X3898500Y-1110836D01*
X3893754Y-1086976D01*
X3884444Y-1064501D01*
X3870929Y-1044273D01*
X3853727Y-1027071D01*
X3833499Y-1013556D01*
X3811024Y-1004246D01*
X3787164Y-999500D01*
X3762836Y-999500D01*
X3738976Y-1004246D01*
X3716501Y-1013556D01*
X3696273Y-1027071D01*
X3679071Y-1044273D01*
X3665556Y-1064501D01*
X3656246Y-1086976D01*
X3651500Y-1110836D01*
X66000Y-1110836D01*
X66000Y-650248D01*
X90954Y-687594D01*
X137406Y-734046D01*
X192028Y-770544D01*
X252722Y-795684D01*
X317153Y-808500D01*
X382847Y-808500D01*
X447278Y-795684D01*
X507971Y-770544D01*
X562594Y-734046D01*
X609046Y-687594D01*
X645544Y-632972D01*
X670684Y-572278D01*
X683500Y-507847D01*
X683500Y-442153D01*
X676683Y-407882D01*
X1336500Y-407882D01*
X1336500Y-438118D01*
X1342399Y-467774D01*
X1353970Y-495709D01*
X1370769Y-520850D01*
X1392150Y-542231D01*
X1403776Y-550000D01*
X1392150Y-557769D01*
X1370769Y-579150D01*
X1353970Y-604291D01*
X1342399Y-632226D01*
X1336500Y-661882D01*
X1336500Y-692118D01*
X1342399Y-721774D01*
X1353970Y-749709D01*
X1370769Y-774850D01*
X1392150Y-796231D01*
X1403776Y-804000D01*
X1392150Y-811769D01*
X1370769Y-833149D01*
X1353970Y-858290D01*
X1342399Y-886226D01*
X1336500Y-915882D01*
X1336500Y-946118D01*
X1342399Y-975774D01*
X1353970Y-1003709D01*
X1370769Y-1028850D01*
X1392150Y-1050231D01*
X1417290Y-1067030D01*
X1445226Y-1078601D01*
X1474882Y-1084500D01*
X1505118Y-1084500D01*
X1534774Y-1078601D01*
X1562709Y-1067030D01*
X1587850Y-1050231D01*
X1609231Y-1028850D01*
X1626030Y-1003709D01*
X1637601Y-975774D01*
X1643500Y-946118D01*
X1643500Y-915882D01*
X1637601Y-886226D01*
X1626030Y-858290D01*
X1609231Y-833149D01*
X1587850Y-811769D01*
X1576224Y-804000D01*
X1587850Y-796231D01*
X1609231Y-774850D01*
X1626030Y-749709D01*
X1637601Y-721774D01*
X1643500Y-692118D01*
X1643500Y-661882D01*
X1637601Y-632226D01*
X1626030Y-604291D01*
X1609231Y-579150D01*
X1587850Y-557769D01*
X1576224Y-550000D01*
X1587850Y-542231D01*
X1609231Y-520850D01*
X1626030Y-495709D01*
X1637601Y-467774D01*
X1643500Y-438118D01*
X1643500Y-407882D01*
X1637601Y-378226D01*
X1626030Y-350290D01*
X1609231Y-325150D01*
X1587850Y-303769D01*
X1572489Y-293505D01*
X1578447Y-275408D01*
X1490000Y-186960D01*
X1401552Y-275408D01*
X1407510Y-293505D01*
X1392150Y-303769D01*
X1370769Y-325150D01*
X1353970Y-350290D01*
X1342399Y-378226D01*
X1336500Y-407882D01*
X676683Y-407882D01*
X670684Y-377722D01*
X645544Y-317029D01*
X609046Y-262406D01*
X562594Y-215954D01*
X507971Y-179456D01*
X447278Y-154316D01*
X382847Y-141500D01*
X317153Y-141500D01*
X252722Y-154316D01*
X192028Y-179456D01*
X137406Y-215954D01*
X90954Y-262406D01*
X66000Y-299752D01*
X66000Y-66000D01*
X1374955Y-66000D01*
X1371997Y-68958D01*
G04 #@! TA.AperFunction,Conductor*
D15*
G36*
X1371997Y-68958D02*
G01*
X1383592Y-80553D01*
X1358174Y-88921D01*
X1345084Y-116177D01*
X1337564Y-145464D01*
X1335901Y-175655D01*
X1340160Y-205591D01*
X1350178Y-234120D01*
X1358174Y-249079D01*
X1383592Y-257447D01*
X1472039Y-169000D01*
X1470625Y-167586D01*
X1488586Y-149625D01*
X1490000Y-151040D01*
X1491414Y-149625D01*
X1509375Y-167586D01*
X1507960Y-169000D01*
X1596408Y-257447D01*
X1621826Y-249079D01*
X1634916Y-221822D01*
X1642436Y-192536D01*
X1644099Y-162345D01*
X1639840Y-132409D01*
X1629822Y-103880D01*
X1621826Y-88921D01*
X1596408Y-80553D01*
X1608003Y-68958D01*
X1605045Y-66000D01*
X2645918Y-66000D01*
X2640769Y-71150D01*
X2623970Y-96290D01*
X2612399Y-124226D01*
X2606500Y-153882D01*
X2606500Y-184118D01*
X2612399Y-213774D01*
X2623970Y-241709D01*
X2640769Y-266851D01*
X2662150Y-288231D01*
X2673776Y-296000D01*
X2662150Y-303769D01*
X2640769Y-325150D01*
X2623970Y-350290D01*
X2612399Y-378226D01*
X2606500Y-407882D01*
X2606500Y-438118D01*
X2612399Y-467774D01*
X2623970Y-495709D01*
X2640769Y-520850D01*
X2662150Y-542231D01*
X2673776Y-550000D01*
X2662150Y-557769D01*
X2640769Y-579150D01*
X2623970Y-604291D01*
X2612399Y-632226D01*
X2606500Y-661882D01*
X2606500Y-692118D01*
X2612399Y-721774D01*
X2623970Y-749709D01*
X2640769Y-774850D01*
X2662150Y-796231D01*
X2673776Y-804000D01*
X2662150Y-811769D01*
X2640769Y-833149D01*
X2623970Y-858290D01*
X2612399Y-886226D01*
X2606500Y-915882D01*
X2606500Y-946118D01*
X2612399Y-975774D01*
X2623970Y-1003709D01*
X2640769Y-1028850D01*
X2662150Y-1050231D01*
X2687291Y-1067030D01*
X2715226Y-1078601D01*
X2744882Y-1084500D01*
X2775118Y-1084500D01*
X2804774Y-1078601D01*
X2832709Y-1067030D01*
X2857850Y-1050231D01*
X2879231Y-1028850D01*
X2896030Y-1003709D01*
X2907601Y-975774D01*
X2913500Y-946118D01*
X2913500Y-915882D01*
X2907601Y-886226D01*
X2896030Y-858290D01*
X2895058Y-856836D01*
X3651500Y-856836D01*
X3651500Y-881164D01*
X3656246Y-905024D01*
X3665556Y-927499D01*
X3679071Y-947727D01*
X3696273Y-964929D01*
X3716501Y-978444D01*
X3738976Y-987754D01*
X3762836Y-992500D01*
X3787164Y-992500D01*
X3811024Y-987754D01*
X3833499Y-978444D01*
X3853727Y-964929D01*
X3870929Y-947727D01*
X3884444Y-927499D01*
X3893754Y-905024D01*
X3898500Y-881164D01*
X3898500Y-856836D01*
X3893754Y-832976D01*
X3884444Y-810501D01*
X3870929Y-790273D01*
X3853727Y-773071D01*
X3833499Y-759556D01*
X3811024Y-750246D01*
X3787164Y-745500D01*
X3762836Y-745500D01*
X3738976Y-750246D01*
X3716501Y-759556D01*
X3696273Y-773071D01*
X3679071Y-790273D01*
X3665556Y-810501D01*
X3656246Y-832976D01*
X3651500Y-856836D01*
X2895058Y-856836D01*
X2879231Y-833149D01*
X2857850Y-811769D01*
X2846224Y-804000D01*
X2857850Y-796231D01*
X2879231Y-774850D01*
X2896030Y-749709D01*
X2907601Y-721774D01*
X2913500Y-692118D01*
X2913500Y-661882D01*
X2907601Y-632226D01*
X2896030Y-604291D01*
X2879231Y-579150D01*
X2857850Y-557769D01*
X2846224Y-550000D01*
X2857850Y-542231D01*
X2879231Y-520850D01*
X2896030Y-495709D01*
X2907601Y-467774D01*
X2913500Y-438118D01*
X2913500Y-407882D01*
X2907601Y-378226D01*
X2896030Y-350290D01*
X2879231Y-325150D01*
X2857850Y-303769D01*
X2846224Y-296000D01*
X2857850Y-288231D01*
X2879231Y-266851D01*
X2896030Y-241709D01*
X2907601Y-213774D01*
X2913500Y-184118D01*
X2913500Y-153882D01*
X2907601Y-124226D01*
X2896030Y-96290D01*
X2879231Y-71150D01*
X2874082Y-66000D01*
X3649514Y-66000D01*
X3617028Y-79456D01*
X3562406Y-115954D01*
X3515954Y-162406D01*
X3479456Y-217028D01*
X3454316Y-277722D01*
X3441500Y-342153D01*
X3441500Y-407847D01*
X3454316Y-472278D01*
X3479456Y-532972D01*
X3515954Y-587594D01*
X3562406Y-634046D01*
X3617028Y-670544D01*
X3677722Y-695684D01*
X3742153Y-708500D01*
X3807847Y-708500D01*
X3872278Y-695684D01*
X3932971Y-670544D01*
X3987594Y-634046D01*
X4034046Y-587594D01*
X4070544Y-532972D01*
X4095684Y-472278D01*
X4108500Y-407847D01*
X4108500Y-342153D01*
X4095684Y-277722D01*
X4070544Y-217028D01*
X4034046Y-162406D01*
X3987594Y-115954D01*
X3932971Y-79456D01*
X3900486Y-66000D01*
X4134000Y-66000D01*
X4134000Y-2434000D01*
X3900486Y-2434000D01*
X3932971Y-2420544D01*
X3987594Y-2384046D01*
X4034046Y-2337594D01*
X4070544Y-2282972D01*
X4095684Y-2222278D01*
X4108500Y-2157847D01*
X4108500Y-2092153D01*
X4095684Y-2027722D01*
X4070544Y-1967028D01*
X4034046Y-1912406D01*
X3987594Y-1865954D01*
X3932971Y-1829456D01*
X3872278Y-1804316D01*
X3807847Y-1791500D01*
X3742153Y-1791500D01*
X3677722Y-1804316D01*
X3617028Y-1829456D01*
X3562406Y-1865954D01*
X3515954Y-1912406D01*
X3479456Y-1967028D01*
X3454316Y-2027722D01*
X3441500Y-2092153D01*
X3441500Y-2157847D01*
X3454316Y-2222278D01*
X3479456Y-2282972D01*
X3515954Y-2337594D01*
X3562406Y-2384046D01*
X3617028Y-2420544D01*
X3649514Y-2434000D01*
X66000Y-2434000D01*
X66000Y-2200248D01*
X90954Y-2237594D01*
X137406Y-2284046D01*
X192028Y-2320544D01*
X252722Y-2345684D01*
X317153Y-2358500D01*
X382847Y-2358500D01*
X447278Y-2345684D01*
X507971Y-2320544D01*
X562594Y-2284046D01*
X609046Y-2237594D01*
X645544Y-2182972D01*
X670684Y-2122278D01*
X683500Y-2057847D01*
X683500Y-1992153D01*
X670684Y-1927722D01*
X645544Y-1867028D01*
X609046Y-1812406D01*
X562594Y-1765954D01*
X507971Y-1729456D01*
X447278Y-1704316D01*
X382847Y-1691500D01*
X317153Y-1691500D01*
X252722Y-1704316D01*
X192028Y-1729456D01*
X137406Y-1765954D01*
X90954Y-1812406D01*
X66000Y-1849752D01*
X66000Y-1618836D01*
X3651500Y-1618836D01*
X3651500Y-1643164D01*
X3656246Y-1667024D01*
X3665556Y-1689499D01*
X3679071Y-1709727D01*
X3696273Y-1726929D01*
X3716501Y-1740444D01*
X3738976Y-1749754D01*
X3762836Y-1754500D01*
X3787164Y-1754500D01*
X3811024Y-1749754D01*
X3833499Y-1740444D01*
X3853727Y-1726929D01*
X3870929Y-1709727D01*
X3884444Y-1689499D01*
X3893754Y-1667024D01*
X3898500Y-1643164D01*
X3898500Y-1618836D01*
X3893754Y-1594976D01*
X3884444Y-1572501D01*
X3870929Y-1552273D01*
X3853727Y-1535071D01*
X3833499Y-1521556D01*
X3811024Y-1512246D01*
X3787164Y-1507500D01*
X3762836Y-1507500D01*
X3738976Y-1512246D01*
X3716501Y-1521556D01*
X3696273Y-1535071D01*
X3679071Y-1552273D01*
X3665556Y-1572501D01*
X3656246Y-1594976D01*
X3651500Y-1618836D01*
X66000Y-1618836D01*
X66000Y-1237836D01*
X95500Y-1237836D01*
X95500Y-1262164D01*
X100246Y-1286024D01*
X109556Y-1308499D01*
X123071Y-1328727D01*
X140273Y-1345929D01*
X160501Y-1359444D01*
X182976Y-1368754D01*
X206836Y-1373500D01*
X231164Y-1373500D01*
X255024Y-1368754D01*
X277499Y-1359444D01*
X297727Y-1345929D01*
X314929Y-1328727D01*
X328444Y-1308499D01*
X337754Y-1286024D01*
X342500Y-1262164D01*
X342500Y-1237836D01*
X349500Y-1237836D01*
X349500Y-1262164D01*
X354246Y-1286024D01*
X363556Y-1308499D01*
X377071Y-1328727D01*
X394273Y-1345929D01*
X414501Y-1359444D01*
X436976Y-1368754D01*
X460836Y-1373500D01*
X485164Y-1373500D01*
X509024Y-1368754D01*
X531499Y-1359444D01*
X551727Y-1345929D01*
X568929Y-1328727D01*
X582444Y-1308499D01*
X591754Y-1286024D01*
X596500Y-1262164D01*
X596500Y-1237836D01*
X603500Y-1237836D01*
X603500Y-1262164D01*
X608246Y-1286024D01*
X617556Y-1308499D01*
X631071Y-1328727D01*
X648273Y-1345929D01*
X668501Y-1359444D01*
X690976Y-1368754D01*
X714836Y-1373500D01*
X739164Y-1373500D01*
X763024Y-1368754D01*
X785499Y-1359444D01*
X805727Y-1345929D01*
X822929Y-1328727D01*
X836444Y-1308499D01*
X845754Y-1286024D01*
X850500Y-1262164D01*
X850500Y-1237836D01*
X857500Y-1237836D01*
X857500Y-1262164D01*
X862246Y-1286024D01*
X871556Y-1308499D01*
X885071Y-1328727D01*
X902273Y-1345929D01*
X922501Y-1359444D01*
X944976Y-1368754D01*
X968836Y-1373500D01*
X993164Y-1373500D01*
X1017024Y-1368754D01*
X1026482Y-1364836D01*
X3651500Y-1364836D01*
X3651500Y-1389164D01*
X3656246Y-1413024D01*
X3665556Y-1435499D01*
X3679071Y-1455727D01*
X3696273Y-1472929D01*
X3716501Y-1486444D01*
X3738976Y-1495754D01*
X3762836Y-1500500D01*
X3787164Y-1500500D01*
X3811024Y-1495754D01*
X3833499Y-1486444D01*
X3853727Y-1472929D01*
X3870929Y-1455727D01*
X3884444Y-1435499D01*
X3893754Y-1413024D01*
X3898500Y-1389164D01*
X3898500Y-1364836D01*
X3893754Y-1340976D01*
X3884444Y-1318501D01*
X3870929Y-1298273D01*
X3853727Y-1281071D01*
X3833499Y-1267556D01*
X3811024Y-1258246D01*
X3787164Y-1253500D01*
X3762836Y-1253500D01*
X3738976Y-1258246D01*
X3716501Y-1267556D01*
X3696273Y-1281071D01*
X3679071Y-1298273D01*
X3665556Y-1318501D01*
X3656246Y-1340976D01*
X3651500Y-1364836D01*
X1026482Y-1364836D01*
X1039499Y-1359444D01*
X1059727Y-1345929D01*
X1076929Y-1328727D01*
X1090444Y-1308499D01*
X1099754Y-1286024D01*
X1104500Y-1262164D01*
X1104500Y-1237836D01*
X1099754Y-1213976D01*
X1090444Y-1191501D01*
X1076929Y-1171273D01*
X1059727Y-1154071D01*
X1039499Y-1140556D01*
X1017024Y-1131246D01*
X993164Y-1126500D01*
X968836Y-1126500D01*
X944976Y-1131246D01*
X922501Y-1140556D01*
X902273Y-1154071D01*
X885071Y-1171273D01*
X871556Y-1191501D01*
X862246Y-1213976D01*
X857500Y-1237836D01*
X850500Y-1237836D01*
X845754Y-1213976D01*
X836444Y-1191501D01*
X822929Y-1171273D01*
X805727Y-1154071D01*
X785499Y-1140556D01*
X763024Y-1131246D01*
X739164Y-1126500D01*
X714836Y-1126500D01*
X690976Y-1131246D01*
X668501Y-1140556D01*
X648273Y-1154071D01*
X631071Y-1171273D01*
X617556Y-1191501D01*
X608246Y-1213976D01*
X603500Y-1237836D01*
X596500Y-1237836D01*
X591754Y-1213976D01*
X582444Y-1191501D01*
X568929Y-1171273D01*
X551727Y-1154071D01*
X531499Y-1140556D01*
X509024Y-1131246D01*
X485164Y-1126500D01*
X460836Y-1126500D01*
X436976Y-1131246D01*
X414501Y-1140556D01*
X394273Y-1154071D01*
X377071Y-1171273D01*
X363556Y-1191501D01*
X354246Y-1213976D01*
X349500Y-1237836D01*
X342500Y-1237836D01*
X337754Y-1213976D01*
X328444Y-1191501D01*
X314929Y-1171273D01*
X297727Y-1154071D01*
X277499Y-1140556D01*
X255024Y-1131246D01*
X231164Y-1126500D01*
X206836Y-1126500D01*
X182976Y-1131246D01*
X160501Y-1140556D01*
X140273Y-1154071D01*
X123071Y-1171273D01*
X109556Y-1191501D01*
X100246Y-1213976D01*
X95500Y-1237836D01*
X66000Y-1237836D01*
X66000Y-1110836D01*
X3651500Y-1110836D01*
X3651500Y-1135164D01*
X3656246Y-1159024D01*
X3665556Y-1181499D01*
X3679071Y-1201727D01*
X3696273Y-1218929D01*
X3716501Y-1232444D01*
X3738976Y-1241754D01*
X3762836Y-1246500D01*
X3787164Y-1246500D01*
X3811024Y-1241754D01*
X3833499Y-1232444D01*
X3853727Y-1218929D01*
X3870929Y-1201727D01*
X3884444Y-1181499D01*
X3893754Y-1159024D01*
X3898500Y-1135164D01*
X3898500Y-1110836D01*
X3893754Y-1086976D01*
X3884444Y-1064501D01*
X3870929Y-1044273D01*
X3853727Y-1027071D01*
X3833499Y-1013556D01*
X3811024Y-1004246D01*
X3787164Y-999500D01*
X3762836Y-999500D01*
X3738976Y-1004246D01*
X3716501Y-1013556D01*
X3696273Y-1027071D01*
X3679071Y-1044273D01*
X3665556Y-1064501D01*
X3656246Y-1086976D01*
X3651500Y-1110836D01*
X66000Y-1110836D01*
X66000Y-650248D01*
X90954Y-687594D01*
X137406Y-734046D01*
X192028Y-770544D01*
X252722Y-795684D01*
X317153Y-808500D01*
X382847Y-808500D01*
X447278Y-795684D01*
X507971Y-770544D01*
X562594Y-734046D01*
X609046Y-687594D01*
X645544Y-632972D01*
X670684Y-572278D01*
X683500Y-507847D01*
X683500Y-442153D01*
X676683Y-407882D01*
X1336500Y-407882D01*
X1336500Y-438118D01*
X1342399Y-467774D01*
X1353970Y-495709D01*
X1370769Y-520850D01*
X1392150Y-542231D01*
X1403776Y-550000D01*
X1392150Y-557769D01*
X1370769Y-579150D01*
X1353970Y-604291D01*
X1342399Y-632226D01*
X1336500Y-661882D01*
X1336500Y-692118D01*
X1342399Y-721774D01*
X1353970Y-749709D01*
X1370769Y-774850D01*
X1392150Y-796231D01*
X1403776Y-804000D01*
X1392150Y-811769D01*
X1370769Y-833149D01*
X1353970Y-858290D01*
X1342399Y-886226D01*
X1336500Y-915882D01*
X1336500Y-946118D01*
X1342399Y-975774D01*
X1353970Y-1003709D01*
X1370769Y-1028850D01*
X1392150Y-1050231D01*
X1417290Y-1067030D01*
X1445226Y-1078601D01*
X1474882Y-1084500D01*
X1505118Y-1084500D01*
X1534774Y-1078601D01*
X1562709Y-1067030D01*
X1587850Y-1050231D01*
X1609231Y-1028850D01*
X1626030Y-1003709D01*
X1637601Y-975774D01*
X1643500Y-946118D01*
X1643500Y-915882D01*
X1637601Y-886226D01*
X1626030Y-858290D01*
X1609231Y-833149D01*
X1587850Y-811769D01*
X1576224Y-804000D01*
X1587850Y-796231D01*
X1609231Y-774850D01*
X1626030Y-749709D01*
X1637601Y-721774D01*
X1643500Y-692118D01*
X1643500Y-661882D01*
X1637601Y-632226D01*
X1626030Y-604291D01*
X1609231Y-579150D01*
X1587850Y-557769D01*
X1576224Y-550000D01*
X1587850Y-542231D01*
X1609231Y-520850D01*
X1626030Y-495709D01*
X1637601Y-467774D01*
X1643500Y-438118D01*
X1643500Y-407882D01*
X1637601Y-378226D01*
X1626030Y-350290D01*
X1609231Y-325150D01*
X1587850Y-303769D01*
X1572489Y-293505D01*
X1578447Y-275408D01*
X1490000Y-186960D01*
X1401552Y-275408D01*
X1407510Y-293505D01*
X1392150Y-303769D01*
X1370769Y-325150D01*
X1353970Y-350290D01*
X1342399Y-378226D01*
X1336500Y-407882D01*
X676683Y-407882D01*
X670684Y-377722D01*
X645544Y-317029D01*
X609046Y-262406D01*
X562594Y-215954D01*
X507971Y-179456D01*
X447278Y-154316D01*
X382847Y-141500D01*
X317153Y-141500D01*
X252722Y-154316D01*
X192028Y-179456D01*
X137406Y-215954D01*
X90954Y-262406D01*
X66000Y-299752D01*
X66000Y-66000D01*
X1374955Y-66000D01*
X1371997Y-68958D01*
G37*
G04 #@! TD.AperFunction*
D16*
X473000Y-1598000D03*
X981000Y-1594000D03*
X3427000Y-1123000D03*
D17*
X727000Y-1250000D03*
X473000Y-1250000D03*
X219000Y-1250000D03*
X981000Y-1250000D03*
X3775000Y-1377000D03*
X3775000Y-1123000D03*
X3775000Y-869000D03*
X3775000Y-1631000D03*
X2760000Y-169000D03*
X2760000Y-423000D03*
X2760000Y-677000D03*
X2760000Y-931000D03*
X1490000Y-931000D03*
X1490000Y-677000D03*
X1490000Y-423000D03*
X1490000Y-169000D03*
X3775000Y-2125000D03*
X3977500Y-2125000D03*
X3918189Y-2268189D03*
X3775000Y-2327500D03*
X3631811Y-2268189D03*
X3572500Y-2125000D03*
X3631811Y-1981811D03*
X3775000Y-1922500D03*
X3918189Y-1981811D03*
X3775000Y-375000D03*
X3977500Y-375000D03*
X3918189Y-518189D03*
X3775000Y-577500D03*
X3631811Y-518189D03*
X3572500Y-375000D03*
X3631811Y-231811D03*
X3775000Y-172500D03*
X3918189Y-231811D03*
X350000Y-2025000D03*
X552500Y-2025000D03*
X493189Y-2168189D03*
X350000Y-2227500D03*
X206811Y-2168189D03*
X147500Y-2025000D03*
X206811Y-1881811D03*
X350000Y-1822500D03*
X493189Y-1881811D03*
X350000Y-475000D03*
X552500Y-475000D03*
X493189Y-618189D03*
X350000Y-677500D03*
X206811Y-618189D03*
X147500Y-475000D03*
X206811Y-331811D03*
X350000Y-272500D03*
X493189Y-331811D03*
M02*
