G04 #@! TF.GenerationSoftware,KiCad,Pcbnew,(5.1.9-16-g1737927814)-1*
G04 #@! TF.CreationDate,2021-04-01T12:21:51-04:00*
G04 #@! TF.ProjectId,pressure_ms4525do,70726573-7375-4726-955f-6d7334353235,1*
G04 #@! TF.SameCoordinates,Original*
G04 #@! TF.FileFunction,Legend,Bot*
G04 #@! TF.FilePolarity,Positive*
%FSLAX45Y45*%
G04 Gerber Fmt 4.5, Leading zero omitted, Abs format (unit mm)*
G04 Created by KiCad (PCBNEW (5.1.9-16-g1737927814)-1) date 2021-04-01 12:21:51*
%MOMM*%
%LPD*%
G01*
G04 APERTURE LIST*
%ADD10C,0.010000*%
G04 APERTURE END LIST*
D10*
G36*
X1021417Y-1705986D02*
G01*
X1040146Y-1704329D01*
X1063837Y-1702821D01*
X1091807Y-1701482D01*
X1123375Y-1700334D01*
X1157859Y-1699398D01*
X1194577Y-1698695D01*
X1232848Y-1698245D01*
X1271990Y-1698070D01*
X1277533Y-1698069D01*
X1307142Y-1698057D01*
X1331710Y-1698095D01*
X1351843Y-1698320D01*
X1368144Y-1698872D01*
X1381218Y-1699888D01*
X1391668Y-1701507D01*
X1400099Y-1703867D01*
X1407114Y-1707106D01*
X1413318Y-1711362D01*
X1419315Y-1716774D01*
X1425709Y-1723481D01*
X1433103Y-1731620D01*
X1435486Y-1734229D01*
X1459090Y-1759969D01*
X1493195Y-1758475D01*
X1515020Y-1757375D01*
X1531464Y-1756212D01*
X1542792Y-1754956D01*
X1549268Y-1753579D01*
X1551165Y-1752133D01*
X1550213Y-1748441D01*
X1548005Y-1741713D01*
X1547318Y-1739763D01*
X1544101Y-1733073D01*
X1538401Y-1723368D01*
X1531130Y-1712143D01*
X1525811Y-1704485D01*
X1514088Y-1687407D01*
X1505864Y-1673622D01*
X1500772Y-1662311D01*
X1498442Y-1652656D01*
X1498507Y-1643836D01*
X1498520Y-1643738D01*
X1499304Y-1639177D01*
X1500657Y-1634785D01*
X1503061Y-1629772D01*
X1506996Y-1623347D01*
X1512942Y-1614720D01*
X1521380Y-1603100D01*
X1531580Y-1589322D01*
X1538713Y-1579395D01*
X1544350Y-1570922D01*
X1547752Y-1565054D01*
X1548413Y-1563217D01*
X1546188Y-1561055D01*
X1539141Y-1559913D01*
X1530828Y-1559674D01*
X1519699Y-1559467D01*
X1505482Y-1558926D01*
X1490716Y-1558156D01*
X1486146Y-1557869D01*
X1459104Y-1556078D01*
X1452400Y-1567055D01*
X1445086Y-1577350D01*
X1435404Y-1588706D01*
X1424683Y-1599769D01*
X1414252Y-1609186D01*
X1405439Y-1615602D01*
X1403940Y-1616431D01*
X1400156Y-1618124D01*
X1395768Y-1619420D01*
X1390008Y-1620371D01*
X1382109Y-1621028D01*
X1371303Y-1621444D01*
X1356823Y-1621670D01*
X1337902Y-1621759D01*
X1324918Y-1621767D01*
X1298895Y-1621622D01*
X1270511Y-1621214D01*
X1240480Y-1620571D01*
X1209515Y-1619725D01*
X1178328Y-1618703D01*
X1147633Y-1617536D01*
X1118141Y-1616253D01*
X1090567Y-1614884D01*
X1065624Y-1613457D01*
X1044023Y-1612003D01*
X1026479Y-1610551D01*
X1013704Y-1609130D01*
X1011539Y-1608814D01*
X1000956Y-1607170D01*
X1000956Y-1708188D01*
X1021417Y-1705986D01*
G37*
X1021417Y-1705986D02*
X1040146Y-1704329D01*
X1063837Y-1702821D01*
X1091807Y-1701482D01*
X1123375Y-1700334D01*
X1157859Y-1699398D01*
X1194577Y-1698695D01*
X1232848Y-1698245D01*
X1271990Y-1698070D01*
X1277533Y-1698069D01*
X1307142Y-1698057D01*
X1331710Y-1698095D01*
X1351843Y-1698320D01*
X1368144Y-1698872D01*
X1381218Y-1699888D01*
X1391668Y-1701507D01*
X1400099Y-1703867D01*
X1407114Y-1707106D01*
X1413318Y-1711362D01*
X1419315Y-1716774D01*
X1425709Y-1723481D01*
X1433103Y-1731620D01*
X1435486Y-1734229D01*
X1459090Y-1759969D01*
X1493195Y-1758475D01*
X1515020Y-1757375D01*
X1531464Y-1756212D01*
X1542792Y-1754956D01*
X1549268Y-1753579D01*
X1551165Y-1752133D01*
X1550213Y-1748441D01*
X1548005Y-1741713D01*
X1547318Y-1739763D01*
X1544101Y-1733073D01*
X1538401Y-1723368D01*
X1531130Y-1712143D01*
X1525811Y-1704485D01*
X1514088Y-1687407D01*
X1505864Y-1673622D01*
X1500772Y-1662311D01*
X1498442Y-1652656D01*
X1498507Y-1643836D01*
X1498520Y-1643738D01*
X1499304Y-1639177D01*
X1500657Y-1634785D01*
X1503061Y-1629772D01*
X1506996Y-1623347D01*
X1512942Y-1614720D01*
X1521380Y-1603100D01*
X1531580Y-1589322D01*
X1538713Y-1579395D01*
X1544350Y-1570922D01*
X1547752Y-1565054D01*
X1548413Y-1563217D01*
X1546188Y-1561055D01*
X1539141Y-1559913D01*
X1530828Y-1559674D01*
X1519699Y-1559467D01*
X1505482Y-1558926D01*
X1490716Y-1558156D01*
X1486146Y-1557869D01*
X1459104Y-1556078D01*
X1452400Y-1567055D01*
X1445086Y-1577350D01*
X1435404Y-1588706D01*
X1424683Y-1599769D01*
X1414252Y-1609186D01*
X1405439Y-1615602D01*
X1403940Y-1616431D01*
X1400156Y-1618124D01*
X1395768Y-1619420D01*
X1390008Y-1620371D01*
X1382109Y-1621028D01*
X1371303Y-1621444D01*
X1356823Y-1621670D01*
X1337902Y-1621759D01*
X1324918Y-1621767D01*
X1298895Y-1621622D01*
X1270511Y-1621214D01*
X1240480Y-1620571D01*
X1209515Y-1619725D01*
X1178328Y-1618703D01*
X1147633Y-1617536D01*
X1118141Y-1616253D01*
X1090567Y-1614884D01*
X1065624Y-1613457D01*
X1044023Y-1612003D01*
X1026479Y-1610551D01*
X1013704Y-1609130D01*
X1011539Y-1608814D01*
X1000956Y-1607170D01*
X1000956Y-1708188D01*
X1021417Y-1705986D01*
G36*
X1820691Y-1470383D02*
G01*
X1824140Y-1485713D01*
X1829112Y-1501389D01*
X1834975Y-1515132D01*
X1835868Y-1516842D01*
X1840910Y-1526206D01*
X1887104Y-1475920D01*
X1900402Y-1461440D01*
X1912769Y-1447970D01*
X1923578Y-1436190D01*
X1932206Y-1426781D01*
X1938028Y-1420424D01*
X1939959Y-1418309D01*
X1944127Y-1412932D01*
X1944370Y-1409553D01*
X1942873Y-1407875D01*
X1938563Y-1405244D01*
X1930687Y-1401202D01*
X1920863Y-1396574D01*
X1919755Y-1396075D01*
X1900383Y-1387383D01*
X1884671Y-1391951D01*
X1861312Y-1400609D01*
X1843082Y-1411502D01*
X1830004Y-1424605D01*
X1822103Y-1439893D01*
X1819401Y-1457345D01*
X1819400Y-1457679D01*
X1820691Y-1470383D01*
G37*
X1820691Y-1470383D02*
X1824140Y-1485713D01*
X1829112Y-1501389D01*
X1834975Y-1515132D01*
X1835868Y-1516842D01*
X1840910Y-1526206D01*
X1887104Y-1475920D01*
X1900402Y-1461440D01*
X1912769Y-1447970D01*
X1923578Y-1436190D01*
X1932206Y-1426781D01*
X1938028Y-1420424D01*
X1939959Y-1418309D01*
X1944127Y-1412932D01*
X1944370Y-1409553D01*
X1942873Y-1407875D01*
X1938563Y-1405244D01*
X1930687Y-1401202D01*
X1920863Y-1396574D01*
X1919755Y-1396075D01*
X1900383Y-1387383D01*
X1884671Y-1391951D01*
X1861312Y-1400609D01*
X1843082Y-1411502D01*
X1830004Y-1424605D01*
X1822103Y-1439893D01*
X1819401Y-1457345D01*
X1819400Y-1457679D01*
X1820691Y-1470383D01*
G36*
X1949239Y-1364956D02*
G01*
X1975214Y-1377656D01*
X1983638Y-1367778D01*
X1989025Y-1361195D01*
X1996401Y-1351814D01*
X2005154Y-1340452D01*
X2014672Y-1327927D01*
X2024345Y-1315056D01*
X2033561Y-1302657D01*
X2041708Y-1291547D01*
X2048175Y-1282545D01*
X2052351Y-1276466D01*
X2053644Y-1274179D01*
X2051175Y-1272354D01*
X2045068Y-1270498D01*
X2043360Y-1270149D01*
X2035531Y-1269427D01*
X2024323Y-1269296D01*
X2011971Y-1269774D01*
X2010198Y-1269896D01*
X1984553Y-1273244D01*
X1963744Y-1279273D01*
X1947555Y-1288148D01*
X1935769Y-1300034D01*
X1928171Y-1315097D01*
X1924544Y-1333500D01*
X1924405Y-1335322D01*
X1923264Y-1352256D01*
X1949239Y-1364956D01*
G37*
X1949239Y-1364956D02*
X1975214Y-1377656D01*
X1983638Y-1367778D01*
X1989025Y-1361195D01*
X1996401Y-1351814D01*
X2005154Y-1340452D01*
X2014672Y-1327927D01*
X2024345Y-1315056D01*
X2033561Y-1302657D01*
X2041708Y-1291547D01*
X2048175Y-1282545D01*
X2052351Y-1276466D01*
X2053644Y-1274179D01*
X2051175Y-1272354D01*
X2045068Y-1270498D01*
X2043360Y-1270149D01*
X2035531Y-1269427D01*
X2024323Y-1269296D01*
X2011971Y-1269774D01*
X2010198Y-1269896D01*
X1984553Y-1273244D01*
X1963744Y-1279273D01*
X1947555Y-1288148D01*
X1935769Y-1300034D01*
X1928171Y-1315097D01*
X1924544Y-1333500D01*
X1924405Y-1335322D01*
X1923264Y-1352256D01*
X1949239Y-1364956D01*
G36*
X1095459Y-1896278D02*
G01*
X1096522Y-1905468D01*
X1098331Y-1917196D01*
X1107475Y-1957913D01*
X1121640Y-1997221D01*
X1140959Y-2035359D01*
X1165566Y-2072568D01*
X1195593Y-2109090D01*
X1216957Y-2131461D01*
X1255112Y-2166125D01*
X1298249Y-2199397D01*
X1345818Y-2230988D01*
X1397268Y-2260613D01*
X1452045Y-2287984D01*
X1509600Y-2312815D01*
X1569379Y-2334818D01*
X1630832Y-2353708D01*
X1658418Y-2360999D01*
X1678883Y-2365933D01*
X1699866Y-2370628D01*
X1720361Y-2374892D01*
X1739365Y-2378532D01*
X1755870Y-2381354D01*
X1768874Y-2383167D01*
X1777130Y-2383778D01*
X1784929Y-2383778D01*
X1776982Y-2363311D01*
X1768935Y-2337554D01*
X1763423Y-2309151D01*
X1760571Y-2279747D01*
X1760500Y-2250985D01*
X1763334Y-2224510D01*
X1765781Y-2213022D01*
X1773774Y-2188822D01*
X1784441Y-2169159D01*
X1798292Y-2153354D01*
X1815836Y-2140732D01*
X1823205Y-2136811D01*
X1851264Y-2125852D01*
X1879289Y-2120471D01*
X1906980Y-2120609D01*
X1934031Y-2126207D01*
X1960140Y-2137204D01*
X1985005Y-2153542D01*
X2006024Y-2172717D01*
X2022187Y-2189650D01*
X2058377Y-2177691D01*
X2076149Y-2171600D01*
X2089107Y-2166484D01*
X2097891Y-2161858D01*
X2103139Y-2157240D01*
X2105491Y-2152147D01*
X2105586Y-2146095D01*
X2104969Y-2142478D01*
X2103069Y-2136885D01*
X2099227Y-2127759D01*
X2094136Y-2116558D01*
X2088491Y-2104737D01*
X2082987Y-2093754D01*
X2078319Y-2085068D01*
X2075383Y-2080389D01*
X2073137Y-2078084D01*
X2069909Y-2076494D01*
X2064702Y-2075482D01*
X2056520Y-2074908D01*
X2044364Y-2074632D01*
X2033410Y-2074546D01*
X2003788Y-2073221D01*
X1978613Y-2069424D01*
X1957148Y-2062912D01*
X1938654Y-2053439D01*
X1922394Y-2040763D01*
X1917939Y-2036400D01*
X1905097Y-2019672D01*
X1896210Y-1999700D01*
X1891028Y-1975898D01*
X1890627Y-1972612D01*
X1888544Y-1954130D01*
X1868789Y-1947037D01*
X1842588Y-1935284D01*
X1821228Y-1920684D01*
X1804795Y-1903429D01*
X1793374Y-1883711D01*
X1787047Y-1861722D01*
X1785902Y-1837654D01*
X1790022Y-1811698D01*
X1798175Y-1787190D01*
X1804979Y-1770568D01*
X1786188Y-1772323D01*
X1778047Y-1772933D01*
X1765311Y-1773699D01*
X1749027Y-1774568D01*
X1730242Y-1775486D01*
X1710001Y-1776398D01*
X1696738Y-1776955D01*
X1671811Y-1777970D01*
X1643386Y-1779126D01*
X1613607Y-1780336D01*
X1584616Y-1781513D01*
X1558554Y-1782571D01*
X1554111Y-1782751D01*
X1494501Y-1785675D01*
X1439669Y-1789454D01*
X1388800Y-1794174D01*
X1341082Y-1799922D01*
X1295699Y-1806785D01*
X1251838Y-1814850D01*
X1250722Y-1815074D01*
X1212186Y-1823658D01*
X1179087Y-1832795D01*
X1151461Y-1842468D01*
X1129341Y-1852665D01*
X1112761Y-1863370D01*
X1101755Y-1874569D01*
X1098487Y-1880063D01*
X1096435Y-1885007D01*
X1095428Y-1889935D01*
X1095459Y-1896278D01*
G37*
X1095459Y-1896278D02*
X1096522Y-1905468D01*
X1098331Y-1917196D01*
X1107475Y-1957913D01*
X1121640Y-1997221D01*
X1140959Y-2035359D01*
X1165566Y-2072568D01*
X1195593Y-2109090D01*
X1216957Y-2131461D01*
X1255112Y-2166125D01*
X1298249Y-2199397D01*
X1345818Y-2230988D01*
X1397268Y-2260613D01*
X1452045Y-2287984D01*
X1509600Y-2312815D01*
X1569379Y-2334818D01*
X1630832Y-2353708D01*
X1658418Y-2360999D01*
X1678883Y-2365933D01*
X1699866Y-2370628D01*
X1720361Y-2374892D01*
X1739365Y-2378532D01*
X1755870Y-2381354D01*
X1768874Y-2383167D01*
X1777130Y-2383778D01*
X1784929Y-2383778D01*
X1776982Y-2363311D01*
X1768935Y-2337554D01*
X1763423Y-2309151D01*
X1760571Y-2279747D01*
X1760500Y-2250985D01*
X1763334Y-2224510D01*
X1765781Y-2213022D01*
X1773774Y-2188822D01*
X1784441Y-2169159D01*
X1798292Y-2153354D01*
X1815836Y-2140732D01*
X1823205Y-2136811D01*
X1851264Y-2125852D01*
X1879289Y-2120471D01*
X1906980Y-2120609D01*
X1934031Y-2126207D01*
X1960140Y-2137204D01*
X1985005Y-2153542D01*
X2006024Y-2172717D01*
X2022187Y-2189650D01*
X2058377Y-2177691D01*
X2076149Y-2171600D01*
X2089107Y-2166484D01*
X2097891Y-2161858D01*
X2103139Y-2157240D01*
X2105491Y-2152147D01*
X2105586Y-2146095D01*
X2104969Y-2142478D01*
X2103069Y-2136885D01*
X2099227Y-2127759D01*
X2094136Y-2116558D01*
X2088491Y-2104737D01*
X2082987Y-2093754D01*
X2078319Y-2085068D01*
X2075383Y-2080389D01*
X2073137Y-2078084D01*
X2069909Y-2076494D01*
X2064702Y-2075482D01*
X2056520Y-2074908D01*
X2044364Y-2074632D01*
X2033410Y-2074546D01*
X2003788Y-2073221D01*
X1978613Y-2069424D01*
X1957148Y-2062912D01*
X1938654Y-2053439D01*
X1922394Y-2040763D01*
X1917939Y-2036400D01*
X1905097Y-2019672D01*
X1896210Y-1999700D01*
X1891028Y-1975898D01*
X1890627Y-1972612D01*
X1888544Y-1954130D01*
X1868789Y-1947037D01*
X1842588Y-1935284D01*
X1821228Y-1920684D01*
X1804795Y-1903429D01*
X1793374Y-1883711D01*
X1787047Y-1861722D01*
X1785902Y-1837654D01*
X1790022Y-1811698D01*
X1798175Y-1787190D01*
X1804979Y-1770568D01*
X1786188Y-1772323D01*
X1778047Y-1772933D01*
X1765311Y-1773699D01*
X1749027Y-1774568D01*
X1730242Y-1775486D01*
X1710001Y-1776398D01*
X1696738Y-1776955D01*
X1671811Y-1777970D01*
X1643386Y-1779126D01*
X1613607Y-1780336D01*
X1584616Y-1781513D01*
X1558554Y-1782571D01*
X1554111Y-1782751D01*
X1494501Y-1785675D01*
X1439669Y-1789454D01*
X1388800Y-1794174D01*
X1341082Y-1799922D01*
X1295699Y-1806785D01*
X1251838Y-1814850D01*
X1250722Y-1815074D01*
X1212186Y-1823658D01*
X1179087Y-1832795D01*
X1151461Y-1842468D01*
X1129341Y-1852665D01*
X1112761Y-1863370D01*
X1101755Y-1874569D01*
X1098487Y-1880063D01*
X1096435Y-1885007D01*
X1095428Y-1889935D01*
X1095459Y-1896278D01*
G36*
X1099089Y-1436363D02*
G01*
X1099770Y-1438422D01*
X1107259Y-1449577D01*
X1120254Y-1460353D01*
X1138626Y-1470703D01*
X1162248Y-1480582D01*
X1190991Y-1489944D01*
X1224726Y-1498741D01*
X1263325Y-1506927D01*
X1306660Y-1514458D01*
X1314222Y-1515628D01*
X1346013Y-1520189D01*
X1378034Y-1524184D01*
X1411039Y-1527670D01*
X1445778Y-1530707D01*
X1483004Y-1533352D01*
X1523468Y-1535664D01*
X1567923Y-1537700D01*
X1617119Y-1539519D01*
X1627489Y-1539858D01*
X1663413Y-1541052D01*
X1693997Y-1542158D01*
X1719544Y-1543192D01*
X1740357Y-1544167D01*
X1756740Y-1545097D01*
X1768996Y-1545998D01*
X1777427Y-1546883D01*
X1778478Y-1547030D01*
X1788603Y-1545952D01*
X1793414Y-1543292D01*
X1799884Y-1538317D01*
X1792828Y-1522897D01*
X1783739Y-1498454D01*
X1778644Y-1474126D01*
X1777619Y-1450902D01*
X1780741Y-1429771D01*
X1784758Y-1418232D01*
X1796099Y-1399435D01*
X1812345Y-1382653D01*
X1832988Y-1368307D01*
X1857517Y-1356818D01*
X1860322Y-1355785D01*
X1880078Y-1348692D01*
X1882160Y-1330211D01*
X1886895Y-1305887D01*
X1895304Y-1285466D01*
X1907636Y-1268364D01*
X1909473Y-1266422D01*
X1925412Y-1252633D01*
X1943450Y-1242173D01*
X1964308Y-1234802D01*
X1988709Y-1230282D01*
X2017377Y-1228371D01*
X2024299Y-1228277D01*
X2061275Y-1228078D01*
X2072732Y-1217727D01*
X2080426Y-1211190D01*
X2087433Y-1205914D01*
X2090345Y-1204083D01*
X2095643Y-1199004D01*
X2101231Y-1190138D01*
X2106438Y-1179132D01*
X2110594Y-1167628D01*
X2113028Y-1157271D01*
X2113070Y-1149706D01*
X2112835Y-1148932D01*
X2111039Y-1145079D01*
X2108273Y-1141849D01*
X2103686Y-1138801D01*
X2096429Y-1135496D01*
X2085651Y-1131494D01*
X2070501Y-1126355D01*
X2066843Y-1125142D01*
X2030653Y-1113173D01*
X2014491Y-1130105D01*
X1991024Y-1151174D01*
X1966050Y-1166967D01*
X1939881Y-1177425D01*
X1912831Y-1182488D01*
X1885213Y-1182096D01*
X1857341Y-1176188D01*
X1830811Y-1165361D01*
X1811154Y-1152773D01*
X1795378Y-1136727D01*
X1783228Y-1116847D01*
X1774449Y-1092757D01*
X1770873Y-1077089D01*
X1768988Y-1060074D01*
X1768724Y-1039325D01*
X1769921Y-1016465D01*
X1772419Y-993116D01*
X1776059Y-970900D01*
X1780679Y-951440D01*
X1784343Y-940500D01*
X1785084Y-937662D01*
X1783698Y-936274D01*
X1779082Y-936103D01*
X1770133Y-936913D01*
X1768356Y-937104D01*
X1752409Y-939313D01*
X1732435Y-942824D01*
X1709820Y-947338D01*
X1685950Y-952559D01*
X1662212Y-958188D01*
X1659845Y-958799D01*
X1659845Y-1223845D01*
X1673199Y-1225752D01*
X1685032Y-1230910D01*
X1693461Y-1238472D01*
X1693962Y-1239202D01*
X1700108Y-1252719D01*
X1702279Y-1267343D01*
X1700424Y-1281342D01*
X1695552Y-1291578D01*
X1690857Y-1296491D01*
X1684201Y-1301624D01*
X1677200Y-1305959D01*
X1671469Y-1308479D01*
X1668800Y-1308430D01*
X1667766Y-1305306D01*
X1665893Y-1297714D01*
X1663428Y-1286723D01*
X1660619Y-1273401D01*
X1660006Y-1270397D01*
X1657120Y-1256323D01*
X1654525Y-1243956D01*
X1652478Y-1234507D01*
X1651238Y-1229183D01*
X1651128Y-1228783D01*
X1651148Y-1225463D01*
X1654667Y-1224061D01*
X1659845Y-1223845D01*
X1659845Y-958799D01*
X1639992Y-963928D01*
X1628445Y-967161D01*
X1564494Y-987454D01*
X1531370Y-999876D01*
X1531370Y-1085963D01*
X1541290Y-1086589D01*
X1541620Y-1086627D01*
X1561611Y-1091469D01*
X1578260Y-1100753D01*
X1591365Y-1114231D01*
X1600725Y-1131655D01*
X1606139Y-1152777D01*
X1607424Y-1167593D01*
X1606771Y-1176460D01*
X1604761Y-1187192D01*
X1603564Y-1191706D01*
X1598976Y-1202681D01*
X1592393Y-1213612D01*
X1589750Y-1217013D01*
X1585861Y-1220926D01*
X1585861Y-1331105D01*
X1604196Y-1333729D01*
X1620250Y-1341449D01*
X1633873Y-1354131D01*
X1644913Y-1371644D01*
X1651754Y-1388945D01*
X1654735Y-1404135D01*
X1655059Y-1420652D01*
X1652729Y-1435703D01*
X1651684Y-1439045D01*
X1647358Y-1448396D01*
X1641503Y-1457961D01*
X1640291Y-1459617D01*
X1634731Y-1465757D01*
X1627573Y-1472183D01*
X1620134Y-1477905D01*
X1613733Y-1481931D01*
X1609686Y-1483270D01*
X1609164Y-1483038D01*
X1609060Y-1479785D01*
X1610349Y-1473204D01*
X1611034Y-1470630D01*
X1613418Y-1457162D01*
X1614351Y-1440266D01*
X1613906Y-1421946D01*
X1612155Y-1404210D01*
X1609172Y-1389064D01*
X1607919Y-1384945D01*
X1601957Y-1370465D01*
X1594543Y-1356746D01*
X1586696Y-1345505D01*
X1581160Y-1339753D01*
X1577110Y-1335063D01*
X1578404Y-1332175D01*
X1585030Y-1331110D01*
X1585861Y-1331105D01*
X1585861Y-1220926D01*
X1582774Y-1224031D01*
X1574797Y-1230411D01*
X1567141Y-1235289D01*
X1561128Y-1237803D01*
X1558358Y-1237499D01*
X1557961Y-1234014D01*
X1558844Y-1227102D01*
X1559589Y-1223511D01*
X1561792Y-1208576D01*
X1562562Y-1190715D01*
X1561961Y-1172095D01*
X1560052Y-1154877D01*
X1557261Y-1142353D01*
X1551149Y-1126092D01*
X1543666Y-1111360D01*
X1535696Y-1099780D01*
X1531826Y-1095698D01*
X1526863Y-1090308D01*
X1526635Y-1087133D01*
X1531370Y-1085963D01*
X1531370Y-999876D01*
X1503589Y-1010295D01*
X1445975Y-1035513D01*
X1391896Y-1062938D01*
X1341595Y-1092400D01*
X1295319Y-1123727D01*
X1253310Y-1156749D01*
X1215812Y-1191297D01*
X1183071Y-1227198D01*
X1155331Y-1264283D01*
X1132835Y-1302382D01*
X1125013Y-1318635D01*
X1117616Y-1336871D01*
X1111092Y-1356337D01*
X1105654Y-1376011D01*
X1101520Y-1394873D01*
X1098904Y-1411900D01*
X1098022Y-1426071D01*
X1099089Y-1436363D01*
G37*
X1099089Y-1436363D02*
X1099770Y-1438422D01*
X1107259Y-1449577D01*
X1120254Y-1460353D01*
X1138626Y-1470703D01*
X1162248Y-1480582D01*
X1190991Y-1489944D01*
X1224726Y-1498741D01*
X1263325Y-1506927D01*
X1306660Y-1514458D01*
X1314222Y-1515628D01*
X1346013Y-1520189D01*
X1378034Y-1524184D01*
X1411039Y-1527670D01*
X1445778Y-1530707D01*
X1483004Y-1533352D01*
X1523468Y-1535664D01*
X1567923Y-1537700D01*
X1617119Y-1539519D01*
X1627489Y-1539858D01*
X1663413Y-1541052D01*
X1693997Y-1542158D01*
X1719544Y-1543192D01*
X1740357Y-1544167D01*
X1756740Y-1545097D01*
X1768996Y-1545998D01*
X1777427Y-1546883D01*
X1778478Y-1547030D01*
X1788603Y-1545952D01*
X1793414Y-1543292D01*
X1799884Y-1538317D01*
X1792828Y-1522897D01*
X1783739Y-1498454D01*
X1778644Y-1474126D01*
X1777619Y-1450902D01*
X1780741Y-1429771D01*
X1784758Y-1418232D01*
X1796099Y-1399435D01*
X1812345Y-1382653D01*
X1832988Y-1368307D01*
X1857517Y-1356818D01*
X1860322Y-1355785D01*
X1880078Y-1348692D01*
X1882160Y-1330211D01*
X1886895Y-1305887D01*
X1895304Y-1285466D01*
X1907636Y-1268364D01*
X1909473Y-1266422D01*
X1925412Y-1252633D01*
X1943450Y-1242173D01*
X1964308Y-1234802D01*
X1988709Y-1230282D01*
X2017377Y-1228371D01*
X2024299Y-1228277D01*
X2061275Y-1228078D01*
X2072732Y-1217727D01*
X2080426Y-1211190D01*
X2087433Y-1205914D01*
X2090345Y-1204083D01*
X2095643Y-1199004D01*
X2101231Y-1190138D01*
X2106438Y-1179132D01*
X2110594Y-1167628D01*
X2113028Y-1157271D01*
X2113070Y-1149706D01*
X2112835Y-1148932D01*
X2111039Y-1145079D01*
X2108273Y-1141849D01*
X2103686Y-1138801D01*
X2096429Y-1135496D01*
X2085651Y-1131494D01*
X2070501Y-1126355D01*
X2066843Y-1125142D01*
X2030653Y-1113173D01*
X2014491Y-1130105D01*
X1991024Y-1151174D01*
X1966050Y-1166967D01*
X1939881Y-1177425D01*
X1912831Y-1182488D01*
X1885213Y-1182096D01*
X1857341Y-1176188D01*
X1830811Y-1165361D01*
X1811154Y-1152773D01*
X1795378Y-1136727D01*
X1783228Y-1116847D01*
X1774449Y-1092757D01*
X1770873Y-1077089D01*
X1768988Y-1060074D01*
X1768724Y-1039325D01*
X1769921Y-1016465D01*
X1772419Y-993116D01*
X1776059Y-970900D01*
X1780679Y-951440D01*
X1784343Y-940500D01*
X1785084Y-937662D01*
X1783698Y-936274D01*
X1779082Y-936103D01*
X1770133Y-936913D01*
X1768356Y-937104D01*
X1752409Y-939313D01*
X1732435Y-942824D01*
X1709820Y-947338D01*
X1685950Y-952559D01*
X1662212Y-958188D01*
X1659845Y-958799D01*
X1659845Y-1223845D01*
X1673199Y-1225752D01*
X1685032Y-1230910D01*
X1693461Y-1238472D01*
X1693962Y-1239202D01*
X1700108Y-1252719D01*
X1702279Y-1267343D01*
X1700424Y-1281342D01*
X1695552Y-1291578D01*
X1690857Y-1296491D01*
X1684201Y-1301624D01*
X1677200Y-1305959D01*
X1671469Y-1308479D01*
X1668800Y-1308430D01*
X1667766Y-1305306D01*
X1665893Y-1297714D01*
X1663428Y-1286723D01*
X1660619Y-1273401D01*
X1660006Y-1270397D01*
X1657120Y-1256323D01*
X1654525Y-1243956D01*
X1652478Y-1234507D01*
X1651238Y-1229183D01*
X1651128Y-1228783D01*
X1651148Y-1225463D01*
X1654667Y-1224061D01*
X1659845Y-1223845D01*
X1659845Y-958799D01*
X1639992Y-963928D01*
X1628445Y-967161D01*
X1564494Y-987454D01*
X1531370Y-999876D01*
X1531370Y-1085963D01*
X1541290Y-1086589D01*
X1541620Y-1086627D01*
X1561611Y-1091469D01*
X1578260Y-1100753D01*
X1591365Y-1114231D01*
X1600725Y-1131655D01*
X1606139Y-1152777D01*
X1607424Y-1167593D01*
X1606771Y-1176460D01*
X1604761Y-1187192D01*
X1603564Y-1191706D01*
X1598976Y-1202681D01*
X1592393Y-1213612D01*
X1589750Y-1217013D01*
X1585861Y-1220926D01*
X1585861Y-1331105D01*
X1604196Y-1333729D01*
X1620250Y-1341449D01*
X1633873Y-1354131D01*
X1644913Y-1371644D01*
X1651754Y-1388945D01*
X1654735Y-1404135D01*
X1655059Y-1420652D01*
X1652729Y-1435703D01*
X1651684Y-1439045D01*
X1647358Y-1448396D01*
X1641503Y-1457961D01*
X1640291Y-1459617D01*
X1634731Y-1465757D01*
X1627573Y-1472183D01*
X1620134Y-1477905D01*
X1613733Y-1481931D01*
X1609686Y-1483270D01*
X1609164Y-1483038D01*
X1609060Y-1479785D01*
X1610349Y-1473204D01*
X1611034Y-1470630D01*
X1613418Y-1457162D01*
X1614351Y-1440266D01*
X1613906Y-1421946D01*
X1612155Y-1404210D01*
X1609172Y-1389064D01*
X1607919Y-1384945D01*
X1601957Y-1370465D01*
X1594543Y-1356746D01*
X1586696Y-1345505D01*
X1581160Y-1339753D01*
X1577110Y-1335063D01*
X1578404Y-1332175D01*
X1585030Y-1331110D01*
X1585861Y-1331105D01*
X1585861Y-1220926D01*
X1582774Y-1224031D01*
X1574797Y-1230411D01*
X1567141Y-1235289D01*
X1561128Y-1237803D01*
X1558358Y-1237499D01*
X1557961Y-1234014D01*
X1558844Y-1227102D01*
X1559589Y-1223511D01*
X1561792Y-1208576D01*
X1562562Y-1190715D01*
X1561961Y-1172095D01*
X1560052Y-1154877D01*
X1557261Y-1142353D01*
X1551149Y-1126092D01*
X1543666Y-1111360D01*
X1535696Y-1099780D01*
X1531826Y-1095698D01*
X1526863Y-1090308D01*
X1526635Y-1087133D01*
X1531370Y-1085963D01*
X1531370Y-999876D01*
X1503589Y-1010295D01*
X1445975Y-1035513D01*
X1391896Y-1062938D01*
X1341595Y-1092400D01*
X1295319Y-1123727D01*
X1253310Y-1156749D01*
X1215812Y-1191297D01*
X1183071Y-1227198D01*
X1155331Y-1264283D01*
X1132835Y-1302382D01*
X1125013Y-1318635D01*
X1117616Y-1336871D01*
X1111092Y-1356337D01*
X1105654Y-1376011D01*
X1101520Y-1394873D01*
X1098904Y-1411900D01*
X1098022Y-1426071D01*
X1099089Y-1436363D01*
G36*
X1803891Y-2294681D02*
G01*
X1808326Y-2321744D01*
X1816014Y-2346256D01*
X1822068Y-2359789D01*
X1834485Y-2381530D01*
X1848476Y-2399240D01*
X1865422Y-2414528D01*
X1875050Y-2421504D01*
X1887618Y-2429751D01*
X1898731Y-2436039D01*
X1909473Y-2440626D01*
X1920932Y-2443768D01*
X1934195Y-2445723D01*
X1950348Y-2446750D01*
X1970477Y-2447105D01*
X1983089Y-2447109D01*
X2003496Y-2446961D01*
X2019638Y-2446578D01*
X2032890Y-2445846D01*
X2044631Y-2444646D01*
X2056236Y-2442862D01*
X2069084Y-2440378D01*
X2073565Y-2439441D01*
X2127120Y-2425274D01*
X2178486Y-2405929D01*
X2227549Y-2381477D01*
X2274199Y-2351990D01*
X2318323Y-2317537D01*
X2359810Y-2278189D01*
X2398402Y-2234200D01*
X2432401Y-2187884D01*
X2463288Y-2137850D01*
X2490739Y-2084917D01*
X2514428Y-2029903D01*
X2534033Y-1973629D01*
X2549226Y-1916913D01*
X2559684Y-1860576D01*
X2564492Y-1815314D01*
X2565661Y-1798118D01*
X2566470Y-1785756D01*
X2566944Y-1777429D01*
X2567109Y-1772342D01*
X2566991Y-1769695D01*
X2566614Y-1768691D01*
X2566004Y-1768533D01*
X2565987Y-1768533D01*
X2564300Y-1770902D01*
X2560592Y-1777392D01*
X2555369Y-1787079D01*
X2549139Y-1799036D01*
X2547527Y-1802186D01*
X2521673Y-1848133D01*
X2492191Y-1891989D01*
X2459573Y-1933281D01*
X2424310Y-1971532D01*
X2386894Y-2006267D01*
X2347815Y-2037010D01*
X2307565Y-2063288D01*
X2266636Y-2084624D01*
X2246967Y-2092941D01*
X2224944Y-2100559D01*
X2202509Y-2106559D01*
X2181161Y-2110629D01*
X2162401Y-2112458D01*
X2153461Y-2112379D01*
X2145081Y-2111917D01*
X2139578Y-2111729D01*
X2138307Y-2111794D01*
X2139281Y-2114348D01*
X2141698Y-2120254D01*
X2142545Y-2122287D01*
X2145957Y-2135603D01*
X2146614Y-2150848D01*
X2144575Y-2165499D01*
X2141300Y-2174607D01*
X2134922Y-2184794D01*
X2126675Y-2193189D01*
X2115591Y-2200444D01*
X2100702Y-2207213D01*
X2084253Y-2213097D01*
X2070000Y-2217857D01*
X2056160Y-2222561D01*
X2044495Y-2226605D01*
X2037862Y-2228979D01*
X2023492Y-2234272D01*
X2028598Y-2249053D01*
X2032549Y-2265053D01*
X2033571Y-2280612D01*
X2031632Y-2293996D01*
X2029535Y-2299344D01*
X2025366Y-2304932D01*
X2021836Y-2305588D01*
X2019903Y-2301336D01*
X2019778Y-2299090D01*
X2018730Y-2292195D01*
X2015925Y-2281609D01*
X2011864Y-2268815D01*
X2007054Y-2255293D01*
X2001998Y-2242524D01*
X1997200Y-2231990D01*
X1996420Y-2230478D01*
X1989677Y-2219655D01*
X1980785Y-2207869D01*
X1972850Y-2198927D01*
X1952351Y-2181436D01*
X1930746Y-2169450D01*
X1908120Y-2162991D01*
X1884562Y-2162081D01*
X1860159Y-2166739D01*
X1851590Y-2169631D01*
X1834948Y-2178028D01*
X1821966Y-2189600D01*
X1812445Y-2204728D01*
X1806187Y-2223793D01*
X1802994Y-2247176D01*
X1802467Y-2263882D01*
X1803891Y-2294681D01*
G37*
X1803891Y-2294681D02*
X1808326Y-2321744D01*
X1816014Y-2346256D01*
X1822068Y-2359789D01*
X1834485Y-2381530D01*
X1848476Y-2399240D01*
X1865422Y-2414528D01*
X1875050Y-2421504D01*
X1887618Y-2429751D01*
X1898731Y-2436039D01*
X1909473Y-2440626D01*
X1920932Y-2443768D01*
X1934195Y-2445723D01*
X1950348Y-2446750D01*
X1970477Y-2447105D01*
X1983089Y-2447109D01*
X2003496Y-2446961D01*
X2019638Y-2446578D01*
X2032890Y-2445846D01*
X2044631Y-2444646D01*
X2056236Y-2442862D01*
X2069084Y-2440378D01*
X2073565Y-2439441D01*
X2127120Y-2425274D01*
X2178486Y-2405929D01*
X2227549Y-2381477D01*
X2274199Y-2351990D01*
X2318323Y-2317537D01*
X2359810Y-2278189D01*
X2398402Y-2234200D01*
X2432401Y-2187884D01*
X2463288Y-2137850D01*
X2490739Y-2084917D01*
X2514428Y-2029903D01*
X2534033Y-1973629D01*
X2549226Y-1916913D01*
X2559684Y-1860576D01*
X2564492Y-1815314D01*
X2565661Y-1798118D01*
X2566470Y-1785756D01*
X2566944Y-1777429D01*
X2567109Y-1772342D01*
X2566991Y-1769695D01*
X2566614Y-1768691D01*
X2566004Y-1768533D01*
X2565987Y-1768533D01*
X2564300Y-1770902D01*
X2560592Y-1777392D01*
X2555369Y-1787079D01*
X2549139Y-1799036D01*
X2547527Y-1802186D01*
X2521673Y-1848133D01*
X2492191Y-1891989D01*
X2459573Y-1933281D01*
X2424310Y-1971532D01*
X2386894Y-2006267D01*
X2347815Y-2037010D01*
X2307565Y-2063288D01*
X2266636Y-2084624D01*
X2246967Y-2092941D01*
X2224944Y-2100559D01*
X2202509Y-2106559D01*
X2181161Y-2110629D01*
X2162401Y-2112458D01*
X2153461Y-2112379D01*
X2145081Y-2111917D01*
X2139578Y-2111729D01*
X2138307Y-2111794D01*
X2139281Y-2114348D01*
X2141698Y-2120254D01*
X2142545Y-2122287D01*
X2145957Y-2135603D01*
X2146614Y-2150848D01*
X2144575Y-2165499D01*
X2141300Y-2174607D01*
X2134922Y-2184794D01*
X2126675Y-2193189D01*
X2115591Y-2200444D01*
X2100702Y-2207213D01*
X2084253Y-2213097D01*
X2070000Y-2217857D01*
X2056160Y-2222561D01*
X2044495Y-2226605D01*
X2037862Y-2228979D01*
X2023492Y-2234272D01*
X2028598Y-2249053D01*
X2032549Y-2265053D01*
X2033571Y-2280612D01*
X2031632Y-2293996D01*
X2029535Y-2299344D01*
X2025366Y-2304932D01*
X2021836Y-2305588D01*
X2019903Y-2301336D01*
X2019778Y-2299090D01*
X2018730Y-2292195D01*
X2015925Y-2281609D01*
X2011864Y-2268815D01*
X2007054Y-2255293D01*
X2001998Y-2242524D01*
X1997200Y-2231990D01*
X1996420Y-2230478D01*
X1989677Y-2219655D01*
X1980785Y-2207869D01*
X1972850Y-2198927D01*
X1952351Y-2181436D01*
X1930746Y-2169450D01*
X1908120Y-2162991D01*
X1884562Y-2162081D01*
X1860159Y-2166739D01*
X1851590Y-2169631D01*
X1834948Y-2178028D01*
X1821966Y-2189600D01*
X1812445Y-2204728D01*
X1806187Y-2223793D01*
X1802994Y-2247176D01*
X1802467Y-2263882D01*
X1803891Y-2294681D01*
G36*
X1806197Y-1692581D02*
G01*
X1810544Y-1704357D01*
X1819414Y-1717555D01*
X1831949Y-1729794D01*
X1846230Y-1739306D01*
X1850953Y-1741527D01*
X1860904Y-1745685D01*
X1887333Y-1728593D01*
X1941333Y-1690998D01*
X1995164Y-1648293D01*
X2048309Y-1601003D01*
X2100254Y-1549652D01*
X2150483Y-1494764D01*
X2198482Y-1436863D01*
X2243734Y-1376474D01*
X2268174Y-1341033D01*
X2275850Y-1329876D01*
X2282399Y-1320984D01*
X2287224Y-1315118D01*
X2289730Y-1313042D01*
X2289923Y-1313201D01*
X2289470Y-1317528D01*
X2287075Y-1326135D01*
X2283072Y-1338139D01*
X2277799Y-1352656D01*
X2271592Y-1368803D01*
X2264785Y-1385696D01*
X2257716Y-1402452D01*
X2250720Y-1418187D01*
X2246906Y-1426335D01*
X2218614Y-1479744D01*
X2187026Y-1528591D01*
X2152044Y-1572962D01*
X2113576Y-1612940D01*
X2071525Y-1648613D01*
X2025798Y-1680066D01*
X1976299Y-1707383D01*
X1922934Y-1730650D01*
X1900087Y-1738980D01*
X1865967Y-1750761D01*
X1852485Y-1772961D01*
X1839192Y-1798025D01*
X1831040Y-1820914D01*
X1828014Y-1841575D01*
X1830097Y-1859951D01*
X1837272Y-1875987D01*
X1849524Y-1889626D01*
X1866835Y-1900814D01*
X1889190Y-1909494D01*
X1892863Y-1910545D01*
X1907023Y-1914263D01*
X1917464Y-1916148D01*
X1925881Y-1915974D01*
X1933967Y-1913511D01*
X1943415Y-1908530D01*
X1953432Y-1902366D01*
X1999492Y-1871860D01*
X2047493Y-1837087D01*
X2096658Y-1798727D01*
X2146210Y-1757460D01*
X2195370Y-1713963D01*
X2243361Y-1668918D01*
X2289404Y-1623002D01*
X2332723Y-1576896D01*
X2355596Y-1551137D01*
X2366125Y-1538796D01*
X2376756Y-1525960D01*
X2386122Y-1514300D01*
X2391911Y-1506772D01*
X2399662Y-1496652D01*
X2404993Y-1490536D01*
X2407903Y-1488596D01*
X2408391Y-1491001D01*
X2406457Y-1497922D01*
X2402099Y-1509528D01*
X2395318Y-1525990D01*
X2391791Y-1534289D01*
X2365450Y-1588788D01*
X2334199Y-1640865D01*
X2298386Y-1690150D01*
X2258359Y-1736274D01*
X2214465Y-1778866D01*
X2167053Y-1817558D01*
X2116470Y-1851979D01*
X2066344Y-1880110D01*
X2042953Y-1891212D01*
X2016989Y-1902274D01*
X1990490Y-1912495D01*
X1965492Y-1921074D01*
X1951488Y-1925260D01*
X1942507Y-1927921D01*
X1937522Y-1930473D01*
X1935087Y-1934295D01*
X1933754Y-1940765D01*
X1933510Y-1942381D01*
X1932284Y-1964006D01*
X1935254Y-1983271D01*
X1942225Y-1999553D01*
X1953005Y-2012226D01*
X1955869Y-2014469D01*
X1967933Y-2021798D01*
X1981444Y-2026994D01*
X1997501Y-2030308D01*
X2017201Y-2031992D01*
X2033889Y-2032336D01*
X2069167Y-2032395D01*
X2093901Y-2020519D01*
X2137898Y-1997639D01*
X2181427Y-1971633D01*
X2223449Y-1943243D01*
X2262924Y-1913213D01*
X2298812Y-1882287D01*
X2328760Y-1852622D01*
X2348496Y-1830562D01*
X2370042Y-1804870D01*
X2392389Y-1776809D01*
X2414532Y-1747638D01*
X2433256Y-1721758D01*
X2442427Y-1708768D01*
X2450430Y-1697449D01*
X2456714Y-1688579D01*
X2460727Y-1682938D01*
X2461926Y-1681280D01*
X2464358Y-1681639D01*
X2464759Y-1681996D01*
X2465056Y-1685944D01*
X2462984Y-1694104D01*
X2458883Y-1705738D01*
X2453093Y-1720107D01*
X2445955Y-1736471D01*
X2437809Y-1754092D01*
X2428996Y-1772230D01*
X2419854Y-1790147D01*
X2410726Y-1807104D01*
X2401951Y-1822361D01*
X2395022Y-1833444D01*
X2364171Y-1875802D01*
X2330091Y-1914115D01*
X2293108Y-1948139D01*
X2253546Y-1977632D01*
X2211730Y-2002350D01*
X2167985Y-2022052D01*
X2124329Y-2036057D01*
X2114203Y-2038996D01*
X2106474Y-2041830D01*
X2102553Y-2044025D01*
X2102350Y-2044338D01*
X2103714Y-2048197D01*
X2108722Y-2053529D01*
X2115988Y-2059246D01*
X2124126Y-2064259D01*
X2131749Y-2067481D01*
X2131884Y-2067519D01*
X2152864Y-2070640D01*
X2176584Y-2069352D01*
X2202564Y-2063883D01*
X2230324Y-2054459D01*
X2259386Y-2041310D01*
X2289270Y-2024662D01*
X2319496Y-2004743D01*
X2349587Y-1981782D01*
X2379061Y-1956005D01*
X2391235Y-1944301D01*
X2431768Y-1900517D01*
X2467417Y-1854250D01*
X2498092Y-1805732D01*
X2523700Y-1755195D01*
X2544152Y-1702869D01*
X2559356Y-1648987D01*
X2569221Y-1593779D01*
X2573656Y-1537476D01*
X2572774Y-1483489D01*
X2567723Y-1436966D01*
X2558395Y-1388180D01*
X2545133Y-1338107D01*
X2528284Y-1287723D01*
X2508192Y-1238004D01*
X2485201Y-1189927D01*
X2459657Y-1144467D01*
X2444761Y-1121109D01*
X2408562Y-1071318D01*
X2369829Y-1026555D01*
X2328571Y-986827D01*
X2284798Y-952142D01*
X2238521Y-922506D01*
X2189749Y-897927D01*
X2138492Y-878411D01*
X2084760Y-863965D01*
X2082031Y-863381D01*
X2068514Y-860655D01*
X2056669Y-858665D01*
X2045118Y-857295D01*
X2032486Y-856430D01*
X2017393Y-855950D01*
X1998465Y-855742D01*
X1991556Y-855713D01*
X1968886Y-855817D01*
X1950767Y-856457D01*
X1936113Y-857890D01*
X1923836Y-860373D01*
X1912850Y-864164D01*
X1902069Y-869521D01*
X1890405Y-876701D01*
X1883516Y-881318D01*
X1864653Y-896014D01*
X1849411Y-912356D01*
X1836408Y-931954D01*
X1830535Y-943033D01*
X1820847Y-966606D01*
X1814552Y-992043D01*
X1811408Y-1020528D01*
X1810933Y-1038940D01*
X1812375Y-1065314D01*
X1816816Y-1087140D01*
X1824430Y-1104756D01*
X1835393Y-1118502D01*
X1849878Y-1128715D01*
X1859342Y-1132924D01*
X1884019Y-1139594D01*
X1907652Y-1140725D01*
X1930301Y-1136306D01*
X1952026Y-1126324D01*
X1972884Y-1110768D01*
X1973920Y-1109830D01*
X1991499Y-1090704D01*
X2005773Y-1068238D01*
X2017056Y-1041835D01*
X2025533Y-1011472D01*
X2027789Y-1002821D01*
X2029959Y-996934D01*
X2031282Y-995244D01*
X2033449Y-997639D01*
X2036543Y-1003725D01*
X2038227Y-1007826D01*
X2041398Y-1022686D01*
X2040176Y-1039682D01*
X2035266Y-1057431D01*
X2031414Y-1068347D01*
X2046057Y-1073742D01*
X2054794Y-1076856D01*
X2067117Y-1081112D01*
X2081247Y-1085900D01*
X2092720Y-1089725D01*
X2114371Y-1097951D01*
X2130870Y-1106839D01*
X2142708Y-1116905D01*
X2150374Y-1128664D01*
X2154361Y-1142629D01*
X2155231Y-1155293D01*
X2154724Y-1164399D01*
X2152911Y-1173389D01*
X2149329Y-1183903D01*
X2143515Y-1197579D01*
X2142916Y-1198911D01*
X2127539Y-1230550D01*
X2109701Y-1262553D01*
X2089094Y-1295348D01*
X2065409Y-1329361D01*
X2038337Y-1365018D01*
X2007567Y-1402747D01*
X1972792Y-1442974D01*
X1939163Y-1480200D01*
X1913928Y-1507758D01*
X1892362Y-1531551D01*
X1874211Y-1551873D01*
X1859219Y-1569015D01*
X1847132Y-1583271D01*
X1837695Y-1594934D01*
X1830655Y-1604297D01*
X1828053Y-1608059D01*
X1815048Y-1630895D01*
X1807030Y-1652821D01*
X1804059Y-1673497D01*
X1806197Y-1692581D01*
G37*
X1806197Y-1692581D02*
X1810544Y-1704357D01*
X1819414Y-1717555D01*
X1831949Y-1729794D01*
X1846230Y-1739306D01*
X1850953Y-1741527D01*
X1860904Y-1745685D01*
X1887333Y-1728593D01*
X1941333Y-1690998D01*
X1995164Y-1648293D01*
X2048309Y-1601003D01*
X2100254Y-1549652D01*
X2150483Y-1494764D01*
X2198482Y-1436863D01*
X2243734Y-1376474D01*
X2268174Y-1341033D01*
X2275850Y-1329876D01*
X2282399Y-1320984D01*
X2287224Y-1315118D01*
X2289730Y-1313042D01*
X2289923Y-1313201D01*
X2289470Y-1317528D01*
X2287075Y-1326135D01*
X2283072Y-1338139D01*
X2277799Y-1352656D01*
X2271592Y-1368803D01*
X2264785Y-1385696D01*
X2257716Y-1402452D01*
X2250720Y-1418187D01*
X2246906Y-1426335D01*
X2218614Y-1479744D01*
X2187026Y-1528591D01*
X2152044Y-1572962D01*
X2113576Y-1612940D01*
X2071525Y-1648613D01*
X2025798Y-1680066D01*
X1976299Y-1707383D01*
X1922934Y-1730650D01*
X1900087Y-1738980D01*
X1865967Y-1750761D01*
X1852485Y-1772961D01*
X1839192Y-1798025D01*
X1831040Y-1820914D01*
X1828014Y-1841575D01*
X1830097Y-1859951D01*
X1837272Y-1875987D01*
X1849524Y-1889626D01*
X1866835Y-1900814D01*
X1889190Y-1909494D01*
X1892863Y-1910545D01*
X1907023Y-1914263D01*
X1917464Y-1916148D01*
X1925881Y-1915974D01*
X1933967Y-1913511D01*
X1943415Y-1908530D01*
X1953432Y-1902366D01*
X1999492Y-1871860D01*
X2047493Y-1837087D01*
X2096658Y-1798727D01*
X2146210Y-1757460D01*
X2195370Y-1713963D01*
X2243361Y-1668918D01*
X2289404Y-1623002D01*
X2332723Y-1576896D01*
X2355596Y-1551137D01*
X2366125Y-1538796D01*
X2376756Y-1525960D01*
X2386122Y-1514300D01*
X2391911Y-1506772D01*
X2399662Y-1496652D01*
X2404993Y-1490536D01*
X2407903Y-1488596D01*
X2408391Y-1491001D01*
X2406457Y-1497922D01*
X2402099Y-1509528D01*
X2395318Y-1525990D01*
X2391791Y-1534289D01*
X2365450Y-1588788D01*
X2334199Y-1640865D01*
X2298386Y-1690150D01*
X2258359Y-1736274D01*
X2214465Y-1778866D01*
X2167053Y-1817558D01*
X2116470Y-1851979D01*
X2066344Y-1880110D01*
X2042953Y-1891212D01*
X2016989Y-1902274D01*
X1990490Y-1912495D01*
X1965492Y-1921074D01*
X1951488Y-1925260D01*
X1942507Y-1927921D01*
X1937522Y-1930473D01*
X1935087Y-1934295D01*
X1933754Y-1940765D01*
X1933510Y-1942381D01*
X1932284Y-1964006D01*
X1935254Y-1983271D01*
X1942225Y-1999553D01*
X1953005Y-2012226D01*
X1955869Y-2014469D01*
X1967933Y-2021798D01*
X1981444Y-2026994D01*
X1997501Y-2030308D01*
X2017201Y-2031992D01*
X2033889Y-2032336D01*
X2069167Y-2032395D01*
X2093901Y-2020519D01*
X2137898Y-1997639D01*
X2181427Y-1971633D01*
X2223449Y-1943243D01*
X2262924Y-1913213D01*
X2298812Y-1882287D01*
X2328760Y-1852622D01*
X2348496Y-1830562D01*
X2370042Y-1804870D01*
X2392389Y-1776809D01*
X2414532Y-1747638D01*
X2433256Y-1721758D01*
X2442427Y-1708768D01*
X2450430Y-1697449D01*
X2456714Y-1688579D01*
X2460727Y-1682938D01*
X2461926Y-1681280D01*
X2464358Y-1681639D01*
X2464759Y-1681996D01*
X2465056Y-1685944D01*
X2462984Y-1694104D01*
X2458883Y-1705738D01*
X2453093Y-1720107D01*
X2445955Y-1736471D01*
X2437809Y-1754092D01*
X2428996Y-1772230D01*
X2419854Y-1790147D01*
X2410726Y-1807104D01*
X2401951Y-1822361D01*
X2395022Y-1833444D01*
X2364171Y-1875802D01*
X2330091Y-1914115D01*
X2293108Y-1948139D01*
X2253546Y-1977632D01*
X2211730Y-2002350D01*
X2167985Y-2022052D01*
X2124329Y-2036057D01*
X2114203Y-2038996D01*
X2106474Y-2041830D01*
X2102553Y-2044025D01*
X2102350Y-2044338D01*
X2103714Y-2048197D01*
X2108722Y-2053529D01*
X2115988Y-2059246D01*
X2124126Y-2064259D01*
X2131749Y-2067481D01*
X2131884Y-2067519D01*
X2152864Y-2070640D01*
X2176584Y-2069352D01*
X2202564Y-2063883D01*
X2230324Y-2054459D01*
X2259386Y-2041310D01*
X2289270Y-2024662D01*
X2319496Y-2004743D01*
X2349587Y-1981782D01*
X2379061Y-1956005D01*
X2391235Y-1944301D01*
X2431768Y-1900517D01*
X2467417Y-1854250D01*
X2498092Y-1805732D01*
X2523700Y-1755195D01*
X2544152Y-1702869D01*
X2559356Y-1648987D01*
X2569221Y-1593779D01*
X2573656Y-1537476D01*
X2572774Y-1483489D01*
X2567723Y-1436966D01*
X2558395Y-1388180D01*
X2545133Y-1338107D01*
X2528284Y-1287723D01*
X2508192Y-1238004D01*
X2485201Y-1189927D01*
X2459657Y-1144467D01*
X2444761Y-1121109D01*
X2408562Y-1071318D01*
X2369829Y-1026555D01*
X2328571Y-986827D01*
X2284798Y-952142D01*
X2238521Y-922506D01*
X2189749Y-897927D01*
X2138492Y-878411D01*
X2084760Y-863965D01*
X2082031Y-863381D01*
X2068514Y-860655D01*
X2056669Y-858665D01*
X2045118Y-857295D01*
X2032486Y-856430D01*
X2017393Y-855950D01*
X1998465Y-855742D01*
X1991556Y-855713D01*
X1968886Y-855817D01*
X1950767Y-856457D01*
X1936113Y-857890D01*
X1923836Y-860373D01*
X1912850Y-864164D01*
X1902069Y-869521D01*
X1890405Y-876701D01*
X1883516Y-881318D01*
X1864653Y-896014D01*
X1849411Y-912356D01*
X1836408Y-931954D01*
X1830535Y-943033D01*
X1820847Y-966606D01*
X1814552Y-992043D01*
X1811408Y-1020528D01*
X1810933Y-1038940D01*
X1812375Y-1065314D01*
X1816816Y-1087140D01*
X1824430Y-1104756D01*
X1835393Y-1118502D01*
X1849878Y-1128715D01*
X1859342Y-1132924D01*
X1884019Y-1139594D01*
X1907652Y-1140725D01*
X1930301Y-1136306D01*
X1952026Y-1126324D01*
X1972884Y-1110768D01*
X1973920Y-1109830D01*
X1991499Y-1090704D01*
X2005773Y-1068238D01*
X2017056Y-1041835D01*
X2025533Y-1011472D01*
X2027789Y-1002821D01*
X2029959Y-996934D01*
X2031282Y-995244D01*
X2033449Y-997639D01*
X2036543Y-1003725D01*
X2038227Y-1007826D01*
X2041398Y-1022686D01*
X2040176Y-1039682D01*
X2035266Y-1057431D01*
X2031414Y-1068347D01*
X2046057Y-1073742D01*
X2054794Y-1076856D01*
X2067117Y-1081112D01*
X2081247Y-1085900D01*
X2092720Y-1089725D01*
X2114371Y-1097951D01*
X2130870Y-1106839D01*
X2142708Y-1116905D01*
X2150374Y-1128664D01*
X2154361Y-1142629D01*
X2155231Y-1155293D01*
X2154724Y-1164399D01*
X2152911Y-1173389D01*
X2149329Y-1183903D01*
X2143515Y-1197579D01*
X2142916Y-1198911D01*
X2127539Y-1230550D01*
X2109701Y-1262553D01*
X2089094Y-1295348D01*
X2065409Y-1329361D01*
X2038337Y-1365018D01*
X2007567Y-1402747D01*
X1972792Y-1442974D01*
X1939163Y-1480200D01*
X1913928Y-1507758D01*
X1892362Y-1531551D01*
X1874211Y-1551873D01*
X1859219Y-1569015D01*
X1847132Y-1583271D01*
X1837695Y-1594934D01*
X1830655Y-1604297D01*
X1828053Y-1608059D01*
X1815048Y-1630895D01*
X1807030Y-1652821D01*
X1804059Y-1673497D01*
X1806197Y-1692581D01*
G36*
X2615569Y-1926232D02*
G01*
X2621237Y-1936956D01*
X2629901Y-1943951D01*
X2642406Y-1947757D01*
X2650636Y-1948651D01*
X2661528Y-1948964D01*
X2667391Y-1947731D01*
X2668771Y-1944284D01*
X2666213Y-1937959D01*
X2663385Y-1933108D01*
X2657558Y-1925388D01*
X2650633Y-1920780D01*
X2641053Y-1918589D01*
X2629710Y-1918111D01*
X2612738Y-1918111D01*
X2615569Y-1926232D01*
G37*
X2615569Y-1926232D02*
X2621237Y-1936956D01*
X2629901Y-1943951D01*
X2642406Y-1947757D01*
X2650636Y-1948651D01*
X2661528Y-1948964D01*
X2667391Y-1947731D01*
X2668771Y-1944284D01*
X2666213Y-1937959D01*
X2663385Y-1933108D01*
X2657558Y-1925388D01*
X2650633Y-1920780D01*
X2641053Y-1918589D01*
X2629710Y-1918111D01*
X2612738Y-1918111D01*
X2615569Y-1926232D01*
G36*
X2799334Y-1314099D02*
G01*
X2806582Y-1329342D01*
X2810634Y-1334517D01*
X2815174Y-1339025D01*
X2817450Y-1340088D01*
X2817434Y-1339041D01*
X2814001Y-1319492D01*
X2814651Y-1296876D01*
X2818358Y-1276056D01*
X2823337Y-1252398D01*
X2825780Y-1233206D01*
X2825713Y-1217916D01*
X2823161Y-1205964D01*
X2821789Y-1202678D01*
X2818107Y-1196271D01*
X2813491Y-1189906D01*
X2808787Y-1184461D01*
X2804841Y-1180814D01*
X2802497Y-1179843D01*
X2802601Y-1182427D01*
X2802781Y-1182922D01*
X2805787Y-1196225D01*
X2806431Y-1213067D01*
X2804735Y-1231872D01*
X2801823Y-1246808D01*
X2796971Y-1272999D01*
X2796136Y-1295374D01*
X2799334Y-1314099D01*
G37*
X2799334Y-1314099D02*
X2806582Y-1329342D01*
X2810634Y-1334517D01*
X2815174Y-1339025D01*
X2817450Y-1340088D01*
X2817434Y-1339041D01*
X2814001Y-1319492D01*
X2814651Y-1296876D01*
X2818358Y-1276056D01*
X2823337Y-1252398D01*
X2825780Y-1233206D01*
X2825713Y-1217916D01*
X2823161Y-1205964D01*
X2821789Y-1202678D01*
X2818107Y-1196271D01*
X2813491Y-1189906D01*
X2808787Y-1184461D01*
X2804841Y-1180814D01*
X2802497Y-1179843D01*
X2802601Y-1182427D01*
X2802781Y-1182922D01*
X2805787Y-1196225D01*
X2806431Y-1213067D01*
X2804735Y-1231872D01*
X2801823Y-1246808D01*
X2796971Y-1272999D01*
X2796136Y-1295374D01*
X2799334Y-1314099D01*
G36*
X2706989Y-2126956D02*
G01*
X2715890Y-2126760D01*
X2720525Y-2125776D01*
X2722270Y-2123411D01*
X2722511Y-2120255D01*
X2724086Y-2110213D01*
X2728185Y-2098193D01*
X2733870Y-2086672D01*
X2737051Y-2081824D01*
X2743176Y-2075780D01*
X2752204Y-2069345D01*
X2759086Y-2065491D01*
X2774722Y-2057811D01*
X2937000Y-2056012D01*
X2937000Y-2025356D01*
X2697111Y-2025356D01*
X2697111Y-2056400D01*
X2728766Y-2056400D01*
X2714604Y-2069133D01*
X2701788Y-2083949D01*
X2693972Y-2100604D01*
X2691467Y-2117581D01*
X2691467Y-2126956D01*
X2706989Y-2126956D01*
G37*
X2706989Y-2126956D02*
X2715890Y-2126760D01*
X2720525Y-2125776D01*
X2722270Y-2123411D01*
X2722511Y-2120255D01*
X2724086Y-2110213D01*
X2728185Y-2098193D01*
X2733870Y-2086672D01*
X2737051Y-2081824D01*
X2743176Y-2075780D01*
X2752204Y-2069345D01*
X2759086Y-2065491D01*
X2774722Y-2057811D01*
X2937000Y-2056012D01*
X2937000Y-2025356D01*
X2697111Y-2025356D01*
X2697111Y-2056400D01*
X2728766Y-2056400D01*
X2714604Y-2069133D01*
X2701788Y-2083949D01*
X2693972Y-2100604D01*
X2691467Y-2117581D01*
X2691467Y-2126956D01*
X2706989Y-2126956D01*
G36*
X2699563Y-1931182D02*
G01*
X2705992Y-1939202D01*
X2714076Y-1944938D01*
X2717008Y-1946048D01*
X2721448Y-1946951D01*
X2727936Y-1947668D01*
X2737009Y-1948217D01*
X2749209Y-1948620D01*
X2765072Y-1948895D01*
X2785138Y-1949063D01*
X2809946Y-1949142D01*
X2829615Y-1949156D01*
X2937000Y-1949156D01*
X2937000Y-1918111D01*
X2817056Y-1918111D01*
X2787868Y-1918122D01*
X2763829Y-1918169D01*
X2744440Y-1918273D01*
X2729205Y-1918455D01*
X2717627Y-1918735D01*
X2709209Y-1919135D01*
X2703455Y-1919674D01*
X2699866Y-1920374D01*
X2697948Y-1921256D01*
X2697202Y-1922340D01*
X2697111Y-1923128D01*
X2699563Y-1931182D01*
G37*
X2699563Y-1931182D02*
X2705992Y-1939202D01*
X2714076Y-1944938D01*
X2717008Y-1946048D01*
X2721448Y-1946951D01*
X2727936Y-1947668D01*
X2737009Y-1948217D01*
X2749209Y-1948620D01*
X2765072Y-1948895D01*
X2785138Y-1949063D01*
X2809946Y-1949142D01*
X2829615Y-1949156D01*
X2937000Y-1949156D01*
X2937000Y-1918111D01*
X2817056Y-1918111D01*
X2787868Y-1918122D01*
X2763829Y-1918169D01*
X2744440Y-1918273D01*
X2729205Y-1918455D01*
X2717627Y-1918735D01*
X2709209Y-1919135D01*
X2703455Y-1919674D01*
X2699866Y-1920374D01*
X2697948Y-1921256D01*
X2697202Y-1922340D01*
X2697111Y-1923128D01*
X2699563Y-1931182D01*
G36*
X2610573Y-947972D02*
G01*
X2611809Y-977656D01*
X2613629Y-1002407D01*
X2616192Y-1022920D01*
X2619654Y-1039889D01*
X2624173Y-1054011D01*
X2629906Y-1065979D01*
X2637011Y-1076488D01*
X2640711Y-1080941D01*
X2655080Y-1093243D01*
X2672792Y-1102047D01*
X2692750Y-1107343D01*
X2713857Y-1109123D01*
X2735017Y-1107375D01*
X2755135Y-1102090D01*
X2773113Y-1093257D01*
X2786545Y-1082280D01*
X2795714Y-1070075D01*
X2803789Y-1054624D01*
X2809651Y-1038323D01*
X2811765Y-1028251D01*
X2813379Y-1019845D01*
X2815499Y-1016264D01*
X2817580Y-1016222D01*
X2820856Y-1018295D01*
X2827955Y-1023312D01*
X2838219Y-1030790D01*
X2850986Y-1040244D01*
X2865596Y-1051190D01*
X2877411Y-1060121D01*
X2892837Y-1071766D01*
X2906790Y-1082188D01*
X2918639Y-1090924D01*
X2927755Y-1097513D01*
X2933507Y-1101493D01*
X2935250Y-1102489D01*
X2936131Y-1099912D01*
X2936557Y-1093139D01*
X2936440Y-1083605D01*
X2936418Y-1083071D01*
X2935589Y-1063652D01*
X2863622Y-1010065D01*
X2846071Y-997017D01*
X2830038Y-985139D01*
X2816063Y-974828D01*
X2804689Y-966481D01*
X2796457Y-960498D01*
X2791909Y-957275D01*
X2791173Y-956823D01*
X2790738Y-959592D01*
X2789918Y-966861D01*
X2788830Y-977512D01*
X2787655Y-989787D01*
X2785150Y-1011241D01*
X2781909Y-1028049D01*
X2777615Y-1041192D01*
X2771947Y-1051652D01*
X2764812Y-1060188D01*
X2751072Y-1069955D01*
X2733640Y-1075463D01*
X2712508Y-1076714D01*
X2706771Y-1076372D01*
X2689027Y-1073404D01*
X2674398Y-1067380D01*
X2662685Y-1057949D01*
X2653687Y-1044763D01*
X2647202Y-1027474D01*
X2643031Y-1005732D01*
X2640972Y-979189D01*
X2640667Y-961551D01*
X2640667Y-921917D01*
X2935589Y-920456D01*
X2937282Y-888000D01*
X2608728Y-888000D01*
X2610573Y-947972D01*
G37*
X2610573Y-947972D02*
X2611809Y-977656D01*
X2613629Y-1002407D01*
X2616192Y-1022920D01*
X2619654Y-1039889D01*
X2624173Y-1054011D01*
X2629906Y-1065979D01*
X2637011Y-1076488D01*
X2640711Y-1080941D01*
X2655080Y-1093243D01*
X2672792Y-1102047D01*
X2692750Y-1107343D01*
X2713857Y-1109123D01*
X2735017Y-1107375D01*
X2755135Y-1102090D01*
X2773113Y-1093257D01*
X2786545Y-1082280D01*
X2795714Y-1070075D01*
X2803789Y-1054624D01*
X2809651Y-1038323D01*
X2811765Y-1028251D01*
X2813379Y-1019845D01*
X2815499Y-1016264D01*
X2817580Y-1016222D01*
X2820856Y-1018295D01*
X2827955Y-1023312D01*
X2838219Y-1030790D01*
X2850986Y-1040244D01*
X2865596Y-1051190D01*
X2877411Y-1060121D01*
X2892837Y-1071766D01*
X2906790Y-1082188D01*
X2918639Y-1090924D01*
X2927755Y-1097513D01*
X2933507Y-1101493D01*
X2935250Y-1102489D01*
X2936131Y-1099912D01*
X2936557Y-1093139D01*
X2936440Y-1083605D01*
X2936418Y-1083071D01*
X2935589Y-1063652D01*
X2863622Y-1010065D01*
X2846071Y-997017D01*
X2830038Y-985139D01*
X2816063Y-974828D01*
X2804689Y-966481D01*
X2796457Y-960498D01*
X2791909Y-957275D01*
X2791173Y-956823D01*
X2790738Y-959592D01*
X2789918Y-966861D01*
X2788830Y-977512D01*
X2787655Y-989787D01*
X2785150Y-1011241D01*
X2781909Y-1028049D01*
X2777615Y-1041192D01*
X2771947Y-1051652D01*
X2764812Y-1060188D01*
X2751072Y-1069955D01*
X2733640Y-1075463D01*
X2712508Y-1076714D01*
X2706771Y-1076372D01*
X2689027Y-1073404D01*
X2674398Y-1067380D01*
X2662685Y-1057949D01*
X2653687Y-1044763D01*
X2647202Y-1027474D01*
X2643031Y-1005732D01*
X2640972Y-979189D01*
X2640667Y-961551D01*
X2640667Y-921917D01*
X2935589Y-920456D01*
X2937282Y-888000D01*
X2608728Y-888000D01*
X2610573Y-947972D01*
G36*
X2695814Y-2303457D02*
G01*
X2701210Y-2318499D01*
X2709173Y-2333519D01*
X2718559Y-2346657D01*
X2728102Y-2355962D01*
X2733644Y-2360614D01*
X2736512Y-2364105D01*
X2736622Y-2364553D01*
X2734039Y-2365682D01*
X2727240Y-2366501D01*
X2717654Y-2366843D01*
X2716867Y-2366845D01*
X2697111Y-2366845D01*
X2697111Y-2397889D01*
X2937000Y-2397889D01*
X2937000Y-2366845D01*
X2917244Y-2366845D01*
X2907507Y-2366614D01*
X2900451Y-2366008D01*
X2897504Y-2365154D01*
X2897489Y-2365084D01*
X2899442Y-2362426D01*
X2904507Y-2357329D01*
X2910085Y-2352235D01*
X2919865Y-2341578D01*
X2928871Y-2328147D01*
X2931646Y-2322938D01*
X2936184Y-2312952D01*
X2939013Y-2304125D01*
X2940611Y-2294316D01*
X2941458Y-2281383D01*
X2941565Y-2278637D01*
X2941585Y-2262826D01*
X2940580Y-2248517D01*
X2938856Y-2238433D01*
X2931320Y-2216044D01*
X2920932Y-2197200D01*
X2908586Y-2182050D01*
X2890959Y-2165978D01*
X2872491Y-2154607D01*
X2852169Y-2147548D01*
X2828977Y-2144414D01*
X2813307Y-2144371D01*
X2813307Y-2175859D01*
X2832642Y-2177299D01*
X2850650Y-2181817D01*
X2856567Y-2184253D01*
X2876826Y-2196568D01*
X2892868Y-2212292D01*
X2904436Y-2230810D01*
X2911275Y-2251511D01*
X2913128Y-2273781D01*
X2909739Y-2297008D01*
X2907201Y-2305445D01*
X2898291Y-2323102D01*
X2885002Y-2338260D01*
X2868227Y-2350437D01*
X2848857Y-2359151D01*
X2827785Y-2363919D01*
X2805904Y-2364261D01*
X2799695Y-2363489D01*
X2778504Y-2357508D01*
X2759874Y-2347058D01*
X2744299Y-2332884D01*
X2732273Y-2315730D01*
X2724291Y-2296342D01*
X2720847Y-2275465D01*
X2722435Y-2253843D01*
X2723576Y-2248798D01*
X2731987Y-2226864D01*
X2744986Y-2207734D01*
X2761976Y-2192129D01*
X2778610Y-2182404D01*
X2794634Y-2177545D01*
X2813307Y-2175859D01*
X2813307Y-2144371D01*
X2810096Y-2144362D01*
X2796270Y-2145141D01*
X2786047Y-2146476D01*
X2777385Y-2148824D01*
X2768243Y-2152647D01*
X2763806Y-2154784D01*
X2741467Y-2168779D01*
X2722851Y-2186572D01*
X2708282Y-2207452D01*
X2698084Y-2230709D01*
X2692583Y-2255633D01*
X2692104Y-2281514D01*
X2695814Y-2303457D01*
G37*
X2695814Y-2303457D02*
X2701210Y-2318499D01*
X2709173Y-2333519D01*
X2718559Y-2346657D01*
X2728102Y-2355962D01*
X2733644Y-2360614D01*
X2736512Y-2364105D01*
X2736622Y-2364553D01*
X2734039Y-2365682D01*
X2727240Y-2366501D01*
X2717654Y-2366843D01*
X2716867Y-2366845D01*
X2697111Y-2366845D01*
X2697111Y-2397889D01*
X2937000Y-2397889D01*
X2937000Y-2366845D01*
X2917244Y-2366845D01*
X2907507Y-2366614D01*
X2900451Y-2366008D01*
X2897504Y-2365154D01*
X2897489Y-2365084D01*
X2899442Y-2362426D01*
X2904507Y-2357329D01*
X2910085Y-2352235D01*
X2919865Y-2341578D01*
X2928871Y-2328147D01*
X2931646Y-2322938D01*
X2936184Y-2312952D01*
X2939013Y-2304125D01*
X2940611Y-2294316D01*
X2941458Y-2281383D01*
X2941565Y-2278637D01*
X2941585Y-2262826D01*
X2940580Y-2248517D01*
X2938856Y-2238433D01*
X2931320Y-2216044D01*
X2920932Y-2197200D01*
X2908586Y-2182050D01*
X2890959Y-2165978D01*
X2872491Y-2154607D01*
X2852169Y-2147548D01*
X2828977Y-2144414D01*
X2813307Y-2144371D01*
X2813307Y-2175859D01*
X2832642Y-2177299D01*
X2850650Y-2181817D01*
X2856567Y-2184253D01*
X2876826Y-2196568D01*
X2892868Y-2212292D01*
X2904436Y-2230810D01*
X2911275Y-2251511D01*
X2913128Y-2273781D01*
X2909739Y-2297008D01*
X2907201Y-2305445D01*
X2898291Y-2323102D01*
X2885002Y-2338260D01*
X2868227Y-2350437D01*
X2848857Y-2359151D01*
X2827785Y-2363919D01*
X2805904Y-2364261D01*
X2799695Y-2363489D01*
X2778504Y-2357508D01*
X2759874Y-2347058D01*
X2744299Y-2332884D01*
X2732273Y-2315730D01*
X2724291Y-2296342D01*
X2720847Y-2275465D01*
X2722435Y-2253843D01*
X2723576Y-2248798D01*
X2731987Y-2226864D01*
X2744986Y-2207734D01*
X2761976Y-2192129D01*
X2778610Y-2182404D01*
X2794634Y-2177545D01*
X2813307Y-2175859D01*
X2813307Y-2144371D01*
X2810096Y-2144362D01*
X2796270Y-2145141D01*
X2786047Y-2146476D01*
X2777385Y-2148824D01*
X2768243Y-2152647D01*
X2763806Y-2154784D01*
X2741467Y-2168779D01*
X2722851Y-2186572D01*
X2708282Y-2207452D01*
X2698084Y-2230709D01*
X2692583Y-2255633D01*
X2692104Y-2281514D01*
X2695814Y-2303457D01*
G36*
X2696707Y-1522520D02*
G01*
X2704771Y-1537566D01*
X2716412Y-1550107D01*
X2731315Y-1559273D01*
X2745795Y-1563668D01*
X2756378Y-1565589D01*
X2756378Y-1548528D01*
X2756224Y-1539094D01*
X2755410Y-1533985D01*
X2753408Y-1531882D01*
X2749689Y-1531467D01*
X2749539Y-1531467D01*
X2741191Y-1529030D01*
X2732757Y-1522725D01*
X2725874Y-1514057D01*
X2722674Y-1506763D01*
X2721405Y-1492969D01*
X2724906Y-1480643D01*
X2732359Y-1470683D01*
X2742940Y-1463990D01*
X2755829Y-1461460D01*
X2763447Y-1462139D01*
X2772215Y-1465609D01*
X2780157Y-1472919D01*
X2787787Y-1484680D01*
X2794740Y-1499406D01*
X2802834Y-1518009D01*
X2809578Y-1532143D01*
X2815509Y-1542660D01*
X2821168Y-1550410D01*
X2827093Y-1556244D01*
X2833808Y-1561001D01*
X2841801Y-1565532D01*
X2848826Y-1568095D01*
X2857065Y-1569210D01*
X2868699Y-1569397D01*
X2869051Y-1569394D01*
X2882054Y-1568848D01*
X2891912Y-1567107D01*
X2901083Y-1563643D01*
X2905075Y-1561674D01*
X2920752Y-1550627D01*
X2932371Y-1536125D01*
X2939696Y-1518864D01*
X2942493Y-1499542D01*
X2940527Y-1478854D01*
X2937130Y-1466556D01*
X2928842Y-1450450D01*
X2916554Y-1437139D01*
X2901375Y-1427432D01*
X2884413Y-1422139D01*
X2875289Y-1421400D01*
X2870233Y-1421633D01*
X2867601Y-1423260D01*
X2866602Y-1427668D01*
X2866444Y-1436249D01*
X2866444Y-1436922D01*
X2866618Y-1445806D01*
X2867576Y-1450432D01*
X2869972Y-1452182D01*
X2873779Y-1452444D01*
X2885183Y-1454720D01*
X2896443Y-1460623D01*
X2905063Y-1468766D01*
X2906208Y-1470471D01*
X2912451Y-1485265D01*
X2913635Y-1499704D01*
X2910231Y-1512923D01*
X2902710Y-1524058D01*
X2891544Y-1532244D01*
X2877204Y-1536618D01*
X2869888Y-1537111D01*
X2860362Y-1536722D01*
X2854061Y-1534930D01*
X2848582Y-1530795D01*
X2845381Y-1527536D01*
X2840176Y-1520427D01*
X2833939Y-1509460D01*
X2827473Y-1496115D01*
X2824289Y-1488731D01*
X2816747Y-1471333D01*
X2810139Y-1458411D01*
X2803797Y-1449030D01*
X2797057Y-1442253D01*
X2789251Y-1437145D01*
X2786608Y-1435800D01*
X2769405Y-1430431D01*
X2751474Y-1430032D01*
X2734059Y-1434309D01*
X2718402Y-1442967D01*
X2706500Y-1454708D01*
X2697117Y-1471064D01*
X2692566Y-1488399D01*
X2692534Y-1505841D01*
X2696707Y-1522520D01*
G37*
X2696707Y-1522520D02*
X2704771Y-1537566D01*
X2716412Y-1550107D01*
X2731315Y-1559273D01*
X2745795Y-1563668D01*
X2756378Y-1565589D01*
X2756378Y-1548528D01*
X2756224Y-1539094D01*
X2755410Y-1533985D01*
X2753408Y-1531882D01*
X2749689Y-1531467D01*
X2749539Y-1531467D01*
X2741191Y-1529030D01*
X2732757Y-1522725D01*
X2725874Y-1514057D01*
X2722674Y-1506763D01*
X2721405Y-1492969D01*
X2724906Y-1480643D01*
X2732359Y-1470683D01*
X2742940Y-1463990D01*
X2755829Y-1461460D01*
X2763447Y-1462139D01*
X2772215Y-1465609D01*
X2780157Y-1472919D01*
X2787787Y-1484680D01*
X2794740Y-1499406D01*
X2802834Y-1518009D01*
X2809578Y-1532143D01*
X2815509Y-1542660D01*
X2821168Y-1550410D01*
X2827093Y-1556244D01*
X2833808Y-1561001D01*
X2841801Y-1565532D01*
X2848826Y-1568095D01*
X2857065Y-1569210D01*
X2868699Y-1569397D01*
X2869051Y-1569394D01*
X2882054Y-1568848D01*
X2891912Y-1567107D01*
X2901083Y-1563643D01*
X2905075Y-1561674D01*
X2920752Y-1550627D01*
X2932371Y-1536125D01*
X2939696Y-1518864D01*
X2942493Y-1499542D01*
X2940527Y-1478854D01*
X2937130Y-1466556D01*
X2928842Y-1450450D01*
X2916554Y-1437139D01*
X2901375Y-1427432D01*
X2884413Y-1422139D01*
X2875289Y-1421400D01*
X2870233Y-1421633D01*
X2867601Y-1423260D01*
X2866602Y-1427668D01*
X2866444Y-1436249D01*
X2866444Y-1436922D01*
X2866618Y-1445806D01*
X2867576Y-1450432D01*
X2869972Y-1452182D01*
X2873779Y-1452444D01*
X2885183Y-1454720D01*
X2896443Y-1460623D01*
X2905063Y-1468766D01*
X2906208Y-1470471D01*
X2912451Y-1485265D01*
X2913635Y-1499704D01*
X2910231Y-1512923D01*
X2902710Y-1524058D01*
X2891544Y-1532244D01*
X2877204Y-1536618D01*
X2869888Y-1537111D01*
X2860362Y-1536722D01*
X2854061Y-1534930D01*
X2848582Y-1530795D01*
X2845381Y-1527536D01*
X2840176Y-1520427D01*
X2833939Y-1509460D01*
X2827473Y-1496115D01*
X2824289Y-1488731D01*
X2816747Y-1471333D01*
X2810139Y-1458411D01*
X2803797Y-1449030D01*
X2797057Y-1442253D01*
X2789251Y-1437145D01*
X2786608Y-1435800D01*
X2769405Y-1430431D01*
X2751474Y-1430032D01*
X2734059Y-1434309D01*
X2718402Y-1442967D01*
X2706500Y-1454708D01*
X2697117Y-1471064D01*
X2692566Y-1488399D01*
X2692534Y-1505841D01*
X2696707Y-1522520D01*
G36*
X2695069Y-1295573D02*
G01*
X2702672Y-1316246D01*
X2713107Y-1333600D01*
X2727079Y-1349736D01*
X2742971Y-1362955D01*
X2752481Y-1368640D01*
X2768401Y-1375611D01*
X2784867Y-1380963D01*
X2799887Y-1384115D01*
X2807690Y-1384711D01*
X2818467Y-1384711D01*
X2818467Y-1357780D01*
X2801527Y-1354561D01*
X2777869Y-1347545D01*
X2757540Y-1336254D01*
X2740915Y-1320961D01*
X2728371Y-1301939D01*
X2728132Y-1301456D01*
X2724692Y-1293577D01*
X2722591Y-1285851D01*
X2721519Y-1276466D01*
X2721168Y-1263613D01*
X2721157Y-1260533D01*
X2721326Y-1247235D01*
X2722091Y-1237778D01*
X2723785Y-1230364D01*
X2726743Y-1223196D01*
X2728874Y-1219000D01*
X2742066Y-1199526D01*
X2758882Y-1184372D01*
X2773067Y-1176205D01*
X2781329Y-1172671D01*
X2788963Y-1170475D01*
X2797759Y-1169316D01*
X2809507Y-1168897D01*
X2817056Y-1168872D01*
X2831170Y-1169114D01*
X2841324Y-1169949D01*
X2849195Y-1171645D01*
X2856457Y-1174468D01*
X2858644Y-1175514D01*
X2876554Y-1187244D01*
X2891979Y-1203087D01*
X2902107Y-1218809D01*
X2908555Y-1236731D01*
X2911378Y-1256963D01*
X2910465Y-1277398D01*
X2906135Y-1294815D01*
X2898385Y-1310234D01*
X2887682Y-1324614D01*
X2875471Y-1336197D01*
X2868143Y-1341009D01*
X2862410Y-1344415D01*
X2859377Y-1347921D01*
X2858185Y-1353365D01*
X2857978Y-1362584D01*
X2857978Y-1362775D01*
X2858214Y-1371514D01*
X2858827Y-1377427D01*
X2859483Y-1379067D01*
X2862619Y-1377889D01*
X2869179Y-1374842D01*
X2875581Y-1371672D01*
X2893358Y-1359847D01*
X2909630Y-1343696D01*
X2923459Y-1324507D01*
X2933906Y-1303569D01*
X2939807Y-1283432D01*
X2941873Y-1268999D01*
X2942026Y-1256026D01*
X2940236Y-1241574D01*
X2939328Y-1236573D01*
X2933570Y-1217244D01*
X2924157Y-1197733D01*
X2912319Y-1180374D01*
X2906126Y-1173483D01*
X2887251Y-1157335D01*
X2867400Y-1146064D01*
X2845616Y-1139317D01*
X2820944Y-1136738D01*
X2807496Y-1136889D01*
X2793477Y-1137740D01*
X2783032Y-1139191D01*
X2774094Y-1141698D01*
X2764595Y-1145719D01*
X2762022Y-1146950D01*
X2739886Y-1160655D01*
X2721524Y-1178056D01*
X2707186Y-1198441D01*
X2697122Y-1221097D01*
X2691581Y-1245313D01*
X2690813Y-1270376D01*
X2695069Y-1295573D01*
G37*
X2695069Y-1295573D02*
X2702672Y-1316246D01*
X2713107Y-1333600D01*
X2727079Y-1349736D01*
X2742971Y-1362955D01*
X2752481Y-1368640D01*
X2768401Y-1375611D01*
X2784867Y-1380963D01*
X2799887Y-1384115D01*
X2807690Y-1384711D01*
X2818467Y-1384711D01*
X2818467Y-1357780D01*
X2801527Y-1354561D01*
X2777869Y-1347545D01*
X2757540Y-1336254D01*
X2740915Y-1320961D01*
X2728371Y-1301939D01*
X2728132Y-1301456D01*
X2724692Y-1293577D01*
X2722591Y-1285851D01*
X2721519Y-1276466D01*
X2721168Y-1263613D01*
X2721157Y-1260533D01*
X2721326Y-1247235D01*
X2722091Y-1237778D01*
X2723785Y-1230364D01*
X2726743Y-1223196D01*
X2728874Y-1219000D01*
X2742066Y-1199526D01*
X2758882Y-1184372D01*
X2773067Y-1176205D01*
X2781329Y-1172671D01*
X2788963Y-1170475D01*
X2797759Y-1169316D01*
X2809507Y-1168897D01*
X2817056Y-1168872D01*
X2831170Y-1169114D01*
X2841324Y-1169949D01*
X2849195Y-1171645D01*
X2856457Y-1174468D01*
X2858644Y-1175514D01*
X2876554Y-1187244D01*
X2891979Y-1203087D01*
X2902107Y-1218809D01*
X2908555Y-1236731D01*
X2911378Y-1256963D01*
X2910465Y-1277398D01*
X2906135Y-1294815D01*
X2898385Y-1310234D01*
X2887682Y-1324614D01*
X2875471Y-1336197D01*
X2868143Y-1341009D01*
X2862410Y-1344415D01*
X2859377Y-1347921D01*
X2858185Y-1353365D01*
X2857978Y-1362584D01*
X2857978Y-1362775D01*
X2858214Y-1371514D01*
X2858827Y-1377427D01*
X2859483Y-1379067D01*
X2862619Y-1377889D01*
X2869179Y-1374842D01*
X2875581Y-1371672D01*
X2893358Y-1359847D01*
X2909630Y-1343696D01*
X2923459Y-1324507D01*
X2933906Y-1303569D01*
X2939807Y-1283432D01*
X2941873Y-1268999D01*
X2942026Y-1256026D01*
X2940236Y-1241574D01*
X2939328Y-1236573D01*
X2933570Y-1217244D01*
X2924157Y-1197733D01*
X2912319Y-1180374D01*
X2906126Y-1173483D01*
X2887251Y-1157335D01*
X2867400Y-1146064D01*
X2845616Y-1139317D01*
X2820944Y-1136738D01*
X2807496Y-1136889D01*
X2793477Y-1137740D01*
X2783032Y-1139191D01*
X2774094Y-1141698D01*
X2764595Y-1145719D01*
X2762022Y-1146950D01*
X2739886Y-1160655D01*
X2721524Y-1178056D01*
X2707186Y-1198441D01*
X2697122Y-1221097D01*
X2691581Y-1245313D01*
X2690813Y-1270376D01*
X2695069Y-1295573D01*
G36*
X2694452Y-1771663D02*
G01*
X2701855Y-1794378D01*
X2713274Y-1815480D01*
X2728603Y-1834171D01*
X2746680Y-1848962D01*
X2769562Y-1861059D01*
X2793457Y-1868095D01*
X2817681Y-1870293D01*
X2841550Y-1867873D01*
X2864380Y-1861057D01*
X2885487Y-1850067D01*
X2904188Y-1835125D01*
X2919798Y-1816452D01*
X2931633Y-1794270D01*
X2933892Y-1788289D01*
X2939869Y-1764233D01*
X2941427Y-1739983D01*
X2938710Y-1716558D01*
X2931866Y-1694979D01*
X2921040Y-1676265D01*
X2917230Y-1671582D01*
X2912123Y-1666121D01*
X2907631Y-1663040D01*
X2901881Y-1661660D01*
X2893003Y-1661300D01*
X2888899Y-1661289D01*
X2869605Y-1661289D01*
X2884881Y-1675737D01*
X2897748Y-1690335D01*
X2906134Y-1706085D01*
X2910560Y-1724273D01*
X2911600Y-1741722D01*
X2909108Y-1765546D01*
X2901800Y-1786799D01*
X2889926Y-1805076D01*
X2873736Y-1819973D01*
X2857415Y-1829381D01*
X2847071Y-1833671D01*
X2837861Y-1836161D01*
X2827427Y-1837315D01*
X2815585Y-1837591D01*
X2802887Y-1837397D01*
X2793545Y-1836380D01*
X2785282Y-1834051D01*
X2775819Y-1829922D01*
X2772665Y-1828387D01*
X2753524Y-1816293D01*
X2738350Y-1800563D01*
X2727654Y-1783029D01*
X2724413Y-1775436D01*
X2722440Y-1767558D01*
X2721451Y-1757641D01*
X2721159Y-1743932D01*
X2721157Y-1743133D01*
X2721324Y-1729855D01*
X2722084Y-1720412D01*
X2723776Y-1712998D01*
X2726738Y-1705809D01*
X2728971Y-1701409D01*
X2742453Y-1681569D01*
X2759929Y-1665717D01*
X2775021Y-1656756D01*
X2791656Y-1648589D01*
X2906661Y-1647737D01*
X3021667Y-1646885D01*
X3021667Y-1616133D01*
X2694289Y-1616133D01*
X2694289Y-1647178D01*
X2714045Y-1647178D01*
X2723783Y-1647296D01*
X2730839Y-1647608D01*
X2733785Y-1648048D01*
X2733800Y-1648084D01*
X2732007Y-1650424D01*
X2727329Y-1655634D01*
X2721459Y-1661870D01*
X2707162Y-1680663D01*
X2697421Y-1701837D01*
X2692128Y-1724594D01*
X2691174Y-1748136D01*
X2694452Y-1771663D01*
G37*
X2694452Y-1771663D02*
X2701855Y-1794378D01*
X2713274Y-1815480D01*
X2728603Y-1834171D01*
X2746680Y-1848962D01*
X2769562Y-1861059D01*
X2793457Y-1868095D01*
X2817681Y-1870293D01*
X2841550Y-1867873D01*
X2864380Y-1861057D01*
X2885487Y-1850067D01*
X2904188Y-1835125D01*
X2919798Y-1816452D01*
X2931633Y-1794270D01*
X2933892Y-1788289D01*
X2939869Y-1764233D01*
X2941427Y-1739983D01*
X2938710Y-1716558D01*
X2931866Y-1694979D01*
X2921040Y-1676265D01*
X2917230Y-1671582D01*
X2912123Y-1666121D01*
X2907631Y-1663040D01*
X2901881Y-1661660D01*
X2893003Y-1661300D01*
X2888899Y-1661289D01*
X2869605Y-1661289D01*
X2884881Y-1675737D01*
X2897748Y-1690335D01*
X2906134Y-1706085D01*
X2910560Y-1724273D01*
X2911600Y-1741722D01*
X2909108Y-1765546D01*
X2901800Y-1786799D01*
X2889926Y-1805076D01*
X2873736Y-1819973D01*
X2857415Y-1829381D01*
X2847071Y-1833671D01*
X2837861Y-1836161D01*
X2827427Y-1837315D01*
X2815585Y-1837591D01*
X2802887Y-1837397D01*
X2793545Y-1836380D01*
X2785282Y-1834051D01*
X2775819Y-1829922D01*
X2772665Y-1828387D01*
X2753524Y-1816293D01*
X2738350Y-1800563D01*
X2727654Y-1783029D01*
X2724413Y-1775436D01*
X2722440Y-1767558D01*
X2721451Y-1757641D01*
X2721159Y-1743932D01*
X2721157Y-1743133D01*
X2721324Y-1729855D01*
X2722084Y-1720412D01*
X2723776Y-1712998D01*
X2726738Y-1705809D01*
X2728971Y-1701409D01*
X2742453Y-1681569D01*
X2759929Y-1665717D01*
X2775021Y-1656756D01*
X2791656Y-1648589D01*
X2906661Y-1647737D01*
X3021667Y-1646885D01*
X3021667Y-1616133D01*
X2694289Y-1616133D01*
X2694289Y-1647178D01*
X2714045Y-1647178D01*
X2723783Y-1647296D01*
X2730839Y-1647608D01*
X2733785Y-1648048D01*
X2733800Y-1648084D01*
X2732007Y-1650424D01*
X2727329Y-1655634D01*
X2721459Y-1661870D01*
X2707162Y-1680663D01*
X2697421Y-1701837D01*
X2692128Y-1724594D01*
X2691174Y-1748136D01*
X2694452Y-1771663D01*
G36*
X3103811Y-1838610D02*
G01*
X3105403Y-1841293D01*
X3109506Y-1841034D01*
X3111272Y-1840615D01*
X3120166Y-1837681D01*
X3127207Y-1833201D01*
X3133208Y-1826214D01*
X3138980Y-1815757D01*
X3145334Y-1800869D01*
X3145795Y-1799702D01*
X3151509Y-1785207D01*
X3140915Y-1787125D01*
X3131387Y-1789572D01*
X3122738Y-1792889D01*
X3122339Y-1793087D01*
X3115024Y-1799443D01*
X3108866Y-1809588D01*
X3104766Y-1821668D01*
X3103573Y-1831634D01*
X3103811Y-1838610D01*
G37*
X3103811Y-1838610D02*
X3105403Y-1841293D01*
X3109506Y-1841034D01*
X3111272Y-1840615D01*
X3120166Y-1837681D01*
X3127207Y-1833201D01*
X3133208Y-1826214D01*
X3138980Y-1815757D01*
X3145334Y-1800869D01*
X3145795Y-1799702D01*
X3151509Y-1785207D01*
X3140915Y-1787125D01*
X3131387Y-1789572D01*
X3122738Y-1792889D01*
X3122339Y-1793087D01*
X3115024Y-1799443D01*
X3108866Y-1809588D01*
X3104766Y-1821668D01*
X3103573Y-1831634D01*
X3103811Y-1838610D01*
G36*
X3024770Y-1430981D02*
G01*
X3026606Y-1432734D01*
X3030105Y-1431989D01*
X3038344Y-1429828D01*
X3050738Y-1426421D01*
X3066702Y-1421941D01*
X3085650Y-1416556D01*
X3106998Y-1410439D01*
X3130161Y-1403760D01*
X3154553Y-1396690D01*
X3179589Y-1389400D01*
X3204684Y-1382061D01*
X3229254Y-1374843D01*
X3252713Y-1367918D01*
X3274476Y-1361456D01*
X3293958Y-1355629D01*
X3310574Y-1350607D01*
X3323739Y-1346561D01*
X3332868Y-1343661D01*
X3337376Y-1342080D01*
X3337756Y-1341861D01*
X3335272Y-1340060D01*
X3328746Y-1337301D01*
X3319564Y-1334164D01*
X3319114Y-1334025D01*
X3308085Y-1331035D01*
X3297826Y-1328954D01*
X3291245Y-1328267D01*
X3286565Y-1329031D01*
X3277172Y-1331191D01*
X3263767Y-1334552D01*
X3247051Y-1338916D01*
X3227726Y-1344088D01*
X3206493Y-1349870D01*
X3184054Y-1356066D01*
X3161110Y-1362480D01*
X3138362Y-1368915D01*
X3116513Y-1375174D01*
X3096263Y-1381062D01*
X3078314Y-1386381D01*
X3063367Y-1390935D01*
X3052124Y-1394528D01*
X3045286Y-1396963D01*
X3044016Y-1397529D01*
X3036611Y-1403085D01*
X3030274Y-1410546D01*
X3030019Y-1410954D01*
X3026510Y-1418402D01*
X3024671Y-1425648D01*
X3024770Y-1430981D01*
G37*
X3024770Y-1430981D02*
X3026606Y-1432734D01*
X3030105Y-1431989D01*
X3038344Y-1429828D01*
X3050738Y-1426421D01*
X3066702Y-1421941D01*
X3085650Y-1416556D01*
X3106998Y-1410439D01*
X3130161Y-1403760D01*
X3154553Y-1396690D01*
X3179589Y-1389400D01*
X3204684Y-1382061D01*
X3229254Y-1374843D01*
X3252713Y-1367918D01*
X3274476Y-1361456D01*
X3293958Y-1355629D01*
X3310574Y-1350607D01*
X3323739Y-1346561D01*
X3332868Y-1343661D01*
X3337376Y-1342080D01*
X3337756Y-1341861D01*
X3335272Y-1340060D01*
X3328746Y-1337301D01*
X3319564Y-1334164D01*
X3319114Y-1334025D01*
X3308085Y-1331035D01*
X3297826Y-1328954D01*
X3291245Y-1328267D01*
X3286565Y-1329031D01*
X3277172Y-1331191D01*
X3263767Y-1334552D01*
X3247051Y-1338916D01*
X3227726Y-1344088D01*
X3206493Y-1349870D01*
X3184054Y-1356066D01*
X3161110Y-1362480D01*
X3138362Y-1368915D01*
X3116513Y-1375174D01*
X3096263Y-1381062D01*
X3078314Y-1386381D01*
X3063367Y-1390935D01*
X3052124Y-1394528D01*
X3045286Y-1396963D01*
X3044016Y-1397529D01*
X3036611Y-1403085D01*
X3030274Y-1410546D01*
X3030019Y-1410954D01*
X3026510Y-1418402D01*
X3024671Y-1425648D01*
X3024770Y-1430981D01*
G36*
X3247945Y-2007977D02*
G01*
X3250972Y-2012135D01*
X3255496Y-2016287D01*
X3263128Y-2022952D01*
X3273097Y-2031488D01*
X3284634Y-2041251D01*
X3296968Y-2051599D01*
X3309327Y-2061889D01*
X3320940Y-2071479D01*
X3331038Y-2079725D01*
X3338849Y-2085985D01*
X3343603Y-2089617D01*
X3344670Y-2090267D01*
X3345891Y-2087820D01*
X3345989Y-2081697D01*
X3345111Y-2073718D01*
X3343403Y-2065708D01*
X3342455Y-2062719D01*
X3339140Y-2055379D01*
X3334202Y-2047828D01*
X3327048Y-2039430D01*
X3317086Y-2029549D01*
X3303724Y-2017549D01*
X3287700Y-2003906D01*
X3274453Y-1992880D01*
X3264816Y-1985114D01*
X3258121Y-1980186D01*
X3253699Y-1977675D01*
X3250883Y-1977158D01*
X3249003Y-1978215D01*
X3248314Y-1979052D01*
X3244962Y-1987762D01*
X3244909Y-1998276D01*
X3247945Y-2007977D01*
G37*
X3247945Y-2007977D02*
X3250972Y-2012135D01*
X3255496Y-2016287D01*
X3263128Y-2022952D01*
X3273097Y-2031488D01*
X3284634Y-2041251D01*
X3296968Y-2051599D01*
X3309327Y-2061889D01*
X3320940Y-2071479D01*
X3331038Y-2079725D01*
X3338849Y-2085985D01*
X3343603Y-2089617D01*
X3344670Y-2090267D01*
X3345891Y-2087820D01*
X3345989Y-2081697D01*
X3345111Y-2073718D01*
X3343403Y-2065708D01*
X3342455Y-2062719D01*
X3339140Y-2055379D01*
X3334202Y-2047828D01*
X3327048Y-2039430D01*
X3317086Y-2029549D01*
X3303724Y-2017549D01*
X3287700Y-2003906D01*
X3274453Y-1992880D01*
X3264816Y-1985114D01*
X3258121Y-1980186D01*
X3253699Y-1977675D01*
X3250883Y-1977158D01*
X3249003Y-1978215D01*
X3248314Y-1979052D01*
X3244962Y-1987762D01*
X3244909Y-1998276D01*
X3247945Y-2007977D01*
G36*
X3135967Y-1926578D02*
G01*
X3160741Y-1926628D01*
X3183664Y-1926772D01*
X3204141Y-1926999D01*
X3221581Y-1927297D01*
X3235389Y-1927655D01*
X3244974Y-1928063D01*
X3249741Y-1928510D01*
X3250166Y-1928694D01*
X3247989Y-1930898D01*
X3241891Y-1936061D01*
X3232447Y-1943726D01*
X3220227Y-1953435D01*
X3205804Y-1964728D01*
X3189750Y-1977148D01*
X3187778Y-1978664D01*
X3167490Y-1994340D01*
X3151244Y-2007150D01*
X3138536Y-2017576D01*
X3128864Y-2026097D01*
X3121723Y-2033194D01*
X3116609Y-2039348D01*
X3113020Y-2045039D01*
X3110450Y-2050748D01*
X3109545Y-2053293D01*
X3107590Y-2061066D01*
X3106504Y-2069145D01*
X3106415Y-2075700D01*
X3107451Y-2078899D01*
X3107749Y-2078978D01*
X3110386Y-2077286D01*
X3116826Y-2072524D01*
X3126474Y-2065160D01*
X3138737Y-2055663D01*
X3153019Y-2044504D01*
X3168727Y-2032150D01*
X3185266Y-2019071D01*
X3202043Y-2005737D01*
X3218464Y-1992615D01*
X3233934Y-1980177D01*
X3247859Y-1968889D01*
X3259645Y-1959223D01*
X3264118Y-1955506D01*
X3298732Y-1926578D01*
X3346222Y-1926578D01*
X3346222Y-1895533D01*
X3021667Y-1895533D01*
X3021667Y-1926578D01*
X3135967Y-1926578D01*
G37*
X3135967Y-1926578D02*
X3160741Y-1926628D01*
X3183664Y-1926772D01*
X3204141Y-1926999D01*
X3221581Y-1927297D01*
X3235389Y-1927655D01*
X3244974Y-1928063D01*
X3249741Y-1928510D01*
X3250166Y-1928694D01*
X3247989Y-1930898D01*
X3241891Y-1936061D01*
X3232447Y-1943726D01*
X3220227Y-1953435D01*
X3205804Y-1964728D01*
X3189750Y-1977148D01*
X3187778Y-1978664D01*
X3167490Y-1994340D01*
X3151244Y-2007150D01*
X3138536Y-2017576D01*
X3128864Y-2026097D01*
X3121723Y-2033194D01*
X3116609Y-2039348D01*
X3113020Y-2045039D01*
X3110450Y-2050748D01*
X3109545Y-2053293D01*
X3107590Y-2061066D01*
X3106504Y-2069145D01*
X3106415Y-2075700D01*
X3107451Y-2078899D01*
X3107749Y-2078978D01*
X3110386Y-2077286D01*
X3116826Y-2072524D01*
X3126474Y-2065160D01*
X3138737Y-2055663D01*
X3153019Y-2044504D01*
X3168727Y-2032150D01*
X3185266Y-2019071D01*
X3202043Y-2005737D01*
X3218464Y-1992615D01*
X3233934Y-1980177D01*
X3247859Y-1968889D01*
X3259645Y-1959223D01*
X3264118Y-1955506D01*
X3298732Y-1926578D01*
X3346222Y-1926578D01*
X3346222Y-1895533D01*
X3021667Y-1895533D01*
X3021667Y-1926578D01*
X3135967Y-1926578D01*
G36*
X3349044Y-1774178D02*
G01*
X3349044Y-1743133D01*
X3109156Y-1743133D01*
X3109156Y-1774178D01*
X3349044Y-1774178D01*
G37*
X3349044Y-1774178D02*
X3349044Y-1743133D01*
X3109156Y-1743133D01*
X3109156Y-1774178D01*
X3349044Y-1774178D01*
G36*
X3040717Y-1056270D02*
G01*
X3046831Y-1058036D01*
X3057728Y-1061161D01*
X3072760Y-1065461D01*
X3091281Y-1070751D01*
X3112644Y-1076847D01*
X3136202Y-1083564D01*
X3161308Y-1090717D01*
X3177728Y-1095392D01*
X3202786Y-1102575D01*
X3226111Y-1109359D01*
X3247155Y-1115577D01*
X3265369Y-1121062D01*
X3280202Y-1125647D01*
X3291107Y-1129166D01*
X3297533Y-1131451D01*
X3299083Y-1132251D01*
X3296862Y-1133501D01*
X3289853Y-1135988D01*
X3277978Y-1139736D01*
X3261162Y-1144765D01*
X3239328Y-1151098D01*
X3212399Y-1158757D01*
X3180298Y-1167765D01*
X3142949Y-1178143D01*
X3100274Y-1189913D01*
X3064234Y-1199802D01*
X3051593Y-1203604D01*
X3040616Y-1207526D01*
X3032701Y-1211035D01*
X3029662Y-1213027D01*
X3025450Y-1220772D01*
X3024840Y-1230281D01*
X3027993Y-1238845D01*
X3028123Y-1239025D01*
X3031192Y-1240869D01*
X3038551Y-1243751D01*
X3050374Y-1247724D01*
X3066837Y-1252841D01*
X3088113Y-1259156D01*
X3114379Y-1266720D01*
X3145808Y-1275589D01*
X3172762Y-1283098D01*
X3200599Y-1290830D01*
X3227299Y-1298271D01*
X3252267Y-1305254D01*
X3274911Y-1311611D01*
X3294637Y-1317175D01*
X3310850Y-1321779D01*
X3322957Y-1325255D01*
X3330365Y-1327438D01*
X3331406Y-1327760D01*
X3341655Y-1330648D01*
X3347431Y-1330937D01*
X3349199Y-1328010D01*
X3347426Y-1321256D01*
X3343421Y-1311917D01*
X3337846Y-1302640D01*
X3330117Y-1296601D01*
X3325845Y-1294539D01*
X3320520Y-1292666D01*
X3310395Y-1289528D01*
X3296122Y-1285313D01*
X3278356Y-1280209D01*
X3257749Y-1274401D01*
X3234956Y-1268077D01*
X3210629Y-1261425D01*
X3201492Y-1258950D01*
X3177381Y-1252365D01*
X3155089Y-1246138D01*
X3135180Y-1240436D01*
X3118216Y-1235428D01*
X3104762Y-1231280D01*
X3095379Y-1228160D01*
X3090631Y-1226237D01*
X3090159Y-1225800D01*
X3092993Y-1224521D01*
X3100747Y-1221957D01*
X3112883Y-1218263D01*
X3128861Y-1213595D01*
X3148146Y-1208107D01*
X3170197Y-1201955D01*
X3194477Y-1195293D01*
X3219367Y-1188567D01*
X3347633Y-1154157D01*
X3348448Y-1133113D01*
X3349262Y-1112069D01*
X3193225Y-1067281D01*
X3164460Y-1059033D01*
X3137193Y-1051235D01*
X3111930Y-1044028D01*
X3089175Y-1037555D01*
X3069435Y-1031961D01*
X3053212Y-1027388D01*
X3041014Y-1023979D01*
X3033344Y-1021877D01*
X3030839Y-1021239D01*
X3027229Y-1020940D01*
X3025332Y-1022711D01*
X3024602Y-1027801D01*
X3024489Y-1035759D01*
X3024489Y-1051531D01*
X3040717Y-1056270D01*
G37*
X3040717Y-1056270D02*
X3046831Y-1058036D01*
X3057728Y-1061161D01*
X3072760Y-1065461D01*
X3091281Y-1070751D01*
X3112644Y-1076847D01*
X3136202Y-1083564D01*
X3161308Y-1090717D01*
X3177728Y-1095392D01*
X3202786Y-1102575D01*
X3226111Y-1109359D01*
X3247155Y-1115577D01*
X3265369Y-1121062D01*
X3280202Y-1125647D01*
X3291107Y-1129166D01*
X3297533Y-1131451D01*
X3299083Y-1132251D01*
X3296862Y-1133501D01*
X3289853Y-1135988D01*
X3277978Y-1139736D01*
X3261162Y-1144765D01*
X3239328Y-1151098D01*
X3212399Y-1158757D01*
X3180298Y-1167765D01*
X3142949Y-1178143D01*
X3100274Y-1189913D01*
X3064234Y-1199802D01*
X3051593Y-1203604D01*
X3040616Y-1207526D01*
X3032701Y-1211035D01*
X3029662Y-1213027D01*
X3025450Y-1220772D01*
X3024840Y-1230281D01*
X3027993Y-1238845D01*
X3028123Y-1239025D01*
X3031192Y-1240869D01*
X3038551Y-1243751D01*
X3050374Y-1247724D01*
X3066837Y-1252841D01*
X3088113Y-1259156D01*
X3114379Y-1266720D01*
X3145808Y-1275589D01*
X3172762Y-1283098D01*
X3200599Y-1290830D01*
X3227299Y-1298271D01*
X3252267Y-1305254D01*
X3274911Y-1311611D01*
X3294637Y-1317175D01*
X3310850Y-1321779D01*
X3322957Y-1325255D01*
X3330365Y-1327438D01*
X3331406Y-1327760D01*
X3341655Y-1330648D01*
X3347431Y-1330937D01*
X3349199Y-1328010D01*
X3347426Y-1321256D01*
X3343421Y-1311917D01*
X3337846Y-1302640D01*
X3330117Y-1296601D01*
X3325845Y-1294539D01*
X3320520Y-1292666D01*
X3310395Y-1289528D01*
X3296122Y-1285313D01*
X3278356Y-1280209D01*
X3257749Y-1274401D01*
X3234956Y-1268077D01*
X3210629Y-1261425D01*
X3201492Y-1258950D01*
X3177381Y-1252365D01*
X3155089Y-1246138D01*
X3135180Y-1240436D01*
X3118216Y-1235428D01*
X3104762Y-1231280D01*
X3095379Y-1228160D01*
X3090631Y-1226237D01*
X3090159Y-1225800D01*
X3092993Y-1224521D01*
X3100747Y-1221957D01*
X3112883Y-1218263D01*
X3128861Y-1213595D01*
X3148146Y-1208107D01*
X3170197Y-1201955D01*
X3194477Y-1195293D01*
X3219367Y-1188567D01*
X3347633Y-1154157D01*
X3348448Y-1133113D01*
X3349262Y-1112069D01*
X3193225Y-1067281D01*
X3164460Y-1059033D01*
X3137193Y-1051235D01*
X3111930Y-1044028D01*
X3089175Y-1037555D01*
X3069435Y-1031961D01*
X3053212Y-1027388D01*
X3041014Y-1023979D01*
X3033344Y-1021877D01*
X3030839Y-1021239D01*
X3027229Y-1020940D01*
X3025332Y-1022711D01*
X3024602Y-1027801D01*
X3024489Y-1035759D01*
X3024489Y-1051531D01*
X3040717Y-1056270D01*
G36*
X3103915Y-2202737D02*
G01*
X3105587Y-2215215D01*
X3107317Y-2220885D01*
X3115382Y-2234617D01*
X3126591Y-2246248D01*
X3139621Y-2254766D01*
X3153151Y-2259161D01*
X3157839Y-2259538D01*
X3162326Y-2259240D01*
X3164632Y-2257319D01*
X3165482Y-2252374D01*
X3165600Y-2244525D01*
X3165600Y-2229449D01*
X3154176Y-2226026D01*
X3143162Y-2220333D01*
X3135979Y-2211744D01*
X3132426Y-2201311D01*
X3132303Y-2190088D01*
X3135408Y-2179127D01*
X3141539Y-2169482D01*
X3150496Y-2162205D01*
X3162078Y-2158349D01*
X3167175Y-2158000D01*
X3176592Y-2159048D01*
X3184512Y-2162649D01*
X3191587Y-2169488D01*
X3198468Y-2180250D01*
X3205809Y-2195622D01*
X3208110Y-2201023D01*
X3213917Y-2214245D01*
X3219922Y-2226806D01*
X3225283Y-2236992D01*
X3228126Y-2241682D01*
X3239323Y-2253516D01*
X3253649Y-2261525D01*
X3270046Y-2265669D01*
X3287454Y-2265911D01*
X3304817Y-2262209D01*
X3321076Y-2254527D01*
X3332521Y-2245542D01*
X3344312Y-2230333D01*
X3351764Y-2212410D01*
X3354495Y-2193093D01*
X3352766Y-2176345D01*
X3345742Y-2156106D01*
X3334792Y-2139570D01*
X3320299Y-2127108D01*
X3302649Y-2119094D01*
X3291198Y-2116641D01*
X3278489Y-2114900D01*
X3278489Y-2130491D01*
X3278651Y-2139427D01*
X3279684Y-2144263D01*
X3282403Y-2146543D01*
X3287627Y-2147810D01*
X3287661Y-2147816D01*
X3300948Y-2152423D01*
X3312274Y-2160238D01*
X3319437Y-2169339D01*
X3323306Y-2181748D01*
X3323866Y-2195865D01*
X3321180Y-2209199D01*
X3318226Y-2215490D01*
X3308911Y-2225568D01*
X3296617Y-2231883D01*
X3282858Y-2234083D01*
X3269152Y-2231817D01*
X3262093Y-2228484D01*
X3258834Y-2226316D01*
X3255916Y-2223693D01*
X3252953Y-2219929D01*
X3249560Y-2214336D01*
X3245352Y-2206228D01*
X3239943Y-2194919D01*
X3232946Y-2179721D01*
X3225511Y-2163338D01*
X3215278Y-2146254D01*
X3202339Y-2134002D01*
X3186928Y-2126725D01*
X3169276Y-2124561D01*
X3162582Y-2125042D01*
X3143989Y-2129760D01*
X3127853Y-2138851D01*
X3115100Y-2151651D01*
X3107894Y-2164259D01*
X3105092Y-2174939D01*
X3103758Y-2188538D01*
X3103915Y-2202737D01*
G37*
X3103915Y-2202737D02*
X3105587Y-2215215D01*
X3107317Y-2220885D01*
X3115382Y-2234617D01*
X3126591Y-2246248D01*
X3139621Y-2254766D01*
X3153151Y-2259161D01*
X3157839Y-2259538D01*
X3162326Y-2259240D01*
X3164632Y-2257319D01*
X3165482Y-2252374D01*
X3165600Y-2244525D01*
X3165600Y-2229449D01*
X3154176Y-2226026D01*
X3143162Y-2220333D01*
X3135979Y-2211744D01*
X3132426Y-2201311D01*
X3132303Y-2190088D01*
X3135408Y-2179127D01*
X3141539Y-2169482D01*
X3150496Y-2162205D01*
X3162078Y-2158349D01*
X3167175Y-2158000D01*
X3176592Y-2159048D01*
X3184512Y-2162649D01*
X3191587Y-2169488D01*
X3198468Y-2180250D01*
X3205809Y-2195622D01*
X3208110Y-2201023D01*
X3213917Y-2214245D01*
X3219922Y-2226806D01*
X3225283Y-2236992D01*
X3228126Y-2241682D01*
X3239323Y-2253516D01*
X3253649Y-2261525D01*
X3270046Y-2265669D01*
X3287454Y-2265911D01*
X3304817Y-2262209D01*
X3321076Y-2254527D01*
X3332521Y-2245542D01*
X3344312Y-2230333D01*
X3351764Y-2212410D01*
X3354495Y-2193093D01*
X3352766Y-2176345D01*
X3345742Y-2156106D01*
X3334792Y-2139570D01*
X3320299Y-2127108D01*
X3302649Y-2119094D01*
X3291198Y-2116641D01*
X3278489Y-2114900D01*
X3278489Y-2130491D01*
X3278651Y-2139427D01*
X3279684Y-2144263D01*
X3282403Y-2146543D01*
X3287627Y-2147810D01*
X3287661Y-2147816D01*
X3300948Y-2152423D01*
X3312274Y-2160238D01*
X3319437Y-2169339D01*
X3323306Y-2181748D01*
X3323866Y-2195865D01*
X3321180Y-2209199D01*
X3318226Y-2215490D01*
X3308911Y-2225568D01*
X3296617Y-2231883D01*
X3282858Y-2234083D01*
X3269152Y-2231817D01*
X3262093Y-2228484D01*
X3258834Y-2226316D01*
X3255916Y-2223693D01*
X3252953Y-2219929D01*
X3249560Y-2214336D01*
X3245352Y-2206228D01*
X3239943Y-2194919D01*
X3232946Y-2179721D01*
X3225511Y-2163338D01*
X3215278Y-2146254D01*
X3202339Y-2134002D01*
X3186928Y-2126725D01*
X3169276Y-2124561D01*
X3162582Y-2125042D01*
X3143989Y-2129760D01*
X3127853Y-2138851D01*
X3115100Y-2151651D01*
X3107894Y-2164259D01*
X3105092Y-2174939D01*
X3103758Y-2188538D01*
X3103915Y-2202737D01*
G36*
X3104996Y-1571804D02*
G01*
X3105381Y-1582565D01*
X3106319Y-1590615D01*
X3108054Y-1597421D01*
X3110828Y-1604451D01*
X3113911Y-1611119D01*
X3127451Y-1633502D01*
X3144848Y-1652122D01*
X3165535Y-1666520D01*
X3188942Y-1676236D01*
X3196967Y-1678293D01*
X3213067Y-1680407D01*
X3231753Y-1680658D01*
X3250860Y-1679186D01*
X3268221Y-1676133D01*
X3278489Y-1673009D01*
X3299496Y-1662039D01*
X3318254Y-1646782D01*
X3333756Y-1628292D01*
X3344998Y-1607620D01*
X3347545Y-1600677D01*
X3350631Y-1587554D01*
X3352683Y-1571650D01*
X3353552Y-1555211D01*
X3353090Y-1540483D01*
X3352003Y-1532878D01*
X3343670Y-1506186D01*
X3331115Y-1483055D01*
X3314655Y-1463762D01*
X3294601Y-1448586D01*
X3271269Y-1437803D01*
X3244973Y-1431692D01*
X3236531Y-1430810D01*
X3229318Y-1430982D01*
X3229318Y-1463733D01*
X3252723Y-1466188D01*
X3273721Y-1473342D01*
X3291769Y-1484878D01*
X3306325Y-1500479D01*
X3313909Y-1513160D01*
X3321099Y-1533489D01*
X3324064Y-1555402D01*
X3322735Y-1577189D01*
X3317278Y-1596583D01*
X3312724Y-1604998D01*
X3306265Y-1614222D01*
X3303656Y-1617379D01*
X3287453Y-1631900D01*
X3268846Y-1642007D01*
X3248670Y-1647814D01*
X3227761Y-1649435D01*
X3206955Y-1646985D01*
X3187089Y-1640578D01*
X3168999Y-1630328D01*
X3153522Y-1616349D01*
X3141492Y-1598757D01*
X3139644Y-1594967D01*
X3136228Y-1586231D01*
X3134226Y-1577165D01*
X3133317Y-1565810D01*
X3133159Y-1555456D01*
X3133311Y-1542866D01*
X3134094Y-1533913D01*
X3135969Y-1526590D01*
X3139399Y-1518892D01*
X3143245Y-1511711D01*
X3156427Y-1492931D01*
X3172750Y-1478815D01*
X3192264Y-1469334D01*
X3215022Y-1464461D01*
X3229318Y-1463733D01*
X3229318Y-1430982D01*
X3209975Y-1431445D01*
X3185022Y-1437308D01*
X3162213Y-1448082D01*
X3142088Y-1463451D01*
X3125188Y-1483100D01*
X3113957Y-1502515D01*
X3110173Y-1510792D01*
X3107625Y-1517667D01*
X3106071Y-1524610D01*
X3105265Y-1533089D01*
X3104964Y-1544572D01*
X3104922Y-1556867D01*
X3104996Y-1571804D01*
G37*
X3104996Y-1571804D02*
X3105381Y-1582565D01*
X3106319Y-1590615D01*
X3108054Y-1597421D01*
X3110828Y-1604451D01*
X3113911Y-1611119D01*
X3127451Y-1633502D01*
X3144848Y-1652122D01*
X3165535Y-1666520D01*
X3188942Y-1676236D01*
X3196967Y-1678293D01*
X3213067Y-1680407D01*
X3231753Y-1680658D01*
X3250860Y-1679186D01*
X3268221Y-1676133D01*
X3278489Y-1673009D01*
X3299496Y-1662039D01*
X3318254Y-1646782D01*
X3333756Y-1628292D01*
X3344998Y-1607620D01*
X3347545Y-1600677D01*
X3350631Y-1587554D01*
X3352683Y-1571650D01*
X3353552Y-1555211D01*
X3353090Y-1540483D01*
X3352003Y-1532878D01*
X3343670Y-1506186D01*
X3331115Y-1483055D01*
X3314655Y-1463762D01*
X3294601Y-1448586D01*
X3271269Y-1437803D01*
X3244973Y-1431692D01*
X3236531Y-1430810D01*
X3229318Y-1430982D01*
X3229318Y-1463733D01*
X3252723Y-1466188D01*
X3273721Y-1473342D01*
X3291769Y-1484878D01*
X3306325Y-1500479D01*
X3313909Y-1513160D01*
X3321099Y-1533489D01*
X3324064Y-1555402D01*
X3322735Y-1577189D01*
X3317278Y-1596583D01*
X3312724Y-1604998D01*
X3306265Y-1614222D01*
X3303656Y-1617379D01*
X3287453Y-1631900D01*
X3268846Y-1642007D01*
X3248670Y-1647814D01*
X3227761Y-1649435D01*
X3206955Y-1646985D01*
X3187089Y-1640578D01*
X3168999Y-1630328D01*
X3153522Y-1616349D01*
X3141492Y-1598757D01*
X3139644Y-1594967D01*
X3136228Y-1586231D01*
X3134226Y-1577165D01*
X3133317Y-1565810D01*
X3133159Y-1555456D01*
X3133311Y-1542866D01*
X3134094Y-1533913D01*
X3135969Y-1526590D01*
X3139399Y-1518892D01*
X3143245Y-1511711D01*
X3156427Y-1492931D01*
X3172750Y-1478815D01*
X3192264Y-1469334D01*
X3215022Y-1464461D01*
X3229318Y-1463733D01*
X3229318Y-1430982D01*
X3209975Y-1431445D01*
X3185022Y-1437308D01*
X3162213Y-1448082D01*
X3142088Y-1463451D01*
X3125188Y-1483100D01*
X3113957Y-1502515D01*
X3110173Y-1510792D01*
X3107625Y-1517667D01*
X3106071Y-1524610D01*
X3105265Y-1533089D01*
X3104964Y-1544572D01*
X3104922Y-1556867D01*
X3104996Y-1571804D01*
M02*
