G04 #@! TF.GenerationSoftware,KiCad,Pcbnew,(5.1.9-16-g1737927814)-1*
G04 #@! TF.CreationDate,2021-04-01T12:21:51-04:00*
G04 #@! TF.ProjectId,pressure_ms4525do,70726573-7375-4726-955f-6d7334353235,1*
G04 #@! TF.SameCoordinates,Original*
G04 #@! TF.FileFunction,Soldermask,Top*
G04 #@! TF.FilePolarity,Negative*
%FSLAX45Y45*%
G04 Gerber Fmt 4.5, Leading zero omitted, Abs format (unit mm)*
G04 Created by KiCad (PCBNEW (5.1.9-16-g1737927814)-1) date 2021-04-01 12:21:51*
%MOMM*%
%LPD*%
G01*
G04 APERTURE LIST*
%ADD10C,1.200000*%
%ADD11R,1.500000X2.100000*%
%ADD12R,2.100000X1.500000*%
%ADD13C,1.800000*%
%ADD14C,5.400000*%
%ADD15C,0.800000*%
G04 APERTURE END LIST*
D10*
X727000Y-1250000D03*
X473000Y-1250000D03*
X219000Y-1250000D03*
D11*
X219000Y-1065000D03*
X727000Y-1065000D03*
X473000Y-1435000D03*
X981000Y-1435000D03*
D10*
X981000Y-1250000D03*
X3775000Y-1377000D03*
X3775000Y-1123000D03*
X3775000Y-869000D03*
D12*
X3960000Y-869000D03*
X3960000Y-1377000D03*
X3590000Y-1123000D03*
X3590000Y-1631000D03*
D10*
X3775000Y-1631000D03*
D13*
X2760000Y-169000D03*
X2760000Y-423000D03*
X2760000Y-677000D03*
X2760000Y-931000D03*
X1490000Y-931000D03*
X1490000Y-677000D03*
X1490000Y-423000D03*
X1490000Y-169000D03*
D14*
X3775000Y-2125000D03*
D15*
X3977500Y-2125000D03*
X3918189Y-2268189D03*
X3775000Y-2327500D03*
X3631811Y-2268189D03*
X3572500Y-2125000D03*
X3631811Y-1981811D03*
X3775000Y-1922500D03*
X3918189Y-1981811D03*
D14*
X3775000Y-375000D03*
D15*
X3977500Y-375000D03*
X3918189Y-518189D03*
X3775000Y-577500D03*
X3631811Y-518189D03*
X3572500Y-375000D03*
X3631811Y-231811D03*
X3775000Y-172500D03*
X3918189Y-231811D03*
D14*
X350000Y-2025000D03*
D15*
X552500Y-2025000D03*
X493189Y-2168189D03*
X350000Y-2227500D03*
X206811Y-2168189D03*
X147500Y-2025000D03*
X206811Y-1881811D03*
X350000Y-1822500D03*
X493189Y-1881811D03*
D14*
X350000Y-475000D03*
D15*
X552500Y-475000D03*
X493189Y-618189D03*
X350000Y-677500D03*
X206811Y-618189D03*
X147500Y-475000D03*
X206811Y-331811D03*
X350000Y-272500D03*
X493189Y-331811D03*
G36*
G01*
X1274375Y-385000D02*
X1325625Y-385000D01*
G75*
G02*
X1347500Y-406875I0J-21875D01*
G01*
X1347500Y-450625D01*
G75*
G02*
X1325625Y-472500I-21875J0D01*
G01*
X1274375Y-472500D01*
G75*
G02*
X1252500Y-450625I0J21875D01*
G01*
X1252500Y-406875D01*
G75*
G02*
X1274375Y-385000I21875J0D01*
G01*
G37*
G36*
G01*
X1274375Y-227500D02*
X1325625Y-227500D01*
G75*
G02*
X1347500Y-249375I0J-21875D01*
G01*
X1347500Y-293125D01*
G75*
G02*
X1325625Y-315000I-21875J0D01*
G01*
X1274375Y-315000D01*
G75*
G02*
X1252500Y-293125I0J21875D01*
G01*
X1252500Y-249375D01*
G75*
G02*
X1274375Y-227500I21875J0D01*
G01*
G37*
M02*
