M48
METRIC,TZ
T1C0.300
T2C0.500
T3C0.800
T4C2.700
%
G90
G05
T1
X4730Y-15980
X9810Y-15940
X34270Y-11230
T2
X1475Y-4750
X1475Y-20250
X2068Y-3318
X2068Y-6182
X2068Y-18818
X2068Y-21682
X3500Y-2725
X3500Y-6775
X3500Y-18225
X3500Y-22275
X4932Y-3318
X4932Y-6182
X4932Y-18818
X4932Y-21682
X5525Y-4750
X5525Y-20250
X35725Y-3750
X35725Y-21250
X36318Y-2318
X36318Y-5182
X36318Y-19818
X36318Y-22682
X37750Y-1725
X37750Y-5775
X37750Y-19225
X37750Y-23275
X39182Y-2318
X39182Y-5182
X39182Y-19818
X39182Y-22682
X39775Y-3750
X39775Y-21250
T3
X14900Y-1690
X14900Y-4230
X14900Y-6770
X14900Y-9310
X27600Y-1690
X27600Y-4230
X27600Y-6770
X27600Y-9310
T4
X3500Y-4750
X3500Y-20250
X37750Y-3750
X37750Y-21250
T0
M30
