G04 #@! TF.GenerationSoftware,KiCad,Pcbnew,(5.1.9-16-g1737927814)-1*
G04 #@! TF.CreationDate,2021-04-01T12:21:51-04:00*
G04 #@! TF.ProjectId,pressure_ms4525do,70726573-7375-4726-955f-6d7334353235,1*
G04 #@! TF.SameCoordinates,Original*
G04 #@! TF.FileFunction,Soldermask,Bot*
G04 #@! TF.FilePolarity,Negative*
%FSLAX45Y45*%
G04 Gerber Fmt 4.5, Leading zero omitted, Abs format (unit mm)*
G04 Created by KiCad (PCBNEW (5.1.9-16-g1737927814)-1) date 2021-04-01 12:21:51*
%MOMM*%
%LPD*%
G01*
G04 APERTURE LIST*
%ADD10C,1.200000*%
%ADD11C,1.800000*%
%ADD12C,5.400000*%
%ADD13C,0.800000*%
G04 APERTURE END LIST*
D10*
X727000Y-1250000D03*
X473000Y-1250000D03*
X219000Y-1250000D03*
X981000Y-1250000D03*
X3775000Y-1377000D03*
X3775000Y-1123000D03*
X3775000Y-869000D03*
X3775000Y-1631000D03*
D11*
X2760000Y-169000D03*
X2760000Y-423000D03*
X2760000Y-677000D03*
X2760000Y-931000D03*
X1490000Y-931000D03*
X1490000Y-677000D03*
X1490000Y-423000D03*
X1490000Y-169000D03*
D12*
X3775000Y-2125000D03*
D13*
X3977500Y-2125000D03*
X3918189Y-2268189D03*
X3775000Y-2327500D03*
X3631811Y-2268189D03*
X3572500Y-2125000D03*
X3631811Y-1981811D03*
X3775000Y-1922500D03*
X3918189Y-1981811D03*
D12*
X3775000Y-375000D03*
D13*
X3977500Y-375000D03*
X3918189Y-518189D03*
X3775000Y-577500D03*
X3631811Y-518189D03*
X3572500Y-375000D03*
X3631811Y-231811D03*
X3775000Y-172500D03*
X3918189Y-231811D03*
D12*
X350000Y-2025000D03*
D13*
X552500Y-2025000D03*
X493189Y-2168189D03*
X350000Y-2227500D03*
X206811Y-2168189D03*
X147500Y-2025000D03*
X206811Y-1881811D03*
X350000Y-1822500D03*
X493189Y-1881811D03*
D12*
X350000Y-475000D03*
D13*
X552500Y-475000D03*
X493189Y-618189D03*
X350000Y-677500D03*
X206811Y-618189D03*
X147500Y-475000D03*
X206811Y-331811D03*
X350000Y-272500D03*
X493189Y-331811D03*
M02*
