M48
;Layer_Color=9474304
;FILE_FORMAT=2:5
INCH,LZ
;TYPE=PLATED
T1F00S00C0.01200
T2F00S00C0.03543
T3F00S00C0.03543
T4F00S00C0.03937
T5F00S00C0.06496
T6F00S00C0.10827
T7F00S00C0.11811
T8F00S00C0.15000
;TYPE=NON_PLATED
T9F00S00C0.04331
%
T01
X005748Y001811
X009685
X0136221
X0175591
X0214961
X0254331
X0293701
X0333071
X0372441
X0386221Y0052756
X0451181Y001811
X0465354Y0020078
X0472834
X0478346Y0009055
X0490551Y001811
X0529921
X0569291
X0608661
X0648032
X0687402
X0683071Y0061417
Y0078347
Y0096063
X0687402Y009685
X0707087Y0136221
X0714567Y0130314
X0725197Y0134645
X0683071Y0159843
Y0177165
X0687402Y0175591
X0683071Y0193701
X067126Y018189
X0648425Y0173228
X0654724Y0206299
X0662205
X0667717Y0136221
X0628346
X0588976
X0549606
X0569291Y0175591
X0608661
X0588976Y0210236
X0529921Y0175591
Y009685
X0569291
X0608661
X0647638Y0089764
X0670472Y0098425
X0667717Y005748
X0628346
X0588976
X0549606
X0510236
X0470866
X0431496
X0385827Y0059055
X0372441Y009685
X0411811
X0408661Y0140157
Y0150394
X0392126Y0136221
X0431496
X0470866
X0510236
X0490551Y0175591
Y009685
X040866Y0185039
X0408661Y019252
X0359449Y0185433
X0363779Y0174803
X0333071Y0175591
X0293701
X0267323Y0185433
X0257087Y0190472
X0254331Y0175591
X0214961
X0234646Y0136221
X0274016
X0313386
X0333071Y009685
X0293701
X028504Y0068898
X0274016Y005748
X0313386
X0354331Y0059055
X0234646Y005748
X0254331Y009685
X0214961
X027874Y0210472
X0178741Y0196457
X0175591Y0175591
X0196063Y0165748
X0195276Y0136221
X0155905
X0116535
X0077165
X009685Y0175591
X0136221
X0144095Y0196457
X0136221Y009685
X0175591
X0195276Y005748
X0155905
X0116535
X0077165
X009685Y009685
X005748
Y0175591
X001811
X0037795Y0136221
X001811Y009685
X0037795Y005748
Y0214961
X001811Y0254331
Y0283858
X0027953
X0037795
X0047638
X0052559Y0293701
X0042717
X0037795
X0032874
X0033465Y0302712
X0038583
X0028347Y0309056
X0020867Y0309056
X0010236Y0303938
X0013189Y0293701
X0023031
X0008268Y0283858
X0014665Y0329232
X001811Y0342913
X0027756Y0340945
X0037795Y0342913
X0047638
X0048425Y0349311
X0047539Y036309
X0027953Y0362598
X0023031Y0352756
X0008268Y0362598
X0063703Y0335846
Y0330847
X008022Y0332283
Y0328346
Y0324409
X0085338
Y0328346
Y0332283
X0101181Y0330847
X0104724Y0344489
X0105512Y0313387
X0101772Y0313386
X0106693Y0303543
X0116535
X0116142Y0307875
X0116535Y0293701
X0121457
X0111614
X0101772
X0091929
X0082087
X0077165
X0072244
X0062402
X0067323Y0283858
X0077165
X0087008
X009685
X0106693
X0116535
X009685Y0303543
X0080709Y0305118
X005748Y0283858
Y0254331
X009685
X0136221
X0148819Y0272835
X0153661Y0278346
X0158661Y0269291
X0155905Y0293701
X0195276
X0193445Y0326346
X0209055Y0343701
X0209055Y0263779
X0175591Y0254331
X0208661Y0212992
X0127953Y0214567
X0120472Y0214567
X0116535Y0214961
X0077165
X0124803Y0327953
X0133857Y0333504
X0259842Y0324803
X0266142Y0326772
X0280709Y0343701
X0293701Y0333071
X0333071
X0355118Y0327953
X0364173Y0362598
X0351575Y0265354
X0359055Y0230315
X0352756Y0214961
X0313386
X0293661Y0214173
X0283858Y0214173
X0304725Y0255513
Y0274015
X0313386Y0293701
X0274016
X0259842Y0283465
X0254331Y0254331
X0214961
X0216142Y0213386
X0234646Y0293701
X0392126
X0431496
X0470866
X0510236
X0490158Y0340846
X0490551Y0348524
Y0356299
X0487008Y035315
Y0359449
X0490158Y0363878
X0465748Y0348524
X0419291Y0336614
X0409449Y0344488
X0412598Y0356299
X0402756Y035315
X0392913Y0359449
X038937Y034252
X0372441Y0333071
X0408661Y0242993
X040866Y0235433
X0408661Y0225591
X0392126Y0214961
X0431496
X045Y0215354
X0603937Y0222046
X0628346Y0214961
X0654724Y0233858
X0662205
Y0262205
X0654724
X0648032Y0254331
X0669726Y0261852
X0674409Y0281496
X0667717Y0293701
X0669165Y0301969
X0658268Y027874
X0638583Y0275197
X0601968Y027244
X0594882Y027244
X058744Y027244
X0588976Y0293701
X0549606
X0529921Y0333071
X0531102Y0338976
X0529134Y0348425
Y0354724
Y0361319
X0532677Y0364173
Y0357874
Y0351575
X0538583Y0348425
X0559587Y0343701
X0569685Y0334252
X0575984Y0347638
X0595669Y0349705
X0599213Y0356102
X0604724Y036693
X0612598Y0366536
X0621259Y0347638
X062874Y0347638
X0608661Y0333504
X0644882Y0329527
X0687402Y0333071
X0705512Y0330315
X0713385Y0326771
Y0319291
X0724016Y0332677
Y0349606
X0731496
X0683071Y0292126
X0688976Y0285433
X0683072Y027559
X0683071Y0259449
X0687402Y0254331
X0705471Y0261852
X0705118Y0231496
X0714567Y0228346
Y0220866
X0725197Y0232677
X0707087Y0372441
X0667717
X0645276Y0369291
X0637796
X0637795Y0384252
X0645276
X0625985Y0377985
X0621259Y0375197
X0616142Y0377985
X0611417Y0375197
X06063Y0377953
X0601181Y0370866
X0568505Y0369291
X0561024
X0561024Y0384252
X0568504
X055315Y0377953
X0543308
X0533465
X0525591Y0370866
X0509842Y0370866
X0480316Y0377953
X0470473
X0470866Y0372441
X0460631Y0377953
X0443307Y0384252
X0435827
X0425197Y0384449
X0417716
X0417717Y0369488
X0425197
X0435827Y0369291
X0443308
X0407481Y0377953
X0397638
X0387796
X0352756Y0372441
X0313386
X0110236Y0371062
X005748Y0401968
Y0421654
X0047638
X0037795
X0042717Y0411811
X0047638Y0401968
X0037795
X0042717Y0392126
X0052559
X0047638Y0382283
X0037795
Y0372441
X0042717
X0032874
X0023031
X0011811Y0372835
X0008268Y0382283
X0013189Y0392126
X0023031
X0032874
X0008268Y0401968
T02
X0533465Y0413386
X0543307
X055315
X0562992
X0596457Y0413386
X0606299
X0616142
X0625984
X0635827
X0523622Y0413386
X0490158Y0413386
X0480315
X0470472
X046063
X0450787
X0417323
X040748
X0397638
X0387795
X0377953
X034252
X0332677
X0322835
X0312992
X030315
X0293307
X0208661
X0198819
X0188976
T03
X0615Y0130472
Y0140472
Y0150472
Y0160472
Y0170472
Y0180472
Y0190472
Y0200472
Y0210472
X0625
Y0200472
Y0190472
Y0180472
Y0170472
Y0160472
Y0150472
Y0140472
Y0130472
X0385
Y0140472
Y0150472
Y0160472
Y0170472
Y0180472
Y0190472
Y0200472
Y0210472
X0375
Y0200472
Y0190472
Y0180472
Y0170472
Y0160472
Y0150472
Y0140472
Y0130472
X0203661Y0237209
Y0247209
X0193661
X0183661
X0173661
X0163661
X0153661
X0143661
X0133661
X0123661
X0113661
Y0237209
X0123661
X0133661
X0143661
X0153661
X0163661
X0173661
X0183661
X0193661
X0213661
Y0247209
X0223661
X0233661
X0243661
X0253661
X0263661
X0273661
X0283661
X0293661
X0303661
Y0237209
X0293661
X0283661
X0273661
X0263661
X0253661
X0243661
X0233661
X0223661
X0375Y0240472
Y0250472
Y0260472
Y0270472
Y0280472
Y0290472
Y0300472
Y0310472
X0385
Y0300472
Y0290472
Y0280472
Y0270472
Y0260472
Y0250472
Y0240472
Y0230472
X0375
Y0220472
X0385
X0615
Y0230472
Y0240472
Y0250472
Y0260472
Y0270472
Y0280472
Y0290472
Y0300472
Y0310472
X0625
Y0300472
Y0290472
Y0280472
Y0270472
Y0260472
Y0250472
Y0240472
Y0230472
Y0220472
T04
X0246181Y0413386
X0256024
T05
X0068898Y0409449
X0084488
X0137874
X0153465
X0053307
T06
X0094488Y0049295
X0322835
X0094488Y0242209
X0322835
T07
X05765Y0115472
X0405Y0120472
X0465Y0320472
T08
X0019685Y0019685
X0727953
X0728346Y0413386
X0019685
T09
X0569291Y0405512
X0642126Y0405512
X0496457
X0423622
X0348819
X0262323
X0214961
M30
