M48
;Layer_Color=9474304
;FILE_FORMAT=2:5
INCH,LZ
;TYPE=PLATED
T1F00S00C0.01200
T2F00S00C0.03543
T3F00S00C0.03543
T4F00S00C0.03937
T6F00S00C0.06496
T7F00S00C0.10827
T8F00S00C0.11811
T9F00S00C0.15000
;TYPE=NON_PLATED
T10F00S00C0.04331
%
T01
X0386221Y0052756
X0465354Y0020078
X0472834
X0478346Y0009055
X0683071Y0061417
Y0078347
Y0096063
Y0159843
Y0177165
Y0193701
X0714567Y0130314
X0725197Y0134645
X0670472Y0098425
X0647638Y0089764
X0648425Y0173228
X067126Y018189
X0662205Y0206299
X0654724
X0588976Y0210236
X0408661Y019252
X040866Y0185039
X0408661Y0150394
Y0140157
X0385827Y0059055
X0354331
X028504Y0068898
X0267323Y0185433
X0257087Y0190472
X027874Y0210472
X0359449Y0185433
X0363779Y0174803
X0196063Y0165748
X0178741Y0196457
X0144095
X0038583Y0302712
X0033465
X0028347Y0309056
X0020867Y0309056
X0010236Y0303938
X0014665Y0329232
X0027756Y0340945
X0048425Y0349311
X0047539Y036309
X0063703Y0335846
Y0330847
X008022Y0332283
Y0328346
Y0324409
X0085338
Y0328346
Y0332283
X0101181Y0330847
X0104724Y0344489
X0105512Y0313387
X0116142Y0307875
X0124803Y0327953
X0133857Y0333504
X0193445Y0326346
X0209055Y0343701
X0209055Y0263779
X0208661Y0212992
X0127953Y0214567
X0120472Y0214567
X0148819Y0272835
X0153661Y0278346
X0158661Y0269291
X0080709Y0305118
X0259842Y0324803
X0266142Y0326772
X0280709Y0343701
X0259842Y0283465
X0304725Y0274015
Y0255513
X0293661Y0214173
X0283858Y0214173
X0216142Y0213386
X0359055Y0230315
X0351575Y0265354
X0355118Y0327953
X0364173Y0362598
X0392913Y0359449
X0402756Y035315
X0412598Y0356299
X0409449Y0344488
X0419291Y0336614
X038937Y034252
X0465748Y0348524
X0490551
Y0356299
X0487008Y035315
Y0359449
X0490158Y0363878
Y0340846
X045Y0215354
X0408661Y0225591
X040866Y0235433
X0408661Y0242993
X058744Y027244
X0594882Y027244
X0601968Y027244
X0638583Y0275197
X0658268Y027874
X0674409Y0281496
X0669726Y0261852
X0662205Y0262205
X0654724
Y0233858
X0662205
X0603937Y0222046
X0608661Y0333504
X0621259Y0347638
X062874Y0347638
X0644882Y0329527
X0669165Y0301969
X0612598Y0366536
X0604724Y036693
X0599213Y0356102
X0595669Y0349705
X0569685Y0334252
X0559587Y0343701
X056063Y036437
X0568111
X0532677Y0364173
Y0357874
Y0351575
X0529134Y0348425
Y0354724
Y0361319
X0538583Y0348425
X0531102Y0338976
X0705512Y0330315
X0713385Y0326771
Y0319291
X0724016Y0332677
Y0349606
X0731496
X0683071Y0292126
X0688976Y0285433
X0683072Y027559
X0683071Y0259449
X0705471Y0261852
X0705118Y0231496
X0714567Y0228346
Y0220866
X0725197Y0232677
X0625985Y0377985
X0621259Y0375197
X0616142Y0377985
X0611417Y0375197
X06063Y0377953
X0601181Y0370866
X056811Y0379331
X056063
X055315Y0377953
X0543308
X0533465
X0525591Y0370866
X0509842Y0370866
X0480316Y0377953
X0470473
X0460631
X0407481
X0397638
X0387796
X0110236Y0371062
X0011811Y0372835
T02
X0533465Y0413386
X0543307
X055315
X0562992
X0596457Y0413386
X0606299
X0616142
X0625984
X0635827
X0523622Y0413386
X0490158Y0413386
X0480315
X0470472
X046063
X0450787
X0417323
X040748
X0397638
X0387795
X0377953
X034252
X0332677
X0322835
X0312992
X030315
X0293307
X0208661
X0198819
X0188976
T03
X0615Y0130472
Y0140472
Y0150472
Y0160472
Y0170472
Y0180472
Y0190472
Y0200472
Y0210472
X0625
Y0200472
Y0190472
Y0180472
Y0170472
Y0160472
Y0150472
Y0140472
Y0130472
X0385
Y0140472
Y0150472
Y0160472
Y0170472
Y0180472
Y0190472
Y0200472
Y0210472
X0375
Y0200472
Y0190472
Y0180472
Y0170472
Y0160472
Y0150472
Y0140472
Y0130472
X0203661Y0237209
Y0247209
X0193661
X0183661
X0173661
X0163661
X0153661
X0143661
X0133661
X0123661
X0113661
Y0237209
X0123661
X0133661
X0143661
X0153661
X0163661
X0173661
X0183661
X0193661
X0213661
Y0247209
X0223661
X0233661
X0243661
X0253661
X0263661
X0273661
X0283661
X0293661
X0303661
Y0237209
X0293661
X0283661
X0273661
X0263661
X0253661
X0243661
X0233661
X0223661
X0375Y0240472
Y0250472
Y0260472
Y0270472
Y0280472
Y0290472
Y0300472
Y0310472
X0385
Y0300472
Y0290472
Y0280472
Y0270472
Y0260472
Y0250472
Y0240472
Y0230472
X0375
Y0220472
X0385
X0615
Y0230472
Y0240472
Y0250472
Y0260472
Y0270472
Y0280472
Y0290472
Y0300472
Y0310472
X0625
Y0300472
Y0290472
Y0280472
Y0270472
Y0260472
Y0250472
Y0240472
Y0230472
Y0220472
T04
X0246181Y0413386
X0256024
T06
X0137795Y0412126
X0153386
T07
X0094488Y0049295
X0322835
X0094488Y0242209
X0322835
T08
X05765Y0115472
X0405Y0120472
X0465Y0320472
T09
X0019685Y0019685
X0727953
X0728346Y0413386
X0019685
T10
X0569291Y0405512
X0642126Y0405512
X0496457
X0423622
X0348819
X0262323
X0214961
M30
