G04*
G04 #@! TF.GenerationSoftware,Altium Limited,Altium Designer,18.1.11 (251)*
G04*
G04 Layer_Physical_Order=4*
G04 Layer_Color=16711680*
%FSLAX25Y25*%
%MOIN*%
G70*
G01*
G75*
%ADD11C,0.01000*%
%ADD16C,0.00600*%
%ADD84C,0.00984*%
%ADD86C,0.05906*%
%ADD87R,0.05906X0.05906*%
%ADD88C,0.19685*%
%ADD89R,0.05906X0.05906*%
%ADD90C,0.14764*%
%ADD91R,0.09055X0.09055*%
%ADD92C,0.09055*%
%ADD93O,0.09843X0.07480*%
%ADD94O,0.07480X0.09843*%
%ADD95C,0.25000*%
%ADD96C,0.02200*%
%ADD107R,0.05906X0.08661*%
G36*
X746063Y1969D02*
X1969D01*
Y431102D01*
X746063D01*
Y1969D01*
D02*
G37*
%LPC*%
G36*
X323335Y417307D02*
Y413886D01*
X326756D01*
X326686Y414418D01*
X326287Y415379D01*
X325654Y416205D01*
X324828Y416839D01*
X323867Y417237D01*
X323335Y417307D01*
D02*
G37*
G36*
X566945Y417339D02*
X563492D01*
Y413886D01*
X566945D01*
Y417339D01*
D02*
G37*
G36*
X322335Y417307D02*
X321803Y417237D01*
X320841Y416839D01*
X320016Y416205D01*
X319382Y415379D01*
X318984Y414418D01*
X318914Y413886D01*
X322335D01*
Y417307D01*
D02*
G37*
G36*
X562492Y417339D02*
X559039D01*
Y413886D01*
X562492D01*
Y417339D01*
D02*
G37*
G36*
X494110Y417339D02*
X490658D01*
Y413886D01*
X494110D01*
Y417339D01*
D02*
G37*
G36*
X489657D02*
X486205D01*
Y413886D01*
X489657D01*
Y417339D01*
D02*
G37*
G36*
X421276D02*
X417823D01*
Y413886D01*
X421276D01*
Y417339D01*
D02*
G37*
G36*
X416823D02*
X413370D01*
Y413886D01*
X416823D01*
Y417339D01*
D02*
G37*
G36*
X639780D02*
X636327D01*
Y413886D01*
X639780D01*
Y417339D01*
D02*
G37*
G36*
X635327D02*
X631874D01*
Y413886D01*
X635327D01*
Y417339D01*
D02*
G37*
G36*
X143323Y417653D02*
X138295D01*
Y412626D01*
X143323D01*
Y417653D01*
D02*
G37*
G36*
X137295D02*
X132268D01*
Y412626D01*
X137295D01*
Y417653D01*
D02*
G37*
G36*
X346072Y416939D02*
X338967D01*
Y409833D01*
X346072D01*
Y416939D01*
D02*
G37*
G36*
X259576D02*
X252471D01*
Y409833D01*
X259576D01*
Y416939D01*
D02*
G37*
G36*
X212214D02*
X205109D01*
Y409833D01*
X212214D01*
Y416939D01*
D02*
G37*
G36*
X553150Y416969D02*
X552222Y416847D01*
X551358Y416489D01*
X550616Y415920D01*
X550046Y415177D01*
X549688Y414313D01*
X549566Y413386D01*
X549688Y412458D01*
X550046Y411594D01*
X550616Y410852D01*
X551358Y410283D01*
X552222Y409925D01*
X553150Y409802D01*
X554077Y409925D01*
X554941Y410283D01*
X555684Y410852D01*
X556253Y411594D01*
X556611Y412458D01*
X556733Y413386D01*
X556611Y414313D01*
X556253Y415177D01*
X555684Y415920D01*
X554941Y416489D01*
X554077Y416847D01*
X553150Y416969D01*
D02*
G37*
G36*
X543307D02*
X542380Y416847D01*
X541515Y416489D01*
X540773Y415920D01*
X540204Y415177D01*
X539846Y414313D01*
X539724Y413386D01*
X539846Y412458D01*
X540204Y411594D01*
X540773Y410852D01*
X541515Y410283D01*
X542380Y409925D01*
X543307Y409802D01*
X544235Y409925D01*
X545099Y410283D01*
X545841Y410852D01*
X546410Y411594D01*
X546768Y412458D01*
X546890Y413386D01*
X546768Y414313D01*
X546410Y415177D01*
X545841Y415920D01*
X545099Y416489D01*
X544235Y416847D01*
X543307Y416969D01*
D02*
G37*
G36*
X533465D02*
X532537Y416847D01*
X531673Y416489D01*
X530931Y415920D01*
X530361Y415177D01*
X530003Y414313D01*
X529881Y413386D01*
X530003Y412458D01*
X530361Y411594D01*
X530931Y410852D01*
X531673Y410283D01*
X532537Y409925D01*
X533465Y409802D01*
X534392Y409925D01*
X535256Y410283D01*
X535998Y410852D01*
X536568Y411594D01*
X536926Y412458D01*
X537048Y413386D01*
X536926Y414313D01*
X536568Y415177D01*
X535998Y415920D01*
X535256Y416489D01*
X534392Y416847D01*
X533465Y416969D01*
D02*
G37*
G36*
X523622D02*
X522695Y416847D01*
X521830Y416489D01*
X521088Y415920D01*
X520519Y415177D01*
X520161Y414313D01*
X520039Y413386D01*
X520161Y412458D01*
X520519Y411594D01*
X521088Y410852D01*
X521830Y410283D01*
X522695Y409925D01*
X523622Y409802D01*
X524549Y409925D01*
X525414Y410283D01*
X526156Y410852D01*
X526725Y411594D01*
X527083Y412458D01*
X527206Y413386D01*
X527083Y414313D01*
X526725Y415177D01*
X526156Y415920D01*
X525414Y416489D01*
X524549Y416847D01*
X523622Y416969D01*
D02*
G37*
G36*
X625984Y416969D02*
X625057Y416847D01*
X624192Y416489D01*
X623450Y415920D01*
X622881Y415177D01*
X622523Y414313D01*
X622401Y413386D01*
X622523Y412458D01*
X622881Y411594D01*
X623450Y410852D01*
X624192Y410283D01*
X625057Y409925D01*
X625984Y409802D01*
X626912Y409925D01*
X627776Y410283D01*
X628518Y410852D01*
X629088Y411594D01*
X629446Y412458D01*
X629568Y413386D01*
X629446Y414313D01*
X629088Y415177D01*
X628518Y415920D01*
X627776Y416489D01*
X626912Y416847D01*
X625984Y416969D01*
D02*
G37*
G36*
X616142D02*
X615214Y416847D01*
X614350Y416489D01*
X613608Y415920D01*
X613038Y415177D01*
X612680Y414313D01*
X612558Y413386D01*
X612680Y412458D01*
X613038Y411594D01*
X613608Y410852D01*
X614350Y410283D01*
X615214Y409925D01*
X616142Y409802D01*
X617069Y409925D01*
X617933Y410283D01*
X618676Y410852D01*
X619245Y411594D01*
X619603Y412458D01*
X619725Y413386D01*
X619603Y414313D01*
X619245Y415177D01*
X618676Y415920D01*
X617933Y416489D01*
X617069Y416847D01*
X616142Y416969D01*
D02*
G37*
G36*
X606299D02*
X605372Y416847D01*
X604507Y416489D01*
X603765Y415920D01*
X603196Y415177D01*
X602838Y414313D01*
X602716Y413386D01*
X602838Y412458D01*
X603196Y411594D01*
X603765Y410852D01*
X604507Y410283D01*
X605372Y409925D01*
X606299Y409802D01*
X607227Y409925D01*
X608091Y410283D01*
X608833Y410852D01*
X609403Y411594D01*
X609761Y412458D01*
X609883Y413386D01*
X609761Y414313D01*
X609403Y415177D01*
X608833Y415920D01*
X608091Y416489D01*
X607227Y416847D01*
X606299Y416969D01*
D02*
G37*
G36*
X596457D02*
X595529Y416847D01*
X594665Y416489D01*
X593923Y415920D01*
X593353Y415177D01*
X592995Y414313D01*
X592873Y413386D01*
X592995Y412458D01*
X593353Y411594D01*
X593923Y410852D01*
X594665Y410283D01*
X595529Y409925D01*
X596457Y409802D01*
X597384Y409925D01*
X598248Y410283D01*
X598990Y410852D01*
X599560Y411594D01*
X599918Y412458D01*
X600040Y413386D01*
X599918Y414313D01*
X599560Y415177D01*
X598990Y415920D01*
X598248Y416489D01*
X597384Y416847D01*
X596457Y416969D01*
D02*
G37*
G36*
X480315D02*
X479388Y416847D01*
X478523Y416489D01*
X477781Y415920D01*
X477212Y415177D01*
X476854Y414313D01*
X476731Y413386D01*
X476854Y412458D01*
X477212Y411594D01*
X477781Y410852D01*
X478523Y410283D01*
X479388Y409925D01*
X480315Y409802D01*
X481242Y409925D01*
X482107Y410283D01*
X482849Y410852D01*
X483418Y411594D01*
X483776Y412458D01*
X483898Y413386D01*
X483776Y414313D01*
X483418Y415177D01*
X482849Y415920D01*
X482107Y416489D01*
X481242Y416847D01*
X480315Y416969D01*
D02*
G37*
G36*
X470472D02*
X469545Y416847D01*
X468681Y416489D01*
X467939Y415920D01*
X467369Y415177D01*
X467011Y414313D01*
X466889Y413386D01*
X467011Y412458D01*
X467369Y411594D01*
X467939Y410852D01*
X468681Y410283D01*
X469545Y409925D01*
X470472Y409802D01*
X471400Y409925D01*
X472264Y410283D01*
X473006Y410852D01*
X473576Y411594D01*
X473934Y412458D01*
X474056Y413386D01*
X473934Y414313D01*
X473576Y415177D01*
X473006Y415920D01*
X472264Y416489D01*
X471400Y416847D01*
X470472Y416969D01*
D02*
G37*
G36*
X460630D02*
X459702Y416847D01*
X458838Y416489D01*
X458096Y415920D01*
X457527Y415177D01*
X457169Y414313D01*
X457047Y413386D01*
X457169Y412458D01*
X457527Y411594D01*
X458096Y410852D01*
X458838Y410283D01*
X459702Y409925D01*
X460630Y409802D01*
X461557Y409925D01*
X462422Y410283D01*
X463164Y410852D01*
X463733Y411594D01*
X464091Y412458D01*
X464213Y413386D01*
X464091Y414313D01*
X463733Y415177D01*
X463164Y415920D01*
X462422Y416489D01*
X461557Y416847D01*
X460630Y416969D01*
D02*
G37*
G36*
X450787D02*
X449860Y416847D01*
X448996Y416489D01*
X448253Y415920D01*
X447684Y415177D01*
X447326Y414313D01*
X447204Y413386D01*
X447326Y412458D01*
X447684Y411594D01*
X448253Y410852D01*
X448996Y410283D01*
X449860Y409925D01*
X450787Y409802D01*
X451715Y409925D01*
X452579Y410283D01*
X453321Y410852D01*
X453891Y411594D01*
X454249Y412458D01*
X454371Y413386D01*
X454249Y414313D01*
X453891Y415177D01*
X453321Y415920D01*
X452579Y416489D01*
X451715Y416847D01*
X450787Y416969D01*
D02*
G37*
G36*
X407480D02*
X406553Y416847D01*
X405689Y416489D01*
X404947Y415920D01*
X404377Y415177D01*
X404019Y414313D01*
X403897Y413386D01*
X404019Y412458D01*
X404377Y411594D01*
X404947Y410852D01*
X405689Y410283D01*
X406553Y409925D01*
X407480Y409802D01*
X408408Y409925D01*
X409272Y410283D01*
X410014Y410852D01*
X410584Y411594D01*
X410942Y412458D01*
X411064Y413386D01*
X410942Y414313D01*
X410584Y415177D01*
X410014Y415920D01*
X409272Y416489D01*
X408408Y416847D01*
X407480Y416969D01*
D02*
G37*
G36*
X397638D02*
X396710Y416847D01*
X395846Y416489D01*
X395104Y415920D01*
X394534Y415177D01*
X394177Y414313D01*
X394054Y413386D01*
X394177Y412458D01*
X394534Y411594D01*
X395104Y410852D01*
X395846Y410283D01*
X396710Y409925D01*
X397638Y409802D01*
X398565Y409925D01*
X399429Y410283D01*
X400172Y410852D01*
X400741Y411594D01*
X401099Y412458D01*
X401221Y413386D01*
X401099Y414313D01*
X400741Y415177D01*
X400172Y415920D01*
X399429Y416489D01*
X398565Y416847D01*
X397638Y416969D01*
D02*
G37*
G36*
X387795D02*
X386868Y416847D01*
X386004Y416489D01*
X385261Y415920D01*
X384692Y415177D01*
X384334Y414313D01*
X384212Y413386D01*
X384334Y412458D01*
X384692Y411594D01*
X385261Y410852D01*
X386004Y410283D01*
X386868Y409925D01*
X387795Y409802D01*
X388723Y409925D01*
X389587Y410283D01*
X390329Y410852D01*
X390899Y411594D01*
X391257Y412458D01*
X391379Y413386D01*
X391257Y414313D01*
X390899Y415177D01*
X390329Y415920D01*
X389587Y416489D01*
X388723Y416847D01*
X387795Y416969D01*
D02*
G37*
G36*
X377953D02*
X377025Y416847D01*
X376161Y416489D01*
X375419Y415920D01*
X374849Y415177D01*
X374491Y414313D01*
X374369Y413386D01*
X374491Y412458D01*
X374849Y411594D01*
X375419Y410852D01*
X376161Y410283D01*
X377025Y409925D01*
X377953Y409802D01*
X378880Y409925D01*
X379745Y410283D01*
X380487Y410852D01*
X381056Y411594D01*
X381414Y412458D01*
X381536Y413386D01*
X381414Y414313D01*
X381056Y415177D01*
X380487Y415920D01*
X379745Y416489D01*
X378880Y416847D01*
X377953Y416969D01*
D02*
G37*
G36*
X332677D02*
X331750Y416847D01*
X330886Y416489D01*
X330143Y415920D01*
X329574Y415177D01*
X329216Y414313D01*
X329094Y413386D01*
X329216Y412458D01*
X329574Y411594D01*
X330143Y410852D01*
X330886Y410283D01*
X331750Y409925D01*
X332677Y409802D01*
X333605Y409925D01*
X334469Y410283D01*
X335211Y410852D01*
X335781Y411594D01*
X336139Y412458D01*
X336261Y413386D01*
X336139Y414313D01*
X335781Y415177D01*
X335211Y415920D01*
X334469Y416489D01*
X333605Y416847D01*
X332677Y416969D01*
D02*
G37*
G36*
X312992D02*
X312065Y416847D01*
X311200Y416489D01*
X310458Y415920D01*
X309889Y415177D01*
X309531Y414313D01*
X309409Y413386D01*
X309531Y412458D01*
X309889Y411594D01*
X310458Y410852D01*
X311200Y410283D01*
X312065Y409925D01*
X312992Y409802D01*
X313920Y409925D01*
X314784Y410283D01*
X315526Y410852D01*
X316095Y411594D01*
X316453Y412458D01*
X316576Y413386D01*
X316453Y414313D01*
X316095Y415177D01*
X315526Y415920D01*
X314784Y416489D01*
X313920Y416847D01*
X312992Y416969D01*
D02*
G37*
G36*
X303150D02*
X302222Y416847D01*
X301358Y416489D01*
X300616Y415920D01*
X300046Y415177D01*
X299688Y414313D01*
X299566Y413386D01*
X299688Y412458D01*
X300046Y411594D01*
X300616Y410852D01*
X301358Y410283D01*
X302222Y409925D01*
X303150Y409802D01*
X304077Y409925D01*
X304941Y410283D01*
X305683Y410852D01*
X306253Y411594D01*
X306611Y412458D01*
X306733Y413386D01*
X306611Y414313D01*
X306253Y415177D01*
X305683Y415920D01*
X304941Y416489D01*
X304077Y416847D01*
X303150Y416969D01*
D02*
G37*
G36*
X293307D02*
X292380Y416847D01*
X291515Y416489D01*
X290773Y415920D01*
X290204Y415177D01*
X289846Y414313D01*
X289724Y413386D01*
X289846Y412458D01*
X290204Y411594D01*
X290773Y410852D01*
X291515Y410283D01*
X292380Y409925D01*
X293307Y409802D01*
X294234Y409925D01*
X295099Y410283D01*
X295841Y410852D01*
X296410Y411594D01*
X296768Y412458D01*
X296890Y413386D01*
X296768Y414313D01*
X296410Y415177D01*
X295841Y415920D01*
X295099Y416489D01*
X294234Y416847D01*
X293307Y416969D01*
D02*
G37*
G36*
X246181D02*
X245254Y416847D01*
X244389Y416489D01*
X243647Y415920D01*
X243078Y415177D01*
X242720Y414313D01*
X242598Y413386D01*
X242720Y412458D01*
X243078Y411594D01*
X243647Y410852D01*
X244389Y410283D01*
X245254Y409925D01*
X246181Y409802D01*
X247109Y409925D01*
X247973Y410283D01*
X248715Y410852D01*
X249284Y411594D01*
X249642Y412458D01*
X249764Y413386D01*
X249642Y414313D01*
X249284Y415177D01*
X248715Y415920D01*
X247973Y416489D01*
X247109Y416847D01*
X246181Y416969D01*
D02*
G37*
G36*
X198819D02*
X197891Y416847D01*
X197027Y416489D01*
X196285Y415920D01*
X195716Y415177D01*
X195358Y414313D01*
X195236Y413386D01*
X195358Y412458D01*
X195716Y411594D01*
X196285Y410852D01*
X197027Y410283D01*
X197891Y409925D01*
X198819Y409802D01*
X199746Y409925D01*
X200611Y410283D01*
X201353Y410852D01*
X201922Y411594D01*
X202280Y412458D01*
X202402Y413386D01*
X202280Y414313D01*
X201922Y415177D01*
X201353Y415920D01*
X200611Y416489D01*
X199746Y416847D01*
X198819Y416969D01*
D02*
G37*
G36*
X188976D02*
X188049Y416847D01*
X187185Y416489D01*
X186442Y415920D01*
X185873Y415177D01*
X185515Y414313D01*
X185393Y413386D01*
X185515Y412458D01*
X185873Y411594D01*
X186442Y410852D01*
X187185Y410283D01*
X188049Y409925D01*
X188976Y409802D01*
X189904Y409925D01*
X190768Y410283D01*
X191510Y410852D01*
X192080Y411594D01*
X192438Y412458D01*
X192560Y413386D01*
X192438Y414313D01*
X192080Y415177D01*
X191510Y415920D01*
X190768Y416489D01*
X189904Y416847D01*
X188976Y416969D01*
D02*
G37*
G36*
X326756Y412886D02*
X323335D01*
Y409465D01*
X323867Y409535D01*
X324828Y409933D01*
X325654Y410567D01*
X326287Y411392D01*
X326686Y412354D01*
X326756Y412886D01*
D02*
G37*
G36*
X322335D02*
X318914D01*
X318984Y412354D01*
X319382Y411392D01*
X320016Y410567D01*
X320841Y409933D01*
X321803Y409535D01*
X322335Y409465D01*
Y412886D01*
D02*
G37*
G36*
X566945D02*
X563492D01*
Y409433D01*
X566945D01*
Y412886D01*
D02*
G37*
G36*
X562492D02*
X559039D01*
Y409433D01*
X562492D01*
Y412886D01*
D02*
G37*
G36*
X639780Y412886D02*
X636327D01*
Y409433D01*
X639780D01*
Y412886D01*
D02*
G37*
G36*
X635327D02*
X631874D01*
Y409433D01*
X635327D01*
Y412886D01*
D02*
G37*
G36*
X494110Y412886D02*
X490658D01*
Y409433D01*
X494110D01*
Y412886D01*
D02*
G37*
G36*
X489657D02*
X486205D01*
Y409433D01*
X489657D01*
Y412886D01*
D02*
G37*
G36*
X421276Y412886D02*
X417823D01*
Y409433D01*
X421276D01*
Y412886D01*
D02*
G37*
G36*
X416823D02*
X413370D01*
Y409433D01*
X416823D01*
Y412886D01*
D02*
G37*
G36*
X153386Y417298D02*
X152047Y417121D01*
X150800Y416605D01*
X149729Y415783D01*
X148907Y414712D01*
X148390Y413464D01*
X148214Y412126D01*
X148390Y410787D01*
X148907Y409540D01*
X149729Y408469D01*
X150800Y407647D01*
X152047Y407130D01*
X153386Y406954D01*
X154724Y407130D01*
X155972Y407647D01*
X157043Y408469D01*
X157865Y409540D01*
X158381Y410787D01*
X158558Y412126D01*
X158381Y413464D01*
X157865Y414712D01*
X157043Y415783D01*
X155972Y416605D01*
X154724Y417121D01*
X153386Y417298D01*
D02*
G37*
G36*
X143323Y411626D02*
X138295D01*
Y406598D01*
X143323D01*
Y411626D01*
D02*
G37*
G36*
X137295D02*
X132268D01*
Y406598D01*
X137295D01*
Y411626D01*
D02*
G37*
G36*
X64173Y407064D02*
X63492D01*
Y402783D01*
X68888D01*
X68791Y403521D01*
X68314Y404674D01*
X67554Y405664D01*
X66564Y406424D01*
X65411Y406902D01*
X64173Y407064D01*
D02*
G37*
G36*
X62492D02*
X61811D01*
X60574Y406902D01*
X59421Y406424D01*
X58430Y405664D01*
X57670Y404674D01*
X57193Y403521D01*
X57096Y402783D01*
X62492D01*
Y407064D01*
D02*
G37*
G36*
X569291Y408301D02*
X568569Y408206D01*
X567897Y407927D01*
X567319Y407484D01*
X566876Y406906D01*
X566597Y406234D01*
X566502Y405512D01*
X566597Y404790D01*
X566876Y404117D01*
X567319Y403540D01*
X567897Y403096D01*
X568569Y402818D01*
X569291Y402723D01*
X570013Y402818D01*
X570686Y403096D01*
X571264Y403540D01*
X571707Y404117D01*
X571985Y404790D01*
X572081Y405512D01*
X571985Y406234D01*
X571707Y406906D01*
X571264Y407484D01*
X570686Y407927D01*
X570013Y408206D01*
X569291Y408301D01*
D02*
G37*
G36*
X642126Y408301D02*
X641404Y408206D01*
X640731Y407927D01*
X640154Y407484D01*
X639711Y406906D01*
X639432Y406234D01*
X639337Y405512D01*
X639432Y404790D01*
X639711Y404117D01*
X640154Y403540D01*
X640731Y403096D01*
X641404Y402818D01*
X642126Y402723D01*
X642848Y402818D01*
X643521Y403096D01*
X644098Y403540D01*
X644542Y404117D01*
X644820Y404790D01*
X644915Y405512D01*
X644820Y406234D01*
X644542Y406906D01*
X644098Y407484D01*
X643521Y407927D01*
X642848Y408206D01*
X642126Y408301D01*
D02*
G37*
G36*
X496457D02*
X495735Y408206D01*
X495062Y407927D01*
X494484Y407484D01*
X494041Y406906D01*
X493762Y406234D01*
X493668Y405512D01*
X493762Y404790D01*
X494041Y404117D01*
X494484Y403540D01*
X495062Y403096D01*
X495735Y402818D01*
X496457Y402723D01*
X497179Y402818D01*
X497851Y403096D01*
X498429Y403540D01*
X498872Y404117D01*
X499151Y404790D01*
X499246Y405512D01*
X499151Y406234D01*
X498872Y406906D01*
X498429Y407484D01*
X497851Y407927D01*
X497179Y408206D01*
X496457Y408301D01*
D02*
G37*
G36*
X423622D02*
X422900Y408206D01*
X422227Y407927D01*
X421650Y407484D01*
X421207Y406906D01*
X420928Y406234D01*
X420833Y405512D01*
X420928Y404790D01*
X421207Y404117D01*
X421650Y403540D01*
X422227Y403096D01*
X422900Y402818D01*
X423622Y402723D01*
X424344Y402818D01*
X425017Y403096D01*
X425594Y403540D01*
X426038Y404117D01*
X426316Y404790D01*
X426411Y405512D01*
X426316Y406234D01*
X426038Y406906D01*
X425594Y407484D01*
X425017Y407927D01*
X424344Y408206D01*
X423622Y408301D01*
D02*
G37*
G36*
X348819D02*
X348097Y408206D01*
X347424Y407927D01*
X346847Y407484D01*
X346403Y406906D01*
X346125Y406234D01*
X346030Y405512D01*
X346125Y404790D01*
X346403Y404117D01*
X346847Y403540D01*
X347424Y403096D01*
X348097Y402818D01*
X348819Y402723D01*
X349541Y402818D01*
X350214Y403096D01*
X350791Y403540D01*
X351234Y404117D01*
X351513Y404790D01*
X351608Y405512D01*
X351513Y406234D01*
X351234Y406906D01*
X350791Y407484D01*
X350214Y407927D01*
X349541Y408206D01*
X348819Y408301D01*
D02*
G37*
G36*
X262323D02*
X261601Y408206D01*
X260928Y407927D01*
X260351Y407484D01*
X259907Y406906D01*
X259629Y406234D01*
X259534Y405512D01*
X259629Y404790D01*
X259907Y404117D01*
X260351Y403540D01*
X260928Y403096D01*
X261601Y402818D01*
X262323Y402723D01*
X263045Y402818D01*
X263717Y403096D01*
X264295Y403540D01*
X264738Y404117D01*
X265017Y404790D01*
X265112Y405512D01*
X265017Y406234D01*
X264738Y406906D01*
X264295Y407484D01*
X263717Y407927D01*
X263045Y408206D01*
X262323Y408301D01*
D02*
G37*
G36*
X214961D02*
X214239Y408206D01*
X213566Y407927D01*
X212988Y407484D01*
X212545Y406906D01*
X212266Y406234D01*
X212171Y405512D01*
X212266Y404790D01*
X212545Y404117D01*
X212988Y403540D01*
X213566Y403096D01*
X214239Y402818D01*
X214961Y402723D01*
X215683Y402818D01*
X216355Y403096D01*
X216933Y403540D01*
X217376Y404117D01*
X217655Y404790D01*
X217750Y405512D01*
X217655Y406234D01*
X217376Y406906D01*
X216933Y407484D01*
X216355Y407927D01*
X215683Y408206D01*
X214961Y408301D01*
D02*
G37*
G36*
X728346Y426526D02*
X726291Y426365D01*
X724286Y425883D01*
X722381Y425094D01*
X720623Y424017D01*
X719055Y422678D01*
X717716Y421110D01*
X716638Y419351D01*
X715849Y417447D01*
X715368Y415442D01*
X715206Y413386D01*
X715368Y411330D01*
X715849Y409325D01*
X716638Y407420D01*
X717716Y405662D01*
X719055Y404094D01*
X720623Y402755D01*
X722381Y401678D01*
X724286Y400888D01*
X726291Y400407D01*
X728346Y400245D01*
X730402Y400407D01*
X732407Y400888D01*
X734312Y401678D01*
X736070Y402755D01*
X737638Y404094D01*
X738977Y405662D01*
X740055Y407420D01*
X740844Y409325D01*
X741325Y411330D01*
X741487Y413386D01*
X741325Y415442D01*
X740844Y417447D01*
X740055Y419351D01*
X738977Y421110D01*
X737638Y422678D01*
X736070Y424017D01*
X734312Y425094D01*
X732407Y425883D01*
X730402Y426365D01*
X728346Y426526D01*
D02*
G37*
G36*
X19685D02*
X17629Y426365D01*
X15624Y425883D01*
X13719Y425094D01*
X11961Y424017D01*
X10393Y422678D01*
X9054Y421110D01*
X7977Y419351D01*
X7188Y417447D01*
X6706Y415442D01*
X6544Y413386D01*
X6706Y411330D01*
X7188Y409325D01*
X7977Y407420D01*
X9054Y405662D01*
X10393Y404094D01*
X11961Y402755D01*
X13719Y401678D01*
X15624Y400888D01*
X17629Y400407D01*
X19685Y400245D01*
X21741Y400407D01*
X23746Y400888D01*
X25651Y401678D01*
X27409Y402755D01*
X28977Y404094D01*
X30316Y405662D01*
X31393Y407420D01*
X32182Y409325D01*
X32664Y411330D01*
X32825Y413386D01*
X32664Y415442D01*
X32182Y417447D01*
X31393Y419351D01*
X30316Y421110D01*
X28977Y422678D01*
X27409Y424017D01*
X25651Y425094D01*
X23746Y425883D01*
X21741Y426365D01*
X19685Y426526D01*
D02*
G37*
G36*
X68888Y401783D02*
X63492D01*
Y397502D01*
X64173D01*
X65411Y397665D01*
X66564Y398143D01*
X67554Y398903D01*
X68314Y399893D01*
X68791Y401046D01*
X68888Y401783D01*
D02*
G37*
G36*
X62492D02*
X57096D01*
X57193Y401046D01*
X57670Y399893D01*
X58430Y398903D01*
X59421Y398143D01*
X60574Y397665D01*
X61811Y397502D01*
X62492D01*
Y401783D01*
D02*
G37*
G36*
X44488Y396031D02*
X43355Y395882D01*
X42299Y395445D01*
X41393Y394749D01*
X40697Y393842D01*
X40260Y392787D01*
X40111Y391653D01*
Y389291D01*
X40260Y388158D01*
X40697Y387103D01*
X41393Y386196D01*
X42299Y385500D01*
X43355Y385063D01*
X44488Y384914D01*
X45621Y385063D01*
X46677Y385500D01*
X47584Y386196D01*
X48279Y387103D01*
X48717Y388158D01*
X48866Y389291D01*
Y391653D01*
X48717Y392787D01*
X48279Y393842D01*
X47584Y394749D01*
X46677Y395445D01*
X45621Y395882D01*
X44488Y396031D01*
D02*
G37*
G36*
X568110Y381064D02*
X567447Y380932D01*
X566884Y380556D01*
X566509Y379994D01*
X566377Y379331D01*
X566509Y378667D01*
X566884Y378105D01*
X567447Y377729D01*
X568110Y377597D01*
X568773Y377729D01*
X569336Y378105D01*
X569711Y378667D01*
X569843Y379331D01*
X569711Y379994D01*
X569336Y380556D01*
X568773Y380932D01*
X568110Y381064D01*
D02*
G37*
G36*
X560630D02*
X559966Y380932D01*
X559404Y380556D01*
X559028Y379994D01*
X558896Y379331D01*
X559028Y378667D01*
X559404Y378105D01*
X559966Y377729D01*
X560630Y377597D01*
X561293Y377729D01*
X561855Y378105D01*
X562231Y378667D01*
X562363Y379331D01*
X562231Y379994D01*
X561855Y380556D01*
X561293Y380932D01*
X560630Y381064D01*
D02*
G37*
G36*
X625985Y379718D02*
X625322Y379586D01*
X624759Y379210D01*
X624383Y378648D01*
X624252Y377985D01*
X624383Y377322D01*
X624759Y376759D01*
X625322Y376383D01*
X625985Y376252D01*
X626648Y376383D01*
X627211Y376759D01*
X627586Y377322D01*
X627718Y377985D01*
X627586Y378648D01*
X627211Y379210D01*
X626648Y379586D01*
X625985Y379718D01*
D02*
G37*
G36*
X616142D02*
X615479Y379586D01*
X614917Y379210D01*
X614541Y378648D01*
X614409Y377985D01*
X614541Y377322D01*
X614917Y376759D01*
X615479Y376383D01*
X616142Y376252D01*
X616806Y376383D01*
X617368Y376759D01*
X617744Y377322D01*
X617876Y377985D01*
X617744Y378648D01*
X617368Y379210D01*
X616806Y379586D01*
X616142Y379718D01*
D02*
G37*
G36*
X553150Y379687D02*
X552487Y379555D01*
X551925Y379179D01*
X551549Y378617D01*
X551417Y377953D01*
X551549Y377290D01*
X551925Y376728D01*
X552487Y376352D01*
X553150Y376220D01*
X553814Y376352D01*
X554376Y376728D01*
X554752Y377290D01*
X554884Y377953D01*
X554752Y378617D01*
X554376Y379179D01*
X553814Y379555D01*
X553150Y379687D01*
D02*
G37*
G36*
X543308D02*
X542644Y379555D01*
X542082Y379179D01*
X541706Y378617D01*
X541574Y377953D01*
X541706Y377290D01*
X542082Y376728D01*
X542644Y376352D01*
X543308Y376220D01*
X543971Y376352D01*
X544533Y376728D01*
X544909Y377290D01*
X545041Y377953D01*
X544909Y378617D01*
X544533Y379179D01*
X543971Y379555D01*
X543308Y379687D01*
D02*
G37*
G36*
X533465D02*
X532802Y379555D01*
X532240Y379179D01*
X531864Y378617D01*
X531732Y377953D01*
X531864Y377290D01*
X532240Y376728D01*
X532802Y376352D01*
X533465Y376220D01*
X534129Y376352D01*
X534691Y376728D01*
X535067Y377290D01*
X535198Y377953D01*
X535067Y378617D01*
X534691Y379179D01*
X534129Y379555D01*
X533465Y379687D01*
D02*
G37*
G36*
X606300Y379687D02*
X605637Y379555D01*
X605074Y379179D01*
X604699Y378617D01*
X604567Y377953D01*
X604699Y377290D01*
X605074Y376728D01*
X605637Y376352D01*
X606300Y376220D01*
X606963Y376352D01*
X607525Y376728D01*
X607901Y377290D01*
X608033Y377953D01*
X607901Y378617D01*
X607525Y379179D01*
X606963Y379555D01*
X606300Y379687D01*
D02*
G37*
G36*
X480316D02*
X479652Y379555D01*
X479090Y379179D01*
X478714Y378617D01*
X478582Y377953D01*
X478714Y377290D01*
X479090Y376728D01*
X479652Y376352D01*
X480316Y376220D01*
X480979Y376352D01*
X481541Y376728D01*
X481917Y377290D01*
X482049Y377953D01*
X481917Y378617D01*
X481541Y379179D01*
X480979Y379555D01*
X480316Y379687D01*
D02*
G37*
G36*
X470473D02*
X469810Y379555D01*
X469247Y379179D01*
X468872Y378617D01*
X468740Y377953D01*
X468872Y377290D01*
X469247Y376728D01*
X469810Y376352D01*
X470473Y376220D01*
X471136Y376352D01*
X471699Y376728D01*
X472074Y377290D01*
X472206Y377953D01*
X472074Y378617D01*
X471699Y379179D01*
X471136Y379555D01*
X470473Y379687D01*
D02*
G37*
G36*
X460631D02*
X459967Y379555D01*
X459405Y379179D01*
X459029Y378617D01*
X458897Y377953D01*
X459029Y377290D01*
X459405Y376728D01*
X459967Y376352D01*
X460631Y376220D01*
X461294Y376352D01*
X461856Y376728D01*
X462232Y377290D01*
X462364Y377953D01*
X462232Y378617D01*
X461856Y379179D01*
X461294Y379555D01*
X460631Y379687D01*
D02*
G37*
G36*
X407481D02*
X406818Y379555D01*
X406255Y379179D01*
X405880Y378617D01*
X405748Y377953D01*
X405880Y377290D01*
X406255Y376728D01*
X406818Y376352D01*
X407481Y376220D01*
X408144Y376352D01*
X408707Y376728D01*
X409082Y377290D01*
X409214Y377953D01*
X409082Y378617D01*
X408707Y379179D01*
X408144Y379555D01*
X407481Y379687D01*
D02*
G37*
G36*
X397638D02*
X396975Y379555D01*
X396413Y379179D01*
X396037Y378617D01*
X395905Y377953D01*
X396037Y377290D01*
X396413Y376728D01*
X396975Y376352D01*
X397638Y376220D01*
X398302Y376352D01*
X398864Y376728D01*
X399240Y377290D01*
X399372Y377953D01*
X399240Y378617D01*
X398864Y379179D01*
X398302Y379555D01*
X397638Y379687D01*
D02*
G37*
G36*
X387796D02*
X387133Y379555D01*
X386570Y379179D01*
X386195Y378617D01*
X386063Y377953D01*
X386195Y377290D01*
X386570Y376728D01*
X387133Y376352D01*
X387796Y376220D01*
X388459Y376352D01*
X389021Y376728D01*
X389397Y377290D01*
X389529Y377953D01*
X389397Y378617D01*
X389021Y379179D01*
X388459Y379555D01*
X387796Y379687D01*
D02*
G37*
G36*
X64173Y383039D02*
X61811D01*
X60678Y382890D01*
X59622Y382453D01*
X58716Y381757D01*
X58020Y380850D01*
X57583Y379794D01*
X57433Y378661D01*
X57583Y377528D01*
X58020Y376473D01*
X58716Y375566D01*
X59622Y374870D01*
X60678Y374433D01*
X61811Y374284D01*
X64173D01*
X65306Y374433D01*
X66362Y374870D01*
X67269Y375566D01*
X67964Y376473D01*
X68402Y377528D01*
X68551Y378661D01*
X68402Y379794D01*
X67964Y380850D01*
X67269Y381757D01*
X66362Y382453D01*
X65306Y382890D01*
X64173Y383039D01*
D02*
G37*
G36*
X12311Y374876D02*
Y373335D01*
X13853D01*
X13789Y373654D01*
X13325Y374349D01*
X12630Y374813D01*
X12311Y374876D01*
D02*
G37*
G36*
X11311D02*
X10992Y374813D01*
X10297Y374349D01*
X9833Y373654D01*
X9769Y373335D01*
X11311D01*
Y374876D01*
D02*
G37*
G36*
X13853Y372335D02*
X12311D01*
Y370793D01*
X12630Y370856D01*
X13325Y371321D01*
X13789Y372015D01*
X13853Y372335D01*
D02*
G37*
G36*
X11311D02*
X9769D01*
X9833Y372015D01*
X10297Y371321D01*
X10992Y370856D01*
X11311Y370793D01*
Y372335D01*
D02*
G37*
G36*
X110236Y372795D02*
X109573Y372663D01*
X109011Y372288D01*
X108635Y371725D01*
X108503Y371062D01*
X108635Y370399D01*
X109011Y369836D01*
X109573Y369461D01*
X110236Y369329D01*
X110899Y369461D01*
X111462Y369836D01*
X111838Y370399D01*
X111969Y371062D01*
X111838Y371725D01*
X111462Y372288D01*
X110899Y372663D01*
X110236Y372795D01*
D02*
G37*
G36*
X605224Y368971D02*
Y367429D01*
X606766D01*
X606702Y367749D01*
X606238Y368443D01*
X605543Y368908D01*
X605224Y368971D01*
D02*
G37*
G36*
X604224D02*
X603904Y368908D01*
X603210Y368443D01*
X602746Y367749D01*
X602682Y367429D01*
X604224D01*
Y368971D01*
D02*
G37*
G36*
X613098Y368578D02*
Y367036D01*
X614640D01*
X614576Y367355D01*
X614112Y368050D01*
X613417Y368514D01*
X613098Y368578D01*
D02*
G37*
G36*
X612098D02*
X611778Y368514D01*
X611084Y368050D01*
X610620Y367355D01*
X610556Y367036D01*
X612098D01*
Y368578D01*
D02*
G37*
G36*
X606766Y366429D02*
X605224D01*
Y364888D01*
X605543Y364951D01*
X606238Y365416D01*
X606702Y366110D01*
X606766Y366429D01*
D02*
G37*
G36*
X604224D02*
X602682D01*
X602746Y366110D01*
X603210Y365416D01*
X603904Y364951D01*
X604224Y364888D01*
Y366429D01*
D02*
G37*
G36*
X614640Y366036D02*
X613098D01*
Y364494D01*
X613417Y364558D01*
X614112Y365022D01*
X614576Y365716D01*
X614640Y366036D01*
D02*
G37*
G36*
X612098D02*
X610556D01*
X610620Y365716D01*
X611084Y365022D01*
X611778Y364558D01*
X612098Y364494D01*
Y366036D01*
D02*
G37*
G36*
X48039Y365132D02*
Y363591D01*
X49581D01*
X49518Y363910D01*
X49053Y364605D01*
X48359Y365069D01*
X48039Y365132D01*
D02*
G37*
G36*
X47039D02*
X46720Y365069D01*
X46025Y364605D01*
X45561Y363910D01*
X45498Y363591D01*
X47039D01*
Y365132D01*
D02*
G37*
G36*
X568111Y366103D02*
X567447Y365971D01*
X566885Y365595D01*
X566509Y365033D01*
X566377Y364370D01*
X566509Y363706D01*
X566885Y363144D01*
X567447Y362768D01*
X568111Y362636D01*
X568774Y362768D01*
X569336Y363144D01*
X569712Y363706D01*
X569844Y364370D01*
X569712Y365033D01*
X569336Y365595D01*
X568774Y365971D01*
X568111Y366103D01*
D02*
G37*
G36*
X560630D02*
X559967Y365971D01*
X559405Y365595D01*
X559029Y365033D01*
X558897Y364370D01*
X559029Y363706D01*
X559405Y363144D01*
X559967Y362768D01*
X560630Y362636D01*
X561294Y362768D01*
X561856Y363144D01*
X562232Y363706D01*
X562363Y364370D01*
X562232Y365033D01*
X561856Y365595D01*
X561294Y365971D01*
X560630Y366103D01*
D02*
G37*
G36*
X49581Y362591D02*
X48039D01*
Y361049D01*
X48359Y361112D01*
X49053Y361577D01*
X49518Y362271D01*
X49581Y362591D01*
D02*
G37*
G36*
X47039D02*
X45498D01*
X45561Y362271D01*
X46025Y361577D01*
X46720Y361112D01*
X47039Y361049D01*
Y362591D01*
D02*
G37*
G36*
X364173Y364332D02*
X363510Y364200D01*
X362948Y363824D01*
X362572Y363262D01*
X362440Y362598D01*
X362572Y361935D01*
X362948Y361373D01*
X363510Y360997D01*
X364173Y360865D01*
X364837Y360997D01*
X365399Y361373D01*
X365775Y361935D01*
X365907Y362598D01*
X365775Y363262D01*
X365399Y363824D01*
X364837Y364200D01*
X364173Y364332D01*
D02*
G37*
G36*
X599213Y357836D02*
X598549Y357704D01*
X597987Y357328D01*
X597611Y356766D01*
X597479Y356102D01*
X597611Y355439D01*
X597987Y354877D01*
X598549Y354501D01*
X599213Y354369D01*
X599876Y354501D01*
X600438Y354877D01*
X600814Y355439D01*
X600946Y356102D01*
X600814Y356766D01*
X600438Y357328D01*
X599876Y357704D01*
X599213Y357836D01*
D02*
G37*
G36*
X629240Y349680D02*
Y348138D01*
X630781D01*
X630718Y348458D01*
X630254Y349152D01*
X629559Y349616D01*
X629240Y349680D01*
D02*
G37*
G36*
X628239D02*
X627920Y349616D01*
X627225Y349152D01*
X626761Y348458D01*
X626698Y348138D01*
X628239D01*
Y349680D01*
D02*
G37*
G36*
X621759Y349680D02*
Y348138D01*
X623301D01*
X623237Y348458D01*
X622773Y349152D01*
X622079Y349616D01*
X621759Y349680D01*
D02*
G37*
G36*
X620759D02*
X620440Y349616D01*
X619745Y349152D01*
X619281Y348458D01*
X619217Y348138D01*
X620759D01*
Y349680D01*
D02*
G37*
G36*
X595669Y351438D02*
X595005Y351306D01*
X594443Y350930D01*
X594067Y350368D01*
X593935Y349705D01*
X594067Y349041D01*
X594443Y348479D01*
X595005Y348103D01*
X595669Y347971D01*
X596332Y348103D01*
X596894Y348479D01*
X597270Y349041D01*
X597402Y349705D01*
X597270Y350368D01*
X596894Y350930D01*
X596332Y351306D01*
X595669Y351438D01*
D02*
G37*
G36*
X731496Y351340D02*
X730833Y351208D01*
X730270Y350832D01*
X729895Y350270D01*
X729763Y349606D01*
X729895Y348943D01*
X730270Y348381D01*
X730833Y348005D01*
X731496Y347873D01*
X732159Y348005D01*
X732722Y348381D01*
X733097Y348943D01*
X733229Y349606D01*
X733097Y350270D01*
X732722Y350832D01*
X732159Y351208D01*
X731496Y351340D01*
D02*
G37*
G36*
X724016D02*
X723352Y351208D01*
X722790Y350832D01*
X722414Y350270D01*
X722282Y349606D01*
X722414Y348943D01*
X722790Y348381D01*
X723352Y348005D01*
X724016Y347873D01*
X724679Y348005D01*
X725241Y348381D01*
X725617Y348943D01*
X725749Y349606D01*
X725617Y350270D01*
X725241Y350832D01*
X724679Y351208D01*
X724016Y351340D01*
D02*
G37*
G36*
X630781Y347138D02*
X629240D01*
Y345597D01*
X629559Y345660D01*
X630254Y346124D01*
X630718Y346819D01*
X630781Y347138D01*
D02*
G37*
G36*
X628239D02*
X626698D01*
X626761Y346819D01*
X627225Y346124D01*
X627920Y345660D01*
X628239Y345597D01*
Y347138D01*
D02*
G37*
G36*
X623301Y347138D02*
X621759D01*
Y345596D01*
X622079Y345660D01*
X622773Y346124D01*
X623237Y346819D01*
X623301Y347138D01*
D02*
G37*
G36*
X620759D02*
X619217D01*
X619281Y346819D01*
X619745Y346124D01*
X620440Y345660D01*
X620759Y345596D01*
Y347138D01*
D02*
G37*
G36*
X105224Y346530D02*
Y344988D01*
X106766D01*
X106703Y345308D01*
X106238Y346003D01*
X105544Y346467D01*
X105224Y346530D01*
D02*
G37*
G36*
X104224D02*
X103905Y346467D01*
X103210Y346003D01*
X102746Y345308D01*
X102683Y344988D01*
X104224D01*
Y346530D01*
D02*
G37*
G36*
X281209Y345742D02*
Y344200D01*
X282751D01*
X282687Y344520D01*
X282223Y345215D01*
X281528Y345679D01*
X281209Y345742D01*
D02*
G37*
G36*
X280209D02*
X279890Y345679D01*
X279195Y345215D01*
X278731Y344520D01*
X278667Y344200D01*
X280209D01*
Y345742D01*
D02*
G37*
G36*
X209555D02*
Y344200D01*
X211097D01*
X211034Y344520D01*
X210570Y345215D01*
X209875Y345679D01*
X209555Y345742D01*
D02*
G37*
G36*
X208555D02*
X208236Y345679D01*
X207541Y345215D01*
X207077Y344520D01*
X207014Y344200D01*
X208555D01*
Y345742D01*
D02*
G37*
G36*
X106766Y343988D02*
X105224D01*
Y342447D01*
X105544Y342510D01*
X106238Y342974D01*
X106703Y343669D01*
X106766Y343988D01*
D02*
G37*
G36*
X104224D02*
X102683D01*
X102746Y343669D01*
X103210Y342974D01*
X103905Y342510D01*
X104224Y342447D01*
Y343988D01*
D02*
G37*
G36*
X282751Y343200D02*
X281209D01*
Y341659D01*
X281528Y341722D01*
X282223Y342186D01*
X282687Y342881D01*
X282751Y343200D01*
D02*
G37*
G36*
X280209D02*
X278667D01*
X278731Y342881D01*
X279195Y342186D01*
X279890Y341722D01*
X280209Y341659D01*
Y343200D01*
D02*
G37*
G36*
X211097D02*
X209555D01*
Y341659D01*
X209875Y341722D01*
X210570Y342186D01*
X211034Y342881D01*
X211097Y343200D01*
D02*
G37*
G36*
X208555D02*
X207014D01*
X207077Y342881D01*
X207541Y342186D01*
X208236Y341722D01*
X208555Y341659D01*
Y343200D01*
D02*
G37*
G36*
X27756Y342678D02*
X27093Y342546D01*
X26530Y342171D01*
X26155Y341608D01*
X26023Y340945D01*
X26155Y340282D01*
X26530Y339719D01*
X27093Y339344D01*
X27756Y339212D01*
X28283Y339317D01*
X32402Y335198D01*
X32700Y334999D01*
X33051Y334929D01*
X62271D01*
X62477Y334621D01*
X63039Y334245D01*
X63703Y334113D01*
X64366Y334245D01*
X64928Y334621D01*
X65304Y335183D01*
X65436Y335846D01*
X65304Y336510D01*
X64928Y337072D01*
X64366Y337448D01*
X63703Y337580D01*
X63039Y337448D01*
X62477Y337072D01*
X62271Y336764D01*
X33431D01*
X29450Y340746D01*
X29489Y340945D01*
X29357Y341608D01*
X28982Y342171D01*
X28419Y342546D01*
X27756Y342678D01*
D02*
G37*
G36*
X609161Y335545D02*
Y334004D01*
X610703D01*
X610640Y334323D01*
X610175Y335018D01*
X609481Y335482D01*
X609161Y335545D01*
D02*
G37*
G36*
X608161D02*
X607842Y335482D01*
X607147Y335018D01*
X606683Y334323D01*
X606620Y334004D01*
X608161D01*
Y335545D01*
D02*
G37*
G36*
X134357D02*
Y334004D01*
X135899D01*
X135835Y334323D01*
X135371Y335018D01*
X134677Y335482D01*
X134357Y335545D01*
D02*
G37*
G36*
X133357D02*
X133038Y335482D01*
X132343Y335018D01*
X131879Y334323D01*
X131816Y334004D01*
X133357D01*
Y335545D01*
D02*
G37*
G36*
X85838Y334325D02*
Y332784D01*
X87379D01*
X87316Y333103D01*
X86852Y333798D01*
X86157Y334262D01*
X85838Y334325D01*
D02*
G37*
G36*
X84838D02*
X84518Y334262D01*
X83824Y333798D01*
X83359Y333103D01*
X83296Y332784D01*
X84838D01*
Y334325D01*
D02*
G37*
G36*
X80720D02*
Y332784D01*
X82261D01*
X82198Y333103D01*
X81734Y333798D01*
X81039Y334262D01*
X80720Y334325D01*
D02*
G37*
G36*
X79720D02*
X79400Y334262D01*
X78706Y333798D01*
X78241Y333103D01*
X78178Y332784D01*
X79720D01*
Y334325D01*
D02*
G37*
G36*
X48425Y351044D02*
X47762Y350912D01*
X47200Y350536D01*
X46824Y349974D01*
X46692Y349311D01*
X46824Y348647D01*
X47200Y348085D01*
X47762Y347709D01*
X48425Y347577D01*
X49088Y347709D01*
X49651Y348085D01*
X49857Y348393D01*
X58577D01*
X67193Y339777D01*
Y335634D01*
X64066Y332507D01*
X63703Y332580D01*
X63039Y332448D01*
X62477Y332072D01*
X62101Y331510D01*
X61970Y330847D01*
X62101Y330183D01*
X62477Y329621D01*
X63039Y329245D01*
X63703Y329113D01*
X64366Y329245D01*
X64928Y329621D01*
X65304Y330183D01*
X65436Y330847D01*
X65364Y331210D01*
X68759Y334605D01*
X68958Y334903D01*
X69028Y335254D01*
Y340158D01*
X68958Y340509D01*
X68759Y340806D01*
X59606Y349960D01*
X59308Y350159D01*
X58957Y350228D01*
X49857D01*
X49651Y350536D01*
X49088Y350912D01*
X48425Y351044D01*
D02*
G37*
G36*
X610703Y333004D02*
X609161D01*
Y331462D01*
X609481Y331525D01*
X610175Y331990D01*
X610640Y332684D01*
X610703Y333004D01*
D02*
G37*
G36*
X608161D02*
X606620D01*
X606683Y332684D01*
X607147Y331990D01*
X607842Y331525D01*
X608161Y331462D01*
Y333004D01*
D02*
G37*
G36*
X135899D02*
X134357D01*
Y331462D01*
X134677Y331525D01*
X135371Y331990D01*
X135835Y332684D01*
X135899Y333004D01*
D02*
G37*
G36*
X133357D02*
X131816D01*
X131879Y332684D01*
X132343Y331990D01*
X133038Y331525D01*
X133357Y331462D01*
Y333004D01*
D02*
G37*
G36*
X724016Y334411D02*
X723352Y334278D01*
X722790Y333903D01*
X722414Y333341D01*
X722282Y332677D01*
X722414Y332014D01*
X722790Y331452D01*
X723352Y331076D01*
X724016Y330944D01*
X724679Y331076D01*
X725241Y331452D01*
X725617Y332014D01*
X725749Y332677D01*
X725617Y333341D01*
X725241Y333903D01*
X724679Y334278D01*
X724016Y334411D01*
D02*
G37*
G36*
X706012Y332357D02*
Y330815D01*
X707553D01*
X707490Y331134D01*
X707026Y331829D01*
X706331Y332293D01*
X706012Y332357D01*
D02*
G37*
G36*
X705012D02*
X704692Y332293D01*
X703998Y331829D01*
X703534Y331134D01*
X703470Y330815D01*
X705012D01*
Y332357D01*
D02*
G37*
G36*
X15165Y331274D02*
Y329732D01*
X16707D01*
X16644Y330052D01*
X16179Y330746D01*
X15485Y331210D01*
X15165Y331274D01*
D02*
G37*
G36*
X14165D02*
X13846Y331210D01*
X13151Y330746D01*
X12687Y330052D01*
X12624Y329732D01*
X14165D01*
Y331274D01*
D02*
G37*
G36*
X87379Y331784D02*
X83296D01*
X83359Y331464D01*
X83824Y330769D01*
X84130Y330565D01*
Y330065D01*
X83824Y329860D01*
X83359Y329166D01*
X83296Y328847D01*
X87379D01*
X87316Y329166D01*
X86852Y329860D01*
X86546Y330065D01*
Y330565D01*
X86852Y330769D01*
X87316Y331464D01*
X87379Y331784D01*
D02*
G37*
G36*
X82261D02*
X78178D01*
X78241Y331464D01*
X78706Y330769D01*
X79012Y330565D01*
Y330065D01*
X78706Y329860D01*
X78241Y329166D01*
X78178Y328847D01*
X82261D01*
X82198Y329166D01*
X81734Y329860D01*
X81428Y330065D01*
Y330565D01*
X81734Y330769D01*
X82198Y331464D01*
X82261Y331784D01*
D02*
G37*
G36*
X355618Y329995D02*
Y328453D01*
X357160D01*
X357096Y328772D01*
X356632Y329467D01*
X355938Y329931D01*
X355618Y329995D01*
D02*
G37*
G36*
X354618D02*
X354299Y329931D01*
X353604Y329467D01*
X353140Y328772D01*
X353076Y328453D01*
X354618D01*
Y329995D01*
D02*
G37*
G36*
X707553Y329815D02*
X706012D01*
Y328273D01*
X706331Y328337D01*
X707026Y328801D01*
X707490Y329496D01*
X707553Y329815D01*
D02*
G37*
G36*
X705012D02*
X703470D01*
X703534Y329496D01*
X703998Y328801D01*
X704692Y328337D01*
X705012Y328273D01*
Y329815D01*
D02*
G37*
G36*
X644882Y331260D02*
X644219Y331129D01*
X643656Y330753D01*
X643281Y330190D01*
X643149Y329527D01*
X643281Y328864D01*
X643656Y328302D01*
X644219Y327926D01*
X644882Y327794D01*
X645545Y327926D01*
X646107Y328302D01*
X646483Y328864D01*
X646615Y329527D01*
X646483Y330190D01*
X646107Y330753D01*
X645545Y331129D01*
X644882Y331260D01*
D02*
G37*
G36*
X266642Y328813D02*
Y327272D01*
X268183D01*
X268120Y327591D01*
X267656Y328286D01*
X266961Y328750D01*
X266642Y328813D01*
D02*
G37*
G36*
X265642D02*
X265322Y328750D01*
X264628Y328286D01*
X264164Y327591D01*
X264100Y327272D01*
X265642D01*
Y328813D01*
D02*
G37*
G36*
X713885Y328813D02*
Y327271D01*
X715427D01*
X715364Y327590D01*
X714899Y328285D01*
X714205Y328749D01*
X713885Y328813D01*
D02*
G37*
G36*
X712886D02*
X712566Y328749D01*
X711871Y328285D01*
X711407Y327590D01*
X711344Y327271D01*
X712886D01*
Y328813D01*
D02*
G37*
G36*
X16707Y328732D02*
X15165D01*
Y327191D01*
X15485Y327254D01*
X16179Y327718D01*
X16644Y328413D01*
X16707Y328732D01*
D02*
G37*
G36*
X14165D02*
X12624D01*
X12687Y328413D01*
X13151Y327718D01*
X13846Y327254D01*
X14165Y327191D01*
Y328732D01*
D02*
G37*
G36*
X193945Y328388D02*
Y326847D01*
X195487D01*
X195423Y327166D01*
X194959Y327860D01*
X194264Y328325D01*
X193945Y328388D01*
D02*
G37*
G36*
X192945D02*
X192625Y328325D01*
X191931Y327860D01*
X191467Y327166D01*
X191403Y326847D01*
X192945D01*
Y328388D01*
D02*
G37*
G36*
X101181Y332580D02*
X100518Y332448D01*
X99955Y332072D01*
X99580Y331510D01*
X99448Y330847D01*
X99580Y330183D01*
X99955Y329621D01*
X100518Y329245D01*
X101181Y329113D01*
X101844Y329245D01*
X102407Y329621D01*
X102612Y329929D01*
X121529D01*
X123142Y328316D01*
X123070Y327953D01*
X123202Y327289D01*
X123577Y326727D01*
X124140Y326351D01*
X124803Y326220D01*
X125467Y326351D01*
X126029Y326727D01*
X126405Y327289D01*
X126536Y327953D01*
X126405Y328616D01*
X126029Y329178D01*
X125467Y329554D01*
X124803Y329686D01*
X124440Y329614D01*
X122558Y331495D01*
X122261Y331694D01*
X121909Y331764D01*
X102612D01*
X102407Y332072D01*
X101844Y332448D01*
X101181Y332580D01*
D02*
G37*
G36*
X357160Y327453D02*
X355618D01*
Y325911D01*
X355938Y325975D01*
X356632Y326439D01*
X357096Y327133D01*
X357160Y327453D01*
D02*
G37*
G36*
X354618D02*
X353076D01*
X353140Y327133D01*
X353604Y326439D01*
X354299Y325975D01*
X354618Y325911D01*
Y327453D01*
D02*
G37*
G36*
X87379Y327847D02*
X83296D01*
X83359Y327527D01*
X83824Y326832D01*
X84130Y326628D01*
Y326128D01*
X83824Y325923D01*
X83359Y325229D01*
X83296Y324909D01*
X87379D01*
X87316Y325229D01*
X86852Y325923D01*
X86546Y326128D01*
Y326628D01*
X86852Y326832D01*
X87316Y327527D01*
X87379Y327847D01*
D02*
G37*
G36*
X82261D02*
X78178D01*
X78241Y327527D01*
X78706Y326832D01*
X79012Y326628D01*
Y326128D01*
X78706Y325923D01*
X78241Y325229D01*
X78178Y324909D01*
X82261D01*
X82198Y325229D01*
X81734Y325923D01*
X81428Y326128D01*
Y326628D01*
X81734Y326832D01*
X82198Y327527D01*
X82261Y327847D01*
D02*
G37*
G36*
X268183Y326272D02*
X266642D01*
Y324730D01*
X266961Y324794D01*
X267656Y325258D01*
X268120Y325952D01*
X268183Y326272D01*
D02*
G37*
G36*
X265642D02*
X264100D01*
X264164Y325952D01*
X264628Y325258D01*
X265322Y324794D01*
X265642Y324730D01*
Y326272D01*
D02*
G37*
G36*
X715427Y326271D02*
X713885D01*
Y324729D01*
X714205Y324793D01*
X714899Y325257D01*
X715364Y325952D01*
X715427Y326271D01*
D02*
G37*
G36*
X712886D02*
X711344D01*
X711407Y325952D01*
X711871Y325257D01*
X712566Y324793D01*
X712886Y324729D01*
Y326271D01*
D02*
G37*
G36*
X195487Y325847D02*
X193945D01*
Y324305D01*
X194264Y324368D01*
X194959Y324832D01*
X195423Y325527D01*
X195487Y325847D01*
D02*
G37*
G36*
X192945D02*
X191403D01*
X191467Y325527D01*
X191931Y324832D01*
X192625Y324368D01*
X192945Y324305D01*
Y325847D01*
D02*
G37*
G36*
X87379Y323909D02*
X85838D01*
Y322368D01*
X86157Y322431D01*
X86852Y322895D01*
X87316Y323590D01*
X87379Y323909D01*
D02*
G37*
G36*
X84838D02*
X83296D01*
X83359Y323590D01*
X83824Y322895D01*
X84518Y322431D01*
X84838Y322368D01*
Y323909D01*
D02*
G37*
G36*
X82261D02*
X80720D01*
Y322368D01*
X81039Y322431D01*
X81734Y322895D01*
X82198Y323590D01*
X82261Y323909D01*
D02*
G37*
G36*
X79720D02*
X78178D01*
X78241Y323590D01*
X78706Y322895D01*
X79400Y322431D01*
X79720Y322368D01*
Y323909D01*
D02*
G37*
G36*
X713885Y321332D02*
Y319791D01*
X715427D01*
X715364Y320110D01*
X714899Y320805D01*
X714205Y321269D01*
X713885Y321332D01*
D02*
G37*
G36*
X712886D02*
X712566Y321269D01*
X711871Y320805D01*
X711407Y320110D01*
X711344Y319791D01*
X712886D01*
Y321332D01*
D02*
G37*
G36*
X715427Y318791D02*
X713885D01*
Y317249D01*
X714205Y317313D01*
X714899Y317777D01*
X715364Y318471D01*
X715427Y318791D01*
D02*
G37*
G36*
X712886D02*
X711344D01*
X711407Y318471D01*
X711871Y317777D01*
X712566Y317313D01*
X712886Y317249D01*
Y318791D01*
D02*
G37*
G36*
X106012Y315428D02*
Y313886D01*
X107554D01*
X107491Y314206D01*
X107027Y314900D01*
X106332Y315365D01*
X106012Y315428D01*
D02*
G37*
G36*
X105012D02*
X104693Y315365D01*
X103998Y314900D01*
X103534Y314206D01*
X103471Y313886D01*
X105012D01*
Y315428D01*
D02*
G37*
G36*
X107554Y312887D02*
X106012D01*
Y311345D01*
X106332Y311408D01*
X107027Y311873D01*
X107491Y312567D01*
X107554Y312887D01*
D02*
G37*
G36*
X105012D02*
X103471D01*
X103534Y312567D01*
X103998Y311873D01*
X104693Y311408D01*
X105012Y311345D01*
Y312887D01*
D02*
G37*
G36*
X465000Y330947D02*
X463361Y330818D01*
X461763Y330435D01*
X460245Y329806D01*
X458843Y328947D01*
X457593Y327879D01*
X456526Y326629D01*
X455667Y325228D01*
X455038Y323709D01*
X454654Y322111D01*
X454525Y320472D01*
X454654Y318834D01*
X455038Y317236D01*
X455667Y315717D01*
X456526Y314316D01*
X457593Y313066D01*
X458843Y311998D01*
X460245Y311139D01*
X461763Y310510D01*
X463361Y310127D01*
X465000Y309998D01*
X466639Y310127D01*
X468237Y310510D01*
X469756Y311139D01*
X471157Y311998D01*
X472407Y313066D01*
X473474Y314316D01*
X474333Y315717D01*
X474962Y317236D01*
X475346Y318834D01*
X475475Y320472D01*
X475346Y322111D01*
X474962Y323709D01*
X474333Y325228D01*
X473474Y326629D01*
X472407Y327879D01*
X471157Y328947D01*
X469756Y329806D01*
X468237Y330435D01*
X466639Y330818D01*
X465000Y330947D01*
D02*
G37*
G36*
X28847Y311098D02*
Y309556D01*
X30389D01*
X30325Y309875D01*
X29861Y310570D01*
X29166Y311034D01*
X28847Y311098D01*
D02*
G37*
G36*
X27847D02*
X27528Y311034D01*
X26833Y310570D01*
X26369Y309875D01*
X26305Y309556D01*
X27847D01*
Y311098D01*
D02*
G37*
G36*
X21367Y311097D02*
Y309556D01*
X22908D01*
X22845Y309875D01*
X22381Y310570D01*
X21686Y311034D01*
X21367Y311097D01*
D02*
G37*
G36*
X20367D02*
X20047Y311034D01*
X19353Y310570D01*
X18889Y309875D01*
X18825Y309556D01*
X20367D01*
Y311097D01*
D02*
G37*
G36*
X116642Y309917D02*
Y308375D01*
X118183D01*
X118120Y308694D01*
X117656Y309389D01*
X116961Y309853D01*
X116642Y309917D01*
D02*
G37*
G36*
X115642D02*
X115322Y309853D01*
X114628Y309389D01*
X114164Y308694D01*
X114100Y308375D01*
X115642D01*
Y309917D01*
D02*
G37*
G36*
X30389Y308556D02*
X28847D01*
Y307014D01*
X29166Y307078D01*
X29861Y307542D01*
X30325Y308236D01*
X30389Y308556D01*
D02*
G37*
G36*
X27847D02*
X26305D01*
X26369Y308236D01*
X26833Y307542D01*
X27528Y307078D01*
X27847Y307014D01*
Y308556D01*
D02*
G37*
G36*
X22908Y308556D02*
X21367D01*
Y307014D01*
X21686Y307078D01*
X22381Y307542D01*
X22845Y308236D01*
X22908Y308556D01*
D02*
G37*
G36*
X20367D02*
X18825D01*
X18889Y308236D01*
X19353Y307542D01*
X20047Y307078D01*
X20367Y307014D01*
Y308556D01*
D02*
G37*
G36*
X625000Y314056D02*
X624073Y313934D01*
X623208Y313576D01*
X622466Y313006D01*
X621897Y312264D01*
X621539Y311400D01*
X621417Y310472D01*
X621539Y309545D01*
X621897Y308681D01*
X622466Y307939D01*
X623208Y307369D01*
X624073Y307011D01*
X625000Y306889D01*
X625927Y307011D01*
X626792Y307369D01*
X627534Y307939D01*
X628103Y308681D01*
X628461Y309545D01*
X628583Y310472D01*
X628461Y311400D01*
X628103Y312264D01*
X627534Y313006D01*
X626792Y313576D01*
X625927Y313934D01*
X625000Y314056D01*
D02*
G37*
G36*
X615000D02*
X614073Y313934D01*
X613208Y313576D01*
X612466Y313006D01*
X611897Y312264D01*
X611539Y311400D01*
X611417Y310472D01*
X611539Y309545D01*
X611897Y308681D01*
X612466Y307939D01*
X613208Y307369D01*
X614073Y307011D01*
X615000Y306889D01*
X615928Y307011D01*
X616792Y307369D01*
X617534Y307939D01*
X618103Y308681D01*
X618461Y309545D01*
X618583Y310472D01*
X618461Y311400D01*
X618103Y312264D01*
X617534Y313006D01*
X616792Y313576D01*
X615928Y313934D01*
X615000Y314056D01*
D02*
G37*
G36*
X385000D02*
X384073Y313934D01*
X383208Y313576D01*
X382466Y313006D01*
X381897Y312264D01*
X381539Y311400D01*
X381417Y310472D01*
X381539Y309545D01*
X381897Y308681D01*
X382466Y307939D01*
X383208Y307369D01*
X384073Y307011D01*
X385000Y306889D01*
X385927Y307011D01*
X386792Y307369D01*
X387534Y307939D01*
X388103Y308681D01*
X388461Y309545D01*
X388583Y310472D01*
X388461Y311400D01*
X388103Y312264D01*
X387534Y313006D01*
X386792Y313576D01*
X385927Y313934D01*
X385000Y314056D01*
D02*
G37*
G36*
X375000D02*
X374073Y313934D01*
X373208Y313576D01*
X372466Y313006D01*
X371897Y312264D01*
X371539Y311400D01*
X371417Y310472D01*
X371539Y309545D01*
X371897Y308681D01*
X372466Y307939D01*
X373208Y307369D01*
X374073Y307011D01*
X375000Y306889D01*
X375927Y307011D01*
X376792Y307369D01*
X377534Y307939D01*
X378103Y308681D01*
X378461Y309545D01*
X378583Y310472D01*
X378461Y311400D01*
X378103Y312264D01*
X377534Y313006D01*
X376792Y313576D01*
X375927Y313934D01*
X375000Y314056D01*
D02*
G37*
G36*
X118183Y307375D02*
X116642D01*
Y305833D01*
X116961Y305897D01*
X117656Y306361D01*
X118120Y307056D01*
X118183Y307375D01*
D02*
G37*
G36*
X115642D02*
X114100D01*
X114164Y307056D01*
X114628Y306361D01*
X115322Y305897D01*
X115642Y305833D01*
Y307375D01*
D02*
G37*
G36*
X81209Y307160D02*
Y305618D01*
X82750D01*
X82687Y305938D01*
X82223Y306632D01*
X81528Y307096D01*
X81209Y307160D01*
D02*
G37*
G36*
X80209D02*
X79889Y307096D01*
X79195Y306632D01*
X78730Y305938D01*
X78667Y305618D01*
X80209D01*
Y307160D01*
D02*
G37*
G36*
X10736Y305980D02*
Y304438D01*
X12278D01*
X12214Y304757D01*
X11750Y305452D01*
X11056Y305916D01*
X10736Y305980D01*
D02*
G37*
G36*
X9736D02*
X9417Y305916D01*
X8722Y305452D01*
X8258Y304757D01*
X8195Y304438D01*
X9736D01*
Y305980D01*
D02*
G37*
G36*
X82750Y304618D02*
X81209D01*
Y303076D01*
X81528Y303140D01*
X82223Y303604D01*
X82687Y304299D01*
X82750Y304618D01*
D02*
G37*
G36*
X80209D02*
X78667D01*
X78730Y304299D01*
X79195Y303604D01*
X79889Y303140D01*
X80209Y303076D01*
Y304618D01*
D02*
G37*
G36*
X669665Y304010D02*
Y302468D01*
X671207D01*
X671143Y302788D01*
X670679Y303483D01*
X669985Y303947D01*
X669665Y304010D01*
D02*
G37*
G36*
X668665D02*
X668346Y303947D01*
X667651Y303483D01*
X667187Y302788D01*
X667124Y302468D01*
X668665D01*
Y304010D01*
D02*
G37*
G36*
X12278Y303438D02*
X10736D01*
Y301896D01*
X11056Y301960D01*
X11750Y302424D01*
X12214Y303119D01*
X12278Y303438D01*
D02*
G37*
G36*
X9736D02*
X8195D01*
X8258Y303119D01*
X8722Y302424D01*
X9417Y301960D01*
X9736Y301896D01*
Y303438D01*
D02*
G37*
G36*
X38583Y304446D02*
X37919Y304314D01*
X37357Y303938D01*
X36981Y303376D01*
X36849Y302712D01*
X36981Y302049D01*
X37357Y301487D01*
X37919Y301111D01*
X38583Y300979D01*
X39246Y301111D01*
X39808Y301487D01*
X40184Y302049D01*
X40316Y302712D01*
X40184Y303376D01*
X39808Y303938D01*
X39246Y304314D01*
X38583Y304446D01*
D02*
G37*
G36*
X33465D02*
X32801Y304314D01*
X32239Y303938D01*
X31863Y303376D01*
X31731Y302712D01*
X31863Y302049D01*
X32239Y301487D01*
X32801Y301111D01*
X33465Y300979D01*
X34128Y301111D01*
X34690Y301487D01*
X35066Y302049D01*
X35198Y302712D01*
X35066Y303376D01*
X34690Y303938D01*
X34128Y304314D01*
X33465Y304446D01*
D02*
G37*
G36*
X671207Y301468D02*
X669665D01*
Y299927D01*
X669985Y299990D01*
X670679Y300454D01*
X671143Y301149D01*
X671207Y301468D01*
D02*
G37*
G36*
X668665D02*
X667124D01*
X667187Y301149D01*
X667651Y300454D01*
X668346Y299990D01*
X668665Y299927D01*
Y301468D01*
D02*
G37*
G36*
X625000Y304056D02*
X624073Y303934D01*
X623208Y303576D01*
X622466Y303006D01*
X621897Y302264D01*
X621539Y301400D01*
X621417Y300472D01*
X621539Y299545D01*
X621897Y298681D01*
X622466Y297939D01*
X623208Y297369D01*
X624073Y297011D01*
X625000Y296889D01*
X625927Y297011D01*
X626792Y297369D01*
X627534Y297939D01*
X628103Y298681D01*
X628461Y299545D01*
X628583Y300472D01*
X628461Y301400D01*
X628103Y302264D01*
X627534Y303006D01*
X626792Y303576D01*
X625927Y303934D01*
X625000Y304056D01*
D02*
G37*
G36*
X615000D02*
X614073Y303934D01*
X613208Y303576D01*
X612466Y303006D01*
X611897Y302264D01*
X611539Y301400D01*
X611417Y300472D01*
X611539Y299545D01*
X611897Y298681D01*
X612466Y297939D01*
X613208Y297369D01*
X614073Y297011D01*
X615000Y296889D01*
X615928Y297011D01*
X616792Y297369D01*
X617534Y297939D01*
X618103Y298681D01*
X618461Y299545D01*
X618583Y300472D01*
X618461Y301400D01*
X618103Y302264D01*
X617534Y303006D01*
X616792Y303576D01*
X615928Y303934D01*
X615000Y304056D01*
D02*
G37*
G36*
X385000D02*
X384073Y303934D01*
X383208Y303576D01*
X382466Y303006D01*
X381897Y302264D01*
X381539Y301400D01*
X381417Y300472D01*
X381539Y299545D01*
X381897Y298681D01*
X382466Y297939D01*
X383208Y297369D01*
X384073Y297011D01*
X385000Y296889D01*
X385927Y297011D01*
X386792Y297369D01*
X387534Y297939D01*
X388103Y298681D01*
X388461Y299545D01*
X388583Y300472D01*
X388461Y301400D01*
X388103Y302264D01*
X387534Y303006D01*
X386792Y303576D01*
X385927Y303934D01*
X385000Y304056D01*
D02*
G37*
G36*
X375000D02*
X374073Y303934D01*
X373208Y303576D01*
X372466Y303006D01*
X371897Y302264D01*
X371539Y301400D01*
X371417Y300472D01*
X371539Y299545D01*
X371897Y298681D01*
X372466Y297939D01*
X373208Y297369D01*
X374073Y297011D01*
X375000Y296889D01*
X375927Y297011D01*
X376792Y297369D01*
X377534Y297939D01*
X378103Y298681D01*
X378461Y299545D01*
X378583Y300472D01*
X378461Y301400D01*
X378103Y302264D01*
X377534Y303006D01*
X376792Y303576D01*
X375927Y303934D01*
X375000Y304056D01*
D02*
G37*
G36*
X625000Y294056D02*
X624073Y293934D01*
X623208Y293576D01*
X622466Y293006D01*
X621897Y292264D01*
X621539Y291400D01*
X621417Y290472D01*
X621539Y289545D01*
X621897Y288681D01*
X622466Y287939D01*
X623208Y287369D01*
X624073Y287011D01*
X625000Y286889D01*
X625927Y287011D01*
X626792Y287369D01*
X627534Y287939D01*
X628103Y288681D01*
X628461Y289545D01*
X628583Y290472D01*
X628461Y291400D01*
X628103Y292264D01*
X627534Y293006D01*
X626792Y293576D01*
X625927Y293934D01*
X625000Y294056D01*
D02*
G37*
G36*
X615000D02*
X614073Y293934D01*
X613208Y293576D01*
X612466Y293006D01*
X611897Y292264D01*
X611539Y291400D01*
X611417Y290472D01*
X611539Y289545D01*
X611897Y288681D01*
X612466Y287939D01*
X613208Y287369D01*
X614073Y287011D01*
X615000Y286889D01*
X615928Y287011D01*
X616792Y287369D01*
X617534Y287939D01*
X618103Y288681D01*
X618461Y289545D01*
X618583Y290472D01*
X618461Y291400D01*
X618103Y292264D01*
X617534Y293006D01*
X616792Y293576D01*
X615928Y293934D01*
X615000Y294056D01*
D02*
G37*
G36*
X385000D02*
X384073Y293934D01*
X383208Y293576D01*
X382466Y293006D01*
X381897Y292264D01*
X381539Y291400D01*
X381417Y290472D01*
X381539Y289545D01*
X381897Y288681D01*
X382466Y287939D01*
X383208Y287369D01*
X384073Y287011D01*
X385000Y286889D01*
X385927Y287011D01*
X386792Y287369D01*
X387534Y287939D01*
X388103Y288681D01*
X388461Y289545D01*
X388583Y290472D01*
X388461Y291400D01*
X388103Y292264D01*
X387534Y293006D01*
X386792Y293576D01*
X385927Y293934D01*
X385000Y294056D01*
D02*
G37*
G36*
X375000D02*
X374073Y293934D01*
X373208Y293576D01*
X372466Y293006D01*
X371897Y292264D01*
X371539Y291400D01*
X371417Y290472D01*
X371539Y289545D01*
X371897Y288681D01*
X372466Y287939D01*
X373208Y287369D01*
X374073Y287011D01*
X375000Y286889D01*
X375927Y287011D01*
X376792Y287369D01*
X377534Y287939D01*
X378103Y288681D01*
X378461Y289545D01*
X378583Y290472D01*
X378461Y291400D01*
X378103Y292264D01*
X377534Y293006D01*
X376792Y293576D01*
X375927Y293934D01*
X375000Y294056D01*
D02*
G37*
G36*
X717922Y290364D02*
X710816D01*
Y286547D01*
X690277D01*
X690202Y286659D01*
X689640Y287034D01*
X688976Y287166D01*
X688313Y287034D01*
X687751Y286659D01*
X687375Y286096D01*
X687243Y285433D01*
X687375Y284770D01*
X687751Y284207D01*
X688313Y283832D01*
X688976Y283700D01*
X689640Y283832D01*
X690202Y284207D01*
X690277Y284319D01*
X710816D01*
Y280503D01*
X717922D01*
Y290364D01*
D02*
G37*
G36*
X724016Y296389D02*
X686221D01*
X685794Y296304D01*
X685433Y296063D01*
X683203Y293833D01*
X683071Y293859D01*
X682408Y293727D01*
X681845Y293352D01*
X681469Y292789D01*
X681338Y292126D01*
X681469Y291463D01*
X681845Y290900D01*
X682408Y290525D01*
X683071Y290393D01*
X683734Y290525D01*
X684297Y290900D01*
X684672Y291463D01*
X684804Y292126D01*
X684778Y292258D01*
X686682Y294162D01*
X723555D01*
X725460Y292257D01*
Y290364D01*
X723021D01*
Y280502D01*
X730126D01*
Y290364D01*
X727687D01*
Y292718D01*
X727687Y292718D01*
X727602Y293144D01*
X727361Y293506D01*
X724803Y296063D01*
X724442Y296304D01*
X724016Y296389D01*
D02*
G37*
G36*
X317323Y280839D02*
X155236D01*
X154885Y280769D01*
X154587Y280570D01*
X154025Y280008D01*
X153661Y280080D01*
X152998Y279948D01*
X152436Y279572D01*
X152060Y279010D01*
X151928Y278346D01*
X152060Y277683D01*
X152436Y277121D01*
X152998Y276745D01*
X153661Y276613D01*
X154325Y276745D01*
X154887Y277121D01*
X155263Y277683D01*
X155395Y278346D01*
X155341Y278618D01*
X155682Y279004D01*
X316943D01*
X319824Y276123D01*
X320121Y275924D01*
X320472Y275854D01*
X359069D01*
X365099Y269824D01*
X365397Y269625D01*
X365748Y269555D01*
X371537D01*
X371539Y269545D01*
X371897Y268681D01*
X372466Y267939D01*
X373208Y267369D01*
X374073Y267011D01*
X375000Y266889D01*
X375927Y267011D01*
X376792Y267369D01*
X377534Y267939D01*
X378103Y268681D01*
X378461Y269545D01*
X378583Y270472D01*
X378461Y271400D01*
X378103Y272264D01*
X377534Y273006D01*
X376792Y273576D01*
X375927Y273934D01*
X375000Y274056D01*
X374073Y273934D01*
X373208Y273576D01*
X372466Y273006D01*
X371897Y272264D01*
X371539Y271400D01*
X371537Y271390D01*
X366128D01*
X360098Y277420D01*
X359800Y277619D01*
X359449Y277689D01*
X320852D01*
X317972Y280570D01*
X317674Y280769D01*
X317323Y280839D01*
D02*
G37*
G36*
X627165Y286351D02*
X619961D01*
X619609Y286281D01*
X619312Y286082D01*
X616800Y283570D01*
X616792Y283576D01*
X615928Y283934D01*
X615000Y284056D01*
X614073Y283934D01*
X613208Y283576D01*
X612466Y283006D01*
X611897Y282264D01*
X611539Y281400D01*
X611417Y280472D01*
X611539Y279545D01*
X611897Y278681D01*
X612466Y277939D01*
X613208Y277369D01*
X614073Y277011D01*
X615000Y276889D01*
X615928Y277011D01*
X616792Y277369D01*
X617534Y277939D01*
X618103Y278681D01*
X618461Y279545D01*
X618583Y280472D01*
X618461Y281400D01*
X618103Y282264D01*
X618097Y282272D01*
X620341Y284515D01*
X624660D01*
X624693Y284015D01*
X624073Y283934D01*
X623208Y283576D01*
X622466Y283006D01*
X621897Y282264D01*
X621539Y281400D01*
X621417Y280472D01*
X621539Y279545D01*
X621897Y278681D01*
X622466Y277939D01*
X623208Y277369D01*
X624073Y277011D01*
X625000Y276889D01*
X625927Y277011D01*
X626792Y277369D01*
X627534Y277939D01*
X628103Y278681D01*
X628461Y279545D01*
X628583Y280472D01*
X628461Y281400D01*
X628103Y282264D01*
X627534Y283006D01*
X626792Y283576D01*
X625927Y283934D01*
X625307Y284015D01*
X625340Y284515D01*
X626785D01*
X630453Y280847D01*
X630751Y280648D01*
X631102Y280578D01*
X657059D01*
X657211Y280078D01*
X657042Y279966D01*
X656666Y279403D01*
X656534Y278740D01*
X656607Y278377D01*
X639620Y261390D01*
X628463D01*
X628461Y261400D01*
X628103Y262264D01*
X627534Y263006D01*
X626792Y263576D01*
X625927Y263934D01*
X625000Y264056D01*
X624073Y263934D01*
X623208Y263576D01*
X622466Y263006D01*
X621897Y262264D01*
X621539Y261400D01*
X621417Y260472D01*
X621539Y259545D01*
X621897Y258681D01*
X622466Y257939D01*
X623208Y257369D01*
X623797Y257125D01*
X623697Y256625D01*
X616303D01*
X616203Y257125D01*
X616792Y257369D01*
X617534Y257939D01*
X618103Y258681D01*
X618461Y259545D01*
X618583Y260472D01*
X618461Y261400D01*
X618103Y262264D01*
X617534Y263006D01*
X616792Y263576D01*
X615928Y263934D01*
X615000Y264056D01*
X614073Y263934D01*
X613208Y263576D01*
X612466Y263006D01*
X611897Y262264D01*
X611539Y261400D01*
X611417Y260472D01*
X611539Y259545D01*
X611897Y258681D01*
X612466Y257939D01*
X613208Y257369D01*
X613797Y257125D01*
X613697Y256625D01*
X386303D01*
X386203Y257125D01*
X386792Y257369D01*
X387534Y257939D01*
X388103Y258681D01*
X388461Y259545D01*
X388583Y260472D01*
X388461Y261400D01*
X388103Y262264D01*
X387534Y263006D01*
X386792Y263576D01*
X385927Y263934D01*
X385000Y264056D01*
X384073Y263934D01*
X383208Y263576D01*
X383200Y263570D01*
X380767Y266003D01*
X380469Y266202D01*
X380118Y266272D01*
X353006D01*
X352800Y266580D01*
X352238Y266956D01*
X351575Y267088D01*
X350911Y266956D01*
X350349Y266580D01*
X349973Y266018D01*
X349841Y265354D01*
X349973Y264691D01*
X350349Y264129D01*
X350911Y263753D01*
X351575Y263621D01*
X352238Y263753D01*
X352800Y264129D01*
X353006Y264437D01*
X374062D01*
X374095Y263937D01*
X374073Y263934D01*
X373208Y263576D01*
X372466Y263006D01*
X371897Y262264D01*
X371539Y261400D01*
X371537Y261390D01*
X351325D01*
X338444Y274271D01*
X338146Y274470D01*
X337795Y274540D01*
X315341D01*
X312460Y277420D01*
X312162Y277619D01*
X311811Y277689D01*
X168504D01*
X168153Y277619D01*
X167855Y277420D01*
X164187Y273753D01*
X150250D01*
X150045Y274061D01*
X149482Y274436D01*
X148819Y274568D01*
X148156Y274436D01*
X147593Y274061D01*
X147218Y273498D01*
X147086Y272835D01*
X147218Y272172D01*
X147593Y271609D01*
X148156Y271234D01*
X148819Y271102D01*
X149482Y271234D01*
X150045Y271609D01*
X150250Y271917D01*
X164567D01*
X164918Y271987D01*
X165216Y272186D01*
X168884Y275854D01*
X302865D01*
X303094Y275354D01*
X302747Y274835D01*
X302683Y274515D01*
X306766D01*
X306703Y274835D01*
X306356Y275354D01*
X306584Y275854D01*
X311431D01*
X314312Y272973D01*
X314610Y272774D01*
X314961Y272704D01*
X337415D01*
X350296Y259824D01*
X350594Y259625D01*
X350945Y259555D01*
X371537D01*
X371539Y259545D01*
X371897Y258681D01*
X372466Y257939D01*
X373208Y257369D01*
X373797Y257125D01*
X373697Y256625D01*
X352036D01*
X338583Y270079D01*
X338221Y270320D01*
X337795Y270405D01*
X159962D01*
X159887Y270517D01*
X159325Y270893D01*
X158661Y271025D01*
X157998Y270893D01*
X157436Y270517D01*
X157060Y269955D01*
X156928Y269291D01*
X157060Y268628D01*
X157436Y268066D01*
X157998Y267690D01*
X158661Y267558D01*
X159325Y267690D01*
X159887Y268066D01*
X159962Y268178D01*
X337334D01*
X350787Y254724D01*
X351149Y254483D01*
X351575Y254398D01*
X373953D01*
X374073Y253934D01*
X373208Y253576D01*
X372466Y253006D01*
X371897Y252264D01*
X371539Y251400D01*
X371417Y250472D01*
X371539Y249545D01*
X371897Y248681D01*
X372466Y247939D01*
X373208Y247369D01*
X374073Y247011D01*
X375000Y246889D01*
X375927Y247011D01*
X376792Y247369D01*
X377534Y247939D01*
X378103Y248681D01*
X378461Y249545D01*
X378583Y250472D01*
X378461Y251400D01*
X378103Y252264D01*
X377534Y253006D01*
X376792Y253576D01*
X375927Y253934D01*
X376047Y254398D01*
X383953D01*
X384072Y253934D01*
X383208Y253576D01*
X382466Y253006D01*
X381897Y252264D01*
X381539Y251400D01*
X381417Y250472D01*
X381539Y249545D01*
X381897Y248681D01*
X382466Y247939D01*
X383208Y247369D01*
X384073Y247011D01*
X385000Y246889D01*
X385927Y247011D01*
X386792Y247369D01*
X387534Y247939D01*
X388103Y248681D01*
X388461Y249545D01*
X388583Y250472D01*
X388461Y251400D01*
X388103Y252264D01*
X387534Y253006D01*
X386792Y253576D01*
X385928Y253934D01*
X386047Y254398D01*
X613953D01*
X614073Y253934D01*
X613208Y253576D01*
X612466Y253006D01*
X611897Y252264D01*
X611539Y251400D01*
X611417Y250472D01*
X611539Y249545D01*
X611897Y248681D01*
X612466Y247939D01*
X613208Y247369D01*
X614073Y247011D01*
X615000Y246889D01*
X615928Y247011D01*
X616792Y247369D01*
X617534Y247939D01*
X618103Y248681D01*
X618461Y249545D01*
X618583Y250472D01*
X618461Y251400D01*
X618103Y252264D01*
X617534Y253006D01*
X616792Y253576D01*
X615928Y253934D01*
X616047Y254398D01*
X623953D01*
X624073Y253934D01*
X623208Y253576D01*
X622466Y253006D01*
X621897Y252264D01*
X621539Y251400D01*
X621417Y250472D01*
X621539Y249545D01*
X621897Y248681D01*
X622466Y247939D01*
X623208Y247369D01*
X624073Y247011D01*
X625000Y246889D01*
X625927Y247011D01*
X626792Y247369D01*
X627534Y247939D01*
X628103Y248681D01*
X628461Y249545D01*
X628583Y250472D01*
X628461Y251400D01*
X628103Y252264D01*
X627534Y253006D01*
X626792Y253576D01*
X625927Y253934D01*
X626047Y254398D01*
X641732D01*
X642158Y254483D01*
X642520Y254724D01*
X652430Y264635D01*
X653750D01*
X653820Y264431D01*
X653834Y264135D01*
X653210Y263719D01*
X652746Y263024D01*
X652683Y262705D01*
X656766D01*
X656703Y263024D01*
X656238Y263719D01*
X655615Y264135D01*
X655629Y264431D01*
X655698Y264635D01*
X661231D01*
X661301Y264431D01*
X661314Y264135D01*
X660691Y263719D01*
X660227Y263024D01*
X660163Y262705D01*
X664246D01*
X664183Y263024D01*
X663719Y263719D01*
X663096Y264135D01*
X663109Y264431D01*
X663179Y264635D01*
X710817D01*
Y260818D01*
X717923D01*
Y270679D01*
X710817D01*
Y266862D01*
X651969D01*
X651969Y266862D01*
X651543Y266777D01*
X651182Y266536D01*
X651182Y266536D01*
X641271Y256625D01*
X626303D01*
X626203Y257125D01*
X626792Y257369D01*
X627534Y257939D01*
X628103Y258681D01*
X628461Y259545D01*
X628463Y259555D01*
X640000D01*
X640351Y259625D01*
X640649Y259824D01*
X657904Y277079D01*
X658268Y277007D01*
X658931Y277139D01*
X659493Y277515D01*
X659869Y278077D01*
X660001Y278740D01*
X659869Y279403D01*
X659493Y279966D01*
X659325Y280078D01*
X659477Y280578D01*
X672978D01*
X673184Y280270D01*
X673746Y279895D01*
X674409Y279763D01*
X675073Y279895D01*
X675635Y280270D01*
X676011Y280833D01*
X676143Y281496D01*
X676011Y282159D01*
X675635Y282722D01*
X675073Y283097D01*
X674409Y283229D01*
X673746Y283097D01*
X673184Y282722D01*
X672978Y282414D01*
X631483D01*
X627814Y286082D01*
X627517Y286281D01*
X627165Y286351D01*
D02*
G37*
G36*
X385000Y284056D02*
X384073Y283934D01*
X383208Y283576D01*
X382466Y283006D01*
X381897Y282264D01*
X381539Y281400D01*
X381417Y280472D01*
X381539Y279545D01*
X381897Y278681D01*
X382466Y277939D01*
X383208Y277369D01*
X384073Y277011D01*
X385000Y276889D01*
X385927Y277011D01*
X386792Y277369D01*
X387534Y277939D01*
X388103Y278681D01*
X388461Y279545D01*
X388583Y280472D01*
X388461Y281400D01*
X388103Y282264D01*
X387534Y283006D01*
X386792Y283576D01*
X385927Y283934D01*
X385000Y284056D01*
D02*
G37*
G36*
X375000D02*
X374073Y283934D01*
X373208Y283576D01*
X372466Y283006D01*
X371897Y282264D01*
X371539Y281400D01*
X371417Y280472D01*
X371539Y279545D01*
X371897Y278681D01*
X372466Y277939D01*
X373208Y277369D01*
X374073Y277011D01*
X375000Y276889D01*
X375927Y277011D01*
X376792Y277369D01*
X377534Y277939D01*
X378103Y278681D01*
X378461Y279545D01*
X378583Y280472D01*
X378461Y281400D01*
X378103Y282264D01*
X377534Y283006D01*
X376792Y283576D01*
X375927Y283934D01*
X375000Y284056D01*
D02*
G37*
G36*
X683072Y277324D02*
X682408Y277192D01*
X681846Y276816D01*
X681470Y276254D01*
X681338Y275590D01*
X681470Y274927D01*
X681846Y274365D01*
X682408Y273989D01*
X683072Y273857D01*
X683735Y273989D01*
X684297Y274365D01*
X684673Y274927D01*
X684805Y275590D01*
X684673Y276254D01*
X684297Y276816D01*
X683735Y277192D01*
X683072Y277324D01*
D02*
G37*
G36*
X638583Y276930D02*
X637919Y276798D01*
X637357Y276423D01*
X637151Y276115D01*
X619724D01*
X619373Y276045D01*
X619075Y275846D01*
X616800Y273570D01*
X616792Y273576D01*
X615928Y273934D01*
X615000Y274056D01*
X614073Y273934D01*
X613208Y273576D01*
X612466Y273006D01*
X611897Y272264D01*
X611539Y271400D01*
X611417Y270472D01*
X611539Y269545D01*
X611897Y268681D01*
X612466Y267939D01*
X613208Y267369D01*
X614073Y267011D01*
X615000Y266889D01*
X615928Y267011D01*
X616792Y267369D01*
X617534Y267939D01*
X618103Y268681D01*
X618461Y269545D01*
X618583Y270472D01*
X618461Y271400D01*
X618103Y272264D01*
X618097Y272272D01*
X620105Y274279D01*
X623600D01*
X623700Y273779D01*
X623208Y273576D01*
X622466Y273006D01*
X621897Y272264D01*
X621539Y271400D01*
X621417Y270472D01*
X621539Y269545D01*
X621897Y268681D01*
X622466Y267939D01*
X623208Y267369D01*
X624073Y267011D01*
X625000Y266889D01*
X625927Y267011D01*
X626792Y267369D01*
X627534Y267939D01*
X628103Y268681D01*
X628461Y269545D01*
X628583Y270472D01*
X628461Y271400D01*
X628103Y272264D01*
X627534Y273006D01*
X626792Y273576D01*
X626300Y273779D01*
X626400Y274279D01*
X637151D01*
X637357Y273971D01*
X637919Y273595D01*
X638583Y273464D01*
X639246Y273595D01*
X639808Y273971D01*
X640184Y274534D01*
X640316Y275197D01*
X640184Y275860D01*
X639808Y276423D01*
X639246Y276798D01*
X638583Y276930D01*
D02*
G37*
G36*
X602468Y274481D02*
Y272940D01*
X604010D01*
X603946Y273259D01*
X603482Y273954D01*
X602787Y274418D01*
X602468Y274481D01*
D02*
G37*
G36*
X601468D02*
X601149Y274418D01*
X600454Y273954D01*
X599990Y273259D01*
X599926Y272940D01*
X601468D01*
Y274481D01*
D02*
G37*
G36*
X587940D02*
Y272940D01*
X589482D01*
X589418Y273259D01*
X588954Y273954D01*
X588260Y274418D01*
X587940Y274481D01*
D02*
G37*
G36*
X586940D02*
X586621Y274418D01*
X585926Y273954D01*
X585462Y273259D01*
X585398Y272940D01*
X586940D01*
Y274481D01*
D02*
G37*
G36*
X306766Y273515D02*
X305225D01*
Y271974D01*
X305544Y272037D01*
X306239Y272501D01*
X306703Y273196D01*
X306766Y273515D01*
D02*
G37*
G36*
X304225D02*
X302683D01*
X302747Y273196D01*
X303211Y272501D01*
X303905Y272037D01*
X304225Y271974D01*
Y273515D01*
D02*
G37*
G36*
X594882Y274173D02*
X594219Y274041D01*
X593656Y273666D01*
X593281Y273103D01*
X593149Y272440D01*
X593281Y271777D01*
X593656Y271214D01*
X594219Y270839D01*
X594882Y270707D01*
X595545Y270839D01*
X596107Y271214D01*
X596483Y271777D01*
X596615Y272440D01*
X596483Y273103D01*
X596107Y273666D01*
X595545Y274041D01*
X594882Y274173D01*
D02*
G37*
G36*
X604010Y271940D02*
X602468D01*
Y270398D01*
X602787Y270462D01*
X603482Y270926D01*
X603946Y271620D01*
X604010Y271940D01*
D02*
G37*
G36*
X601468D02*
X599926D01*
X599990Y271620D01*
X600454Y270926D01*
X601149Y270462D01*
X601468Y270398D01*
Y271940D01*
D02*
G37*
G36*
X589482D02*
X587940D01*
Y270398D01*
X588260Y270462D01*
X588954Y270926D01*
X589418Y271620D01*
X589482Y271940D01*
D02*
G37*
G36*
X586940D02*
X585398D01*
X585462Y271620D01*
X585926Y270926D01*
X586621Y270462D01*
X586940Y270398D01*
Y271940D01*
D02*
G37*
G36*
X385000Y274056D02*
X384073Y273934D01*
X383208Y273576D01*
X382466Y273006D01*
X381897Y272264D01*
X381539Y271400D01*
X381417Y270472D01*
X381539Y269545D01*
X381897Y268681D01*
X382466Y267939D01*
X383208Y267369D01*
X384073Y267011D01*
X385000Y266889D01*
X385927Y267011D01*
X386792Y267369D01*
X387534Y267939D01*
X388103Y268681D01*
X388461Y269545D01*
X388583Y270472D01*
X388461Y271400D01*
X388103Y272264D01*
X387534Y273006D01*
X386792Y273576D01*
X385927Y273934D01*
X385000Y274056D01*
D02*
G37*
G36*
X664246Y261705D02*
X662705D01*
Y260163D01*
X663024Y260227D01*
X663719Y260691D01*
X664183Y261385D01*
X664246Y261705D01*
D02*
G37*
G36*
X661705D02*
X660163D01*
X660227Y261385D01*
X660691Y260691D01*
X661385Y260227D01*
X661705Y260163D01*
Y261705D01*
D02*
G37*
G36*
X656766D02*
X655224D01*
Y260163D01*
X655544Y260227D01*
X656238Y260691D01*
X656703Y261385D01*
X656766Y261705D01*
D02*
G37*
G36*
X654224D02*
X652683D01*
X652746Y261385D01*
X653210Y260691D01*
X653905Y260227D01*
X654224Y260163D01*
Y261705D01*
D02*
G37*
G36*
X730127Y270679D02*
X723022D01*
Y260817D01*
X725461D01*
Y259319D01*
X723948Y257806D01*
X686288D01*
X684778Y259317D01*
X684804Y259449D01*
X684672Y260112D01*
X684457Y260434D01*
X684724Y260934D01*
X704040D01*
X704246Y260626D01*
X704808Y260250D01*
X705471Y260118D01*
X706135Y260250D01*
X706697Y260626D01*
X707073Y261188D01*
X707204Y261852D01*
X707073Y262515D01*
X706697Y263077D01*
X706135Y263453D01*
X705471Y263585D01*
X704808Y263453D01*
X704246Y263077D01*
X704040Y262769D01*
X671157D01*
X670951Y263077D01*
X670389Y263453D01*
X669726Y263585D01*
X669062Y263453D01*
X668500Y263077D01*
X668124Y262515D01*
X667992Y261852D01*
X668124Y261188D01*
X668500Y260626D01*
X669062Y260250D01*
X669726Y260118D01*
X670389Y260250D01*
X670951Y260626D01*
X671157Y260934D01*
X681417D01*
X681685Y260434D01*
X681469Y260112D01*
X681338Y259449D01*
X681469Y258786D01*
X681845Y258223D01*
X682408Y257847D01*
X683071Y257716D01*
X683203Y257742D01*
X685039Y255906D01*
X685039Y255906D01*
X685401Y255664D01*
X685827Y255579D01*
X685827Y255579D01*
X724409D01*
X724836Y255664D01*
X725197Y255906D01*
X727362Y258071D01*
X727603Y258432D01*
X727688Y258858D01*
Y260817D01*
X730127D01*
Y270679D01*
D02*
G37*
G36*
X305225Y257555D02*
Y256013D01*
X306766D01*
X306703Y256333D01*
X306239Y257027D01*
X305544Y257492D01*
X305225Y257555D01*
D02*
G37*
G36*
X304225D02*
X303905Y257492D01*
X303211Y257027D01*
X302747Y256333D01*
X302683Y256013D01*
X304225D01*
Y257555D01*
D02*
G37*
G36*
X284161Y251130D02*
Y247709D01*
X287582D01*
X287512Y248240D01*
X287114Y249202D01*
X286481Y250028D01*
X285655Y250661D01*
X284693Y251060D01*
X284161Y251130D01*
D02*
G37*
G36*
X244162D02*
Y247709D01*
X247583D01*
X247512Y248240D01*
X247114Y249202D01*
X246481Y250028D01*
X245655Y250661D01*
X244693Y251060D01*
X244162Y251130D01*
D02*
G37*
G36*
X214161D02*
Y247709D01*
X217583D01*
X217512Y248240D01*
X217114Y249202D01*
X216481Y250028D01*
X215655Y250661D01*
X214693Y251060D01*
X214161Y251130D01*
D02*
G37*
G36*
X164161D02*
Y247709D01*
X167582D01*
X167512Y248240D01*
X167114Y249202D01*
X166481Y250028D01*
X165655Y250661D01*
X164693Y251060D01*
X164161Y251130D01*
D02*
G37*
G36*
X144161D02*
Y247709D01*
X147582D01*
X147512Y248240D01*
X147114Y249202D01*
X146481Y250028D01*
X145655Y250661D01*
X144693Y251060D01*
X144161Y251130D01*
D02*
G37*
G36*
X213161D02*
X212630Y251060D01*
X211668Y250661D01*
X210842Y250028D01*
X210209Y249202D01*
X209810Y248240D01*
X209740Y247709D01*
X213161D01*
Y251130D01*
D02*
G37*
G36*
X163161D02*
X162629Y251060D01*
X161668Y250661D01*
X160842Y250028D01*
X160209Y249202D01*
X159810Y248240D01*
X159740Y247709D01*
X163161D01*
Y251130D01*
D02*
G37*
G36*
X143161D02*
X142630Y251060D01*
X141668Y250661D01*
X140842Y250028D01*
X140209Y249202D01*
X139810Y248240D01*
X139740Y247709D01*
X143161D01*
Y251130D01*
D02*
G37*
G36*
X283161Y251130D02*
X282629Y251060D01*
X281668Y250661D01*
X280842Y250028D01*
X280209Y249202D01*
X279810Y248240D01*
X279740Y247709D01*
X283161D01*
Y251130D01*
D02*
G37*
G36*
X243162D02*
X242630Y251060D01*
X241668Y250661D01*
X240842Y250028D01*
X240209Y249202D01*
X239810Y248240D01*
X239740Y247709D01*
X243162D01*
Y251130D01*
D02*
G37*
G36*
X303661Y250792D02*
X302734Y250670D01*
X301870Y250312D01*
X301128Y249743D01*
X300558Y249000D01*
X300200Y248136D01*
X300078Y247209D01*
X300200Y246281D01*
X300558Y245417D01*
X301128Y244675D01*
X301870Y244105D01*
X302734Y243747D01*
X303661Y243625D01*
X304589Y243747D01*
X305453Y244105D01*
X306195Y244675D01*
X306765Y245417D01*
X307123Y246281D01*
X307245Y247209D01*
X307123Y248136D01*
X306765Y249000D01*
X306195Y249743D01*
X305453Y250312D01*
X304589Y250670D01*
X303661Y250792D01*
D02*
G37*
G36*
X293661D02*
X292734Y250670D01*
X291870Y250312D01*
X291128Y249743D01*
X290558Y249000D01*
X290200Y248136D01*
X290078Y247209D01*
X290200Y246281D01*
X290558Y245417D01*
X291128Y244675D01*
X291870Y244105D01*
X292734Y243747D01*
X293661Y243625D01*
X294589Y243747D01*
X295453Y244105D01*
X296195Y244675D01*
X296765Y245417D01*
X297123Y246281D01*
X297245Y247209D01*
X297123Y248136D01*
X296765Y249000D01*
X296195Y249743D01*
X295453Y250312D01*
X294589Y250670D01*
X293661Y250792D01*
D02*
G37*
G36*
X273661D02*
X272734Y250670D01*
X271870Y250312D01*
X271128Y249743D01*
X270558Y249000D01*
X270200Y248136D01*
X270078Y247209D01*
X270200Y246281D01*
X270558Y245417D01*
X271128Y244675D01*
X271870Y244105D01*
X272734Y243747D01*
X273661Y243625D01*
X274589Y243747D01*
X275453Y244105D01*
X276195Y244675D01*
X276765Y245417D01*
X277123Y246281D01*
X277245Y247209D01*
X277123Y248136D01*
X276765Y249000D01*
X276195Y249743D01*
X275453Y250312D01*
X274589Y250670D01*
X273661Y250792D01*
D02*
G37*
G36*
X253661D02*
X252734Y250670D01*
X251870Y250312D01*
X251128Y249743D01*
X250558Y249000D01*
X250200Y248136D01*
X250078Y247209D01*
X250200Y246281D01*
X250558Y245417D01*
X251128Y244675D01*
X251870Y244105D01*
X252734Y243747D01*
X253661Y243625D01*
X254589Y243747D01*
X255453Y244105D01*
X256195Y244675D01*
X256765Y245417D01*
X257123Y246281D01*
X257245Y247209D01*
X257123Y248136D01*
X256765Y249000D01*
X256195Y249743D01*
X255453Y250312D01*
X254589Y250670D01*
X253661Y250792D01*
D02*
G37*
G36*
X233661D02*
X232734Y250670D01*
X231870Y250312D01*
X231128Y249743D01*
X230558Y249000D01*
X230200Y248136D01*
X230078Y247209D01*
X230200Y246281D01*
X230558Y245417D01*
X231128Y244675D01*
X231870Y244105D01*
X232734Y243747D01*
X233661Y243625D01*
X234589Y243747D01*
X235453Y244105D01*
X236195Y244675D01*
X236765Y245417D01*
X237123Y246281D01*
X237245Y247209D01*
X237123Y248136D01*
X236765Y249000D01*
X236195Y249743D01*
X235453Y250312D01*
X234589Y250670D01*
X233661Y250792D01*
D02*
G37*
G36*
X223661D02*
X222734Y250670D01*
X221870Y250312D01*
X221128Y249743D01*
X220558Y249000D01*
X220200Y248136D01*
X220078Y247209D01*
X220200Y246281D01*
X220558Y245417D01*
X221128Y244675D01*
X221870Y244105D01*
X222734Y243747D01*
X223661Y243625D01*
X224589Y243747D01*
X225453Y244105D01*
X226195Y244675D01*
X226765Y245417D01*
X227123Y246281D01*
X227245Y247209D01*
X227123Y248136D01*
X226765Y249000D01*
X226195Y249743D01*
X225453Y250312D01*
X224589Y250670D01*
X223661Y250792D01*
D02*
G37*
G36*
X203661D02*
X202734Y250670D01*
X201870Y250312D01*
X201128Y249743D01*
X200558Y249000D01*
X200200Y248136D01*
X200078Y247209D01*
X200200Y246281D01*
X200558Y245417D01*
X201128Y244675D01*
X201870Y244105D01*
X202734Y243747D01*
X203661Y243625D01*
X204589Y243747D01*
X205453Y244105D01*
X206195Y244675D01*
X206765Y245417D01*
X207123Y246281D01*
X207245Y247209D01*
X207123Y248136D01*
X206765Y249000D01*
X206195Y249743D01*
X205453Y250312D01*
X204589Y250670D01*
X203661Y250792D01*
D02*
G37*
G36*
X193661D02*
X192734Y250670D01*
X191870Y250312D01*
X191128Y249743D01*
X190558Y249000D01*
X190200Y248136D01*
X190078Y247209D01*
X190200Y246281D01*
X190558Y245417D01*
X191128Y244675D01*
X191870Y244105D01*
X192734Y243747D01*
X193661Y243625D01*
X194589Y243747D01*
X195453Y244105D01*
X196195Y244675D01*
X196765Y245417D01*
X197123Y246281D01*
X197245Y247209D01*
X197123Y248136D01*
X196765Y249000D01*
X196195Y249743D01*
X195453Y250312D01*
X194589Y250670D01*
X193661Y250792D01*
D02*
G37*
G36*
X183661D02*
X182734Y250670D01*
X181870Y250312D01*
X181128Y249743D01*
X180558Y249000D01*
X180200Y248136D01*
X180078Y247209D01*
X180200Y246281D01*
X180558Y245417D01*
X181128Y244675D01*
X181870Y244105D01*
X182734Y243747D01*
X183661Y243625D01*
X184589Y243747D01*
X185453Y244105D01*
X186195Y244675D01*
X186765Y245417D01*
X187123Y246281D01*
X187245Y247209D01*
X187123Y248136D01*
X186765Y249000D01*
X186195Y249743D01*
X185453Y250312D01*
X184589Y250670D01*
X183661Y250792D01*
D02*
G37*
G36*
X173661D02*
X172734Y250670D01*
X171870Y250312D01*
X171128Y249743D01*
X170558Y249000D01*
X170200Y248136D01*
X170078Y247209D01*
X170200Y246281D01*
X170558Y245417D01*
X171128Y244675D01*
X171870Y244105D01*
X172734Y243747D01*
X173661Y243625D01*
X174589Y243747D01*
X175453Y244105D01*
X176195Y244675D01*
X176765Y245417D01*
X177123Y246281D01*
X177245Y247209D01*
X177123Y248136D01*
X176765Y249000D01*
X176195Y249743D01*
X175453Y250312D01*
X174589Y250670D01*
X173661Y250792D01*
D02*
G37*
G36*
X153661D02*
X152734Y250670D01*
X151870Y250312D01*
X151128Y249743D01*
X150558Y249000D01*
X150200Y248136D01*
X150078Y247209D01*
X150200Y246281D01*
X150558Y245417D01*
X151128Y244675D01*
X151870Y244105D01*
X152734Y243747D01*
X153661Y243625D01*
X154589Y243747D01*
X155453Y244105D01*
X156195Y244675D01*
X156765Y245417D01*
X157123Y246281D01*
X157245Y247209D01*
X157123Y248136D01*
X156765Y249000D01*
X156195Y249743D01*
X155453Y250312D01*
X154589Y250670D01*
X153661Y250792D01*
D02*
G37*
G36*
X133661D02*
X132734Y250670D01*
X131870Y250312D01*
X131128Y249743D01*
X130558Y249000D01*
X130200Y248136D01*
X130078Y247209D01*
X130200Y246281D01*
X130558Y245417D01*
X131128Y244675D01*
X131870Y244105D01*
X132734Y243747D01*
X133661Y243625D01*
X134589Y243747D01*
X135453Y244105D01*
X136195Y244675D01*
X136765Y245417D01*
X137123Y246281D01*
X137245Y247209D01*
X137123Y248136D01*
X136765Y249000D01*
X136195Y249743D01*
X135453Y250312D01*
X134589Y250670D01*
X133661Y250792D01*
D02*
G37*
G36*
X123661D02*
X122734Y250670D01*
X121870Y250312D01*
X121128Y249743D01*
X120558Y249000D01*
X120200Y248136D01*
X120078Y247209D01*
X120200Y246281D01*
X120558Y245417D01*
X121128Y244675D01*
X121870Y244105D01*
X122734Y243747D01*
X123661Y243625D01*
X124589Y243747D01*
X125453Y244105D01*
X126195Y244675D01*
X126765Y245417D01*
X127123Y246281D01*
X127245Y247209D01*
X127123Y248136D01*
X126765Y249000D01*
X126195Y249743D01*
X125453Y250312D01*
X124589Y250670D01*
X123661Y250792D01*
D02*
G37*
G36*
X113661D02*
X112734Y250670D01*
X111870Y250312D01*
X111128Y249743D01*
X110558Y249000D01*
X110200Y248136D01*
X110078Y247209D01*
X110200Y246281D01*
X110558Y245417D01*
X111128Y244675D01*
X111870Y244105D01*
X112734Y243747D01*
X113661Y243625D01*
X114589Y243747D01*
X115453Y244105D01*
X116195Y244675D01*
X116765Y245417D01*
X117123Y246281D01*
X117245Y247209D01*
X117123Y248136D01*
X116765Y249000D01*
X116195Y249743D01*
X115453Y250312D01*
X114589Y250670D01*
X113661Y250792D01*
D02*
G37*
G36*
X287582Y246709D02*
X284161D01*
Y243288D01*
X284693Y243358D01*
X285655Y243756D01*
X286481Y244390D01*
X287114Y245215D01*
X287512Y246177D01*
X287582Y246709D01*
D02*
G37*
G36*
X247583D02*
X244162D01*
Y243288D01*
X244693Y243358D01*
X245655Y243756D01*
X246481Y244390D01*
X247114Y245215D01*
X247512Y246177D01*
X247583Y246709D01*
D02*
G37*
G36*
X217583D02*
X214161D01*
Y243288D01*
X214693Y243358D01*
X215655Y243756D01*
X216481Y244390D01*
X217114Y245215D01*
X217512Y246177D01*
X217583Y246709D01*
D02*
G37*
G36*
X167582D02*
X164161D01*
Y243288D01*
X164693Y243358D01*
X165655Y243756D01*
X166481Y244390D01*
X167114Y245215D01*
X167512Y246177D01*
X167582Y246709D01*
D02*
G37*
G36*
X147582D02*
X144161D01*
Y243288D01*
X144693Y243358D01*
X145655Y243756D01*
X146481Y244390D01*
X147114Y245215D01*
X147512Y246177D01*
X147582Y246709D01*
D02*
G37*
G36*
X213161D02*
X209740D01*
X209810Y246177D01*
X210209Y245215D01*
X210842Y244390D01*
X211668Y243756D01*
X212630Y243358D01*
X213161Y243288D01*
Y246709D01*
D02*
G37*
G36*
X163161D02*
X159740D01*
X159810Y246177D01*
X160209Y245215D01*
X160842Y244390D01*
X161668Y243756D01*
X162629Y243358D01*
X163161Y243288D01*
Y246709D01*
D02*
G37*
G36*
X143161D02*
X139740D01*
X139810Y246177D01*
X140209Y245215D01*
X140842Y244390D01*
X141668Y243756D01*
X142630Y243358D01*
X143161Y243288D01*
Y246709D01*
D02*
G37*
G36*
X283161D02*
X279740D01*
X279810Y246177D01*
X280209Y245215D01*
X280842Y244390D01*
X281668Y243756D01*
X282629Y243358D01*
X283161Y243288D01*
Y246709D01*
D02*
G37*
G36*
X243162D02*
X239740D01*
X239810Y246177D01*
X240209Y245215D01*
X240842Y244390D01*
X241668Y243756D01*
X242630Y243358D01*
X243162Y243288D01*
Y246709D01*
D02*
G37*
G36*
X264161Y241130D02*
Y237709D01*
X267583D01*
X267512Y238241D01*
X267114Y239202D01*
X266481Y240028D01*
X265655Y240661D01*
X264693Y241060D01*
X264161Y241130D01*
D02*
G37*
G36*
X114161D02*
Y237709D01*
X117582D01*
X117512Y238241D01*
X117114Y239202D01*
X116481Y240028D01*
X115655Y240661D01*
X114693Y241060D01*
X114161Y241130D01*
D02*
G37*
G36*
X184161D02*
Y237709D01*
X187583D01*
X187512Y238241D01*
X187114Y239202D01*
X186481Y240028D01*
X185655Y240661D01*
X184693Y241060D01*
X184161Y241130D01*
D02*
G37*
G36*
X113161D02*
X112629Y241060D01*
X111668Y240661D01*
X110842Y240028D01*
X110209Y239202D01*
X109810Y238241D01*
X109740Y237709D01*
X113161D01*
Y241130D01*
D02*
G37*
G36*
X183161D02*
X182630Y241060D01*
X181668Y240661D01*
X180842Y240028D01*
X180209Y239202D01*
X179810Y238241D01*
X179740Y237709D01*
X183161D01*
Y241130D01*
D02*
G37*
G36*
X263161Y241130D02*
X262630Y241060D01*
X261668Y240661D01*
X260842Y240028D01*
X260209Y239202D01*
X259810Y238241D01*
X259740Y237709D01*
X263161D01*
Y241130D01*
D02*
G37*
G36*
X625000Y244056D02*
X624073Y243934D01*
X623208Y243576D01*
X622466Y243006D01*
X621897Y242264D01*
X621539Y241400D01*
X621417Y240472D01*
X621539Y239545D01*
X621897Y238681D01*
X622466Y237939D01*
X623208Y237369D01*
X624073Y237011D01*
X625000Y236889D01*
X625927Y237011D01*
X626792Y237369D01*
X627534Y237939D01*
X628103Y238681D01*
X628461Y239545D01*
X628583Y240472D01*
X628461Y241400D01*
X628103Y242264D01*
X627534Y243006D01*
X626792Y243576D01*
X625927Y243934D01*
X625000Y244056D01*
D02*
G37*
G36*
X615000D02*
X614073Y243934D01*
X613208Y243576D01*
X612466Y243006D01*
X611897Y242264D01*
X611539Y241400D01*
X611417Y240472D01*
X611539Y239545D01*
X611897Y238681D01*
X612466Y237939D01*
X613208Y237369D01*
X614073Y237011D01*
X615000Y236889D01*
X615928Y237011D01*
X616792Y237369D01*
X617534Y237939D01*
X618103Y238681D01*
X618461Y239545D01*
X618583Y240472D01*
X618461Y241400D01*
X618103Y242264D01*
X617534Y243006D01*
X616792Y243576D01*
X615928Y243934D01*
X615000Y244056D01*
D02*
G37*
G36*
X209055Y265513D02*
X208392Y265381D01*
X207829Y265005D01*
X207454Y264443D01*
X207322Y263779D01*
X207454Y263116D01*
X207829Y262554D01*
X208392Y262178D01*
X209055Y262046D01*
X209718Y262178D01*
X210281Y262554D01*
X210487Y262862D01*
X335447D01*
X353682Y244627D01*
X353979Y244428D01*
X354331Y244358D01*
X373790D01*
X373890Y243858D01*
X373208Y243576D01*
X372466Y243006D01*
X371897Y242264D01*
X371539Y241400D01*
X371417Y240472D01*
X371539Y239545D01*
X371897Y238681D01*
X372466Y237939D01*
X373208Y237369D01*
X374073Y237011D01*
X375000Y236889D01*
X375927Y237011D01*
X376792Y237369D01*
X377534Y237939D01*
X378103Y238681D01*
X378461Y239545D01*
X378583Y240472D01*
X378461Y241400D01*
X378103Y242264D01*
X377534Y243006D01*
X376792Y243576D01*
X376110Y243858D01*
X376210Y244358D01*
X379817D01*
X381903Y242272D01*
X381897Y242264D01*
X381539Y241400D01*
X381417Y240472D01*
X381539Y239545D01*
X381897Y238681D01*
X382466Y237939D01*
X383208Y237369D01*
X384073Y237011D01*
X385000Y236889D01*
X385927Y237011D01*
X386792Y237369D01*
X387534Y237939D01*
X388103Y238681D01*
X388461Y239545D01*
X388583Y240472D01*
X388461Y241400D01*
X388103Y242264D01*
X387534Y243006D01*
X386792Y243576D01*
X385927Y243934D01*
X385000Y244056D01*
X384073Y243934D01*
X383208Y243576D01*
X383200Y243570D01*
X380846Y245924D01*
X380548Y246123D01*
X380197Y246193D01*
X354711D01*
X336476Y264428D01*
X336178Y264627D01*
X335827Y264697D01*
X210487D01*
X210281Y265005D01*
X209718Y265381D01*
X209055Y265513D01*
D02*
G37*
G36*
X662705Y235900D02*
Y234358D01*
X664246D01*
X664183Y234678D01*
X663719Y235372D01*
X663024Y235836D01*
X662705Y235900D01*
D02*
G37*
G36*
X661705D02*
X661385Y235836D01*
X660691Y235372D01*
X660227Y234678D01*
X660163Y234358D01*
X661705D01*
Y235900D01*
D02*
G37*
G36*
X655224D02*
Y234358D01*
X656766D01*
X656703Y234678D01*
X656238Y235372D01*
X655544Y235836D01*
X655224Y235900D01*
D02*
G37*
G36*
X654224D02*
X653905Y235836D01*
X653210Y235372D01*
X652746Y234678D01*
X652683Y234358D01*
X654224D01*
Y235900D01*
D02*
G37*
G36*
X322835Y250229D02*
X321270Y250075D01*
X319765Y249619D01*
X318379Y248878D01*
X317163Y247880D01*
X316166Y246665D01*
X315425Y245278D01*
X314968Y243773D01*
X314814Y242209D01*
X314968Y240644D01*
X315425Y239139D01*
X316166Y237753D01*
X317163Y236537D01*
X318379Y235540D01*
X319765Y234799D01*
X321270Y234342D01*
X322835Y234188D01*
X324399Y234342D01*
X325904Y234799D01*
X327291Y235540D01*
X328506Y236537D01*
X329503Y237753D01*
X330245Y239139D01*
X330701Y240644D01*
X330855Y242209D01*
X330701Y243773D01*
X330245Y245278D01*
X329503Y246665D01*
X328506Y247880D01*
X327291Y248878D01*
X325904Y249619D01*
X324399Y250075D01*
X322835Y250229D01*
D02*
G37*
G36*
X94488D02*
X92923Y250075D01*
X91419Y249619D01*
X90032Y248878D01*
X88817Y247880D01*
X87819Y246665D01*
X87078Y245278D01*
X86622Y243773D01*
X86468Y242209D01*
X86622Y240644D01*
X87078Y239139D01*
X87819Y237753D01*
X88817Y236537D01*
X90032Y235540D01*
X91419Y234799D01*
X92923Y234342D01*
X94488Y234188D01*
X96053Y234342D01*
X97557Y234799D01*
X98944Y235540D01*
X100160Y236537D01*
X101157Y237753D01*
X101898Y239139D01*
X102355Y240644D01*
X102509Y242209D01*
X102355Y243773D01*
X101898Y245278D01*
X101157Y246665D01*
X100160Y247880D01*
X98944Y248878D01*
X97557Y249619D01*
X96053Y250075D01*
X94488Y250229D01*
D02*
G37*
G36*
X293661Y240792D02*
X292734Y240670D01*
X291870Y240312D01*
X291128Y239742D01*
X290558Y239000D01*
X290200Y238136D01*
X290078Y237209D01*
X290200Y236281D01*
X290558Y235417D01*
X291128Y234675D01*
X291870Y234105D01*
X292734Y233747D01*
X293661Y233625D01*
X294589Y233747D01*
X295453Y234105D01*
X296195Y234675D01*
X296765Y235417D01*
X297123Y236281D01*
X297245Y237209D01*
X297123Y238136D01*
X296765Y239000D01*
X296195Y239742D01*
X295453Y240312D01*
X294589Y240670D01*
X293661Y240792D01*
D02*
G37*
G36*
X283661D02*
X282734Y240670D01*
X281870Y240312D01*
X281128Y239742D01*
X280558Y239000D01*
X280200Y238136D01*
X280078Y237209D01*
X280200Y236281D01*
X280558Y235417D01*
X281128Y234675D01*
X281870Y234105D01*
X282734Y233747D01*
X283661Y233625D01*
X284589Y233747D01*
X285453Y234105D01*
X286195Y234675D01*
X286765Y235417D01*
X287123Y236281D01*
X287245Y237209D01*
X287123Y238136D01*
X286765Y239000D01*
X286195Y239742D01*
X285453Y240312D01*
X284589Y240670D01*
X283661Y240792D01*
D02*
G37*
G36*
X273661D02*
X272734Y240670D01*
X271870Y240312D01*
X271128Y239742D01*
X270558Y239000D01*
X270200Y238136D01*
X270078Y237209D01*
X270200Y236281D01*
X270558Y235417D01*
X271128Y234675D01*
X271870Y234105D01*
X272734Y233747D01*
X273661Y233625D01*
X274589Y233747D01*
X275453Y234105D01*
X276195Y234675D01*
X276765Y235417D01*
X277123Y236281D01*
X277245Y237209D01*
X277123Y238136D01*
X276765Y239000D01*
X276195Y239742D01*
X275453Y240312D01*
X274589Y240670D01*
X273661Y240792D01*
D02*
G37*
G36*
X253661D02*
X252734Y240670D01*
X251870Y240312D01*
X251128Y239742D01*
X250558Y239000D01*
X250200Y238136D01*
X250078Y237209D01*
X250200Y236281D01*
X250558Y235417D01*
X251128Y234675D01*
X251870Y234105D01*
X252734Y233747D01*
X253661Y233625D01*
X254589Y233747D01*
X255453Y234105D01*
X256195Y234675D01*
X256765Y235417D01*
X257123Y236281D01*
X257245Y237209D01*
X257123Y238136D01*
X256765Y239000D01*
X256195Y239742D01*
X255453Y240312D01*
X254589Y240670D01*
X253661Y240792D01*
D02*
G37*
G36*
X243661D02*
X242734Y240670D01*
X241870Y240312D01*
X241128Y239742D01*
X240558Y239000D01*
X240200Y238136D01*
X240078Y237209D01*
X240200Y236281D01*
X240558Y235417D01*
X241128Y234675D01*
X241870Y234105D01*
X242734Y233747D01*
X243661Y233625D01*
X244589Y233747D01*
X245453Y234105D01*
X246195Y234675D01*
X246765Y235417D01*
X247123Y236281D01*
X247245Y237209D01*
X247123Y238136D01*
X246765Y239000D01*
X246195Y239742D01*
X245453Y240312D01*
X244589Y240670D01*
X243661Y240792D01*
D02*
G37*
G36*
X233661D02*
X232734Y240670D01*
X231870Y240312D01*
X231128Y239742D01*
X230558Y239000D01*
X230200Y238136D01*
X230078Y237209D01*
X230200Y236281D01*
X230558Y235417D01*
X231128Y234675D01*
X231870Y234105D01*
X232734Y233747D01*
X233661Y233625D01*
X234589Y233747D01*
X235453Y234105D01*
X236195Y234675D01*
X236765Y235417D01*
X237123Y236281D01*
X237245Y237209D01*
X237123Y238136D01*
X236765Y239000D01*
X236195Y239742D01*
X235453Y240312D01*
X234589Y240670D01*
X233661Y240792D01*
D02*
G37*
G36*
X223661D02*
X222734Y240670D01*
X221870Y240312D01*
X221128Y239742D01*
X220558Y239000D01*
X220200Y238136D01*
X220078Y237209D01*
X220200Y236281D01*
X220558Y235417D01*
X221128Y234675D01*
X221870Y234105D01*
X222734Y233747D01*
X223661Y233625D01*
X224589Y233747D01*
X225453Y234105D01*
X226195Y234675D01*
X226765Y235417D01*
X227123Y236281D01*
X227245Y237209D01*
X227123Y238136D01*
X226765Y239000D01*
X226195Y239742D01*
X225453Y240312D01*
X224589Y240670D01*
X223661Y240792D01*
D02*
G37*
G36*
X213661D02*
X212734Y240670D01*
X211870Y240312D01*
X211128Y239742D01*
X210558Y239000D01*
X210200Y238136D01*
X210078Y237209D01*
X210200Y236281D01*
X210558Y235417D01*
X211128Y234675D01*
X211870Y234105D01*
X212734Y233747D01*
X213661Y233625D01*
X214589Y233747D01*
X215453Y234105D01*
X216195Y234675D01*
X216765Y235417D01*
X217123Y236281D01*
X217245Y237209D01*
X217123Y238136D01*
X216765Y239000D01*
X216195Y239742D01*
X215453Y240312D01*
X214589Y240670D01*
X213661Y240792D01*
D02*
G37*
G36*
X203661D02*
X202734Y240670D01*
X201870Y240312D01*
X201128Y239742D01*
X200558Y239000D01*
X200200Y238136D01*
X200078Y237209D01*
X200200Y236281D01*
X200558Y235417D01*
X201128Y234675D01*
X201870Y234105D01*
X202734Y233747D01*
X203661Y233625D01*
X204589Y233747D01*
X205453Y234105D01*
X206195Y234675D01*
X206765Y235417D01*
X207123Y236281D01*
X207245Y237209D01*
X207123Y238136D01*
X206765Y239000D01*
X206195Y239742D01*
X205453Y240312D01*
X204589Y240670D01*
X203661Y240792D01*
D02*
G37*
G36*
X193661D02*
X192734Y240670D01*
X191870Y240312D01*
X191128Y239742D01*
X190558Y239000D01*
X190200Y238136D01*
X190078Y237209D01*
X190200Y236281D01*
X190558Y235417D01*
X191128Y234675D01*
X191870Y234105D01*
X192734Y233747D01*
X193661Y233625D01*
X194589Y233747D01*
X195453Y234105D01*
X196195Y234675D01*
X196765Y235417D01*
X197123Y236281D01*
X197245Y237209D01*
X197123Y238136D01*
X196765Y239000D01*
X196195Y239742D01*
X195453Y240312D01*
X194589Y240670D01*
X193661Y240792D01*
D02*
G37*
G36*
X173661D02*
X172734Y240670D01*
X171870Y240312D01*
X171128Y239742D01*
X170558Y239000D01*
X170200Y238136D01*
X170078Y237209D01*
X170200Y236281D01*
X170558Y235417D01*
X171128Y234675D01*
X171870Y234105D01*
X172734Y233747D01*
X173661Y233625D01*
X174589Y233747D01*
X175453Y234105D01*
X176195Y234675D01*
X176765Y235417D01*
X177123Y236281D01*
X177245Y237209D01*
X177123Y238136D01*
X176765Y239000D01*
X176195Y239742D01*
X175453Y240312D01*
X174589Y240670D01*
X173661Y240792D01*
D02*
G37*
G36*
X163661D02*
X162734Y240670D01*
X161870Y240312D01*
X161128Y239742D01*
X160558Y239000D01*
X160200Y238136D01*
X160078Y237209D01*
X160200Y236281D01*
X160558Y235417D01*
X161128Y234675D01*
X161870Y234105D01*
X162734Y233747D01*
X163661Y233625D01*
X164589Y233747D01*
X165453Y234105D01*
X166195Y234675D01*
X166765Y235417D01*
X167123Y236281D01*
X167245Y237209D01*
X167123Y238136D01*
X166765Y239000D01*
X166195Y239742D01*
X165453Y240312D01*
X164589Y240670D01*
X163661Y240792D01*
D02*
G37*
G36*
X153661D02*
X152734Y240670D01*
X151870Y240312D01*
X151128Y239742D01*
X150558Y239000D01*
X150200Y238136D01*
X150078Y237209D01*
X150200Y236281D01*
X150558Y235417D01*
X151128Y234675D01*
X151870Y234105D01*
X152734Y233747D01*
X153661Y233625D01*
X154589Y233747D01*
X155453Y234105D01*
X156195Y234675D01*
X156765Y235417D01*
X157123Y236281D01*
X157245Y237209D01*
X157123Y238136D01*
X156765Y239000D01*
X156195Y239742D01*
X155453Y240312D01*
X154589Y240670D01*
X153661Y240792D01*
D02*
G37*
G36*
X143661D02*
X142734Y240670D01*
X141870Y240312D01*
X141128Y239742D01*
X140558Y239000D01*
X140200Y238136D01*
X140078Y237209D01*
X140200Y236281D01*
X140558Y235417D01*
X141128Y234675D01*
X141870Y234105D01*
X142734Y233747D01*
X143661Y233625D01*
X144589Y233747D01*
X145453Y234105D01*
X146195Y234675D01*
X146765Y235417D01*
X147123Y236281D01*
X147245Y237209D01*
X147123Y238136D01*
X146765Y239000D01*
X146195Y239742D01*
X145453Y240312D01*
X144589Y240670D01*
X143661Y240792D01*
D02*
G37*
G36*
X133661D02*
X132734Y240670D01*
X131870Y240312D01*
X131128Y239742D01*
X130558Y239000D01*
X130200Y238136D01*
X130078Y237209D01*
X130200Y236281D01*
X130558Y235417D01*
X131128Y234675D01*
X131870Y234105D01*
X132734Y233747D01*
X133661Y233625D01*
X134589Y233747D01*
X135453Y234105D01*
X136195Y234675D01*
X136765Y235417D01*
X137123Y236281D01*
X137245Y237209D01*
X137123Y238136D01*
X136765Y239000D01*
X136195Y239742D01*
X135453Y240312D01*
X134589Y240670D01*
X133661Y240792D01*
D02*
G37*
G36*
X123661D02*
X122734Y240670D01*
X121870Y240312D01*
X121128Y239742D01*
X120558Y239000D01*
X120200Y238136D01*
X120078Y237209D01*
X120200Y236281D01*
X120558Y235417D01*
X121128Y234675D01*
X121870Y234105D01*
X122734Y233747D01*
X123661Y233625D01*
X124589Y233747D01*
X125453Y234105D01*
X126195Y234675D01*
X126765Y235417D01*
X127123Y236281D01*
X127245Y237209D01*
X127123Y238136D01*
X126765Y239000D01*
X126195Y239742D01*
X125453Y240312D01*
X124589Y240670D01*
X123661Y240792D01*
D02*
G37*
G36*
X267583Y236709D02*
X264161D01*
Y233288D01*
X264693Y233358D01*
X265655Y233756D01*
X266481Y234389D01*
X267114Y235215D01*
X267512Y236177D01*
X267583Y236709D01*
D02*
G37*
G36*
X187582D02*
X184161D01*
Y233288D01*
X184693Y233358D01*
X185655Y233756D01*
X186481Y234389D01*
X187114Y235215D01*
X187512Y236177D01*
X187582Y236709D01*
D02*
G37*
G36*
X117582D02*
X114161D01*
Y233288D01*
X114693Y233358D01*
X115655Y233756D01*
X116481Y234389D01*
X117114Y235215D01*
X117512Y236177D01*
X117582Y236709D01*
D02*
G37*
G36*
X183161D02*
X179740D01*
X179810Y236177D01*
X180209Y235215D01*
X180842Y234389D01*
X181668Y233756D01*
X182630Y233358D01*
X183161Y233288D01*
Y236709D01*
D02*
G37*
G36*
X113161D02*
X109740D01*
X109810Y236177D01*
X110209Y235215D01*
X110842Y234389D01*
X111668Y233756D01*
X112629Y233358D01*
X113161Y233288D01*
Y236709D01*
D02*
G37*
G36*
X263161D02*
X259740D01*
X259810Y236177D01*
X260209Y235215D01*
X260842Y234389D01*
X261668Y233756D01*
X262630Y233358D01*
X263161Y233288D01*
Y236709D01*
D02*
G37*
G36*
X705618Y233538D02*
Y231996D01*
X707160D01*
X707096Y232315D01*
X706632Y233010D01*
X705937Y233474D01*
X705618Y233538D01*
D02*
G37*
G36*
X704618D02*
X704299Y233474D01*
X703604Y233010D01*
X703140Y232315D01*
X703076Y231996D01*
X704618D01*
Y233538D01*
D02*
G37*
G36*
X664246Y233358D02*
X662705D01*
Y231817D01*
X663024Y231880D01*
X663719Y232344D01*
X664183Y233039D01*
X664246Y233358D01*
D02*
G37*
G36*
X661705D02*
X660163D01*
X660227Y233039D01*
X660691Y232344D01*
X661385Y231880D01*
X661705Y231817D01*
Y233358D01*
D02*
G37*
G36*
X656766D02*
X655224D01*
Y231817D01*
X655544Y231880D01*
X656238Y232344D01*
X656703Y233039D01*
X656766Y233358D01*
D02*
G37*
G36*
X654224D02*
X652683D01*
X652746Y233039D01*
X653210Y232344D01*
X653905Y231880D01*
X654224Y231817D01*
Y233358D01*
D02*
G37*
G36*
X615500Y234394D02*
Y230972D01*
X618921D01*
X618851Y231504D01*
X618453Y232466D01*
X617819Y233292D01*
X616993Y233925D01*
X616032Y234324D01*
X615500Y234394D01*
D02*
G37*
G36*
X614500D02*
X613968Y234324D01*
X613007Y233925D01*
X612181Y233292D01*
X611547Y232466D01*
X611149Y231504D01*
X611079Y230972D01*
X614500D01*
Y234394D01*
D02*
G37*
G36*
X725197Y234411D02*
X724534Y234278D01*
X723971Y233903D01*
X723596Y233341D01*
X723464Y232677D01*
X723596Y232014D01*
X723971Y231452D01*
X724534Y231076D01*
X725197Y230944D01*
X725860Y231076D01*
X726423Y231452D01*
X726798Y232014D01*
X726930Y232677D01*
X726798Y233341D01*
X726423Y233903D01*
X725860Y234278D01*
X725197Y234411D01*
D02*
G37*
G36*
X707160Y230996D02*
X705618D01*
Y229454D01*
X705937Y229518D01*
X706632Y229982D01*
X707096Y230677D01*
X707160Y230996D01*
D02*
G37*
G36*
X704618D02*
X703076D01*
X703140Y230677D01*
X703604Y229982D01*
X704299Y229518D01*
X704618Y229454D01*
Y230996D01*
D02*
G37*
G36*
X715067Y230387D02*
Y228846D01*
X716608D01*
X716545Y229165D01*
X716081Y229860D01*
X715386Y230324D01*
X715067Y230387D01*
D02*
G37*
G36*
X714067D02*
X713747Y230324D01*
X713053Y229860D01*
X712588Y229165D01*
X712525Y228846D01*
X714067D01*
Y230387D01*
D02*
G37*
G36*
X306766Y255013D02*
X302683D01*
X302747Y254694D01*
X303094Y254173D01*
X302867Y253674D01*
X269209D01*
X268858Y253604D01*
X268560Y253405D01*
X265461Y250306D01*
X265453Y250312D01*
X264589Y250670D01*
X263661Y250792D01*
X262734Y250670D01*
X261870Y250312D01*
X261128Y249743D01*
X260558Y249000D01*
X260200Y248136D01*
X260078Y247209D01*
X260200Y246281D01*
X260558Y245417D01*
X261128Y244675D01*
X261870Y244105D01*
X262734Y243747D01*
X263661Y243625D01*
X264589Y243747D01*
X265453Y244105D01*
X266195Y244675D01*
X266765Y245417D01*
X267123Y246281D01*
X267245Y247209D01*
X267123Y248136D01*
X266765Y249000D01*
X266759Y249008D01*
X269589Y251838D01*
X332297D01*
X354469Y229666D01*
X354767Y229467D01*
X355118Y229397D01*
X357624D01*
X357829Y229089D01*
X358392Y228714D01*
X359055Y228582D01*
X359718Y228714D01*
X360281Y229089D01*
X360656Y229652D01*
X360788Y230315D01*
X360656Y230978D01*
X360281Y231541D01*
X359718Y231916D01*
X359055Y232048D01*
X358392Y231916D01*
X357829Y231541D01*
X357624Y231233D01*
X355498D01*
X333326Y253405D01*
X333028Y253604D01*
X332677Y253674D01*
X306582D01*
X306355Y254173D01*
X306703Y254694D01*
X306766Y255013D01*
D02*
G37*
G36*
X625000Y234056D02*
X624073Y233934D01*
X623208Y233576D01*
X622466Y233006D01*
X621897Y232264D01*
X621539Y231400D01*
X621417Y230472D01*
X621539Y229545D01*
X621897Y228681D01*
X622466Y227939D01*
X623208Y227369D01*
X624073Y227011D01*
X625000Y226889D01*
X625927Y227011D01*
X626792Y227369D01*
X627534Y227939D01*
X628103Y228681D01*
X628461Y229545D01*
X628583Y230472D01*
X628461Y231400D01*
X628103Y232264D01*
X627534Y233006D01*
X626792Y233576D01*
X625927Y233934D01*
X625000Y234056D01*
D02*
G37*
G36*
X280709Y261970D02*
X280046Y261838D01*
X279483Y261462D01*
X279108Y260900D01*
X278976Y260237D01*
X279108Y259573D01*
X279483Y259011D01*
X280046Y258635D01*
X280709Y258503D01*
X281372Y258635D01*
X281935Y259011D01*
X282140Y259319D01*
X333084D01*
X357619Y234784D01*
X357917Y234585D01*
X358268Y234515D01*
X374660D01*
X374693Y234015D01*
X374073Y233934D01*
X373208Y233576D01*
X372466Y233006D01*
X371897Y232264D01*
X371539Y231400D01*
X371417Y230472D01*
X371539Y229545D01*
X371897Y228681D01*
X372466Y227939D01*
X373208Y227369D01*
X374073Y227011D01*
X375000Y226889D01*
X375927Y227011D01*
X376792Y227369D01*
X377534Y227939D01*
X378103Y228681D01*
X378461Y229545D01*
X378583Y230472D01*
X378461Y231400D01*
X378103Y232264D01*
X377534Y233006D01*
X376792Y233576D01*
X375927Y233934D01*
X375307Y234015D01*
X375340Y234515D01*
X379659D01*
X381903Y232272D01*
X381897Y232264D01*
X381539Y231400D01*
X381417Y230472D01*
X381539Y229545D01*
X381897Y228681D01*
X382466Y227939D01*
X383208Y227369D01*
X384073Y227011D01*
X385000Y226889D01*
X385927Y227011D01*
X386792Y227369D01*
X387534Y227939D01*
X388103Y228681D01*
X388461Y229545D01*
X388583Y230472D01*
X388461Y231400D01*
X388103Y232264D01*
X387534Y233006D01*
X386792Y233576D01*
X385927Y233934D01*
X385000Y234056D01*
X384073Y233934D01*
X383208Y233576D01*
X383200Y233570D01*
X380688Y236082D01*
X380391Y236281D01*
X380039Y236351D01*
X358648D01*
X334113Y260885D01*
X333815Y261084D01*
X333464Y261154D01*
X282140D01*
X281935Y261462D01*
X281372Y261838D01*
X280709Y261970D01*
D02*
G37*
G36*
X618921Y229972D02*
X615500D01*
Y226551D01*
X616032Y226621D01*
X616993Y227020D01*
X617819Y227653D01*
X618453Y228479D01*
X618851Y229441D01*
X618921Y229972D01*
D02*
G37*
G36*
X614500D02*
X611079D01*
X611149Y229441D01*
X611547Y228479D01*
X612181Y227653D01*
X613007Y227020D01*
X613968Y226621D01*
X614500Y226551D01*
Y229972D01*
D02*
G37*
G36*
X716608Y227846D02*
X715067D01*
Y226304D01*
X715386Y226368D01*
X716081Y226832D01*
X716545Y227526D01*
X716608Y227846D01*
D02*
G37*
G36*
X714067D02*
X712525D01*
X712588Y227526D01*
X713053Y226832D01*
X713747Y226368D01*
X714067Y226304D01*
Y227846D01*
D02*
G37*
G36*
X604437Y224088D02*
Y222546D01*
X605979D01*
X605915Y222866D01*
X605451Y223560D01*
X604756Y224024D01*
X604437Y224088D01*
D02*
G37*
G36*
X603437D02*
X603118Y224024D01*
X602423Y223560D01*
X601959Y222866D01*
X601895Y222546D01*
X603437D01*
Y224088D01*
D02*
G37*
G36*
X715067Y222907D02*
Y221365D01*
X716608D01*
X716545Y221685D01*
X716081Y222379D01*
X715386Y222844D01*
X715067Y222907D01*
D02*
G37*
G36*
X714067D02*
X713747Y222844D01*
X713053Y222379D01*
X712588Y221685D01*
X712525Y221365D01*
X714067D01*
Y222907D01*
D02*
G37*
G36*
X625500Y224394D02*
Y220972D01*
X628921D01*
X628851Y221504D01*
X628453Y222466D01*
X627819Y223292D01*
X626993Y223925D01*
X626032Y224324D01*
X625500Y224394D01*
D02*
G37*
G36*
X615500D02*
Y220972D01*
X618921D01*
X618851Y221504D01*
X618453Y222466D01*
X617819Y223292D01*
X616993Y223925D01*
X616032Y224324D01*
X615500Y224394D01*
D02*
G37*
G36*
X375500D02*
Y220972D01*
X378921D01*
X378851Y221504D01*
X378453Y222466D01*
X377819Y223292D01*
X376993Y223925D01*
X376032Y224324D01*
X375500Y224394D01*
D02*
G37*
G36*
X624500D02*
X623968Y224324D01*
X623007Y223925D01*
X622181Y223292D01*
X621547Y222466D01*
X621149Y221504D01*
X621079Y220972D01*
X624500D01*
Y224394D01*
D02*
G37*
G36*
X614500D02*
X613968Y224324D01*
X613007Y223925D01*
X612181Y223292D01*
X611547Y222466D01*
X611149Y221504D01*
X611079Y220972D01*
X614500D01*
Y224394D01*
D02*
G37*
G36*
X374500D02*
X373968Y224324D01*
X373007Y223925D01*
X372181Y223292D01*
X371547Y222466D01*
X371149Y221504D01*
X371079Y220972D01*
X374500D01*
Y224394D01*
D02*
G37*
G36*
X605979Y221546D02*
X604437D01*
Y220005D01*
X604756Y220068D01*
X605451Y220532D01*
X605915Y221227D01*
X605979Y221546D01*
D02*
G37*
G36*
X603437D02*
X601895D01*
X601959Y221227D01*
X602423Y220532D01*
X603118Y220068D01*
X603437Y220005D01*
Y221546D01*
D02*
G37*
G36*
X716608Y220366D02*
X715067D01*
Y218824D01*
X715386Y218887D01*
X716081Y219352D01*
X716545Y220046D01*
X716608Y220366D01*
D02*
G37*
G36*
X714067D02*
X712525D01*
X712588Y220046D01*
X713053Y219352D01*
X713747Y218887D01*
X714067Y218824D01*
Y220366D01*
D02*
G37*
G36*
X385000Y224056D02*
X384073Y223934D01*
X383208Y223576D01*
X382466Y223006D01*
X381897Y222264D01*
X381539Y221400D01*
X381417Y220472D01*
X381539Y219545D01*
X381897Y218681D01*
X382466Y217939D01*
X383208Y217369D01*
X384073Y217011D01*
X385000Y216889D01*
X385927Y217011D01*
X386792Y217369D01*
X387534Y217939D01*
X388103Y218681D01*
X388461Y219545D01*
X388583Y220472D01*
X388461Y221400D01*
X388103Y222264D01*
X387534Y223006D01*
X386792Y223576D01*
X385927Y223934D01*
X385000Y224056D01*
D02*
G37*
G36*
X628921Y219972D02*
X625500D01*
Y216551D01*
X626032Y216621D01*
X626993Y217020D01*
X627819Y217653D01*
X628453Y218479D01*
X628851Y219441D01*
X628921Y219972D01*
D02*
G37*
G36*
X618921D02*
X615500D01*
Y216551D01*
X616032Y216621D01*
X616993Y217020D01*
X617819Y217653D01*
X618453Y218479D01*
X618851Y219441D01*
X618921Y219972D01*
D02*
G37*
G36*
X378921D02*
X375500D01*
Y216551D01*
X376032Y216621D01*
X376993Y217020D01*
X377819Y217653D01*
X378453Y218479D01*
X378851Y219441D01*
X378921Y219972D01*
D02*
G37*
G36*
X624500D02*
X621079D01*
X621149Y219441D01*
X621547Y218479D01*
X622181Y217653D01*
X623007Y217020D01*
X623968Y216621D01*
X624500Y216551D01*
Y219972D01*
D02*
G37*
G36*
X614500D02*
X611079D01*
X611149Y219441D01*
X611547Y218479D01*
X612181Y217653D01*
X613007Y217020D01*
X613968Y216621D01*
X614500Y216551D01*
Y219972D01*
D02*
G37*
G36*
X374500D02*
X371079D01*
X371149Y219441D01*
X371547Y218479D01*
X372181Y217653D01*
X373007Y217020D01*
X373968Y216621D01*
X374500Y216551D01*
Y219972D01*
D02*
G37*
G36*
X120972Y216609D02*
Y215067D01*
X122514D01*
X122451Y215386D01*
X121986Y216081D01*
X121292Y216545D01*
X120972Y216609D01*
D02*
G37*
G36*
X119972D02*
X119653Y216545D01*
X118958Y216081D01*
X118494Y215386D01*
X118431Y215067D01*
X119972D01*
Y216609D01*
D02*
G37*
G36*
X307214Y240761D02*
X300109D01*
Y233656D01*
X302548D01*
Y231288D01*
X296389Y225129D01*
X285039D01*
X284613Y225044D01*
X284252Y224803D01*
X284252Y224803D01*
X273948Y214499D01*
X217443D01*
X217368Y214611D01*
X216806Y214987D01*
X216142Y215119D01*
X216010Y215092D01*
X214567Y216535D01*
X214206Y216777D01*
X213780Y216862D01*
X205906D01*
X205479Y216777D01*
X205118Y216535D01*
X204263Y215680D01*
X129254D01*
X129179Y215792D01*
X128617Y216168D01*
X127953Y216300D01*
X127290Y216168D01*
X126728Y215792D01*
X126352Y215230D01*
X126220Y214567D01*
X126352Y213903D01*
X126728Y213341D01*
X127290Y212965D01*
X127953Y212833D01*
X128617Y212965D01*
X129179Y213341D01*
X129254Y213453D01*
X204724D01*
X205150Y213538D01*
X205511Y213779D01*
X206186Y214453D01*
X206492Y214418D01*
X206743Y213900D01*
X206683Y213811D01*
X206620Y213492D01*
X210703D01*
X210640Y213811D01*
X210424Y214135D01*
X210691Y214634D01*
X213319D01*
X214435Y213518D01*
X214409Y213386D01*
X214541Y212722D01*
X214917Y212160D01*
X215479Y211784D01*
X216142Y211652D01*
X216806Y211784D01*
X217368Y212160D01*
X217443Y212272D01*
X274409D01*
X274835Y212357D01*
X275197Y212598D01*
X285501Y222902D01*
X296850D01*
X297276Y222987D01*
X297638Y223228D01*
X304449Y230039D01*
X304690Y230401D01*
X304775Y230827D01*
X304775Y230827D01*
Y233656D01*
X307214D01*
Y240761D01*
D02*
G37*
G36*
X122514Y214067D02*
X120972D01*
Y212525D01*
X121292Y212589D01*
X121986Y213053D01*
X122451Y213748D01*
X122514Y214067D01*
D02*
G37*
G36*
X119972D02*
X118431D01*
X118494Y213748D01*
X118958Y213053D01*
X119653Y212589D01*
X119972Y212525D01*
Y214067D01*
D02*
G37*
G36*
X283858Y215907D02*
X283195Y215775D01*
X282633Y215399D01*
X282257Y214837D01*
X282125Y214173D01*
X282257Y213510D01*
X282633Y212948D01*
X283195Y212572D01*
X283858Y212440D01*
X284522Y212572D01*
X285084Y212948D01*
X285460Y213510D01*
X285592Y214173D01*
X285460Y214837D01*
X285084Y215399D01*
X284522Y215775D01*
X283858Y215907D01*
D02*
G37*
G36*
X293661Y215907D02*
X292998Y215775D01*
X292436Y215399D01*
X292060Y214837D01*
X291928Y214173D01*
X292060Y213510D01*
X292436Y212948D01*
X292998Y212572D01*
X293661Y212440D01*
X294325Y212572D01*
X294887Y212948D01*
X295263Y213510D01*
X295395Y214173D01*
X295263Y214837D01*
X294887Y215399D01*
X294325Y215775D01*
X293661Y215907D01*
D02*
G37*
G36*
X375000Y214056D02*
X374073Y213934D01*
X373208Y213576D01*
X372466Y213006D01*
X371897Y212264D01*
X371539Y211400D01*
X371537Y211390D01*
X280172D01*
X279966Y211698D01*
X279403Y212074D01*
X278740Y212206D01*
X278077Y212074D01*
X277515Y211698D01*
X277139Y211136D01*
X277007Y210472D01*
X277139Y209809D01*
X277515Y209247D01*
X278077Y208871D01*
X278740Y208739D01*
X279403Y208871D01*
X279966Y209247D01*
X280172Y209555D01*
X371537D01*
X371539Y209545D01*
X371897Y208681D01*
X372466Y207939D01*
X373208Y207369D01*
X374073Y207011D01*
X375000Y206889D01*
X375927Y207011D01*
X376792Y207369D01*
X377534Y207939D01*
X378103Y208681D01*
X378461Y209545D01*
X378583Y210472D01*
X378461Y211400D01*
X378103Y212264D01*
X377534Y213006D01*
X376792Y213576D01*
X375927Y213934D01*
X375000Y214056D01*
D02*
G37*
G36*
X210703Y212492D02*
X209161D01*
Y210950D01*
X209481Y211014D01*
X210175Y211478D01*
X210640Y212173D01*
X210703Y212492D01*
D02*
G37*
G36*
X208161D02*
X206620D01*
X206683Y212173D01*
X207147Y211478D01*
X207842Y211014D01*
X208161Y210950D01*
Y212492D01*
D02*
G37*
G36*
X408661Y212364D02*
X407998Y212232D01*
X407435Y211856D01*
X407059Y211294D01*
X406927Y210631D01*
X407059Y209967D01*
X407435Y209405D01*
X407998Y209029D01*
X408661Y208897D01*
X409324Y209029D01*
X409886Y209405D01*
X410262Y209967D01*
X410394Y210631D01*
X410262Y211294D01*
X409886Y211856D01*
X409324Y212232D01*
X408661Y212364D01*
D02*
G37*
G36*
X625000Y214056D02*
X624073Y213934D01*
X623208Y213576D01*
X622466Y213006D01*
X621897Y212264D01*
X621539Y211400D01*
X621417Y210472D01*
X621539Y209545D01*
X621897Y208681D01*
X622466Y207939D01*
X623208Y207369D01*
X624073Y207011D01*
X625000Y206889D01*
X625927Y207011D01*
X626792Y207369D01*
X627534Y207939D01*
X628103Y208681D01*
X628461Y209545D01*
X628583Y210472D01*
X628461Y211400D01*
X628103Y212264D01*
X627534Y213006D01*
X626792Y213576D01*
X625927Y213934D01*
X625000Y214056D01*
D02*
G37*
G36*
X615000D02*
X614073Y213934D01*
X613208Y213576D01*
X612466Y213006D01*
X611897Y212264D01*
X611539Y211400D01*
X611417Y210472D01*
X611539Y209545D01*
X611897Y208681D01*
X612466Y207939D01*
X613208Y207369D01*
X614073Y207011D01*
X615000Y206889D01*
X615928Y207011D01*
X616792Y207369D01*
X617534Y207939D01*
X618103Y208681D01*
X618461Y209545D01*
X618583Y210472D01*
X618461Y211400D01*
X618103Y212264D01*
X617534Y213006D01*
X616792Y213576D01*
X615928Y213934D01*
X615000Y214056D01*
D02*
G37*
G36*
X385000D02*
X384073Y213934D01*
X383208Y213576D01*
X382466Y213006D01*
X381897Y212264D01*
X381539Y211400D01*
X381417Y210472D01*
X381539Y209545D01*
X381897Y208681D01*
X382466Y207939D01*
X383208Y207369D01*
X384073Y207011D01*
X385000Y206889D01*
X385927Y207011D01*
X386792Y207369D01*
X387534Y207939D01*
X388103Y208681D01*
X388461Y209545D01*
X388583Y210472D01*
X388461Y211400D01*
X388103Y212264D01*
X387534Y213006D01*
X386792Y213576D01*
X385927Y213934D01*
X385000Y214056D01*
D02*
G37*
G36*
X662705Y208341D02*
Y206799D01*
X664246D01*
X664183Y207119D01*
X663719Y207813D01*
X663024Y208277D01*
X662705Y208341D01*
D02*
G37*
G36*
X661705D02*
X661385Y208277D01*
X660691Y207813D01*
X660227Y207119D01*
X660163Y206799D01*
X661705D01*
Y208341D01*
D02*
G37*
G36*
X655224D02*
Y206799D01*
X656766D01*
X656703Y207119D01*
X656238Y207813D01*
X655544Y208277D01*
X655224Y208341D01*
D02*
G37*
G36*
X654224D02*
X653905Y208277D01*
X653210Y207813D01*
X652746Y207119D01*
X652683Y206799D01*
X654224D01*
Y208341D01*
D02*
G37*
G36*
X664246Y205799D02*
X662705D01*
Y204257D01*
X663024Y204321D01*
X663719Y204785D01*
X664183Y205480D01*
X664246Y205799D01*
D02*
G37*
G36*
X661705D02*
X660163D01*
X660227Y205480D01*
X660691Y204785D01*
X661385Y204321D01*
X661705Y204257D01*
Y205799D01*
D02*
G37*
G36*
X656766D02*
X655224D01*
Y204257D01*
X655544Y204321D01*
X656238Y204785D01*
X656703Y205480D01*
X656766Y205799D01*
D02*
G37*
G36*
X654224D02*
X652683D01*
X652746Y205480D01*
X653210Y204785D01*
X653905Y204321D01*
X654224Y204257D01*
Y205799D01*
D02*
G37*
G36*
X596457Y206459D02*
X595793Y206327D01*
X595231Y205951D01*
X594855Y205389D01*
X594723Y204725D01*
X594855Y204062D01*
X595231Y203500D01*
X595793Y203124D01*
X596457Y202992D01*
X597120Y203124D01*
X597682Y203500D01*
X598058Y204062D01*
X598190Y204725D01*
X598058Y205389D01*
X597682Y205951D01*
X597120Y206327D01*
X596457Y206459D01*
D02*
G37*
G36*
X603938Y206458D02*
X603274Y206326D01*
X602712Y205951D01*
X602336Y205388D01*
X602204Y204725D01*
X602336Y204062D01*
X602712Y203499D01*
X603274Y203124D01*
X603938Y202992D01*
X604601Y203124D01*
X605163Y203499D01*
X605539Y204062D01*
X605671Y204725D01*
X605539Y205388D01*
X605163Y205951D01*
X604601Y206326D01*
X603938Y206458D01*
D02*
G37*
G36*
X648425Y203308D02*
X647762Y203176D01*
X647200Y202800D01*
X646824Y202238D01*
X646692Y201575D01*
X646824Y200911D01*
X647200Y200349D01*
X647762Y199973D01*
X648425Y199841D01*
X649088Y199973D01*
X649651Y200349D01*
X650027Y200911D01*
X650159Y201575D01*
X650027Y202238D01*
X649651Y202800D01*
X649088Y203176D01*
X648425Y203308D01*
D02*
G37*
G36*
X408661Y202206D02*
X407998Y202074D01*
X407435Y201699D01*
X407059Y201136D01*
X406927Y200473D01*
X407059Y199810D01*
X407435Y199248D01*
X407998Y198872D01*
X408661Y198740D01*
X409324Y198872D01*
X409886Y199248D01*
X410262Y199810D01*
X410394Y200473D01*
X410262Y201136D01*
X409886Y201699D01*
X409324Y202074D01*
X408661Y202206D01*
D02*
G37*
G36*
X179241Y198498D02*
Y196957D01*
X180782D01*
X180719Y197276D01*
X180255Y197971D01*
X179560Y198435D01*
X179241Y198498D01*
D02*
G37*
G36*
X178241D02*
X177921Y198435D01*
X177227Y197971D01*
X176763Y197276D01*
X176699Y196957D01*
X178241D01*
Y198498D01*
D02*
G37*
G36*
X144595D02*
Y196957D01*
X146137D01*
X146073Y197276D01*
X145609Y197971D01*
X144914Y198435D01*
X144595Y198498D01*
D02*
G37*
G36*
X143595D02*
X143276Y198435D01*
X142581Y197971D01*
X142117Y197276D01*
X142053Y196957D01*
X143595D01*
Y198498D01*
D02*
G37*
G36*
X625000Y204056D02*
X624073Y203934D01*
X623208Y203576D01*
X622466Y203006D01*
X621897Y202264D01*
X621539Y201400D01*
X621417Y200472D01*
X621539Y199545D01*
X621897Y198681D01*
X622466Y197939D01*
X623208Y197369D01*
X624073Y197011D01*
X625000Y196889D01*
X625927Y197011D01*
X626792Y197369D01*
X627534Y197939D01*
X628103Y198681D01*
X628461Y199545D01*
X628583Y200472D01*
X628461Y201400D01*
X628103Y202264D01*
X627534Y203006D01*
X626792Y203576D01*
X625927Y203934D01*
X625000Y204056D01*
D02*
G37*
G36*
X615000D02*
X614073Y203934D01*
X613208Y203576D01*
X612466Y203006D01*
X611897Y202264D01*
X611539Y201400D01*
X611417Y200472D01*
X611539Y199545D01*
X611897Y198681D01*
X612466Y197939D01*
X613208Y197369D01*
X614073Y197011D01*
X615000Y196889D01*
X615928Y197011D01*
X616792Y197369D01*
X617534Y197939D01*
X618103Y198681D01*
X618461Y199545D01*
X618583Y200472D01*
X618461Y201400D01*
X618103Y202264D01*
X617534Y203006D01*
X616792Y203576D01*
X615928Y203934D01*
X615000Y204056D01*
D02*
G37*
G36*
X385000D02*
X384073Y203934D01*
X383208Y203576D01*
X382466Y203006D01*
X381897Y202264D01*
X381539Y201400D01*
X381417Y200472D01*
X381539Y199545D01*
X381897Y198681D01*
X382466Y197939D01*
X383208Y197369D01*
X384073Y197011D01*
X385000Y196889D01*
X385927Y197011D01*
X386792Y197369D01*
X387534Y197939D01*
X388103Y198681D01*
X388461Y199545D01*
X388583Y200472D01*
X388461Y201400D01*
X388103Y202264D01*
X387534Y203006D01*
X386792Y203576D01*
X385927Y203934D01*
X385000Y204056D01*
D02*
G37*
G36*
X375000D02*
X374073Y203934D01*
X373208Y203576D01*
X372466Y203006D01*
X371897Y202264D01*
X371539Y201400D01*
X371417Y200472D01*
X371539Y199545D01*
X371897Y198681D01*
X372466Y197939D01*
X373208Y197369D01*
X374073Y197011D01*
X375000Y196889D01*
X375927Y197011D01*
X376792Y197369D01*
X377534Y197939D01*
X378103Y198681D01*
X378461Y199545D01*
X378583Y200472D01*
X378461Y201400D01*
X378103Y202264D01*
X377534Y203006D01*
X376792Y203576D01*
X375927Y203934D01*
X375000Y204056D01*
D02*
G37*
G36*
X180782Y195957D02*
X179241D01*
Y194415D01*
X179560Y194478D01*
X180255Y194943D01*
X180719Y195637D01*
X180782Y195957D01*
D02*
G37*
G36*
X178241D02*
X176699D01*
X176763Y195637D01*
X177227Y194943D01*
X177921Y194478D01*
X178241Y194415D01*
Y195957D01*
D02*
G37*
G36*
X146137D02*
X144595D01*
Y194415D01*
X144914Y194478D01*
X145609Y194943D01*
X146073Y195637D01*
X146137Y195957D01*
D02*
G37*
G36*
X143595D02*
X142053D01*
X142117Y195637D01*
X142581Y194943D01*
X143276Y194478D01*
X143595Y194415D01*
Y195957D01*
D02*
G37*
G36*
X409160Y194955D02*
Y193413D01*
X410702D01*
X410639Y193733D01*
X410175Y194427D01*
X409480Y194892D01*
X409160Y194955D01*
D02*
G37*
G36*
X408160D02*
X407841Y194892D01*
X407146Y194427D01*
X406682Y193733D01*
X406619Y193413D01*
X408160D01*
Y194955D01*
D02*
G37*
G36*
X410702Y192413D02*
X409160D01*
Y190872D01*
X409480Y190935D01*
X410175Y191399D01*
X410639Y192094D01*
X410702Y192413D01*
D02*
G37*
G36*
X408160D02*
X406619D01*
X406682Y192094D01*
X407146Y191399D01*
X407841Y190935D01*
X408160Y190872D01*
Y192413D01*
D02*
G37*
G36*
X625000Y194056D02*
X624073Y193934D01*
X623208Y193576D01*
X622466Y193006D01*
X621897Y192264D01*
X621539Y191400D01*
X621417Y190472D01*
X621539Y189545D01*
X621897Y188681D01*
X622466Y187939D01*
X623208Y187369D01*
X624073Y187011D01*
X625000Y186889D01*
X625927Y187011D01*
X626792Y187369D01*
X627534Y187939D01*
X628103Y188681D01*
X628461Y189545D01*
X628583Y190472D01*
X628461Y191400D01*
X628103Y192264D01*
X627534Y193006D01*
X626792Y193576D01*
X625927Y193934D01*
X625000Y194056D01*
D02*
G37*
G36*
X615000D02*
X614073Y193934D01*
X613208Y193576D01*
X612466Y193006D01*
X611897Y192264D01*
X611539Y191400D01*
X611417Y190472D01*
X611539Y189545D01*
X611897Y188681D01*
X612466Y187939D01*
X613208Y187369D01*
X614073Y187011D01*
X615000Y186889D01*
X615928Y187011D01*
X616792Y187369D01*
X617534Y187939D01*
X618103Y188681D01*
X618461Y189545D01*
X618583Y190472D01*
X618461Y191400D01*
X618103Y192264D01*
X617534Y193006D01*
X616792Y193576D01*
X615928Y193934D01*
X615000Y194056D01*
D02*
G37*
G36*
X385000D02*
X384073Y193934D01*
X383208Y193576D01*
X382466Y193006D01*
X381897Y192264D01*
X381539Y191400D01*
X381417Y190472D01*
X381539Y189545D01*
X381897Y188681D01*
X382466Y187939D01*
X383208Y187369D01*
X384073Y187011D01*
X385000Y186889D01*
X385927Y187011D01*
X386792Y187369D01*
X387534Y187939D01*
X388103Y188681D01*
X388461Y189545D01*
X388583Y190472D01*
X388461Y191400D01*
X388103Y192264D01*
X387534Y193006D01*
X386792Y193576D01*
X385927Y193934D01*
X385000Y194056D01*
D02*
G37*
G36*
X375000D02*
X374073Y193934D01*
X373208Y193576D01*
X372466Y193006D01*
X371897Y192264D01*
X371539Y191400D01*
X371417Y190472D01*
X371539Y189545D01*
X371897Y188681D01*
X372466Y187939D01*
X373208Y187369D01*
X374073Y187011D01*
X375000Y186889D01*
X375927Y187011D01*
X376792Y187369D01*
X377534Y187939D01*
X378103Y188681D01*
X378461Y189545D01*
X378583Y190472D01*
X378461Y191400D01*
X378103Y192264D01*
X377534Y193006D01*
X376792Y193576D01*
X375927Y193934D01*
X375000Y194056D01*
D02*
G37*
G36*
X267823Y187475D02*
Y185933D01*
X269365D01*
X269301Y186252D01*
X268837Y186947D01*
X268142Y187411D01*
X267823Y187475D01*
D02*
G37*
G36*
X266823D02*
X266504Y187411D01*
X265809Y186947D01*
X265345Y186252D01*
X265281Y185933D01*
X266823D01*
Y187475D01*
D02*
G37*
G36*
X408661Y187167D02*
X407998Y187035D01*
X407435Y186659D01*
X407059Y186097D01*
X406927Y185434D01*
X407059Y184770D01*
X407435Y184208D01*
X407998Y183832D01*
X408661Y183700D01*
X409324Y183832D01*
X409886Y184208D01*
X410262Y184770D01*
X410394Y185434D01*
X410262Y186097D01*
X409886Y186659D01*
X409324Y187035D01*
X408661Y187167D01*
D02*
G37*
G36*
X269365Y184933D02*
X267823D01*
Y183391D01*
X268142Y183455D01*
X268837Y183919D01*
X269301Y184614D01*
X269365Y184933D01*
D02*
G37*
G36*
X266823D02*
X265281D01*
X265345Y184614D01*
X265809Y183919D01*
X266504Y183455D01*
X266823Y183391D01*
Y184933D01*
D02*
G37*
G36*
X717923Y191939D02*
X710817D01*
Y188122D01*
X702363D01*
X701937Y188037D01*
X701576Y187796D01*
X696783Y183003D01*
X672560D01*
X672485Y183115D01*
X671923Y183491D01*
X671260Y183623D01*
X670597Y183491D01*
X670034Y183115D01*
X669659Y182553D01*
X669526Y181890D01*
X669659Y181226D01*
X670034Y180664D01*
X670597Y180288D01*
X671260Y180157D01*
X671923Y180288D01*
X672485Y180664D01*
X672560Y180776D01*
X697244D01*
X697670Y180861D01*
X698032Y181102D01*
X702824Y185895D01*
X710817D01*
Y182078D01*
X717923D01*
Y191939D01*
D02*
G37*
G36*
X723228Y198751D02*
X687008D01*
X686582Y198667D01*
X686221Y198425D01*
X683203Y195408D01*
X683071Y195434D01*
X682408Y195302D01*
X681845Y194926D01*
X681469Y194364D01*
X681338Y193701D01*
X681469Y193037D01*
X681845Y192475D01*
X682408Y192099D01*
X683071Y191967D01*
X683734Y192099D01*
X684297Y192475D01*
X684672Y193037D01*
X684804Y193701D01*
X684778Y193833D01*
X687469Y196524D01*
X722767D01*
X725461Y193830D01*
Y191939D01*
X723022D01*
Y182077D01*
X730127D01*
Y191939D01*
X727688D01*
Y194292D01*
X727688Y194292D01*
X727603Y194718D01*
X727362Y195079D01*
X724016Y198425D01*
X723655Y198667D01*
X723228Y198751D01*
D02*
G37*
G36*
X409160Y179994D02*
Y178453D01*
X410702D01*
X410639Y178772D01*
X410175Y179467D01*
X409480Y179931D01*
X409160Y179994D01*
D02*
G37*
G36*
X408160D02*
X407841Y179931D01*
X407146Y179467D01*
X406682Y178772D01*
X406619Y178453D01*
X408160D01*
Y179994D01*
D02*
G37*
G36*
X625000Y184056D02*
X624073Y183934D01*
X623208Y183576D01*
X622466Y183006D01*
X621897Y182264D01*
X621539Y181400D01*
X621417Y180472D01*
X621539Y179545D01*
X621897Y178681D01*
X622466Y177939D01*
X623208Y177369D01*
X624073Y177011D01*
X625000Y176889D01*
X625927Y177011D01*
X626792Y177369D01*
X627534Y177939D01*
X628103Y178681D01*
X628461Y179545D01*
X628583Y180472D01*
X628461Y181400D01*
X628103Y182264D01*
X627534Y183006D01*
X626792Y183576D01*
X625927Y183934D01*
X625000Y184056D01*
D02*
G37*
G36*
X615000D02*
X614073Y183934D01*
X613208Y183576D01*
X612466Y183006D01*
X611897Y182264D01*
X611539Y181400D01*
X611417Y180472D01*
X611539Y179545D01*
X611897Y178681D01*
X612466Y177939D01*
X613208Y177369D01*
X614073Y177011D01*
X615000Y176889D01*
X615928Y177011D01*
X616792Y177369D01*
X617534Y177939D01*
X618103Y178681D01*
X618461Y179545D01*
X618583Y180472D01*
X618461Y181400D01*
X618103Y182264D01*
X617534Y183006D01*
X616792Y183576D01*
X615928Y183934D01*
X615000Y184056D01*
D02*
G37*
G36*
X385000D02*
X384073Y183934D01*
X383208Y183576D01*
X382466Y183006D01*
X381897Y182264D01*
X381539Y181400D01*
X381417Y180472D01*
X381539Y179545D01*
X381897Y178681D01*
X382466Y177939D01*
X383208Y177369D01*
X384073Y177011D01*
X385000Y176889D01*
X385927Y177011D01*
X386792Y177369D01*
X387534Y177939D01*
X388103Y178681D01*
X388461Y179545D01*
X388583Y180472D01*
X388461Y181400D01*
X388103Y182264D01*
X387534Y183006D01*
X386792Y183576D01*
X385927Y183934D01*
X385000Y184056D01*
D02*
G37*
G36*
X375000D02*
X374073Y183934D01*
X373208Y183576D01*
X372466Y183006D01*
X371897Y182264D01*
X371539Y181400D01*
X371417Y180472D01*
X371539Y179545D01*
X371897Y178681D01*
X372466Y177939D01*
X373208Y177369D01*
X374073Y177011D01*
X375000Y176889D01*
X375927Y177011D01*
X376792Y177369D01*
X377534Y177939D01*
X378103Y178681D01*
X378461Y179545D01*
X378583Y180472D01*
X378461Y181400D01*
X378103Y182264D01*
X377534Y183006D01*
X376792Y183576D01*
X375927Y183934D01*
X375000Y184056D01*
D02*
G37*
G36*
X410702Y177453D02*
X409160D01*
Y175911D01*
X409480Y175975D01*
X410175Y176439D01*
X410639Y177133D01*
X410702Y177453D01*
D02*
G37*
G36*
X408160D02*
X406619D01*
X406682Y177133D01*
X407146Y176439D01*
X407841Y175975D01*
X408160Y175911D01*
Y177453D01*
D02*
G37*
G36*
X683071Y178899D02*
X682408Y178767D01*
X681845Y178391D01*
X681469Y177829D01*
X681338Y177165D01*
X681469Y176502D01*
X681845Y175940D01*
X682408Y175564D01*
X683071Y175432D01*
X683734Y175564D01*
X684297Y175940D01*
X684672Y176502D01*
X684804Y177165D01*
X684672Y177829D01*
X684297Y178391D01*
X683734Y178767D01*
X683071Y178899D01*
D02*
G37*
G36*
X648925Y175270D02*
Y173728D01*
X650467D01*
X650403Y174048D01*
X649939Y174742D01*
X649245Y175206D01*
X648925Y175270D01*
D02*
G37*
G36*
X647925D02*
X647606Y175206D01*
X646911Y174742D01*
X646447Y174048D01*
X646383Y173728D01*
X647925D01*
Y175270D01*
D02*
G37*
G36*
X650467Y172728D02*
X648925D01*
Y171187D01*
X649245Y171250D01*
X649939Y171714D01*
X650403Y172409D01*
X650467Y172728D01*
D02*
G37*
G36*
X647925D02*
X646383D01*
X646447Y172409D01*
X646911Y171714D01*
X647606Y171250D01*
X647925Y171187D01*
Y172728D01*
D02*
G37*
G36*
X385500Y174393D02*
Y170972D01*
X388921D01*
X388851Y171504D01*
X388453Y172466D01*
X387819Y173292D01*
X386993Y173925D01*
X386032Y174323D01*
X385500Y174393D01*
D02*
G37*
G36*
X384500D02*
X383968Y174323D01*
X383007Y173925D01*
X382181Y173292D01*
X381547Y172466D01*
X381149Y171504D01*
X381079Y170972D01*
X384500D01*
Y174393D01*
D02*
G37*
G36*
X625000Y174056D02*
X624073Y173934D01*
X623208Y173576D01*
X622466Y173006D01*
X621897Y172264D01*
X621539Y171400D01*
X621417Y170472D01*
X621539Y169545D01*
X621897Y168681D01*
X622466Y167939D01*
X623208Y167369D01*
X623227Y167362D01*
X623127Y166862D01*
X616873D01*
X616773Y167362D01*
X616792Y167369D01*
X617534Y167939D01*
X618103Y168681D01*
X618461Y169545D01*
X618583Y170472D01*
X618461Y171400D01*
X618103Y172264D01*
X617534Y173006D01*
X616792Y173576D01*
X615928Y173934D01*
X615000Y174056D01*
X614073Y173934D01*
X613208Y173576D01*
X612466Y173006D01*
X611897Y172264D01*
X611539Y171400D01*
X611417Y170472D01*
X611539Y169545D01*
X611897Y168681D01*
X612466Y167939D01*
X613208Y167369D01*
X613227Y167362D01*
X613127Y166862D01*
X387609Y166861D01*
X387439Y167361D01*
X387819Y167653D01*
X388453Y168479D01*
X388851Y169441D01*
X388921Y169972D01*
X385000D01*
X381079D01*
X381149Y169441D01*
X381547Y168479D01*
X382181Y167653D01*
X382561Y167361D01*
X382391Y166861D01*
X376873D01*
X376773Y167361D01*
X376792Y167369D01*
X377534Y167939D01*
X378103Y168681D01*
X378461Y169545D01*
X378583Y170472D01*
X378461Y171400D01*
X378103Y172264D01*
X377534Y173006D01*
X376792Y173576D01*
X375927Y173934D01*
X375000Y174056D01*
X374073Y173934D01*
X373208Y173576D01*
X372466Y173006D01*
X371897Y172264D01*
X371539Y171400D01*
X371417Y170472D01*
X371539Y169545D01*
X371897Y168681D01*
X372466Y167939D01*
X373208Y167369D01*
X373227Y167361D01*
X373127Y166861D01*
X197363Y166861D01*
X197289Y166974D01*
X196726Y167349D01*
X196063Y167481D01*
X195400Y167349D01*
X194837Y166974D01*
X194462Y166411D01*
X194330Y165748D01*
X194462Y165085D01*
X194837Y164522D01*
X195400Y164147D01*
X196063Y164015D01*
X196726Y164147D01*
X197289Y164522D01*
X197363Y164635D01*
X613413Y164635D01*
X613512Y164135D01*
X613007Y163925D01*
X612181Y163292D01*
X611547Y162466D01*
X611149Y161504D01*
X611079Y160972D01*
X615000D01*
X618921D01*
X618851Y161504D01*
X618453Y162466D01*
X617819Y163292D01*
X616993Y163925D01*
X616488Y164135D01*
X616587Y164635D01*
X631890D01*
X632316Y164719D01*
X632677Y164961D01*
X633926Y166210D01*
X710817D01*
Y162393D01*
X717923D01*
Y172254D01*
X710817D01*
Y168437D01*
X633465D01*
X633039Y168352D01*
X632678Y168111D01*
X631428Y166862D01*
X626873D01*
X626773Y167362D01*
X626792Y167369D01*
X627534Y167939D01*
X628103Y168681D01*
X628461Y169545D01*
X628583Y170472D01*
X628461Y171400D01*
X628103Y172264D01*
X627534Y173006D01*
X626792Y173576D01*
X625927Y173934D01*
X625000Y174056D01*
D02*
G37*
G36*
X730127Y172254D02*
X723022D01*
Y162392D01*
X725461D01*
Y159319D01*
X723161Y157019D01*
X687469D01*
X684778Y159710D01*
X684804Y159843D01*
X684672Y160506D01*
X684297Y161068D01*
X683734Y161444D01*
X683071Y161576D01*
X682408Y161444D01*
X681845Y161068D01*
X681469Y160506D01*
X681338Y159843D01*
X681469Y159179D01*
X681845Y158617D01*
X682408Y158241D01*
X683071Y158109D01*
X683203Y158135D01*
X686221Y155118D01*
X686582Y154877D01*
X687008Y154792D01*
X723622D01*
X724048Y154877D01*
X724409Y155118D01*
X727362Y158071D01*
X727603Y158432D01*
X727688Y158858D01*
Y162392D01*
X730127D01*
Y172254D01*
D02*
G37*
G36*
X625000Y164056D02*
X624073Y163934D01*
X623208Y163576D01*
X622466Y163006D01*
X621897Y162264D01*
X621539Y161400D01*
X621417Y160472D01*
X621539Y159545D01*
X621897Y158681D01*
X622466Y157939D01*
X623208Y157369D01*
X624073Y157011D01*
X625000Y156889D01*
X625927Y157011D01*
X626792Y157369D01*
X627534Y157939D01*
X628103Y158681D01*
X628461Y159545D01*
X628583Y160472D01*
X628461Y161400D01*
X628103Y162264D01*
X627534Y163006D01*
X626792Y163576D01*
X625927Y163934D01*
X625000Y164056D01*
D02*
G37*
G36*
X385000D02*
X384073Y163934D01*
X383208Y163576D01*
X382466Y163006D01*
X381897Y162264D01*
X381539Y161400D01*
X381417Y160472D01*
X381539Y159545D01*
X381897Y158681D01*
X382466Y157939D01*
X383208Y157369D01*
X384073Y157011D01*
X385000Y156889D01*
X385927Y157011D01*
X386792Y157369D01*
X387534Y157939D01*
X388103Y158681D01*
X388461Y159545D01*
X388583Y160472D01*
X388461Y161400D01*
X388103Y162264D01*
X387534Y163006D01*
X386792Y163576D01*
X385927Y163934D01*
X385000Y164056D01*
D02*
G37*
G36*
X375000D02*
X374073Y163934D01*
X373208Y163576D01*
X372466Y163006D01*
X371897Y162264D01*
X371539Y161400D01*
X371417Y160472D01*
X371539Y159545D01*
X371897Y158681D01*
X372466Y157939D01*
X373208Y157369D01*
X374073Y157011D01*
X375000Y156889D01*
X375927Y157011D01*
X376792Y157369D01*
X377534Y157939D01*
X378103Y158681D01*
X378461Y159545D01*
X378583Y160472D01*
X378461Y161400D01*
X378103Y162264D01*
X377534Y163006D01*
X376792Y163576D01*
X375927Y163934D01*
X375000Y164056D01*
D02*
G37*
G36*
X618921Y159972D02*
X615500D01*
Y156551D01*
X616032Y156621D01*
X616993Y157020D01*
X617819Y157653D01*
X618453Y158479D01*
X618851Y159441D01*
X618921Y159972D01*
D02*
G37*
G36*
X614500D02*
X611079D01*
X611149Y159441D01*
X611547Y158479D01*
X612181Y157653D01*
X613007Y157020D01*
X613968Y156621D01*
X614500Y156551D01*
Y159972D01*
D02*
G37*
G36*
X408661Y152128D02*
X407998Y151996D01*
X407435Y151620D01*
X407059Y151058D01*
X406927Y150394D01*
X407059Y149731D01*
X407435Y149169D01*
X407998Y148793D01*
X408661Y148661D01*
X409324Y148793D01*
X409886Y149169D01*
X410262Y149731D01*
X410394Y150394D01*
X410262Y151058D01*
X409886Y151620D01*
X409324Y151996D01*
X408661Y152128D01*
D02*
G37*
G36*
X625000Y154056D02*
X624073Y153934D01*
X623208Y153576D01*
X622466Y153006D01*
X621897Y152264D01*
X621539Y151400D01*
X621417Y150472D01*
X621539Y149545D01*
X621897Y148681D01*
X622466Y147939D01*
X623208Y147369D01*
X624073Y147011D01*
X625000Y146889D01*
X625927Y147011D01*
X626792Y147369D01*
X627534Y147939D01*
X628103Y148681D01*
X628461Y149545D01*
X628583Y150472D01*
X628461Y151400D01*
X628103Y152264D01*
X627534Y153006D01*
X626792Y153576D01*
X625927Y153934D01*
X625000Y154056D01*
D02*
G37*
G36*
X615000D02*
X614073Y153934D01*
X613208Y153576D01*
X612466Y153006D01*
X611897Y152264D01*
X611539Y151400D01*
X611417Y150472D01*
X611539Y149545D01*
X611897Y148681D01*
X612466Y147939D01*
X613208Y147369D01*
X614073Y147011D01*
X615000Y146889D01*
X615928Y147011D01*
X616792Y147369D01*
X617534Y147939D01*
X618103Y148681D01*
X618461Y149545D01*
X618583Y150472D01*
X618461Y151400D01*
X618103Y152264D01*
X617534Y153006D01*
X616792Y153576D01*
X615928Y153934D01*
X615000Y154056D01*
D02*
G37*
G36*
X385000D02*
X384073Y153934D01*
X383208Y153576D01*
X382466Y153006D01*
X381897Y152264D01*
X381539Y151400D01*
X381417Y150472D01*
X381539Y149545D01*
X381897Y148681D01*
X382466Y147939D01*
X383208Y147369D01*
X384073Y147011D01*
X385000Y146889D01*
X385927Y147011D01*
X386792Y147369D01*
X387534Y147939D01*
X388103Y148681D01*
X388461Y149545D01*
X388583Y150472D01*
X388461Y151400D01*
X388103Y152264D01*
X387534Y153006D01*
X386792Y153576D01*
X385927Y153934D01*
X385000Y154056D01*
D02*
G37*
G36*
X375000D02*
X374073Y153934D01*
X373208Y153576D01*
X372466Y153006D01*
X371897Y152264D01*
X371539Y151400D01*
X371417Y150472D01*
X371539Y149545D01*
X371897Y148681D01*
X372466Y147939D01*
X373208Y147369D01*
X374073Y147011D01*
X375000Y146889D01*
X375927Y147011D01*
X376792Y147369D01*
X377534Y147939D01*
X378103Y148681D01*
X378461Y149545D01*
X378583Y150472D01*
X378461Y151400D01*
X378103Y152264D01*
X377534Y153006D01*
X376792Y153576D01*
X375927Y153934D01*
X375000Y154056D01*
D02*
G37*
G36*
X408661Y141891D02*
X407998Y141759D01*
X407435Y141383D01*
X407059Y140821D01*
X406927Y140157D01*
X407059Y139494D01*
X407435Y138932D01*
X407998Y138556D01*
X408661Y138424D01*
X409324Y138556D01*
X409886Y138932D01*
X410262Y139494D01*
X410394Y140157D01*
X410262Y140821D01*
X409886Y141383D01*
X409324Y141759D01*
X408661Y141891D01*
D02*
G37*
G36*
X625000Y144056D02*
X624073Y143934D01*
X623208Y143576D01*
X622466Y143006D01*
X621897Y142264D01*
X621539Y141400D01*
X621417Y140472D01*
X621539Y139545D01*
X621897Y138681D01*
X622466Y137939D01*
X623208Y137369D01*
X624073Y137011D01*
X625000Y136889D01*
X625927Y137011D01*
X626792Y137369D01*
X627534Y137939D01*
X628103Y138681D01*
X628461Y139545D01*
X628583Y140472D01*
X628461Y141400D01*
X628103Y142264D01*
X627534Y143006D01*
X626792Y143576D01*
X625927Y143934D01*
X625000Y144056D01*
D02*
G37*
G36*
X615000D02*
X614073Y143934D01*
X613208Y143576D01*
X612466Y143006D01*
X611897Y142264D01*
X611539Y141400D01*
X611417Y140472D01*
X611539Y139545D01*
X611897Y138681D01*
X612466Y137939D01*
X613208Y137369D01*
X614073Y137011D01*
X615000Y136889D01*
X615928Y137011D01*
X616792Y137369D01*
X617534Y137939D01*
X618103Y138681D01*
X618461Y139545D01*
X618583Y140472D01*
X618461Y141400D01*
X618103Y142264D01*
X617534Y143006D01*
X616792Y143576D01*
X615928Y143934D01*
X615000Y144056D01*
D02*
G37*
G36*
X385000D02*
X384073Y143934D01*
X383208Y143576D01*
X382466Y143006D01*
X381897Y142264D01*
X381539Y141400D01*
X381417Y140472D01*
X381539Y139545D01*
X381897Y138681D01*
X382466Y137939D01*
X383208Y137369D01*
X384073Y137011D01*
X385000Y136889D01*
X385927Y137011D01*
X386792Y137369D01*
X387534Y137939D01*
X388103Y138681D01*
X388461Y139545D01*
X388583Y140472D01*
X388461Y141400D01*
X388103Y142264D01*
X387534Y143006D01*
X386792Y143576D01*
X385927Y143934D01*
X385000Y144056D01*
D02*
G37*
G36*
X375000D02*
X374073Y143934D01*
X373208Y143576D01*
X372466Y143006D01*
X371897Y142264D01*
X371539Y141400D01*
X371417Y140472D01*
X371539Y139545D01*
X371897Y138681D01*
X372466Y137939D01*
X373208Y137369D01*
X374073Y137011D01*
X375000Y136889D01*
X375927Y137011D01*
X376792Y137369D01*
X377534Y137939D01*
X378103Y138681D01*
X378461Y139545D01*
X378583Y140472D01*
X378461Y141400D01*
X378103Y142264D01*
X377534Y143006D01*
X376792Y143576D01*
X375927Y143934D01*
X375000Y144056D01*
D02*
G37*
G36*
X725197Y136378D02*
X724534Y136246D01*
X723971Y135871D01*
X723596Y135308D01*
X723464Y134645D01*
X723596Y133982D01*
X723971Y133419D01*
X724534Y133044D01*
X725197Y132912D01*
X725860Y133044D01*
X726423Y133419D01*
X726798Y133982D01*
X726930Y134645D01*
X726798Y135308D01*
X726423Y135871D01*
X725860Y136246D01*
X725197Y136378D01*
D02*
G37*
G36*
X715067Y132356D02*
Y130814D01*
X716608D01*
X716545Y131134D01*
X716081Y131828D01*
X715386Y132292D01*
X715067Y132356D01*
D02*
G37*
G36*
X714067D02*
X713747Y132292D01*
X713053Y131828D01*
X712588Y131134D01*
X712525Y130814D01*
X714067D01*
Y132356D01*
D02*
G37*
G36*
X716608Y129814D02*
X715067D01*
Y128273D01*
X715386Y128336D01*
X716081Y128800D01*
X716545Y129495D01*
X716608Y129814D01*
D02*
G37*
G36*
X714067D02*
X712525D01*
X712588Y129495D01*
X713053Y128800D01*
X713747Y128336D01*
X714067Y128273D01*
Y129814D01*
D02*
G37*
G36*
X628553Y134025D02*
X621447D01*
Y126920D01*
X628553D01*
Y134025D01*
D02*
G37*
G36*
X388553D02*
X381447D01*
Y126920D01*
X388553D01*
Y134025D01*
D02*
G37*
G36*
X615000Y134056D02*
X614073Y133934D01*
X613208Y133576D01*
X612466Y133006D01*
X611897Y132264D01*
X611539Y131400D01*
X611417Y130472D01*
X611539Y129545D01*
X611897Y128681D01*
X612466Y127939D01*
X613208Y127369D01*
X614073Y127011D01*
X615000Y126889D01*
X615928Y127011D01*
X616792Y127369D01*
X617534Y127939D01*
X618103Y128681D01*
X618461Y129545D01*
X618583Y130472D01*
X618461Y131400D01*
X618103Y132264D01*
X617534Y133006D01*
X616792Y133576D01*
X615928Y133934D01*
X615000Y134056D01*
D02*
G37*
G36*
X375000D02*
X374073Y133934D01*
X373208Y133576D01*
X372466Y133006D01*
X371897Y132264D01*
X371539Y131400D01*
X371417Y130472D01*
X371539Y129545D01*
X371897Y128681D01*
X372466Y127939D01*
X373208Y127369D01*
X374073Y127011D01*
X375000Y126889D01*
X375927Y127011D01*
X376792Y127369D01*
X377534Y127939D01*
X378103Y128681D01*
X378461Y129545D01*
X378583Y130472D01*
X378461Y131400D01*
X378103Y132264D01*
X377534Y133006D01*
X376792Y133576D01*
X375927Y133934D01*
X375000Y134056D01*
D02*
G37*
G36*
X647638Y119844D02*
X646975Y119712D01*
X646413Y119336D01*
X646037Y118774D01*
X645905Y118110D01*
X646037Y117447D01*
X646413Y116885D01*
X646975Y116509D01*
X647638Y116377D01*
X648302Y116509D01*
X648864Y116885D01*
X649240Y117447D01*
X649372Y118110D01*
X649240Y118774D01*
X648864Y119336D01*
X648302Y119712D01*
X647638Y119844D01*
D02*
G37*
G36*
X405000Y130947D02*
X403361Y130818D01*
X401763Y130435D01*
X400245Y129806D01*
X398843Y128947D01*
X397593Y127879D01*
X396526Y126629D01*
X395667Y125228D01*
X395038Y123709D01*
X394654Y122111D01*
X394525Y120472D01*
X394654Y118834D01*
X395038Y117236D01*
X395667Y115717D01*
X396526Y114315D01*
X397593Y113066D01*
X398843Y111998D01*
X400245Y111139D01*
X401763Y110510D01*
X403361Y110127D01*
X405000Y109998D01*
X406639Y110127D01*
X408237Y110510D01*
X409756Y111139D01*
X411157Y111998D01*
X412407Y113066D01*
X413474Y114315D01*
X414333Y115717D01*
X414962Y117236D01*
X415346Y118834D01*
X415475Y120472D01*
X415346Y122111D01*
X414962Y123709D01*
X414333Y125228D01*
X413474Y126629D01*
X412407Y127879D01*
X411157Y128947D01*
X409756Y129806D01*
X408237Y130435D01*
X406639Y130818D01*
X405000Y130947D01*
D02*
G37*
G36*
X576500Y125947D02*
X574861Y125818D01*
X573263Y125435D01*
X571744Y124806D01*
X570343Y123947D01*
X569093Y122879D01*
X568026Y121629D01*
X567167Y120228D01*
X566538Y118709D01*
X566154Y117111D01*
X566025Y115472D01*
X566154Y113834D01*
X566538Y112235D01*
X567167Y110717D01*
X568026Y109316D01*
X569093Y108066D01*
X570343Y106998D01*
X571744Y106139D01*
X573263Y105510D01*
X574861Y105127D01*
X576500Y104998D01*
X578139Y105127D01*
X579737Y105510D01*
X581255Y106139D01*
X582657Y106998D01*
X583907Y108066D01*
X584974Y109316D01*
X585833Y110717D01*
X586462Y112235D01*
X586846Y113834D01*
X586975Y115472D01*
X586846Y117111D01*
X586462Y118709D01*
X585833Y120228D01*
X584974Y121629D01*
X583907Y122879D01*
X582657Y123947D01*
X581255Y124806D01*
X579737Y125435D01*
X578139Y125818D01*
X576500Y125947D01*
D02*
G37*
G36*
X648138Y91805D02*
Y90264D01*
X649680D01*
X649616Y90583D01*
X649152Y91278D01*
X648457Y91742D01*
X648138Y91805D01*
D02*
G37*
G36*
X647138D02*
X646818Y91742D01*
X646124Y91278D01*
X645660Y90583D01*
X645596Y90264D01*
X647138D01*
Y91805D01*
D02*
G37*
G36*
X649680Y89264D02*
X648138D01*
Y87722D01*
X648457Y87786D01*
X649152Y88250D01*
X649616Y88944D01*
X649680Y89264D01*
D02*
G37*
G36*
X647138D02*
X645596D01*
X645660Y88944D01*
X646124Y88250D01*
X646818Y87786D01*
X647138Y87722D01*
Y89264D01*
D02*
G37*
G36*
X670472Y100159D02*
X669809Y100027D01*
X669247Y99651D01*
X668871Y99089D01*
X668739Y98425D01*
X668871Y97762D01*
X669247Y97200D01*
X669359Y97125D01*
Y94488D01*
X669444Y94062D01*
X669685Y93701D01*
X675590Y87796D01*
X675951Y87555D01*
X676377Y87470D01*
X676377Y87470D01*
X710817D01*
Y83653D01*
X717923D01*
Y93514D01*
X710817D01*
Y89697D01*
X676839D01*
X671586Y94949D01*
Y97125D01*
X671698Y97200D01*
X672074Y97762D01*
X672206Y98425D01*
X672074Y99089D01*
X671698Y99651D01*
X671136Y100027D01*
X670472Y100159D01*
D02*
G37*
G36*
X686614Y100720D02*
X686188Y100635D01*
X685827Y100394D01*
X683203Y97770D01*
X683071Y97796D01*
X682408Y97664D01*
X681845Y97289D01*
X681469Y96726D01*
X681338Y96063D01*
X681469Y95400D01*
X681845Y94837D01*
X682408Y94462D01*
X683071Y94330D01*
X683734Y94462D01*
X684297Y94837D01*
X684672Y95400D01*
X684804Y96063D01*
X684778Y96195D01*
X687075Y98493D01*
X723161D01*
X725461Y96193D01*
Y93513D01*
X723022D01*
Y83652D01*
X730127D01*
Y93513D01*
X727688D01*
Y96654D01*
X727688Y96654D01*
X727603Y97080D01*
X727362Y97441D01*
X724409Y100394D01*
X724048Y100635D01*
X723622Y100720D01*
X686614D01*
X686614Y100720D01*
D02*
G37*
G36*
X683071Y80080D02*
X682408Y79948D01*
X681845Y79572D01*
X681469Y79010D01*
X681338Y78347D01*
X681469Y77683D01*
X681845Y77121D01*
X682408Y76745D01*
X683071Y76613D01*
X683734Y76745D01*
X684297Y77121D01*
X684672Y77683D01*
X684804Y78347D01*
X684672Y79010D01*
X684297Y79572D01*
X683734Y79948D01*
X683071Y80080D01*
D02*
G37*
G36*
X717923Y73829D02*
X710817D01*
Y70012D01*
X286340D01*
X286266Y70124D01*
X285703Y70500D01*
X285040Y70632D01*
X284377Y70500D01*
X283814Y70124D01*
X283439Y69562D01*
X283307Y68898D01*
X283439Y68235D01*
X283814Y67673D01*
X284377Y67297D01*
X285040Y67165D01*
X285703Y67297D01*
X286266Y67673D01*
X286340Y67785D01*
X710817D01*
Y63968D01*
X717923D01*
Y73829D01*
D02*
G37*
G36*
X730127Y73828D02*
X723022D01*
Y63967D01*
X725461D01*
Y61681D01*
X722373Y58594D01*
X685501D01*
X684405Y59690D01*
X684297Y60192D01*
X684672Y60754D01*
X684804Y61417D01*
X684672Y62081D01*
X684297Y62643D01*
X683734Y63019D01*
X683071Y63151D01*
X682408Y63019D01*
X681845Y62643D01*
X681469Y62081D01*
X681338Y61417D01*
X681469Y60754D01*
X681845Y60192D01*
X681957Y60117D01*
Y59449D01*
X682042Y59023D01*
X682283Y58661D01*
X684252Y56693D01*
X684613Y56451D01*
X685039Y56367D01*
X722835D01*
X723261Y56451D01*
X723622Y56693D01*
X727362Y60433D01*
X727603Y60794D01*
X727688Y61220D01*
Y63967D01*
X730127D01*
Y73828D01*
D02*
G37*
G36*
X322835Y57316D02*
X321270Y57162D01*
X319765Y56705D01*
X318379Y55964D01*
X317163Y54967D01*
X316166Y53751D01*
X315425Y52365D01*
X314968Y50860D01*
X314814Y49295D01*
X314968Y47731D01*
X315425Y46226D01*
X316166Y44839D01*
X317163Y43624D01*
X318379Y42627D01*
X319765Y41885D01*
X321270Y41429D01*
X322835Y41275D01*
X324399Y41429D01*
X325904Y41885D01*
X327291Y42627D01*
X328506Y43624D01*
X329503Y44839D01*
X330245Y46226D01*
X330701Y47731D01*
X330855Y49295D01*
X330701Y50860D01*
X330245Y52365D01*
X329503Y53751D01*
X328506Y54967D01*
X327291Y55964D01*
X325904Y56705D01*
X324399Y57162D01*
X322835Y57316D01*
D02*
G37*
G36*
X94488D02*
X92923Y57162D01*
X91419Y56705D01*
X90032Y55964D01*
X88817Y54967D01*
X87819Y53751D01*
X87078Y52365D01*
X86622Y50860D01*
X86468Y49295D01*
X86622Y47731D01*
X87078Y46226D01*
X87819Y44839D01*
X88817Y43624D01*
X90032Y42627D01*
X91419Y41885D01*
X92923Y41429D01*
X94488Y41275D01*
X96053Y41429D01*
X97557Y41885D01*
X98944Y42627D01*
X100160Y43624D01*
X101157Y44839D01*
X101898Y46226D01*
X102355Y47731D01*
X102509Y49295D01*
X102355Y50860D01*
X101898Y52365D01*
X101157Y53751D01*
X100160Y54967D01*
X98944Y55964D01*
X97557Y56705D01*
X96053Y57162D01*
X94488Y57316D01*
D02*
G37*
G36*
X442970Y49377D02*
X406713D01*
X406253Y49187D01*
X406063Y48728D01*
Y35315D01*
X406064Y35313D01*
X406063Y35311D01*
Y16575D01*
X406253Y16116D01*
X406713Y15925D01*
X442964D01*
X443423Y16116D01*
X443613Y16575D01*
Y35300D01*
X443619Y35315D01*
Y48728D01*
X443429Y49187D01*
X442970Y49377D01*
D02*
G37*
G36*
X727953Y32825D02*
X725897Y32664D01*
X723892Y32182D01*
X721987Y31393D01*
X720229Y30316D01*
X718661Y28977D01*
X717322Y27409D01*
X716245Y25651D01*
X715455Y23746D01*
X714974Y21741D01*
X714812Y19685D01*
X714974Y17629D01*
X715455Y15624D01*
X716245Y13719D01*
X717322Y11961D01*
X718661Y10393D01*
X720229Y9054D01*
X721987Y7977D01*
X723892Y7188D01*
X725897Y6706D01*
X727953Y6544D01*
X730008Y6706D01*
X732013Y7188D01*
X733918Y7977D01*
X735677Y9054D01*
X737245Y10393D01*
X738584Y11961D01*
X739661Y13719D01*
X740450Y15624D01*
X740932Y17629D01*
X741093Y19685D01*
X740932Y21741D01*
X740450Y23746D01*
X739661Y25651D01*
X738584Y27409D01*
X737245Y28977D01*
X735677Y30316D01*
X733918Y31393D01*
X732013Y32182D01*
X730008Y32664D01*
X727953Y32825D01*
D02*
G37*
G36*
X19685D02*
X17629Y32664D01*
X15624Y32182D01*
X13719Y31393D01*
X11961Y30316D01*
X10393Y28977D01*
X9054Y27409D01*
X7977Y25651D01*
X7188Y23746D01*
X6706Y21741D01*
X6544Y19685D01*
X6706Y17629D01*
X7188Y15624D01*
X7977Y13719D01*
X9054Y11961D01*
X10393Y10393D01*
X11961Y9054D01*
X13719Y7977D01*
X15624Y7188D01*
X17629Y6706D01*
X19685Y6544D01*
X21741Y6706D01*
X23746Y7188D01*
X25651Y7977D01*
X27409Y9054D01*
X28977Y10393D01*
X30316Y11961D01*
X31393Y13719D01*
X32182Y15624D01*
X32664Y17629D01*
X32825Y19685D01*
X32664Y21741D01*
X32182Y23746D01*
X31393Y25651D01*
X30316Y27409D01*
X28977Y28977D01*
X27409Y30316D01*
X25651Y31393D01*
X23746Y32182D01*
X21741Y32664D01*
X19685Y32825D01*
D02*
G37*
%LPD*%
G36*
X381903Y262272D02*
X381897Y262264D01*
X381539Y261400D01*
X381417Y260472D01*
X381539Y259545D01*
X381897Y258681D01*
X382466Y257939D01*
X383208Y257369D01*
X383797Y257125D01*
X383697Y256625D01*
X376303D01*
X376203Y257125D01*
X376792Y257369D01*
X377534Y257939D01*
X378103Y258681D01*
X378461Y259545D01*
X378583Y260472D01*
X378461Y261400D01*
X378103Y262264D01*
X377534Y263006D01*
X376792Y263576D01*
X375927Y263934D01*
X375905Y263937D01*
X375938Y264437D01*
X379738D01*
X381903Y262272D01*
D02*
G37*
D11*
X0Y0D02*
X748032D01*
X0D02*
Y433071D01*
X748032D01*
X748032Y0D01*
D16*
X355118Y230315D02*
X359055D01*
X332677Y252756D02*
X355118Y230315D01*
X269209Y252756D02*
X332677D01*
X358268Y235433D02*
X380039D01*
X333464Y260237D02*
X358268Y235433D01*
X380039D02*
X385000Y230472D01*
X263661Y247209D02*
X269209Y252756D01*
X278740Y210472D02*
X375000D01*
X351575Y265354D02*
X380118D01*
X385000Y260472D01*
X317323Y279921D02*
X320472Y276772D01*
X155236Y279921D02*
X317323D01*
X153661Y278346D02*
X155236Y279921D01*
X164567Y272835D02*
X168504Y276772D01*
X148819Y272835D02*
X164567D01*
X168504Y276772D02*
X311811D01*
X314961Y273622D01*
X337795D01*
X350945Y260472D01*
X375000D01*
X320472Y276772D02*
X359449D01*
X365748Y270472D01*
X375000D01*
X640000Y260472D02*
X658268Y278740D01*
X625000Y260472D02*
X640000D01*
X619724Y275197D02*
X638583D01*
X615000Y270472D02*
X619724Y275197D01*
X669726Y261852D02*
X705471D01*
X627165Y285433D02*
X631102Y281496D01*
X619961Y285433D02*
X627165D01*
X615000Y280472D02*
X619961Y285433D01*
X631102Y281496D02*
X674409D01*
X335827Y263779D02*
X354331Y245276D01*
X209055Y263779D02*
X335827D01*
X280709Y260237D02*
X333464D01*
X380197Y245276D02*
X385000Y240472D01*
X354331Y245276D02*
X380197D01*
X121909Y330847D02*
X124803Y327953D01*
X101181Y330847D02*
X121909D01*
X63703D02*
X68110Y335254D01*
Y340158D01*
X58957Y349311D02*
X68110Y340158D01*
X48425Y349311D02*
X58957D01*
X27756Y340945D02*
X27953D01*
X33051Y335846D01*
X63703D01*
D84*
X303661Y230827D02*
Y237209D01*
X296850Y224016D02*
X303661Y230827D01*
X285039Y224016D02*
X296850D01*
X274409Y213386D02*
X285039Y224016D01*
X216142Y213386D02*
X274409D01*
X213780Y215748D02*
X216142Y213386D01*
X205906Y215748D02*
X213780D01*
X204724Y214567D02*
X205906Y215748D01*
X127953Y214567D02*
X204724D01*
X676377Y88583D02*
X714370D01*
X670472Y94488D02*
X676377Y88583D01*
X670472Y94488D02*
Y98425D01*
X702363Y187009D02*
X714370D01*
X697244Y181890D02*
X702363Y187009D01*
X671260Y181890D02*
X697244D01*
X158661Y269291D02*
X337795D01*
X351575Y255512D01*
X641732D01*
X651969Y265749D01*
X714370D01*
X196063Y165748D02*
X631890Y165748D01*
X633465Y167324D01*
X714370D01*
X285040Y68898D02*
X714370D01*
X726575Y61220D02*
Y68898D01*
X722835Y57480D02*
X726575Y61220D01*
X685039Y57480D02*
X722835D01*
X683071Y59449D02*
X685039Y57480D01*
X683071Y59449D02*
Y61417D01*
X726575Y88583D02*
Y96654D01*
X723622Y99606D02*
X726575Y96654D01*
X686614Y99606D02*
X723622D01*
X683071Y96063D02*
X686614Y99606D01*
X726575Y158858D02*
Y167323D01*
X723622Y155905D02*
X726575Y158858D01*
X687008Y155905D02*
X723622D01*
X683071Y159843D02*
X687008Y155905D01*
X726575Y187008D02*
Y194292D01*
X723228Y197638D02*
X726575Y194292D01*
X687008Y197638D02*
X723228D01*
X683071Y193701D02*
X687008Y197638D01*
X726575Y258858D02*
Y265748D01*
X724409Y256693D02*
X726575Y258858D01*
X685827Y256693D02*
X724409D01*
X683071Y259449D02*
X685827Y256693D01*
X726573Y285433D02*
Y292718D01*
X724016Y295276D02*
X726573Y292718D01*
X686221Y295276D02*
X724016D01*
X683071Y292126D02*
X686221Y295276D01*
X714368Y285433D02*
X714369Y285434D01*
X688976Y285433D02*
X714368D01*
D86*
X293661Y247209D02*
D03*
X303661D02*
D03*
X253661D02*
D03*
X273661D02*
D03*
X283661D02*
D03*
X263661D02*
D03*
X243661D02*
D03*
X233661D02*
D03*
X223661D02*
D03*
X213661D02*
D03*
X273661Y237209D02*
D03*
X293661D02*
D03*
X283661D02*
D03*
X263661D02*
D03*
X213661D02*
D03*
X223661D02*
D03*
X203661D02*
D03*
X243661D02*
D03*
X253661D02*
D03*
X233661D02*
D03*
X193661Y247209D02*
D03*
X203661D02*
D03*
X183661D02*
D03*
X163661D02*
D03*
X173661D02*
D03*
X153661D02*
D03*
X123661D02*
D03*
X133661D02*
D03*
X113661D02*
D03*
X143661D02*
D03*
X163661Y237209D02*
D03*
X193661D02*
D03*
X183661D02*
D03*
X173661D02*
D03*
X143661D02*
D03*
X153661D02*
D03*
X123661D02*
D03*
X133661D02*
D03*
X113661D02*
D03*
X375000Y310472D02*
D03*
X385000D02*
D03*
X375000Y300472D02*
D03*
X385000D02*
D03*
X375000Y290472D02*
D03*
X385000D02*
D03*
X375000Y280472D02*
D03*
X385000D02*
D03*
X375000Y270472D02*
D03*
X385000D02*
D03*
X375000Y260472D02*
D03*
X385000D02*
D03*
X375000Y250472D02*
D03*
X385000D02*
D03*
X375000Y240472D02*
D03*
X385000D02*
D03*
X375000Y230472D02*
D03*
X385000D02*
D03*
X375000Y220472D02*
D03*
X385000D02*
D03*
X375000Y210472D02*
D03*
X385000D02*
D03*
X375000Y200472D02*
D03*
X385000D02*
D03*
X375000Y190472D02*
D03*
X385000D02*
D03*
X375000Y180472D02*
D03*
X385000D02*
D03*
X375000Y170472D02*
D03*
X385000D02*
D03*
X375000Y160472D02*
D03*
X385000D02*
D03*
X375000Y150472D02*
D03*
X385000D02*
D03*
X375000Y140472D02*
D03*
X385000D02*
D03*
X375000Y130472D02*
D03*
X615000Y310472D02*
D03*
X625000D02*
D03*
X615000Y300472D02*
D03*
X625000D02*
D03*
X615000Y290472D02*
D03*
X625000D02*
D03*
X615000Y280472D02*
D03*
X625000D02*
D03*
X615000Y270472D02*
D03*
X625000D02*
D03*
X615000Y260472D02*
D03*
X625000D02*
D03*
X615000Y250472D02*
D03*
X625000D02*
D03*
X615000Y240472D02*
D03*
X625000D02*
D03*
X615000Y230472D02*
D03*
X625000D02*
D03*
X615000Y220472D02*
D03*
X625000D02*
D03*
X615000Y210472D02*
D03*
X625000D02*
D03*
X615000Y200472D02*
D03*
X625000D02*
D03*
X615000Y190472D02*
D03*
X625000D02*
D03*
X615000Y180472D02*
D03*
X625000D02*
D03*
X615000Y170472D02*
D03*
X625000D02*
D03*
X615000Y160472D02*
D03*
X625000D02*
D03*
X615000Y150472D02*
D03*
X625000D02*
D03*
X615000Y140472D02*
D03*
X625000D02*
D03*
X615000Y130472D02*
D03*
X198819Y413386D02*
D03*
X188976D02*
D03*
X450787D02*
D03*
X460630D02*
D03*
X470472D02*
D03*
X480315D02*
D03*
X523622Y413386D02*
D03*
X533465D02*
D03*
X543307D02*
D03*
X553150D02*
D03*
X596457Y413386D02*
D03*
X606299D02*
D03*
X616142D02*
D03*
X625984D02*
D03*
X377953D02*
D03*
X387795D02*
D03*
X397638D02*
D03*
X407480D02*
D03*
X293307D02*
D03*
X303150D02*
D03*
X332677D02*
D03*
X322835D02*
D03*
X312992D02*
D03*
X246181D02*
D03*
D87*
X303661Y237209D02*
D03*
D88*
X465000Y320472D02*
D03*
X576500Y115472D02*
D03*
X405000Y120472D02*
D03*
D89*
X385000Y130472D02*
D03*
X625000D02*
D03*
X208661Y413386D02*
D03*
X490158D02*
D03*
X562992Y413386D02*
D03*
X635827Y413386D02*
D03*
X417323D02*
D03*
X342520D02*
D03*
X256024D02*
D03*
D90*
X322835Y242209D02*
D03*
Y49295D02*
D03*
X94488Y242209D02*
D03*
Y49295D02*
D03*
D91*
X137795Y412126D02*
D03*
D92*
X153386D02*
D03*
D93*
X62992Y402283D02*
D03*
Y378661D02*
D03*
D94*
X44488Y390472D02*
D03*
D95*
X727953Y19685D02*
D03*
X728346Y413386D02*
D03*
X19685Y19685D02*
D03*
Y413386D02*
D03*
D96*
X359055Y230315D02*
D03*
X278740Y210472D02*
D03*
X351575Y265354D02*
D03*
X148819Y272835D02*
D03*
X153661Y278346D02*
D03*
X267323Y185433D02*
D03*
X293661Y214173D02*
D03*
X283858Y214173D02*
D03*
X216142Y213386D02*
D03*
X208661Y212992D02*
D03*
X178741Y196457D02*
D03*
X144095D02*
D03*
X127953Y214567D02*
D03*
X120472Y214567D02*
D03*
X670472Y98425D02*
D03*
X671260Y181890D02*
D03*
X304725Y255513D02*
D03*
Y274015D02*
D03*
X603937Y222046D02*
D03*
X158661Y269291D02*
D03*
X196063Y165748D02*
D03*
X285040Y68898D02*
D03*
X683071Y96063D02*
D03*
Y61417D02*
D03*
Y159843D02*
D03*
Y193701D02*
D03*
X658268Y278740D02*
D03*
X644882Y329527D02*
D03*
X560630Y364370D02*
D03*
X568111D02*
D03*
X568110Y379331D02*
D03*
X560630D02*
D03*
X608661Y333504D02*
D03*
X628740Y347638D02*
D03*
X621259Y347638D02*
D03*
X604724Y366930D02*
D03*
X612598Y366536D02*
D03*
X599213Y356102D02*
D03*
X595669Y349705D02*
D03*
X683071Y259449D02*
D03*
Y292126D02*
D03*
X688976Y285433D02*
D03*
X725197Y134645D02*
D03*
X714567Y130314D02*
D03*
X648425Y201575D02*
D03*
X647638Y89764D02*
D03*
X647638Y118110D02*
D03*
X638583Y275197D02*
D03*
X705118Y231496D02*
D03*
X714567Y220866D02*
D03*
Y228346D02*
D03*
X725197Y232677D02*
D03*
X713385Y319291D02*
D03*
Y326771D02*
D03*
X724016Y332677D02*
D03*
Y349606D02*
D03*
X731496D02*
D03*
X705512Y330315D02*
D03*
X669165Y301969D02*
D03*
X648425Y173228D02*
D03*
X662205Y206299D02*
D03*
X654724D02*
D03*
X662205Y233858D02*
D03*
X654724D02*
D03*
X662205Y262205D02*
D03*
X654724D02*
D03*
X669726Y261852D02*
D03*
X705471D02*
D03*
X674409Y281496D02*
D03*
X683071Y78347D02*
D03*
Y177165D02*
D03*
X683072Y275590D02*
D03*
X603938Y204725D02*
D03*
X596457Y204725D02*
D03*
X587440Y272440D02*
D03*
X601968D02*
D03*
X594882Y272440D02*
D03*
X408661Y140157D02*
D03*
Y150394D02*
D03*
X408661Y210631D02*
D03*
Y200473D02*
D03*
Y185434D02*
D03*
X408660Y177953D02*
D03*
Y192913D02*
D03*
X116142Y307875D02*
D03*
X105512Y313387D02*
D03*
X209055Y263779D02*
D03*
X280709Y260237D02*
D03*
X110236Y371062D02*
D03*
X133857Y333504D02*
D03*
X364173Y362598D02*
D03*
X355118Y327953D02*
D03*
X38583Y302712D02*
D03*
X33465D02*
D03*
X124803Y327953D02*
D03*
X101181Y330847D02*
D03*
X104724Y344489D02*
D03*
X80709Y305118D02*
D03*
X47539Y363090D02*
D03*
X48425Y349311D02*
D03*
X11811Y372835D02*
D03*
X10236Y303938D02*
D03*
X28347Y309056D02*
D03*
X20867Y309056D02*
D03*
X14665Y329232D02*
D03*
X27756Y340945D02*
D03*
X63703Y335846D02*
D03*
X209055Y343701D02*
D03*
X280709D02*
D03*
X266142Y326772D02*
D03*
X193445Y326346D02*
D03*
X407481Y377953D02*
D03*
X397638D02*
D03*
X387796D02*
D03*
X480316D02*
D03*
X470473D02*
D03*
X460631D02*
D03*
X625985Y377985D02*
D03*
X616142D02*
D03*
X606300Y377953D02*
D03*
X553150Y377953D02*
D03*
X543308D02*
D03*
X533465D02*
D03*
X63703Y330847D02*
D03*
X85338Y332283D02*
D03*
Y328346D02*
D03*
X80220D02*
D03*
Y332283D02*
D03*
X85338Y324409D02*
D03*
X80220D02*
D03*
D107*
X726575Y167323D02*
D03*
X714370Y167324D02*
D03*
X726575Y88583D02*
D03*
X714370Y88583D02*
D03*
X726575Y68898D02*
D03*
X714370Y68898D02*
D03*
X726575Y187008D02*
D03*
X714370Y187009D02*
D03*
X726575Y265748D02*
D03*
X714370Y265749D02*
D03*
X726573Y285433D02*
D03*
X714369Y285434D02*
D03*
M02*
