G04*
G04 #@! TF.GenerationSoftware,Altium Limited,Altium Designer,18.1.11 (251)*
G04*
G04 Layer_Physical_Order=2*
G04 Layer_Color=32768*
%FSLAX25Y25*%
%MOIN*%
G70*
G01*
G75*
%ADD11C,0.01000*%
%ADD79C,0.04000*%
%ADD80C,0.07543*%
%ADD81C,0.15811*%
%ADD82C,0.08331*%
%ADD83C,0.07937*%
%ADD84O,0.07937X0.10299*%
%ADD85O,0.10299X0.07937*%
%ADD86C,0.19000*%
%ADD87C,0.14827*%
D11*
X0Y0D02*
X708661D01*
X0D02*
Y393701D01*
X708661D01*
X708661Y0D01*
D79*
X0Y393701D02*
X708661D01*
X708661Y0D01*
X0D02*
X708661D01*
X0D02*
Y393701D01*
D80*
X614607Y215984D02*
D03*
X624607D02*
D03*
X614607Y205984D02*
D03*
X624607D02*
D03*
X614607Y195984D02*
D03*
X624607D02*
D03*
X614607Y185984D02*
D03*
X624607D02*
D03*
X614607Y175984D02*
D03*
X624607D02*
D03*
X614607Y165984D02*
D03*
X624607D02*
D03*
X614607Y155984D02*
D03*
X624607D02*
D03*
X614607Y145984D02*
D03*
X624607D02*
D03*
X614607Y135984D02*
D03*
X624607D02*
D03*
X614607Y125984D02*
D03*
X624607D02*
D03*
X614607Y115984D02*
D03*
X624607D02*
D03*
X614607Y105984D02*
D03*
X624607D02*
D03*
X614607Y95984D02*
D03*
X624607D02*
D03*
X614607Y85984D02*
D03*
X624607D02*
D03*
X614607Y75984D02*
D03*
X624607D02*
D03*
X614607Y65984D02*
D03*
X624607D02*
D03*
X614607Y55984D02*
D03*
X624607D02*
D03*
X614607Y45984D02*
D03*
X624607D02*
D03*
X614607Y35984D02*
D03*
X624607D02*
D03*
X374607Y215984D02*
D03*
X384607D02*
D03*
X374607Y205984D02*
D03*
X384607D02*
D03*
X374607Y195984D02*
D03*
X384607D02*
D03*
X374607Y185984D02*
D03*
X384607D02*
D03*
X374607Y175984D02*
D03*
X384607D02*
D03*
X374607Y165984D02*
D03*
X384607D02*
D03*
X374607Y155984D02*
D03*
X384607D02*
D03*
X374607Y145984D02*
D03*
X384607D02*
D03*
X374607Y135984D02*
D03*
X384607D02*
D03*
X374607Y125984D02*
D03*
X384607D02*
D03*
X374607Y115984D02*
D03*
X384607D02*
D03*
X374607Y105984D02*
D03*
X384607D02*
D03*
X374607Y95984D02*
D03*
X384607D02*
D03*
X374607Y85984D02*
D03*
X384607D02*
D03*
X374607Y75984D02*
D03*
X384607D02*
D03*
X374607Y65984D02*
D03*
X384607D02*
D03*
X374607Y55984D02*
D03*
X384607D02*
D03*
X374607Y45984D02*
D03*
X384607D02*
D03*
X374607Y35984D02*
D03*
X384607D02*
D03*
X614607Y215984D02*
D03*
X624607D02*
D03*
X614607Y205984D02*
D03*
X624607D02*
D03*
X614607Y195984D02*
D03*
X624607D02*
D03*
X614607Y185984D02*
D03*
X624607D02*
D03*
Y175984D02*
D03*
X614607Y165984D02*
D03*
X624607D02*
D03*
X614607Y155984D02*
D03*
X624607D02*
D03*
X614607Y145984D02*
D03*
X624607D02*
D03*
X614607Y135984D02*
D03*
X624607D02*
D03*
X614607Y125984D02*
D03*
Y115984D02*
D03*
X624607D02*
D03*
X614607Y105984D02*
D03*
X624607D02*
D03*
X614607Y95984D02*
D03*
X624607D02*
D03*
X614607Y85984D02*
D03*
X624607D02*
D03*
X614607Y75984D02*
D03*
X624607D02*
D03*
X614607Y65984D02*
D03*
X624607D02*
D03*
X614607Y55984D02*
D03*
X624607D02*
D03*
X614607Y45984D02*
D03*
X624607D02*
D03*
X614607Y35984D02*
D03*
X624607D02*
D03*
X384607D02*
D03*
X374607D02*
D03*
X384607Y45984D02*
D03*
X374607D02*
D03*
X384607Y55984D02*
D03*
X374607D02*
D03*
X384607Y65984D02*
D03*
X374607D02*
D03*
X384607Y75984D02*
D03*
X374607D02*
D03*
X384607Y85984D02*
D03*
X374607D02*
D03*
X384607Y95984D02*
D03*
X374607D02*
D03*
X384607Y105984D02*
D03*
X374607D02*
D03*
Y115984D02*
D03*
X384607Y135984D02*
D03*
X374607D02*
D03*
X384607Y145984D02*
D03*
X374607D02*
D03*
X384607Y155984D02*
D03*
X374607D02*
D03*
X384607Y165984D02*
D03*
X374607D02*
D03*
X384607Y175984D02*
D03*
X374607D02*
D03*
Y185984D02*
D03*
X384607Y195984D02*
D03*
X374607D02*
D03*
X384607Y205984D02*
D03*
X374607D02*
D03*
X384607Y215984D02*
D03*
X374607D02*
D03*
X527559Y368819D02*
D03*
X537402D02*
D03*
X547244D02*
D03*
X557087D02*
D03*
X452756Y370079D02*
D03*
X462598D02*
D03*
X472441D02*
D03*
X482283D02*
D03*
X601178Y368819D02*
D03*
X611020D02*
D03*
X620863D02*
D03*
X630705D02*
D03*
X208661Y370787D02*
D03*
X198819D02*
D03*
X188976D02*
D03*
X377953Y369962D02*
D03*
X387795D02*
D03*
X397638D02*
D03*
X407480D02*
D03*
X295276Y370079D02*
D03*
X305118D02*
D03*
X334646D02*
D03*
X314961D02*
D03*
X344488D02*
D03*
X303661Y237209D02*
D03*
Y247209D02*
D03*
X293661Y237209D02*
D03*
Y247209D02*
D03*
X283661Y237209D02*
D03*
X273661D02*
D03*
Y247209D02*
D03*
X263661D02*
D03*
X253661Y237209D02*
D03*
Y247209D02*
D03*
X243661Y237209D02*
D03*
X233661D02*
D03*
Y247209D02*
D03*
X223661Y237209D02*
D03*
Y247209D02*
D03*
X213661Y237209D02*
D03*
X203661D02*
D03*
Y247209D02*
D03*
X193661Y237209D02*
D03*
Y247209D02*
D03*
X183661D02*
D03*
X173661Y237209D02*
D03*
Y247209D02*
D03*
X163661Y237209D02*
D03*
X153661D02*
D03*
Y247209D02*
D03*
X143661Y237209D02*
D03*
X133661D02*
D03*
Y247209D02*
D03*
X123661Y237209D02*
D03*
Y247209D02*
D03*
X113661D02*
D03*
D81*
X534607Y25984D02*
D03*
X423107Y230984D02*
D03*
X594607Y225984D02*
D03*
D82*
X573228Y360945D02*
D03*
X498425Y362205D02*
D03*
X646847Y360945D02*
D03*
X214961Y362913D02*
D03*
X423622Y362088D02*
D03*
X350787Y362205D02*
D03*
X262205Y362913D02*
D03*
D83*
X246063Y370787D02*
D03*
X255906D02*
D03*
X387795Y303150D02*
D03*
X328740D02*
D03*
X358268Y340551D02*
D03*
D84*
X125157Y350394D02*
D03*
D85*
X143661Y338583D02*
D03*
D86*
X688976Y19685D02*
D03*
Y374016D02*
D03*
X19685Y19685D02*
D03*
Y374016D02*
D03*
D87*
X322835Y49295D02*
D03*
Y242209D02*
D03*
X94488Y49295D02*
D03*
Y242209D02*
D03*
M02*
