G04*
G04 #@! TF.GenerationSoftware,Altium Limited,Altium Designer,18.1.11 (251)*
G04*
G04 Layer_Color=16711935*
%FSLAX25Y25*%
%MOIN*%
G70*
G01*
G75*
%ADD11C,0.01000*%
%ADD74R,0.06706X0.06706*%
%ADD75R,0.00800X0.00800*%
%ADD76C,0.06706*%
%ADD77R,0.09855X0.09855*%
%ADD78C,0.09855*%
%ADD79C,0.20485*%
%ADD80O,0.10642X0.08280*%
%ADD81O,0.08280X0.10642*%
%ADD82C,0.25800*%
%ADD83R,0.06706X0.06706*%
%ADD84C,0.15564*%
%ADD85C,0.03000*%
D11*
X0Y0D02*
X748032D01*
X0D02*
Y433071D01*
X748032D01*
X748032Y0D01*
D74*
X208661Y410157D02*
D03*
X385000Y130472D02*
D03*
X625000D02*
D03*
X562992Y409332D02*
D03*
X490158D02*
D03*
X635827D02*
D03*
X417323D02*
D03*
X344488Y409449D02*
D03*
X255906Y410157D02*
D03*
D75*
X214961Y402283D02*
D03*
X569291Y401458D02*
D03*
X496457D02*
D03*
X642126D02*
D03*
X423622D02*
D03*
X350787Y401575D02*
D03*
X262205Y402283D02*
D03*
D76*
X198819Y410157D02*
D03*
X188976D02*
D03*
X375000Y310472D02*
D03*
X385000D02*
D03*
X375000Y300472D02*
D03*
X385000D02*
D03*
X375000Y290472D02*
D03*
X385000D02*
D03*
X375000Y280472D02*
D03*
X385000D02*
D03*
X375000Y270472D02*
D03*
X385000D02*
D03*
X375000Y260472D02*
D03*
X385000D02*
D03*
X375000Y250472D02*
D03*
X385000D02*
D03*
X375000Y240472D02*
D03*
X385000D02*
D03*
X375000Y230472D02*
D03*
X385000D02*
D03*
X375000Y220472D02*
D03*
X385000D02*
D03*
X375000Y210472D02*
D03*
X385000D02*
D03*
X375000Y200472D02*
D03*
X385000D02*
D03*
X375000Y190472D02*
D03*
X385000D02*
D03*
X375000Y180472D02*
D03*
X385000D02*
D03*
X375000Y170472D02*
D03*
X385000D02*
D03*
X375000Y160472D02*
D03*
X385000D02*
D03*
X375000Y150472D02*
D03*
X385000D02*
D03*
X375000Y140472D02*
D03*
X385000D02*
D03*
X375000Y130472D02*
D03*
X615000Y310472D02*
D03*
X625000D02*
D03*
X615000Y300472D02*
D03*
X625000D02*
D03*
X615000Y290472D02*
D03*
X625000D02*
D03*
X615000Y280472D02*
D03*
X625000D02*
D03*
X615000Y270472D02*
D03*
X625000D02*
D03*
X615000Y260472D02*
D03*
X625000D02*
D03*
X615000Y250472D02*
D03*
X625000D02*
D03*
X615000Y240472D02*
D03*
X625000D02*
D03*
X615000Y230472D02*
D03*
X625000D02*
D03*
X615000Y220472D02*
D03*
X625000D02*
D03*
X615000Y210472D02*
D03*
X625000D02*
D03*
X615000Y200472D02*
D03*
X625000D02*
D03*
X615000Y190472D02*
D03*
X625000D02*
D03*
X615000Y180472D02*
D03*
X625000D02*
D03*
X615000Y170472D02*
D03*
X625000D02*
D03*
X615000Y160472D02*
D03*
X625000D02*
D03*
X615000Y150472D02*
D03*
X625000D02*
D03*
X615000Y140472D02*
D03*
X625000D02*
D03*
X615000Y130472D02*
D03*
X523622Y409332D02*
D03*
X533465D02*
D03*
X543307D02*
D03*
X553150D02*
D03*
X450787D02*
D03*
X460630D02*
D03*
X470472D02*
D03*
X480315D02*
D03*
X596457D02*
D03*
X606299D02*
D03*
X616142D02*
D03*
X625984D02*
D03*
X377953D02*
D03*
X387795D02*
D03*
X397638D02*
D03*
X407480D02*
D03*
X295276Y409449D02*
D03*
X305118D02*
D03*
X334646D02*
D03*
X324803D02*
D03*
X314961D02*
D03*
X246063Y410157D02*
D03*
X303661Y247209D02*
D03*
X293661Y237209D02*
D03*
Y247209D02*
D03*
X283661Y237209D02*
D03*
Y247209D02*
D03*
X273661Y237209D02*
D03*
Y247209D02*
D03*
X263661Y237209D02*
D03*
Y247209D02*
D03*
X253661Y237209D02*
D03*
Y247209D02*
D03*
X243661Y237209D02*
D03*
Y247209D02*
D03*
X233661Y237209D02*
D03*
Y247209D02*
D03*
X223661Y237209D02*
D03*
Y247209D02*
D03*
X213661Y237209D02*
D03*
Y247209D02*
D03*
X203661Y237209D02*
D03*
Y247209D02*
D03*
X193661Y237209D02*
D03*
Y247209D02*
D03*
X183661Y237209D02*
D03*
Y247209D02*
D03*
X173661Y237209D02*
D03*
Y247209D02*
D03*
X163661Y237209D02*
D03*
Y247209D02*
D03*
X153661Y237209D02*
D03*
Y247209D02*
D03*
X143661Y237209D02*
D03*
Y247209D02*
D03*
X133661Y237209D02*
D03*
Y247209D02*
D03*
X123661Y237209D02*
D03*
Y247209D02*
D03*
X113661Y237209D02*
D03*
Y247209D02*
D03*
D77*
X141732Y411417D02*
D03*
D78*
X157323D02*
D03*
D79*
X465000Y320472D02*
D03*
X576500Y115472D02*
D03*
X405000Y120472D02*
D03*
D80*
X62992Y402283D02*
D03*
Y378661D02*
D03*
D81*
X44488Y390472D02*
D03*
D82*
X688976Y19685D02*
D03*
X728346Y413386D02*
D03*
X19685Y19685D02*
D03*
Y413386D02*
D03*
D83*
X303661Y237209D02*
D03*
D84*
X322835Y49295D02*
D03*
Y242209D02*
D03*
X94488Y49295D02*
D03*
Y242209D02*
D03*
D85*
X79038Y327028D02*
D03*
X73920D02*
D03*
X79038Y330965D02*
D03*
X73920D02*
D03*
X79038Y334902D02*
D03*
X73920D02*
D03*
M02*
