G04*
G04 #@! TF.GenerationSoftware,Altium Limited,Altium Designer,18.1.11 (251)*
G04*
G04 Layer_Physical_Order=2*
G04 Layer_Color=32768*
%FSLAX25Y25*%
%MOIN*%
G70*
G01*
G75*
%ADD11C,0.01000*%
%ADD85C,0.01968*%
%ADD97C,0.07543*%
%ADD98C,0.15811*%
%ADD99C,0.14827*%
%ADD100C,0.08331*%
%ADD101C,0.10496*%
%ADD102C,0.07937*%
%ADD103O,0.07937X0.10299*%
%ADD104O,0.10299X0.07937*%
%ADD105C,0.19000*%
%ADD106C,0.05200*%
D11*
X0Y0D02*
X748032D01*
X0D02*
Y433071D01*
X748032D01*
X748032Y0D01*
D85*
X0D02*
Y433071D01*
X748032D01*
X748032Y0D01*
X0D02*
X748032D01*
D97*
X293661Y247209D02*
D03*
X303661D02*
D03*
X253661D02*
D03*
X273661D02*
D03*
X263661D02*
D03*
X233661D02*
D03*
X223661D02*
D03*
X303661Y237209D02*
D03*
X273661D02*
D03*
X293661D02*
D03*
X283661D02*
D03*
X213661D02*
D03*
X223661D02*
D03*
X203661D02*
D03*
X243661D02*
D03*
X253661D02*
D03*
X233661D02*
D03*
X193661Y247209D02*
D03*
X203661D02*
D03*
X183661D02*
D03*
X173661D02*
D03*
X153661D02*
D03*
X123661D02*
D03*
X133661D02*
D03*
X113661D02*
D03*
X163661Y237209D02*
D03*
X193661D02*
D03*
X173661D02*
D03*
X143661D02*
D03*
X153661D02*
D03*
X123661D02*
D03*
X133661D02*
D03*
X375000Y310472D02*
D03*
X385000D02*
D03*
X375000Y300472D02*
D03*
X385000D02*
D03*
X375000Y290472D02*
D03*
X385000D02*
D03*
X375000Y280472D02*
D03*
X385000D02*
D03*
X375000Y270472D02*
D03*
X385000D02*
D03*
X375000Y260472D02*
D03*
X385000D02*
D03*
X375000Y250472D02*
D03*
X385000D02*
D03*
X375000Y240472D02*
D03*
X385000D02*
D03*
X375000Y230472D02*
D03*
X385000D02*
D03*
Y220472D02*
D03*
X375000Y210472D02*
D03*
X385000D02*
D03*
X375000Y200472D02*
D03*
X385000D02*
D03*
X375000Y190472D02*
D03*
X385000D02*
D03*
X375000Y180472D02*
D03*
X385000D02*
D03*
X375000Y170472D02*
D03*
Y160472D02*
D03*
X385000D02*
D03*
X375000Y150472D02*
D03*
X385000D02*
D03*
X375000Y140472D02*
D03*
X385000D02*
D03*
X375000Y130472D02*
D03*
X385000D02*
D03*
X615000Y310472D02*
D03*
X625000D02*
D03*
X615000Y300472D02*
D03*
X625000D02*
D03*
X615000Y290472D02*
D03*
X625000D02*
D03*
X615000Y280472D02*
D03*
X625000D02*
D03*
X615000Y270472D02*
D03*
X625000D02*
D03*
X615000Y260472D02*
D03*
X625000D02*
D03*
X615000Y250472D02*
D03*
X625000D02*
D03*
X615000Y240472D02*
D03*
X625000D02*
D03*
Y230472D02*
D03*
X615000Y210472D02*
D03*
X625000D02*
D03*
X615000Y200472D02*
D03*
X625000D02*
D03*
X615000Y190472D02*
D03*
X625000D02*
D03*
X615000Y180472D02*
D03*
X625000D02*
D03*
X615000Y170472D02*
D03*
X625000D02*
D03*
Y160472D02*
D03*
X615000Y150472D02*
D03*
X625000D02*
D03*
X615000Y140472D02*
D03*
X625000D02*
D03*
X615000Y130472D02*
D03*
X625000D02*
D03*
X208661Y413386D02*
D03*
X198819D02*
D03*
X188976D02*
D03*
X450787D02*
D03*
X460630D02*
D03*
X470472D02*
D03*
X480315D02*
D03*
X523622Y413386D02*
D03*
X533465D02*
D03*
X543307D02*
D03*
X553150D02*
D03*
X596457Y413386D02*
D03*
X606299D02*
D03*
X616142D02*
D03*
X625984D02*
D03*
X377953D02*
D03*
X387795D02*
D03*
X397638D02*
D03*
X407480D02*
D03*
X293307D02*
D03*
X303150D02*
D03*
X332677D02*
D03*
X312992D02*
D03*
X342520D02*
D03*
D98*
X465000Y320472D02*
D03*
X576500Y115472D02*
D03*
X405000Y120472D02*
D03*
D99*
X322835Y242209D02*
D03*
Y49295D02*
D03*
X94488Y242209D02*
D03*
Y49295D02*
D03*
D100*
X214961Y405512D02*
D03*
X496457D02*
D03*
X569291Y405512D02*
D03*
X642126Y405512D02*
D03*
X423622D02*
D03*
X348819D02*
D03*
X262323D02*
D03*
D101*
X153386Y412126D02*
D03*
D102*
X246181Y413386D02*
D03*
X256024D02*
D03*
D103*
X44488Y390472D02*
D03*
D104*
X62992Y378661D02*
D03*
D105*
X727953Y19685D02*
D03*
X728346Y413386D02*
D03*
X19685Y19685D02*
D03*
Y413386D02*
D03*
D106*
X359055Y230315D02*
D03*
X278740Y210472D02*
D03*
X351575Y265354D02*
D03*
X148819Y272835D02*
D03*
X153661Y278346D02*
D03*
X293661Y214173D02*
D03*
X283858Y214173D02*
D03*
X216142Y213386D02*
D03*
X127953Y214567D02*
D03*
X670472Y98425D02*
D03*
X671260Y181890D02*
D03*
X158661Y269291D02*
D03*
X196063Y165748D02*
D03*
X285040Y68898D02*
D03*
X683071Y96063D02*
D03*
Y61417D02*
D03*
Y159843D02*
D03*
Y193701D02*
D03*
X658268Y278740D02*
D03*
X644882Y329527D02*
D03*
X560630Y364370D02*
D03*
X568111D02*
D03*
X568110Y379331D02*
D03*
X560630D02*
D03*
X599213Y356102D02*
D03*
X595669Y349705D02*
D03*
X683071Y259449D02*
D03*
Y292126D02*
D03*
X688976Y285433D02*
D03*
X725197Y134645D02*
D03*
X648425Y201575D02*
D03*
X647638Y118110D02*
D03*
X638583Y275197D02*
D03*
X725197Y232677D02*
D03*
X724016Y332677D02*
D03*
Y349606D02*
D03*
X731496D02*
D03*
X669726Y261852D02*
D03*
X705471D02*
D03*
X674409Y281496D02*
D03*
X683071Y78347D02*
D03*
Y177165D02*
D03*
X683072Y275590D02*
D03*
X603938Y204725D02*
D03*
X596457Y204725D02*
D03*
X594882Y272440D02*
D03*
X408661Y140157D02*
D03*
Y150394D02*
D03*
X408661Y210631D02*
D03*
Y200473D02*
D03*
Y185434D02*
D03*
X209055Y263779D02*
D03*
X280709Y260237D02*
D03*
X110236Y371062D02*
D03*
X364173Y362598D02*
D03*
X38583Y302712D02*
D03*
X33465D02*
D03*
X124803Y327953D02*
D03*
X101181Y330847D02*
D03*
X48425Y349311D02*
D03*
X27756Y340945D02*
D03*
X63703Y335846D02*
D03*
X407481Y377953D02*
D03*
X397638D02*
D03*
X387796D02*
D03*
X480316D02*
D03*
X470473D02*
D03*
X460631D02*
D03*
X625985Y377985D02*
D03*
X616142D02*
D03*
X606300Y377953D02*
D03*
X553150Y377953D02*
D03*
X543308D02*
D03*
X533465D02*
D03*
X63703Y330847D02*
D03*
M02*
