M48
;Layer_Color=9474304
;FILE_FORMAT=2:5
INCH,LZ
;TYPE=PLATED
T1F00S00C0.01200
T2F00S00C0.03543
T3F00S00C0.03543
T4F00S00C0.03937
T6F00S00C0.06496
T7F00S00C0.10827
T8F00S00C0.11811
T9F00S00C0.15000
;TYPE=NON_PLATED
T10F00S00C0.04331
%
T01
X007392Y0327028
Y0330965
Y0334902
X0079038
Y0330965
Y0327028
T02
X0533465Y0409332
X0543307
X055315
X0562992
X0596457
X0606299
X0616142
X0625984
X0635827
X0523622
X0490158
X0480315
X0470472
X046063
X0450787
X0417323
X040748
X0397638
X0387795
X0377953
X0344488Y0409449
X0334646
X0324803
X0314961
X0305118
X0295276
X0208661Y0410157
X0198819
X0188976
T03
X0615Y0130472
Y0140472
Y0150472
Y0160472
Y0170472
Y0180472
Y0190472
Y0200472
Y0210472
X0625
Y0200472
Y0190472
Y0180472
Y0170472
Y0160472
Y0150472
Y0140472
Y0130472
X0385
Y0140472
Y0150472
Y0160472
Y0170472
Y0180472
Y0190472
Y0200472
Y0210472
X0375
Y0200472
Y0190472
Y0180472
Y0170472
Y0160472
Y0150472
Y0140472
Y0130472
X0203661Y0237209
Y0247209
X0193661
Y0237209
X0183661
Y0247209
X0173661
Y0237209
X0163661
Y0247209
X0153661
Y0237209
X0143661
Y0247209
X0133661
Y0237209
X0123661
Y0247209
X0113661
Y0237209
X0213661
X0223661
X0233661
X0243661
X0253661
X0263661
X0273661
X0283661
X0293661
X0303661
Y0247209
X0293661
X0283661
X0273661
X0263661
X0253661
X0243661
X0233661
X0223661
X0213661
X0375Y0250472
Y0260472
Y0270472
Y0280472
Y0290472
Y0300472
Y0310472
X0385
Y0300472
Y0290472
Y0280472
Y0270472
Y0260472
Y0250472
Y0240472
X0375
Y0230472
X0385
Y0220472
X0375
X0615
Y0230472
Y0240472
Y0250472
Y0260472
Y0270472
Y0280472
Y0290472
Y0300472
Y0310472
X0625
Y0300472
Y0290472
Y0280472
Y0270472
Y0260472
Y0250472
Y0240472
Y0230472
Y0220472
T04
X0246063Y0410157
X0255906
T06
X0141732Y0411417
X0157323
T07
X0094488Y0049295
X0322835
X0094488Y0242209
X0322835
T08
X05765Y0115472
X0405Y0120472
X0465Y0320472
T09
X0019685Y0019685
X0688976
X0728346Y0413386
X0019685
T10
X0569291Y0401458
X0642126
X0496457
X0423622
X0350787Y0401575
X0262205Y0402283
X0214961
M30
