G04*
G04 #@! TF.GenerationSoftware,Altium Limited,Altium Designer,18.1.11 (251)*
G04*
G04 Layer_Physical_Order=4*
G04 Layer_Color=16711680*
%FSLAX25Y25*%
%MOIN*%
G70*
G01*
G75*
%ADD11C,0.01000*%
%ADD85C,0.05906*%
%ADD86R,0.05906X0.05906*%
%ADD87C,0.19685*%
%ADD88R,0.05906X0.05906*%
%ADD89C,0.14764*%
%ADD90R,0.09055X0.09055*%
%ADD91C,0.09055*%
%ADD92O,0.09843X0.07480*%
%ADD93O,0.07480X0.09843*%
%ADD94C,0.25000*%
%ADD95C,0.02200*%
%ADD107R,0.05906X0.08661*%
D11*
X0Y0D02*
X748032D01*
X0D02*
Y433071D01*
X748032D01*
X748032Y0D01*
D85*
X293661Y247209D02*
D03*
X303661D02*
D03*
X253661D02*
D03*
X273661D02*
D03*
X283661D02*
D03*
X263661D02*
D03*
X243661D02*
D03*
X233661D02*
D03*
X223661D02*
D03*
X213661D02*
D03*
X273661Y237209D02*
D03*
X293661D02*
D03*
X283661D02*
D03*
X263661D02*
D03*
X213661D02*
D03*
X223661D02*
D03*
X203661D02*
D03*
X243661D02*
D03*
X253661D02*
D03*
X233661D02*
D03*
X193661Y247209D02*
D03*
X203661D02*
D03*
X183661D02*
D03*
X163661D02*
D03*
X173661D02*
D03*
X153661D02*
D03*
X123661D02*
D03*
X133661D02*
D03*
X113661D02*
D03*
X143661D02*
D03*
X163661Y237209D02*
D03*
X193661D02*
D03*
X183661D02*
D03*
X173661D02*
D03*
X143661D02*
D03*
X153661D02*
D03*
X123661D02*
D03*
X133661D02*
D03*
X113661D02*
D03*
X375000Y310472D02*
D03*
X385000D02*
D03*
X375000Y300472D02*
D03*
X385000D02*
D03*
X375000Y290472D02*
D03*
X385000D02*
D03*
X375000Y280472D02*
D03*
X385000D02*
D03*
X375000Y270472D02*
D03*
X385000D02*
D03*
X375000Y260472D02*
D03*
X385000D02*
D03*
X375000Y250472D02*
D03*
X385000D02*
D03*
X375000Y240472D02*
D03*
X385000D02*
D03*
X375000Y230472D02*
D03*
X385000D02*
D03*
X375000Y220472D02*
D03*
X385000D02*
D03*
X375000Y210472D02*
D03*
X385000D02*
D03*
X375000Y200472D02*
D03*
X385000D02*
D03*
X375000Y190472D02*
D03*
X385000D02*
D03*
X375000Y180472D02*
D03*
X385000D02*
D03*
X375000Y170472D02*
D03*
X385000D02*
D03*
X375000Y160472D02*
D03*
X385000D02*
D03*
X375000Y150472D02*
D03*
X385000D02*
D03*
X375000Y140472D02*
D03*
X385000D02*
D03*
X375000Y130472D02*
D03*
X615000Y310472D02*
D03*
X625000D02*
D03*
X615000Y300472D02*
D03*
X625000D02*
D03*
X615000Y290472D02*
D03*
X625000D02*
D03*
X615000Y280472D02*
D03*
X625000D02*
D03*
X615000Y270472D02*
D03*
X625000D02*
D03*
X615000Y260472D02*
D03*
X625000D02*
D03*
X615000Y250472D02*
D03*
X625000D02*
D03*
X615000Y240472D02*
D03*
X625000D02*
D03*
X615000Y230472D02*
D03*
X625000D02*
D03*
X615000Y220472D02*
D03*
X625000D02*
D03*
X615000Y210472D02*
D03*
X625000D02*
D03*
X615000Y200472D02*
D03*
X625000D02*
D03*
X615000Y190472D02*
D03*
X625000D02*
D03*
X615000Y180472D02*
D03*
X625000D02*
D03*
X615000Y170472D02*
D03*
X625000D02*
D03*
X615000Y160472D02*
D03*
X625000D02*
D03*
X615000Y150472D02*
D03*
X625000D02*
D03*
X615000Y140472D02*
D03*
X625000D02*
D03*
X615000Y130472D02*
D03*
X198819Y413386D02*
D03*
X188976D02*
D03*
X450787D02*
D03*
X460630D02*
D03*
X470472D02*
D03*
X480315D02*
D03*
X523622Y413386D02*
D03*
X533465D02*
D03*
X543307D02*
D03*
X553150D02*
D03*
X596457Y413386D02*
D03*
X606299D02*
D03*
X616142D02*
D03*
X625984D02*
D03*
X377953D02*
D03*
X387795D02*
D03*
X397638D02*
D03*
X407480D02*
D03*
X293307D02*
D03*
X303150D02*
D03*
X332677D02*
D03*
X322835D02*
D03*
X312992D02*
D03*
X246181D02*
D03*
D86*
X303661Y237209D02*
D03*
D87*
X465000Y320472D02*
D03*
X576500Y115472D02*
D03*
X405000Y120472D02*
D03*
D88*
X385000Y130472D02*
D03*
X625000D02*
D03*
X208661Y413386D02*
D03*
X490158D02*
D03*
X562992Y413386D02*
D03*
X635827Y413386D02*
D03*
X417323D02*
D03*
X342520D02*
D03*
X256024D02*
D03*
D89*
X322835Y242209D02*
D03*
Y49295D02*
D03*
X94488Y242209D02*
D03*
Y49295D02*
D03*
D90*
X137795Y412126D02*
D03*
D91*
X153386D02*
D03*
D92*
X62992Y402283D02*
D03*
Y378661D02*
D03*
D93*
X44488Y390472D02*
D03*
D94*
X727953Y19685D02*
D03*
X728346Y413386D02*
D03*
X19685Y19685D02*
D03*
Y413386D02*
D03*
D95*
X63703Y330847D02*
D03*
X85338Y332283D02*
D03*
Y328346D02*
D03*
X80220D02*
D03*
Y332283D02*
D03*
X85338Y324409D02*
D03*
X80220D02*
D03*
D107*
X726575Y167323D02*
D03*
X714370Y167324D02*
D03*
X726575Y88583D02*
D03*
X714370Y88583D02*
D03*
X726575Y68898D02*
D03*
X714370Y68898D02*
D03*
X726575Y187008D02*
D03*
X714370Y187009D02*
D03*
X726575Y265748D02*
D03*
X714370Y265749D02*
D03*
X726573Y285433D02*
D03*
X714369Y285434D02*
D03*
M02*
