G04*
G04 #@! TF.GenerationSoftware,Altium Limited,Altium Designer,18.1.11 (251)*
G04*
G04 Layer_Physical_Order=2*
G04 Layer_Color=32768*
%FSLAX25Y25*%
%MOIN*%
G70*
G01*
G75*
%ADD11C,0.01000*%
%ADD97C,0.04000*%
%ADD98C,0.07543*%
%ADD99C,0.08331*%
%ADD100C,0.10496*%
%ADD101C,0.15811*%
%ADD102C,0.07937*%
%ADD103O,0.07937X0.10299*%
%ADD104O,0.10299X0.07937*%
%ADD105C,0.19000*%
%ADD106C,0.14827*%
D11*
X0Y0D02*
X748032D01*
X0D02*
Y433071D01*
X748032D01*
X748032Y0D01*
D97*
X0D02*
Y433071D01*
X748032D01*
X748032Y0D01*
X0D02*
X748032D01*
D98*
X208661Y410157D02*
D03*
X198819D02*
D03*
X188976D02*
D03*
X375000Y310472D02*
D03*
X385000D02*
D03*
X375000Y300472D02*
D03*
X385000D02*
D03*
X375000Y290472D02*
D03*
X385000D02*
D03*
X375000Y280472D02*
D03*
X385000D02*
D03*
X375000Y270472D02*
D03*
X385000D02*
D03*
X375000Y260472D02*
D03*
X385000D02*
D03*
X375000Y250472D02*
D03*
X385000D02*
D03*
X375000Y240472D02*
D03*
X385000D02*
D03*
X375000Y230472D02*
D03*
X385000D02*
D03*
Y220472D02*
D03*
X375000Y210472D02*
D03*
X385000D02*
D03*
X375000Y200472D02*
D03*
X385000D02*
D03*
X375000Y190472D02*
D03*
X385000D02*
D03*
X375000Y180472D02*
D03*
X385000D02*
D03*
X375000Y170472D02*
D03*
Y160472D02*
D03*
X385000D02*
D03*
X375000Y150472D02*
D03*
X385000D02*
D03*
X375000Y140472D02*
D03*
X385000D02*
D03*
X375000Y130472D02*
D03*
X385000D02*
D03*
X615000Y310472D02*
D03*
X625000D02*
D03*
X615000Y300472D02*
D03*
X625000D02*
D03*
X615000Y290472D02*
D03*
X625000D02*
D03*
X615000Y280472D02*
D03*
X625000D02*
D03*
X615000Y270472D02*
D03*
X625000D02*
D03*
X615000Y260472D02*
D03*
X625000D02*
D03*
X615000Y250472D02*
D03*
X625000D02*
D03*
X615000Y240472D02*
D03*
X625000D02*
D03*
Y230472D02*
D03*
X615000Y210472D02*
D03*
X625000D02*
D03*
X615000Y200472D02*
D03*
X625000D02*
D03*
X615000Y190472D02*
D03*
X625000D02*
D03*
X615000Y180472D02*
D03*
X625000D02*
D03*
X615000Y170472D02*
D03*
X625000D02*
D03*
Y160472D02*
D03*
X615000Y150472D02*
D03*
X625000D02*
D03*
X615000Y140472D02*
D03*
X625000D02*
D03*
X615000Y130472D02*
D03*
X625000D02*
D03*
X523622Y409332D02*
D03*
X533465D02*
D03*
X543307D02*
D03*
X553150D02*
D03*
X450787D02*
D03*
X460630D02*
D03*
X470472D02*
D03*
X480315D02*
D03*
X596457D02*
D03*
X606299D02*
D03*
X616142D02*
D03*
X625984D02*
D03*
X377953D02*
D03*
X387795D02*
D03*
X397638D02*
D03*
X407480D02*
D03*
X295276Y409449D02*
D03*
X305118D02*
D03*
X334646D02*
D03*
X314961D02*
D03*
X344488D02*
D03*
X303661Y237209D02*
D03*
Y247209D02*
D03*
X293661Y237209D02*
D03*
Y247209D02*
D03*
X283661Y237209D02*
D03*
X273661D02*
D03*
Y247209D02*
D03*
X263661D02*
D03*
X253661Y237209D02*
D03*
Y247209D02*
D03*
X243661Y237209D02*
D03*
X233661D02*
D03*
Y247209D02*
D03*
X223661Y237209D02*
D03*
Y247209D02*
D03*
X213661Y237209D02*
D03*
X203661D02*
D03*
Y247209D02*
D03*
X193661Y237209D02*
D03*
Y247209D02*
D03*
X183661D02*
D03*
X173661Y237209D02*
D03*
Y247209D02*
D03*
X163661Y237209D02*
D03*
X153661D02*
D03*
Y247209D02*
D03*
X143661Y237209D02*
D03*
X133661D02*
D03*
Y247209D02*
D03*
X123661Y237209D02*
D03*
Y247209D02*
D03*
X113661D02*
D03*
D99*
X214961Y402283D02*
D03*
X569291Y401458D02*
D03*
X496457D02*
D03*
X642126D02*
D03*
X423622D02*
D03*
X350787Y401575D02*
D03*
X262205Y402283D02*
D03*
D100*
X157323Y411417D02*
D03*
D101*
X465000Y320472D02*
D03*
X576500Y115472D02*
D03*
X405000Y120472D02*
D03*
D102*
X246063Y410157D02*
D03*
X255906D02*
D03*
D103*
X44488Y390472D02*
D03*
D104*
X62992Y378661D02*
D03*
D105*
X688976Y19685D02*
D03*
X728346Y413386D02*
D03*
X19685Y19685D02*
D03*
Y413386D02*
D03*
D106*
X322835Y49295D02*
D03*
Y242209D02*
D03*
X94488Y49295D02*
D03*
Y242209D02*
D03*
M02*
