M48
;Layer_Color=9474304
;FILE_FORMAT=2:5
INCH,LZ
;TYPE=PLATED
T1F00S00C0.01200
T2F00S00C0.03543
T3F00S00C0.03543
T4F00S00C0.03937
T5F00S00C0.03937
T7F00S00C0.10827
T8F00S00C0.11811
T9F00S00C0.15000
;TYPE=NON_PLATED
T10F00S00C0.04331
%
T01
X0080315Y0344744
Y0348681
Y0352618
X0085433
Y0348681
Y0344744
T02
X0527559Y0368819
X0537402
X0547244
X0557087
X0566929
X0601178
X061102
X0620863
X0630705
X0640548
X0492126Y0370079
X0482283
X0472441
X0462598
X0452756
X0417323Y0369962
X040748
X0397638
X0387795
X0377953
X0344488Y0370079
X0334646
X0324803
X0314961
X0305118
X0295276
X0208661Y0370787
X0198819
X0188976
T03
X0374607Y0035984
Y0045984
Y0055984
X0384607
Y0045984
Y0035984
X0614607
Y0045984
Y0055984
X0624607
Y0045984
Y0035984
Y0065984
Y0075984
Y0085984
Y0095984
Y0105984
Y0115984
Y0125984
Y0135984
Y0145984
Y0155984
Y0165984
Y0175984
Y0185984
Y0195984
Y0205984
X0614607
Y0195984
Y0185984
Y0175984
Y0165984
Y0155984
Y0145984
Y0135984
Y0125984
Y0115984
Y0105984
Y0095984
Y0085984
Y0075984
Y0065984
X0384607
Y0075984
Y0085984
Y0095984
Y0105984
Y0115984
Y0125984
Y0135984
Y0145984
Y0155984
Y0165984
Y0175984
Y0185984
Y0195984
Y0205984
X0374607
Y0195984
Y0185984
Y0175984
Y0165984
Y0155984
Y0145984
Y0135984
Y0125984
Y0115984
Y0105984
Y0095984
Y0085984
Y0075984
Y0065984
X0203661Y0237209
Y0247209
X0193661
Y0237209
X0183661
Y0247209
X0173661
Y0237209
X0163661
Y0247209
X0153661
Y0237209
X0143661
Y0247209
X0133661
Y0237209
X0123661
Y0247209
X0113661
Y0237209
X0213661
X0223661
X0233661
X0243661
X0253661
X0263661
X0273661
X0283661
X0293661
X0303661
Y0247209
X0293661
X0283661
X0273661
X0263661
X0253661
X0243661
X0233661
X0223661
X0213661
X0374607Y0215984
X0384607
X0614607
X0624607
T04
X0246063Y0370787
X0255906
T05
X032874Y030315
X0358268Y0340551
X0387795Y030315
T07
X0094488Y0049295
X0322835
X0094488Y0242209
X0322835
T08
X0534607Y0025984
X0423107Y0230984
X0594607Y0225984
T09
X0019685Y0019685
X0688976
Y0374016
X0019685
T10
X0214961Y0362913
X0262205
X0350787Y0362205
X0423622Y0362088
X0498425Y0362205
X0573228Y0360945
X0646847
M30
