G04*
G04 #@! TF.GenerationSoftware,Altium Limited,Altium Designer,18.1.11 (251)*
G04*
G04 Layer_Color=8388736*
%FSLAX25Y25*%
%MOIN*%
G70*
G01*
G75*
%ADD11C,0.01000*%
%ADD44R,0.04737X0.04540*%
%ADD45R,0.06706X0.05328*%
%ADD46R,0.05328X0.09461*%
%ADD47R,0.05367X0.05524*%
%ADD48R,0.05367X0.05721*%
%ADD49R,0.04540X0.10642*%
%ADD50R,0.03950X0.05682*%
%ADD51R,0.03162X0.05524*%
%ADD52R,0.09855X0.22847*%
%ADD53R,0.07099X0.01981*%
%ADD54R,0.06706X0.09461*%
%ADD55R,0.04737X0.06312*%
%ADD56R,0.06863X0.10800*%
%ADD57R,0.03000X0.08600*%
%ADD58R,0.10642X0.07493*%
%ADD59R,0.11430X0.05328*%
%ADD60R,0.05524X0.05524*%
%ADD61R,0.09461X0.02769*%
%ADD62R,0.10249X0.13005*%
%ADD63R,0.15800X0.17493*%
%ADD64R,0.08674X0.11824*%
%ADD65R,0.05328X0.11430*%
%ADD66R,0.07493X0.10642*%
%ADD67R,0.03950X0.03950*%
%ADD68R,0.04540X0.04737*%
%ADD69C,0.06706*%
%ADD70R,0.06706X0.06706*%
%ADD71C,0.20485*%
%ADD72C,0.07099*%
%ADD73R,0.00800X0.00800*%
%ADD74O,0.10642X0.08280*%
%ADD75O,0.08280X0.10642*%
%ADD76C,0.25800*%
%ADD77R,0.06706X0.06706*%
%ADD78C,0.15564*%
%ADD79C,0.03000*%
D11*
X0Y0D02*
X748032D01*
X0D02*
Y433071D01*
X748032D01*
X748032Y0D01*
D44*
X601575Y125197D02*
D03*
X601576Y118897D02*
D03*
X589764Y125197D02*
D03*
X589764Y118897D02*
D03*
X577953Y125197D02*
D03*
X577953Y118897D02*
D03*
X566142Y125197D02*
D03*
X566142Y118897D02*
D03*
X581890Y93701D02*
D03*
X581890Y87401D02*
D03*
X566142Y93701D02*
D03*
X566142Y87401D02*
D03*
X593701Y66142D02*
D03*
X593701Y59842D02*
D03*
X581890Y66142D02*
D03*
X581890Y59842D02*
D03*
X566142Y66142D02*
D03*
X566142Y59842D02*
D03*
X617323Y105512D02*
D03*
X617323Y99212D02*
D03*
X601575Y105512D02*
D03*
X601576Y99212D02*
D03*
X585827Y105512D02*
D03*
X585827Y99212D02*
D03*
X609449Y74016D02*
D03*
X609449Y67716D02*
D03*
X593701Y74016D02*
D03*
X593701Y67716D02*
D03*
X577953Y74016D02*
D03*
X577953Y67716D02*
D03*
X566142Y74016D02*
D03*
X566142Y67716D02*
D03*
X593701Y42520D02*
D03*
X593701Y36220D02*
D03*
X581890Y42520D02*
D03*
X581890Y36220D02*
D03*
X566142Y42520D02*
D03*
X566142Y36220D02*
D03*
X637008Y14961D02*
D03*
X637009Y8661D02*
D03*
X621260Y14961D02*
D03*
X621260Y8661D02*
D03*
X609449Y14961D02*
D03*
X609449Y8661D02*
D03*
X593701Y14961D02*
D03*
X593701Y8661D02*
D03*
X581890Y14961D02*
D03*
X581890Y8661D02*
D03*
X566142Y14961D02*
D03*
X566142Y8661D02*
D03*
X502558Y193164D02*
D03*
X502559Y186864D02*
D03*
X486810Y193164D02*
D03*
X486811Y186864D02*
D03*
X474999Y193164D02*
D03*
X475000Y186864D02*
D03*
X495862Y215998D02*
D03*
X495862Y209699D02*
D03*
X482082Y215998D02*
D03*
X482083Y209699D02*
D03*
X466334Y215998D02*
D03*
X466335Y209699D02*
D03*
X312597Y79134D02*
D03*
X312597Y72834D02*
D03*
X298817Y79134D02*
D03*
X298818Y72834D02*
D03*
X283069Y79134D02*
D03*
X283070Y72834D02*
D03*
X269290Y79134D02*
D03*
X269290Y72834D02*
D03*
X255510Y79134D02*
D03*
X255511Y72834D02*
D03*
X312597Y98819D02*
D03*
X312597Y92519D02*
D03*
X298817Y98819D02*
D03*
X298818Y92519D02*
D03*
X285038Y98819D02*
D03*
X285038Y92519D02*
D03*
X271258Y98819D02*
D03*
X271259Y92519D02*
D03*
X313385Y118307D02*
D03*
X313385Y112007D02*
D03*
X299605Y118307D02*
D03*
X299606Y112007D02*
D03*
X285826Y118307D02*
D03*
X285826Y112007D02*
D03*
X272046Y118307D02*
D03*
X272047Y112007D02*
D03*
X313384Y138582D02*
D03*
X313385Y132283D02*
D03*
X299605Y138582D02*
D03*
X299605Y132283D02*
D03*
X285825Y138582D02*
D03*
X285826Y132283D02*
D03*
X272045Y138582D02*
D03*
X272046Y132283D02*
D03*
X370079Y58124D02*
D03*
X370079Y51825D02*
D03*
X362205Y60289D02*
D03*
X362205Y53990D02*
D03*
X352362Y58912D02*
D03*
X352362Y52612D02*
D03*
X499606Y146707D02*
D03*
X499607Y140407D02*
D03*
X483858Y146707D02*
D03*
X483859Y140407D02*
D03*
X470079Y146707D02*
D03*
X470079Y140407D02*
D03*
X537601Y122297D02*
D03*
X537601Y115997D02*
D03*
X523821Y122297D02*
D03*
X523822Y115997D02*
D03*
X510042Y122297D02*
D03*
X510042Y115997D02*
D03*
X492719Y124659D02*
D03*
X492720Y118359D02*
D03*
X478939Y124659D02*
D03*
X478940Y118359D02*
D03*
X465160Y124659D02*
D03*
X465161Y118359D02*
D03*
X525791Y167180D02*
D03*
X525792Y160880D02*
D03*
X512011Y167180D02*
D03*
X512012Y160880D02*
D03*
X492720Y169542D02*
D03*
X492721Y163242D02*
D03*
X518703Y140408D02*
D03*
X518704Y134108D02*
D03*
X516734Y204725D02*
D03*
X516735Y198425D02*
D03*
X668150Y310379D02*
D03*
X668150Y304079D02*
D03*
X299213Y356004D02*
D03*
X299213Y349705D02*
D03*
X292126Y349705D02*
D03*
X292126Y356004D02*
D03*
X284685Y356004D02*
D03*
X284685Y349705D02*
D03*
X525789Y108911D02*
D03*
X525789Y102612D02*
D03*
X533269Y108911D02*
D03*
X533270Y102612D02*
D03*
X525790Y319489D02*
D03*
X525791Y313189D02*
D03*
X532875Y319489D02*
D03*
X532876Y313189D02*
D03*
X531694Y191339D02*
D03*
X531694Y185039D02*
D03*
X524609Y191339D02*
D03*
X524610Y185039D02*
D03*
X683465Y304080D02*
D03*
X683464Y310379D02*
D03*
X676024Y310379D02*
D03*
X676024Y304079D02*
D03*
X525003Y219882D02*
D03*
X525003Y213583D02*
D03*
X532088Y213583D02*
D03*
X532087Y219882D02*
D03*
X533664Y134108D02*
D03*
X533663Y140408D02*
D03*
X525790Y140408D02*
D03*
X525790Y134108D02*
D03*
X326772Y322047D02*
D03*
X326772Y315748D02*
D03*
X314961Y322047D02*
D03*
X314961Y315748D02*
D03*
X283465Y322047D02*
D03*
X283465Y315748D02*
D03*
X271654Y322047D02*
D03*
X271654Y315748D02*
D03*
X82677Y357480D02*
D03*
X82678Y351181D02*
D03*
X88583Y406083D02*
D03*
X88582Y412382D02*
D03*
X63385Y329921D02*
D03*
X63386Y323622D02*
D03*
X27952Y329921D02*
D03*
X27953Y323622D02*
D03*
X16141Y329921D02*
D03*
X16142Y323622D02*
D03*
X96022Y412382D02*
D03*
X96022Y406082D02*
D03*
X62595Y353346D02*
D03*
X62596Y347047D02*
D03*
X38973Y353346D02*
D03*
X38974Y347047D02*
D03*
X27162Y353346D02*
D03*
X27163Y347047D02*
D03*
X15351Y353346D02*
D03*
X15352Y347047D02*
D03*
X303386Y213583D02*
D03*
X303386Y207283D02*
D03*
X291575Y213583D02*
D03*
X291575Y207283D02*
D03*
X481301Y169542D02*
D03*
X481302Y163242D02*
D03*
X469490Y169542D02*
D03*
X469491Y163242D02*
D03*
D45*
X453484Y6254D02*
D03*
X422854D02*
D03*
D46*
X405905Y9384D02*
D03*
X462165Y54580D02*
D03*
D47*
X460571Y10683D02*
D03*
D48*
Y46116D02*
D03*
D49*
X405512Y53990D02*
D03*
D50*
X452933Y56470D02*
D03*
X448602D02*
D03*
X444272D02*
D03*
X439941D02*
D03*
X435610D02*
D03*
X431280D02*
D03*
X426949D02*
D03*
X422618D02*
D03*
D51*
X566339Y103150D02*
D03*
X573819D02*
D03*
X570079Y93701D02*
D03*
X573819D02*
D03*
X566339D02*
D03*
D52*
X212125Y367323D02*
D03*
X182992D02*
D03*
X264960Y368110D02*
D03*
X235826D02*
D03*
D53*
X288583Y180413D02*
D03*
Y177854D02*
D03*
Y175295D02*
D03*
Y172736D02*
D03*
Y170177D02*
D03*
Y167618D02*
D03*
Y165059D02*
D03*
Y162499D02*
D03*
Y159941D02*
D03*
Y157381D02*
D03*
X266535D02*
D03*
Y159941D02*
D03*
Y162499D02*
D03*
Y165059D02*
D03*
Y167618D02*
D03*
Y170177D02*
D03*
Y172736D02*
D03*
Y175295D02*
D03*
Y177854D02*
D03*
Y180413D02*
D03*
D54*
X537205Y30028D02*
D03*
X525000Y30027D02*
D03*
X513583Y30028D02*
D03*
X501378Y30027D02*
D03*
X486417Y32390D02*
D03*
X474213Y32389D02*
D03*
X530708Y66642D02*
D03*
X518503Y66641D02*
D03*
X503542Y69004D02*
D03*
X491338Y69003D02*
D03*
X477952Y69004D02*
D03*
X465747Y69003D02*
D03*
D55*
X523622Y56352D02*
D03*
X527362Y47691D02*
D03*
X519882D02*
D03*
X498425Y58715D02*
D03*
X502165Y50053D02*
D03*
X494685D02*
D03*
X476772Y58715D02*
D03*
X480512Y50053D02*
D03*
X473032D02*
D03*
X519488Y93413D02*
D03*
X523228Y84752D02*
D03*
X515748D02*
D03*
X496260Y95775D02*
D03*
X500000Y87114D02*
D03*
X492520D02*
D03*
X474606Y95775D02*
D03*
X478346Y87114D02*
D03*
X470866D02*
D03*
X299213Y319291D02*
D03*
X302953Y310630D02*
D03*
X295472D02*
D03*
D56*
X735471Y123646D02*
D03*
X725471D02*
D03*
X715471D02*
D03*
X705471D02*
D03*
Y57662D02*
D03*
X715471D02*
D03*
X725471D02*
D03*
X735471D02*
D03*
X734684Y214197D02*
D03*
X724684D02*
D03*
X714684D02*
D03*
X704684D02*
D03*
Y148213D02*
D03*
X714684D02*
D03*
X724684D02*
D03*
X734684D02*
D03*
Y304748D02*
D03*
X724684D02*
D03*
X714684D02*
D03*
X704684D02*
D03*
Y238764D02*
D03*
X714684D02*
D03*
X724684D02*
D03*
X734684D02*
D03*
D57*
X242105Y307229D02*
D03*
X247105D02*
D03*
X252105D02*
D03*
X257105D02*
D03*
Y326629D02*
D03*
X252105D02*
D03*
X247105D02*
D03*
X242105D02*
D03*
X185610Y307229D02*
D03*
X190610D02*
D03*
X195610D02*
D03*
X200610D02*
D03*
Y326629D02*
D03*
X195610D02*
D03*
X190610D02*
D03*
X185610D02*
D03*
D58*
X258267Y342126D02*
D03*
X242519D02*
D03*
X199763Y341732D02*
D03*
X184015D02*
D03*
D59*
X222637Y316929D02*
D03*
Y305118D02*
D03*
X108268Y418287D02*
D03*
Y406476D02*
D03*
D60*
X109055Y378150D02*
D03*
Y389567D02*
D03*
D61*
X71358Y380551D02*
D03*
X93996D02*
D03*
Y385551D02*
D03*
Y390551D02*
D03*
Y395551D02*
D03*
X71358Y385551D02*
D03*
Y390551D02*
D03*
Y395551D02*
D03*
D62*
X82677Y388051D02*
D03*
D63*
X141732Y329971D02*
D03*
Y355069D02*
D03*
D64*
X55118Y380551D02*
D03*
X38582Y380552D02*
D03*
D65*
X53543Y326772D02*
D03*
X41732D02*
D03*
D66*
X51181Y400571D02*
D03*
Y416319D02*
D03*
D67*
X50784Y353150D02*
D03*
X50785Y347244D02*
D03*
D68*
X263386Y214567D02*
D03*
X269685Y214568D02*
D03*
X263386Y203067D02*
D03*
X269685Y203068D02*
D03*
D69*
X385000Y300472D02*
D03*
Y290472D02*
D03*
Y310472D02*
D03*
Y270472D02*
D03*
Y260472D02*
D03*
Y280472D02*
D03*
Y250472D02*
D03*
Y240472D02*
D03*
Y230472D02*
D03*
Y220472D02*
D03*
X375000D02*
D03*
X385000Y210472D02*
D03*
Y200472D02*
D03*
Y180472D02*
D03*
Y160472D02*
D03*
Y190472D02*
D03*
Y170472D02*
D03*
Y150472D02*
D03*
Y140472D02*
D03*
X375000Y310472D02*
D03*
Y300472D02*
D03*
Y280472D02*
D03*
Y270472D02*
D03*
Y290472D02*
D03*
Y260472D02*
D03*
Y250472D02*
D03*
Y230472D02*
D03*
Y210472D02*
D03*
Y240472D02*
D03*
Y190472D02*
D03*
Y180472D02*
D03*
Y200472D02*
D03*
Y170472D02*
D03*
Y160472D02*
D03*
Y150472D02*
D03*
Y140472D02*
D03*
Y130472D02*
D03*
X625000Y300472D02*
D03*
Y290472D02*
D03*
Y310472D02*
D03*
Y270472D02*
D03*
Y260472D02*
D03*
Y280472D02*
D03*
Y250472D02*
D03*
Y240472D02*
D03*
Y230472D02*
D03*
Y220472D02*
D03*
X615000D02*
D03*
X625000Y210472D02*
D03*
Y200472D02*
D03*
Y180472D02*
D03*
Y170472D02*
D03*
Y190472D02*
D03*
Y150472D02*
D03*
Y140472D02*
D03*
Y160472D02*
D03*
X615000Y310472D02*
D03*
Y300472D02*
D03*
Y280472D02*
D03*
Y270472D02*
D03*
Y290472D02*
D03*
Y260472D02*
D03*
Y250472D02*
D03*
Y240472D02*
D03*
Y230472D02*
D03*
Y210472D02*
D03*
Y190472D02*
D03*
Y180472D02*
D03*
Y200472D02*
D03*
Y170472D02*
D03*
Y150472D02*
D03*
Y160472D02*
D03*
Y140472D02*
D03*
Y130472D02*
D03*
X527559Y408189D02*
D03*
X537402D02*
D03*
X547244D02*
D03*
X557087D02*
D03*
X452756Y409449D02*
D03*
X462598D02*
D03*
X472441D02*
D03*
X482283D02*
D03*
X601178Y408189D02*
D03*
X611020D02*
D03*
X620863D02*
D03*
X630705D02*
D03*
X198819Y410157D02*
D03*
X188976D02*
D03*
X377953Y409332D02*
D03*
X387795D02*
D03*
X397638D02*
D03*
X407480D02*
D03*
X295276Y409449D02*
D03*
X305118D02*
D03*
X334646D02*
D03*
X324803D02*
D03*
X314961D02*
D03*
X246063Y410157D02*
D03*
X303661Y247209D02*
D03*
X293661Y237209D02*
D03*
Y247209D02*
D03*
X283661Y237209D02*
D03*
Y247209D02*
D03*
X273661Y237209D02*
D03*
Y247209D02*
D03*
X263661Y237209D02*
D03*
Y247209D02*
D03*
X253661Y237209D02*
D03*
Y247209D02*
D03*
X243661Y237209D02*
D03*
Y247209D02*
D03*
X233661Y237209D02*
D03*
Y247209D02*
D03*
X223661Y237209D02*
D03*
Y247209D02*
D03*
X213661Y237209D02*
D03*
Y247209D02*
D03*
X203661Y237209D02*
D03*
Y247209D02*
D03*
X193661Y237209D02*
D03*
Y247209D02*
D03*
X183661Y237209D02*
D03*
Y247209D02*
D03*
X173661Y237209D02*
D03*
Y247209D02*
D03*
X163661Y237209D02*
D03*
Y247209D02*
D03*
X153661Y237209D02*
D03*
Y247209D02*
D03*
X143661Y237209D02*
D03*
Y247209D02*
D03*
X133661Y237209D02*
D03*
Y247209D02*
D03*
X123661Y237209D02*
D03*
Y247209D02*
D03*
X113661Y237209D02*
D03*
Y247209D02*
D03*
D70*
X385000Y130472D02*
D03*
X625000D02*
D03*
X566929Y408189D02*
D03*
X492126Y409449D02*
D03*
X640548Y408189D02*
D03*
X208661Y410157D02*
D03*
X417323Y409332D02*
D03*
X344488Y409449D02*
D03*
X255906Y410157D02*
D03*
D71*
X465000Y320472D02*
D03*
X576500Y115472D02*
D03*
X405000Y120472D02*
D03*
D72*
X448602Y304748D02*
D03*
X478130Y267347D02*
D03*
X419075D02*
D03*
D73*
X573228Y400315D02*
D03*
X498425Y401575D02*
D03*
X646847Y400315D02*
D03*
X214961Y402283D02*
D03*
X423622Y401458D02*
D03*
X350787Y401575D02*
D03*
X262205Y402283D02*
D03*
D74*
X143661Y401575D02*
D03*
Y377953D02*
D03*
D75*
X125157Y389764D02*
D03*
D76*
X688976Y19685D02*
D03*
X728346Y413386D02*
D03*
X19685Y19685D02*
D03*
Y413386D02*
D03*
D77*
X303661Y237209D02*
D03*
D78*
X322835Y49295D02*
D03*
Y242209D02*
D03*
X94488Y49295D02*
D03*
Y242209D02*
D03*
D79*
X85433Y384114D02*
D03*
X80315D02*
D03*
X85433Y388051D02*
D03*
X80315D02*
D03*
X85433Y391988D02*
D03*
X80315D02*
D03*
M02*
