G04*
G04 #@! TF.GenerationSoftware,Altium Limited,Altium Designer,18.1.11 (251)*
G04*
G04 Layer_Color=16711935*
%FSLAX25Y25*%
%MOIN*%
G70*
G01*
G75*
%ADD11C,0.01000*%
%ADD58C,0.06706*%
%ADD59R,0.06706X0.06706*%
%ADD60C,0.20485*%
%ADD61R,0.00800X0.00800*%
%ADD62C,0.07099*%
%ADD63O,0.10642X0.08280*%
%ADD64O,0.08280X0.10642*%
%ADD65C,0.25800*%
%ADD66R,0.06706X0.06706*%
%ADD67C,0.15564*%
%ADD68C,0.03000*%
D11*
X0Y0D02*
X708661D01*
X0D02*
Y393701D01*
X708661D01*
X708661Y0D01*
D58*
X614607Y215984D02*
D03*
X624607D02*
D03*
X614607Y205984D02*
D03*
X624607D02*
D03*
X614607Y195984D02*
D03*
X624607D02*
D03*
X614607Y185984D02*
D03*
X624607D02*
D03*
X614607Y175984D02*
D03*
X624607D02*
D03*
X614607Y165984D02*
D03*
X624607D02*
D03*
X614607Y155984D02*
D03*
X624607D02*
D03*
X614607Y145984D02*
D03*
X624607D02*
D03*
X614607Y135984D02*
D03*
X624607D02*
D03*
X614607Y125984D02*
D03*
X624607D02*
D03*
X614607Y115984D02*
D03*
X624607D02*
D03*
X614607Y105984D02*
D03*
X624607D02*
D03*
X614607Y95984D02*
D03*
X624607D02*
D03*
X614607Y85984D02*
D03*
X624607D02*
D03*
X614607Y75984D02*
D03*
X624607D02*
D03*
X614607Y65984D02*
D03*
X624607D02*
D03*
X614607Y55984D02*
D03*
X624607D02*
D03*
X614607Y45984D02*
D03*
X624607D02*
D03*
X614607Y35984D02*
D03*
X374607Y215984D02*
D03*
X384607D02*
D03*
X374607Y205984D02*
D03*
X384607D02*
D03*
X374607Y195984D02*
D03*
X384607D02*
D03*
X374607Y185984D02*
D03*
X384607D02*
D03*
X374607Y175984D02*
D03*
X384607D02*
D03*
X374607Y165984D02*
D03*
X384607D02*
D03*
X374607Y155984D02*
D03*
X384607D02*
D03*
X374607Y145984D02*
D03*
X384607D02*
D03*
X374607Y135984D02*
D03*
X384607D02*
D03*
X374607Y125984D02*
D03*
X384607D02*
D03*
X374607Y115984D02*
D03*
X384607D02*
D03*
X374607Y105984D02*
D03*
X384607D02*
D03*
X374607Y95984D02*
D03*
X384607D02*
D03*
X374607Y85984D02*
D03*
X384607D02*
D03*
X374607Y75984D02*
D03*
X384607D02*
D03*
X374607Y65984D02*
D03*
X384607D02*
D03*
X374607Y55984D02*
D03*
X384607D02*
D03*
X374607Y45984D02*
D03*
X384607D02*
D03*
X374607Y35984D02*
D03*
X624607Y215984D02*
D03*
X614607Y205984D02*
D03*
X624607D02*
D03*
X614607Y195984D02*
D03*
X624607D02*
D03*
X614607Y185984D02*
D03*
X624607D02*
D03*
X614607Y175984D02*
D03*
X624607D02*
D03*
X614607Y165984D02*
D03*
X624607D02*
D03*
X614607Y155984D02*
D03*
X624607D02*
D03*
X614607Y145984D02*
D03*
X624607D02*
D03*
X614607Y135984D02*
D03*
X624607D02*
D03*
X614607Y125984D02*
D03*
X624607D02*
D03*
X614607Y115984D02*
D03*
X624607D02*
D03*
X614607Y105984D02*
D03*
X624607D02*
D03*
X614607Y95984D02*
D03*
X624607D02*
D03*
X614607Y85984D02*
D03*
X624607D02*
D03*
X614607Y75984D02*
D03*
X624607D02*
D03*
X614607Y65984D02*
D03*
X624607D02*
D03*
X614607Y55984D02*
D03*
X624607D02*
D03*
X614607Y45984D02*
D03*
X624607D02*
D03*
X614607Y35984D02*
D03*
X624607D02*
D03*
X384607D02*
D03*
X374607D02*
D03*
X384607Y45984D02*
D03*
X374607D02*
D03*
X384607Y55984D02*
D03*
X374607D02*
D03*
X384607Y65984D02*
D03*
X374607D02*
D03*
X384607Y75984D02*
D03*
X374607D02*
D03*
X384607Y85984D02*
D03*
X374607D02*
D03*
X384607Y95984D02*
D03*
X374607D02*
D03*
X384607Y105984D02*
D03*
X374607D02*
D03*
X384607Y115984D02*
D03*
X374607D02*
D03*
X384607Y125984D02*
D03*
X374607D02*
D03*
X384607Y135984D02*
D03*
X374607D02*
D03*
X384607Y145984D02*
D03*
X374607D02*
D03*
X384607Y155984D02*
D03*
X374607D02*
D03*
X384607Y165984D02*
D03*
X374607D02*
D03*
X384607Y175984D02*
D03*
X374607D02*
D03*
X384607Y185984D02*
D03*
X374607D02*
D03*
X384607Y195984D02*
D03*
X374607D02*
D03*
X384607Y205984D02*
D03*
X374607D02*
D03*
X384607Y215984D02*
D03*
X527559Y368819D02*
D03*
X537402D02*
D03*
X547244D02*
D03*
X557087D02*
D03*
X452756Y370079D02*
D03*
X462598D02*
D03*
X472441D02*
D03*
X482283D02*
D03*
X601178Y368819D02*
D03*
X611020D02*
D03*
X620863D02*
D03*
X630705D02*
D03*
X198819Y370787D02*
D03*
X188976D02*
D03*
X377953Y369962D02*
D03*
X387795D02*
D03*
X397638D02*
D03*
X407480D02*
D03*
X295276Y370079D02*
D03*
X305118D02*
D03*
X334646D02*
D03*
X324803D02*
D03*
X314961D02*
D03*
X246063Y370787D02*
D03*
X303661Y247209D02*
D03*
X293661Y237209D02*
D03*
Y247209D02*
D03*
X283661Y237209D02*
D03*
Y247209D02*
D03*
X273661Y237209D02*
D03*
Y247209D02*
D03*
X263661Y237209D02*
D03*
Y247209D02*
D03*
X253661Y237209D02*
D03*
Y247209D02*
D03*
X243661Y237209D02*
D03*
Y247209D02*
D03*
X233661Y237209D02*
D03*
Y247209D02*
D03*
X223661Y237209D02*
D03*
Y247209D02*
D03*
X213661Y237209D02*
D03*
Y247209D02*
D03*
X203661Y237209D02*
D03*
Y247209D02*
D03*
X193661Y237209D02*
D03*
Y247209D02*
D03*
X183661Y237209D02*
D03*
Y247209D02*
D03*
X173661Y237209D02*
D03*
Y247209D02*
D03*
X163661Y237209D02*
D03*
Y247209D02*
D03*
X153661Y237209D02*
D03*
Y247209D02*
D03*
X143661Y237209D02*
D03*
Y247209D02*
D03*
X133661Y237209D02*
D03*
Y247209D02*
D03*
X123661Y237209D02*
D03*
Y247209D02*
D03*
X113661Y237209D02*
D03*
Y247209D02*
D03*
D59*
X624607Y35984D02*
D03*
X384607D02*
D03*
X614607Y215984D02*
D03*
X374607D02*
D03*
X566929Y368819D02*
D03*
X492126Y370079D02*
D03*
X640548Y368819D02*
D03*
X208661Y370787D02*
D03*
X417323Y369962D02*
D03*
X344488Y370079D02*
D03*
X255906Y370787D02*
D03*
D60*
X534607Y25984D02*
D03*
X423107Y230984D02*
D03*
X594607Y225984D02*
D03*
D61*
X573228Y360945D02*
D03*
X498425Y362205D02*
D03*
X646847Y360945D02*
D03*
X214961Y362913D02*
D03*
X423622Y362088D02*
D03*
X350787Y362205D02*
D03*
X262205Y362913D02*
D03*
D62*
X387795Y303150D02*
D03*
X328740D02*
D03*
X358268Y340551D02*
D03*
D63*
X143661Y362205D02*
D03*
Y338583D02*
D03*
D64*
X125157Y350394D02*
D03*
D65*
X688976Y19685D02*
D03*
Y374016D02*
D03*
X19685Y19685D02*
D03*
Y374016D02*
D03*
D66*
X303661Y237209D02*
D03*
D67*
X322835Y49295D02*
D03*
Y242209D02*
D03*
X94488Y49295D02*
D03*
Y242209D02*
D03*
D68*
X85433Y344744D02*
D03*
X80315D02*
D03*
X85433Y348681D02*
D03*
X80315D02*
D03*
X85433Y352618D02*
D03*
X80315D02*
D03*
M02*
